solid OpenSCAD_Model
  facet normal 0 0 -1
    outer loop
      vertex 30 -10 0
      vertex 21.5 0 0
      vertex 30 10 0
    endloop
  endfacet
  facet normal 0 0 -1
    outer loop
      vertex 30 -10 0
      vertex 21.4882 -0.188 0
      vertex 21.5 0 0
    endloop
  endfacet
  facet normal 0 0 -1
    outer loop
      vertex 30 -10 0
      vertex 21.4529 -0.373034 0
      vertex 21.4882 -0.188 0
    endloop
  endfacet
  facet normal 0 0 -1
    outer loop
      vertex 30 -10 0
      vertex 21.3947 -0.552186 0
      vertex 21.4529 -0.373034 0
    endloop
  endfacet
  facet normal 0 0 -1
    outer loop
      vertex 30 -10 0
      vertex 21.3145 -0.722631 0
      vertex 21.3947 -0.552186 0
    endloop
  endfacet
  facet normal 0 0 -1
    outer loop
      vertex 30 -10 0
      vertex 21.2135 -0.881678 0
      vertex 21.3145 -0.722631 0
    endloop
  endfacet
  facet normal 0 0 -1
    outer loop
      vertex 30 -10 0
      vertex 21.0935 -1.02682 0
      vertex 21.2135 -0.881678 0
    endloop
  endfacet
  facet normal 0 0 -1
    outer loop
      vertex 30 -10 0
      vertex 20.9561 -1.15577 0
      vertex 21.0935 -1.02682 0
    endloop
  endfacet
  facet normal 0 0 -1
    outer loop
      vertex 30 -10 0
      vertex 20.8037 -1.26649 0
      vertex 20.9561 -1.15577 0
    endloop
  endfacet
  facet normal 0 0 -1
    outer loop
      vertex 30 -10 0
      vertex 20.6387 -1.35724 0
      vertex 20.8037 -1.26649 0
    endloop
  endfacet
  facet normal 0 0 -1
    outer loop
      vertex 30 -10 0
      vertex 20.4635 -1.42658 0
      vertex 20.6387 -1.35724 0
    endloop
  endfacet
  facet normal 0 0 -1
    outer loop
      vertex 30 -10 0
      vertex 20.2811 -1.47343 0
      vertex 20.4635 -1.42658 0
    endloop
  endfacet
  facet normal 0 0 -1
    outer loop
      vertex 30 -10 0
      vertex 20.0942 -1.49704 0
      vertex 20.2811 -1.47343 0
    endloop
  endfacet
  facet normal 0 0 -1
    outer loop
      vertex 30 -10 0
      vertex 19.9058 -1.49704 0
      vertex 20.0942 -1.49704 0
    endloop
  endfacet
  facet normal 0 0 -1
    outer loop
      vertex 30 -10 0
      vertex 19.7189 -1.47343 0
      vertex 19.9058 -1.49704 0
    endloop
  endfacet
  facet normal 0 0 -1
    outer loop
      vertex 30 -10 0
      vertex 19.5365 -1.42658 0
      vertex 19.7189 -1.47343 0
    endloop
  endfacet
  facet normal 0 0 -1
    outer loop
      vertex 30 -10 0
      vertex 19.3613 -1.35724 0
      vertex 19.5365 -1.42658 0
    endloop
  endfacet
  facet normal 0 0 -1
    outer loop
      vertex 0.638668 -1.35724 0
      vertex 19.3613 -1.35724 0
      vertex 30 -10 0
    endloop
  endfacet
  facet normal 0 0 -1
    outer loop
      vertex 19.3613 -1.35724 0
      vertex 0.638668 -1.35724 0
      vertex 19.1963 -1.26649 0
    endloop
  endfacet
  facet normal 0 0 -1
    outer loop
      vertex 18.5118 -0.188 0
      vertex 1.5 0 0
      vertex 18.5 0 0
    endloop
  endfacet
  facet normal 0 0 -1
    outer loop
      vertex 1.48817 -0.188 0
      vertex 18.5118 -0.188 0
      vertex 18.5471 -0.373034 0
    endloop
  endfacet
  facet normal 0 0 -1
    outer loop
      vertex 1.45287 -0.373034 0
      vertex 18.5471 -0.373034 0
      vertex 18.6053 -0.552186 0
    endloop
  endfacet
  facet normal 0 0 -1
    outer loop
      vertex 1.39466 -0.552186 0
      vertex 18.6053 -0.552186 0
      vertex 18.6855 -0.722631 0
    endloop
  endfacet
  facet normal 0 0 -1
    outer loop
      vertex 1.31446 -0.722631 0
      vertex 18.6855 -0.722631 0
      vertex 18.7865 -0.881678 0
    endloop
  endfacet
  facet normal 0 0 -1
    outer loop
      vertex 1.21352 -0.881678 0
      vertex 18.7865 -0.881678 0
      vertex 18.9065 -1.02682 0
    endloop
  endfacet
  facet normal 0 0 -1
    outer loop
      vertex 1.09345 -1.02682 0
      vertex 18.9065 -1.02682 0
      vertex 19.0439 -1.15577 0
    endloop
  endfacet
  facet normal 0 -0 -1
    outer loop
      vertex 0.80374 -1.26649 0
      vertex 19.1963 -1.26649 0
      vertex 0.638668 -1.35724 0
    endloop
  endfacet
  facet normal 0 0 -1
    outer loop
      vertex 18.5118 -0.188 0
      vertex 1.48817 -0.188 0
      vertex 1.5 0 0
    endloop
  endfacet
  facet normal 0 0 -1
    outer loop
      vertex 18.5471 -0.373034 0
      vertex 1.45287 -0.373034 0
      vertex 1.48817 -0.188 0
    endloop
  endfacet
  facet normal 0 0 -1
    outer loop
      vertex 18.6053 -0.552186 0
      vertex 1.39466 -0.552186 0
      vertex 1.45287 -0.373034 0
    endloop
  endfacet
  facet normal 0 0 -1
    outer loop
      vertex 18.6855 -0.722631 0
      vertex 1.31446 -0.722631 0
      vertex 1.39466 -0.552186 0
    endloop
  endfacet
  facet normal 0 0 -1
    outer loop
      vertex 18.7865 -0.881678 0
      vertex 1.21352 -0.881678 0
      vertex 1.31446 -0.722631 0
    endloop
  endfacet
  facet normal 0 0 -1
    outer loop
      vertex 18.9065 -1.02682 0
      vertex 1.09345 -1.02682 0
      vertex 1.21352 -0.881678 0
    endloop
  endfacet
  facet normal 0 0 -1
    outer loop
      vertex 19.0439 -1.15577 0
      vertex 0.956136 -1.15577 0
      vertex 1.09345 -1.02682 0
    endloop
  endfacet
  facet normal -0 0 -1
    outer loop
      vertex 19.0439 -1.15577 0
      vertex 0.80374 -1.26649 0
      vertex 0.956136 -1.15577 0
    endloop
  endfacet
  facet normal 0 0 -1
    outer loop
      vertex 19.1963 -1.26649 0
      vertex 0.80374 -1.26649 0
      vertex 19.0439 -1.15577 0
    endloop
  endfacet
  facet normal 0 0 -1
    outer loop
      vertex 30 -10 0
      vertex 0.463525 -1.42658 0
      vertex 0.638668 -1.35724 0
    endloop
  endfacet
  facet normal 0 0 -1
    outer loop
      vertex 30 -10 0
      vertex 0.281072 -1.47343 0
      vertex 0.463525 -1.42658 0
    endloop
  endfacet
  facet normal 0 0 -1
    outer loop
      vertex 30 -10 0
      vertex 0.0941849 -1.49704 0
      vertex 0.281072 -1.47343 0
    endloop
  endfacet
  facet normal 0 0 -1
    outer loop
      vertex 30 -10 0
      vertex -0.0941849 -1.49704 0
      vertex 0.0941849 -1.49704 0
    endloop
  endfacet
  facet normal 0 0 -1
    outer loop
      vertex -30 -10 0
      vertex -0.0941849 -1.49704 0
      vertex 30 -10 0
    endloop
  endfacet
  facet normal -0 0 -1
    outer loop
      vertex -0.0941849 -1.49704 0
      vertex -30 -10 0
      vertex -0.281072 -1.47343 0
    endloop
  endfacet
  facet normal 0 0 -1
    outer loop
      vertex -1.48817 -0.188 0
      vertex -18.5 0 0
      vertex -1.5 0 0
    endloop
  endfacet
  facet normal 0 0 -1
    outer loop
      vertex -18.5118 -0.188 0
      vertex -1.48817 -0.188 0
      vertex -1.45287 -0.373034 0
    endloop
  endfacet
  facet normal 0 0 -1
    outer loop
      vertex -18.5471 -0.373034 0
      vertex -1.45287 -0.373034 0
      vertex -1.39466 -0.552186 0
    endloop
  endfacet
  facet normal 0 0 -1
    outer loop
      vertex -18.6053 -0.552186 0
      vertex -1.39466 -0.552186 0
      vertex -1.31446 -0.722631 0
    endloop
  endfacet
  facet normal 0 0 -1
    outer loop
      vertex -18.6855 -0.722631 0
      vertex -1.31446 -0.722631 0
      vertex -1.21352 -0.881678 0
    endloop
  endfacet
  facet normal 0 0 -1
    outer loop
      vertex -18.7865 -0.881678 0
      vertex -1.21352 -0.881678 0
      vertex -1.09345 -1.02682 0
    endloop
  endfacet
  facet normal 0 0 -1
    outer loop
      vertex -18.9065 -1.02682 0
      vertex -1.09345 -1.02682 0
      vertex -0.956136 -1.15577 0
    endloop
  endfacet
  facet normal 0 0 -1
    outer loop
      vertex -19.0439 -1.15577 0
      vertex -0.956136 -1.15577 0
      vertex -0.80374 -1.26649 0
    endloop
  endfacet
  facet normal 0 0 -1
    outer loop
      vertex -19.1963 -1.26649 0
      vertex -0.80374 -1.26649 0
      vertex -0.638668 -1.35724 0
    endloop
  endfacet
  facet normal 0 0 -1
    outer loop
      vertex -30 -10 0
      vertex -0.638668 -1.35724 0
      vertex -0.463525 -1.42658 0
    endloop
  endfacet
  facet normal -0 0 -1
    outer loop
      vertex -0.281072 -1.47343 0
      vertex -30 -10 0
      vertex -0.463525 -1.42658 0
    endloop
  endfacet
  facet normal 0 0 -1
    outer loop
      vertex -1.48817 -0.188 0
      vertex -18.5118 -0.188 0
      vertex -18.5 0 0
    endloop
  endfacet
  facet normal 0 0 -1
    outer loop
      vertex -1.45287 -0.373034 0
      vertex -18.5471 -0.373034 0
      vertex -18.5118 -0.188 0
    endloop
  endfacet
  facet normal 0 0 -1
    outer loop
      vertex -1.39466 -0.552186 0
      vertex -18.6053 -0.552186 0
      vertex -18.5471 -0.373034 0
    endloop
  endfacet
  facet normal 0 0 -1
    outer loop
      vertex -1.31446 -0.722631 0
      vertex -18.6855 -0.722631 0
      vertex -18.6053 -0.552186 0
    endloop
  endfacet
  facet normal 0 0 -1
    outer loop
      vertex -1.21352 -0.881678 0
      vertex -18.7865 -0.881678 0
      vertex -18.6855 -0.722631 0
    endloop
  endfacet
  facet normal 0 0 -1
    outer loop
      vertex -1.09345 -1.02682 0
      vertex -18.9065 -1.02682 0
      vertex -18.7865 -0.881678 0
    endloop
  endfacet
  facet normal 0 0 -1
    outer loop
      vertex -0.956136 -1.15577 0
      vertex -19.0439 -1.15577 0
      vertex -18.9065 -1.02682 0
    endloop
  endfacet
  facet normal 0 0 -1
    outer loop
      vertex -0.80374 -1.26649 0
      vertex -19.1963 -1.26649 0
      vertex -19.0439 -1.15577 0
    endloop
  endfacet
  facet normal 0 0 -1
    outer loop
      vertex -0.638668 -1.35724 0
      vertex -19.3613 -1.35724 0
      vertex -19.1963 -1.26649 0
    endloop
  endfacet
  facet normal -0 0 -1
    outer loop
      vertex -0.638668 -1.35724 0
      vertex -30 -10 0
      vertex -19.3613 -1.35724 0
    endloop
  endfacet
  facet normal 0 0 -1
    outer loop
      vertex -19.3613 -1.35724 0
      vertex -30 -10 0
      vertex -19.5365 -1.42658 0
    endloop
  endfacet
  facet normal 0 0 -1
    outer loop
      vertex -19.5365 -1.42658 0
      vertex -30 -10 0
      vertex -19.7189 -1.47343 0
    endloop
  endfacet
  facet normal 0 0 -1
    outer loop
      vertex -19.7189 -1.47343 0
      vertex -30 -10 0
      vertex -19.9058 -1.49704 0
    endloop
  endfacet
  facet normal -0 0 -1
    outer loop
      vertex -19.9058 -1.49704 0
      vertex -30 -10 0
      vertex -20.0942 -1.49704 0
    endloop
  endfacet
  facet normal -0 0 -1
    outer loop
      vertex -21.4882 -0.188 0
      vertex -30 -10 0
      vertex -21.5 0 0
    endloop
  endfacet
  facet normal -0 0 -1
    outer loop
      vertex -21.4529 -0.373034 0
      vertex -30 -10 0
      vertex -21.4882 -0.188 0
    endloop
  endfacet
  facet normal -0 0 -1
    outer loop
      vertex -21.3947 -0.552186 0
      vertex -30 -10 0
      vertex -21.4529 -0.373034 0
    endloop
  endfacet
  facet normal -0 0 -1
    outer loop
      vertex -21.3145 -0.722631 0
      vertex -30 -10 0
      vertex -21.3947 -0.552186 0
    endloop
  endfacet
  facet normal -0 0 -1
    outer loop
      vertex -21.2135 -0.881678 0
      vertex -30 -10 0
      vertex -21.3145 -0.722631 0
    endloop
  endfacet
  facet normal -0 0 -1
    outer loop
      vertex -21.0935 -1.02682 0
      vertex -30 -10 0
      vertex -21.2135 -0.881678 0
    endloop
  endfacet
  facet normal -0 0 -1
    outer loop
      vertex -20.9561 -1.15577 0
      vertex -30 -10 0
      vertex -21.0935 -1.02682 0
    endloop
  endfacet
  facet normal -0 0 -1
    outer loop
      vertex -20.8037 -1.26649 0
      vertex -30 -10 0
      vertex -20.9561 -1.15577 0
    endloop
  endfacet
  facet normal -0 0 -1
    outer loop
      vertex -20.6387 -1.35724 0
      vertex -30 -10 0
      vertex -20.8037 -1.26649 0
    endloop
  endfacet
  facet normal -0 0 -1
    outer loop
      vertex -20.4635 -1.42658 0
      vertex -30 -10 0
      vertex -20.6387 -1.35724 0
    endloop
  endfacet
  facet normal -0 0 -1
    outer loop
      vertex -20.2811 -1.47343 0
      vertex -30 -10 0
      vertex -20.4635 -1.42658 0
    endloop
  endfacet
  facet normal -0 0 -1
    outer loop
      vertex -20.0942 -1.49704 0
      vertex -30 -10 0
      vertex -20.2811 -1.47343 0
    endloop
  endfacet
  facet normal 0 0 -1
    outer loop
      vertex 21.4882 0.188 0
      vertex 30 10 0
      vertex 21.5 0 0
    endloop
  endfacet
  facet normal 0 0 -1
    outer loop
      vertex 21.4529 0.373034 0
      vertex 30 10 0
      vertex 21.4882 0.188 0
    endloop
  endfacet
  facet normal 0 0 -1
    outer loop
      vertex 21.3947 0.552186 0
      vertex 30 10 0
      vertex 21.4529 0.373034 0
    endloop
  endfacet
  facet normal 0 0 -1
    outer loop
      vertex 21.3145 0.722631 0
      vertex 30 10 0
      vertex 21.3947 0.552186 0
    endloop
  endfacet
  facet normal 0 0 -1
    outer loop
      vertex 21.2135 0.881678 0
      vertex 30 10 0
      vertex 21.3145 0.722631 0
    endloop
  endfacet
  facet normal 0 0 -1
    outer loop
      vertex 21.0935 1.02682 0
      vertex 30 10 0
      vertex 21.2135 0.881678 0
    endloop
  endfacet
  facet normal 0 0 -1
    outer loop
      vertex 20.9561 1.15577 0
      vertex 30 10 0
      vertex 21.0935 1.02682 0
    endloop
  endfacet
  facet normal 0 0 -1
    outer loop
      vertex 20.8037 1.26649 0
      vertex 30 10 0
      vertex 20.9561 1.15577 0
    endloop
  endfacet
  facet normal 0 0 -1
    outer loop
      vertex 20.6387 1.35724 0
      vertex 30 10 0
      vertex 20.8037 1.26649 0
    endloop
  endfacet
  facet normal 0 0 -1
    outer loop
      vertex 20.4635 1.42658 0
      vertex 30 10 0
      vertex 20.6387 1.35724 0
    endloop
  endfacet
  facet normal 0 0 -1
    outer loop
      vertex 20.2811 1.47343 0
      vertex 30 10 0
      vertex 20.4635 1.42658 0
    endloop
  endfacet
  facet normal 0 0 -1
    outer loop
      vertex 20.0942 1.49704 0
      vertex 30 10 0
      vertex 20.2811 1.47343 0
    endloop
  endfacet
  facet normal 0 0 -1
    outer loop
      vertex 19.9058 1.49704 0
      vertex 30 10 0
      vertex 20.0942 1.49704 0
    endloop
  endfacet
  facet normal 0 0 -1
    outer loop
      vertex 19.7189 1.47343 0
      vertex 30 10 0
      vertex 19.9058 1.49704 0
    endloop
  endfacet
  facet normal 0 0 -1
    outer loop
      vertex 19.5365 1.42658 0
      vertex 30 10 0
      vertex 19.7189 1.47343 0
    endloop
  endfacet
  facet normal 0 0 -1
    outer loop
      vertex 19.3613 1.35724 0
      vertex 30 10 0
      vertex 19.5365 1.42658 0
    endloop
  endfacet
  facet normal 0 0 -1
    outer loop
      vertex 0.638668 1.35724 0
      vertex 19.3613 1.35724 0
      vertex 19.1963 1.26649 0
    endloop
  endfacet
  facet normal 0 0 -1
    outer loop
      vertex 0.80374 1.26649 0
      vertex 19.1963 1.26649 0
      vertex 19.0439 1.15577 0
    endloop
  endfacet
  facet normal 0 0 -1
    outer loop
      vertex 1.5 0 0
      vertex 18.5118 0.188 0
      vertex 18.5 0 0
    endloop
  endfacet
  facet normal 0 0 -1
    outer loop
      vertex 1.48817 0.188 0
      vertex 18.5118 0.188 0
      vertex 1.5 0 0
    endloop
  endfacet
  facet normal 0 0 -1
    outer loop
      vertex 18.5118 0.188 0
      vertex 1.48817 0.188 0
      vertex 18.5471 0.373034 0
    endloop
  endfacet
  facet normal 0 0 -1
    outer loop
      vertex 1.45287 0.373034 0
      vertex 18.5471 0.373034 0
      vertex 1.48817 0.188 0
    endloop
  endfacet
  facet normal 0 0 -1
    outer loop
      vertex 18.5471 0.373034 0
      vertex 1.45287 0.373034 0
      vertex 18.6053 0.552186 0
    endloop
  endfacet
  facet normal 0 0 -1
    outer loop
      vertex 1.39466 0.552186 0
      vertex 18.6053 0.552186 0
      vertex 1.45287 0.373034 0
    endloop
  endfacet
  facet normal 0 0 -1
    outer loop
      vertex 18.6053 0.552186 0
      vertex 1.39466 0.552186 0
      vertex 18.6855 0.722631 0
    endloop
  endfacet
  facet normal 0 0 -1
    outer loop
      vertex 1.31446 0.722631 0
      vertex 18.6855 0.722631 0
      vertex 1.39466 0.552186 0
    endloop
  endfacet
  facet normal 0 0 -1
    outer loop
      vertex 18.6855 0.722631 0
      vertex 1.31446 0.722631 0
      vertex 18.7865 0.881678 0
    endloop
  endfacet
  facet normal 0 0 -1
    outer loop
      vertex 1.21352 0.881678 0
      vertex 18.7865 0.881678 0
      vertex 1.31446 0.722631 0
    endloop
  endfacet
  facet normal 0 0 -1
    outer loop
      vertex 18.7865 0.881678 0
      vertex 1.21352 0.881678 0
      vertex 18.9065 1.02682 0
    endloop
  endfacet
  facet normal 0 0 -1
    outer loop
      vertex 1.09345 1.02682 0
      vertex 18.9065 1.02682 0
      vertex 1.21352 0.881678 0
    endloop
  endfacet
  facet normal 0 0 -1
    outer loop
      vertex 18.9065 1.02682 0
      vertex 1.09345 1.02682 0
      vertex 19.0439 1.15577 0
    endloop
  endfacet
  facet normal 0 0 -1
    outer loop
      vertex 0.956136 1.15577 0
      vertex 19.0439 1.15577 0
      vertex 1.09345 1.02682 0
    endloop
  endfacet
  facet normal 0 0 -1
    outer loop
      vertex 0.80374 1.26649 0
      vertex 19.0439 1.15577 0
      vertex 0.956136 1.15577 0
    endloop
  endfacet
  facet normal 0 0 -1
    outer loop
      vertex 19.1963 1.26649 0
      vertex 0.80374 1.26649 0
      vertex 0.638668 1.35724 0
    endloop
  endfacet
  facet normal 0 0 -1
    outer loop
      vertex 19.3613 1.35724 0
      vertex 0.638668 1.35724 0
      vertex 30 10 0
    endloop
  endfacet
  facet normal 0 0 -1
    outer loop
      vertex 0.463525 1.42658 0
      vertex 30 10 0
      vertex 0.638668 1.35724 0
    endloop
  endfacet
  facet normal 0 0 -1
    outer loop
      vertex 0.281072 1.47343 0
      vertex 30 10 0
      vertex 0.463525 1.42658 0
    endloop
  endfacet
  facet normal 0 0 -1
    outer loop
      vertex 0.0941849 1.49704 0
      vertex 30 10 0
      vertex 0.281072 1.47343 0
    endloop
  endfacet
  facet normal 0 0 -1
    outer loop
      vertex -0.0941849 1.49704 0
      vertex 30 10 0
      vertex 0.0941849 1.49704 0
    endloop
  endfacet
  facet normal 0 0 -1
    outer loop
      vertex -30 10 0
      vertex -0.0941849 1.49704 0
      vertex -0.281072 1.47343 0
    endloop
  endfacet
  facet normal 0 0 -1
    outer loop
      vertex -30 10 0
      vertex -0.281072 1.47343 0
      vertex -0.463525 1.42658 0
    endloop
  endfacet
  facet normal 0 0 -1
    outer loop
      vertex -18.5 0 0
      vertex -1.48817 0.188 0
      vertex -1.5 0 0
    endloop
  endfacet
  facet normal 0 0 -1
    outer loop
      vertex -18.5118 0.188 0
      vertex -1.48817 0.188 0
      vertex -18.5 0 0
    endloop
  endfacet
  facet normal 0 0 -1
    outer loop
      vertex -1.48817 0.188 0
      vertex -18.5118 0.188 0
      vertex -1.45287 0.373034 0
    endloop
  endfacet
  facet normal 0 0 -1
    outer loop
      vertex -18.5471 0.373034 0
      vertex -1.45287 0.373034 0
      vertex -18.5118 0.188 0
    endloop
  endfacet
  facet normal 0 0 -1
    outer loop
      vertex -1.45287 0.373034 0
      vertex -18.5471 0.373034 0
      vertex -1.39466 0.552186 0
    endloop
  endfacet
  facet normal 0 0 -1
    outer loop
      vertex -18.6053 0.552186 0
      vertex -1.39466 0.552186 0
      vertex -18.5471 0.373034 0
    endloop
  endfacet
  facet normal 0 0 -1
    outer loop
      vertex -1.39466 0.552186 0
      vertex -18.6053 0.552186 0
      vertex -1.31446 0.722631 0
    endloop
  endfacet
  facet normal 0 0 -1
    outer loop
      vertex -18.6855 0.722631 0
      vertex -1.31446 0.722631 0
      vertex -18.6053 0.552186 0
    endloop
  endfacet
  facet normal 0 0 -1
    outer loop
      vertex -1.31446 0.722631 0
      vertex -18.6855 0.722631 0
      vertex -1.21352 0.881678 0
    endloop
  endfacet
  facet normal 0 0 -1
    outer loop
      vertex -18.7865 0.881678 0
      vertex -1.21352 0.881678 0
      vertex -18.6855 0.722631 0
    endloop
  endfacet
  facet normal 0 0 -1
    outer loop
      vertex -1.21352 0.881678 0
      vertex -18.7865 0.881678 0
      vertex -1.09345 1.02682 0
    endloop
  endfacet
  facet normal 0 0 -1
    outer loop
      vertex -18.9065 1.02682 0
      vertex -1.09345 1.02682 0
      vertex -18.7865 0.881678 0
    endloop
  endfacet
  facet normal 0 0 -1
    outer loop
      vertex -1.09345 1.02682 0
      vertex -18.9065 1.02682 0
      vertex -0.956136 1.15577 0
    endloop
  endfacet
  facet normal 0 0 -1
    outer loop
      vertex -19.0439 1.15577 0
      vertex -0.956136 1.15577 0
      vertex -18.9065 1.02682 0
    endloop
  endfacet
  facet normal 0 0 -1
    outer loop
      vertex -0.956136 1.15577 0
      vertex -19.0439 1.15577 0
      vertex -0.80374 1.26649 0
    endloop
  endfacet
  facet normal 0 0 -1
    outer loop
      vertex -19.1963 1.26649 0
      vertex -0.80374 1.26649 0
      vertex -19.0439 1.15577 0
    endloop
  endfacet
  facet normal 0 0 -1
    outer loop
      vertex -0.80374 1.26649 0
      vertex -19.1963 1.26649 0
      vertex -0.638668 1.35724 0
    endloop
  endfacet
  facet normal 0 0 -1
    outer loop
      vertex -19.3613 1.35724 0
      vertex -0.638668 1.35724 0
      vertex -19.1963 1.26649 0
    endloop
  endfacet
  facet normal 0 0 -1
    outer loop
      vertex -30 10 0
      vertex -0.638668 1.35724 0
      vertex -19.3613 1.35724 0
    endloop
  endfacet
  facet normal 0 0 -1
    outer loop
      vertex -0.638668 1.35724 0
      vertex -30 10 0
      vertex -0.463525 1.42658 0
    endloop
  endfacet
  facet normal 0 0 -1
    outer loop
      vertex -30 10 0
      vertex -19.3613 1.35724 0
      vertex -19.5365 1.42658 0
    endloop
  endfacet
  facet normal 0 0 -1
    outer loop
      vertex -30 10 0
      vertex -19.5365 1.42658 0
      vertex -19.7189 1.47343 0
    endloop
  endfacet
  facet normal 0 0 -1
    outer loop
      vertex -30 10 0
      vertex -19.7189 1.47343 0
      vertex -19.9058 1.49704 0
    endloop
  endfacet
  facet normal 0 0 -1
    outer loop
      vertex -30 10 0
      vertex -19.9058 1.49704 0
      vertex -20.0942 1.49704 0
    endloop
  endfacet
  facet normal 0 0 -1
    outer loop
      vertex -30 10 0
      vertex -20.0942 1.49704 0
      vertex -20.2811 1.47343 0
    endloop
  endfacet
  facet normal 0 0 -1
    outer loop
      vertex -30 10 0
      vertex -21.5 0 0
      vertex -30 -10 0
    endloop
  endfacet
  facet normal 0 0 -1
    outer loop
      vertex -21.5 0 0
      vertex -30 10 0
      vertex -21.4882 0.188 0
    endloop
  endfacet
  facet normal 0 0 -1
    outer loop
      vertex -21.4882 0.188 0
      vertex -30 10 0
      vertex -21.4529 0.373034 0
    endloop
  endfacet
  facet normal 0 0 -1
    outer loop
      vertex -21.4529 0.373034 0
      vertex -30 10 0
      vertex -21.3947 0.552186 0
    endloop
  endfacet
  facet normal 0 0 -1
    outer loop
      vertex -21.3947 0.552186 0
      vertex -30 10 0
      vertex -21.3145 0.722631 0
    endloop
  endfacet
  facet normal 0 0 -1
    outer loop
      vertex -0.0941849 1.49704 0
      vertex -30 10 0
      vertex 30 10 0
    endloop
  endfacet
  facet normal 0 0 -1
    outer loop
      vertex -20.4635 1.42658 0
      vertex -30 10 0
      vertex -20.2811 1.47343 0
    endloop
  endfacet
  facet normal 0 0 -1
    outer loop
      vertex -20.6387 1.35724 0
      vertex -30 10 0
      vertex -20.4635 1.42658 0
    endloop
  endfacet
  facet normal 0 0 -1
    outer loop
      vertex -20.8037 1.26649 0
      vertex -30 10 0
      vertex -20.6387 1.35724 0
    endloop
  endfacet
  facet normal 0 0 -1
    outer loop
      vertex -20.9561 1.15577 0
      vertex -30 10 0
      vertex -20.8037 1.26649 0
    endloop
  endfacet
  facet normal 0 0 -1
    outer loop
      vertex -21.0935 1.02682 0
      vertex -30 10 0
      vertex -20.9561 1.15577 0
    endloop
  endfacet
  facet normal 0 0 -1
    outer loop
      vertex -21.2135 0.881678 0
      vertex -30 10 0
      vertex -21.0935 1.02682 0
    endloop
  endfacet
  facet normal 0 0 -1
    outer loop
      vertex -21.3145 0.722631 0
      vertex -30 10 0
      vertex -21.2135 0.881678 0
    endloop
  endfacet
  facet normal 1 -0 0
    outer loop
      vertex 30 -10 5
      vertex 30 10 0
      vertex 30 10 5
    endloop
  endfacet
  facet normal 1 0 0
    outer loop
      vertex 30 10 0
      vertex 30 -10 5
      vertex 30 -10 0
    endloop
  endfacet
  facet normal -1 0 0
    outer loop
      vertex -30 -10 0
      vertex -30 10 5
      vertex -30 10 0
    endloop
  endfacet
  facet normal -1 -0 0
    outer loop
      vertex -30 10 5
      vertex -30 -10 0
      vertex -30 -10 5
    endloop
  endfacet
  facet normal 0 -1 0
    outer loop
      vertex -30 -10 0
      vertex 30 -10 5
      vertex -30 -10 5
    endloop
  endfacet
  facet normal 0 -1 -0
    outer loop
      vertex 30 -10 5
      vertex -30 -10 0
      vertex 30 -10 0
    endloop
  endfacet
  facet normal 0 1 -0
    outer loop
      vertex 30 10 0
      vertex -30 10 5
      vertex 30 10 5
    endloop
  endfacet
  facet normal 0 1 0
    outer loop
      vertex -30 10 5
      vertex 30 10 0
      vertex -30 10 0
    endloop
  endfacet
  facet normal 0 0 1
    outer loop
      vertex 30 10 5
      vertex 21.5 0 5
      vertex 30 -10 5
    endloop
  endfacet
  facet normal 0 0 1
    outer loop
      vertex 30 10 5
      vertex 21.4882 0.188 5
      vertex 21.5 0 5
    endloop
  endfacet
  facet normal 0 0 1
    outer loop
      vertex 30 10 5
      vertex 21.4529 0.373034 5
      vertex 21.4882 0.188 5
    endloop
  endfacet
  facet normal 0 0 1
    outer loop
      vertex 30 10 5
      vertex 21.3947 0.552186 5
      vertex 21.4529 0.373034 5
    endloop
  endfacet
  facet normal 0 0 1
    outer loop
      vertex 30 10 5
      vertex 21.3145 0.722631 5
      vertex 21.3947 0.552186 5
    endloop
  endfacet
  facet normal 0 0 1
    outer loop
      vertex 30 10 5
      vertex 21.2135 0.881678 5
      vertex 21.3145 0.722631 5
    endloop
  endfacet
  facet normal 0 0 1
    outer loop
      vertex 30 10 5
      vertex 21.0935 1.02682 5
      vertex 21.2135 0.881678 5
    endloop
  endfacet
  facet normal 0 0 1
    outer loop
      vertex 30 10 5
      vertex 20.9561 1.15577 5
      vertex 21.0935 1.02682 5
    endloop
  endfacet
  facet normal 0 0 1
    outer loop
      vertex 30 10 5
      vertex 20.8037 1.26649 5
      vertex 20.9561 1.15577 5
    endloop
  endfacet
  facet normal 0 0 1
    outer loop
      vertex 30 10 5
      vertex 20.6387 1.35724 5
      vertex 20.8037 1.26649 5
    endloop
  endfacet
  facet normal 0 0 1
    outer loop
      vertex 30 10 5
      vertex 20.4635 1.42658 5
      vertex 20.6387 1.35724 5
    endloop
  endfacet
  facet normal 0 0 1
    outer loop
      vertex 30 10 5
      vertex 20.2811 1.47343 5
      vertex 20.4635 1.42658 5
    endloop
  endfacet
  facet normal 0 0 1
    outer loop
      vertex 30 10 5
      vertex 20.0942 1.49704 5
      vertex 20.2811 1.47343 5
    endloop
  endfacet
  facet normal 0 0 1
    outer loop
      vertex 30 10 5
      vertex 19.9058 1.49704 5
      vertex 20.0942 1.49704 5
    endloop
  endfacet
  facet normal 0 0 1
    outer loop
      vertex 30 10 5
      vertex 19.7189 1.47343 5
      vertex 19.9058 1.49704 5
    endloop
  endfacet
  facet normal 0 0 1
    outer loop
      vertex 30 10 5
      vertex 19.5365 1.42658 5
      vertex 19.7189 1.47343 5
    endloop
  endfacet
  facet normal 0 0 1
    outer loop
      vertex 30 10 5
      vertex 19.3613 1.35724 5
      vertex 19.5365 1.42658 5
    endloop
  endfacet
  facet normal 0 0 1
    outer loop
      vertex 0.638668 1.35724 5
      vertex 19.3613 1.35724 5
      vertex 30 10 5
    endloop
  endfacet
  facet normal 0 0 1
    outer loop
      vertex 19.3613 1.35724 5
      vertex 0.638668 1.35724 5
      vertex 19.1963 1.26649 5
    endloop
  endfacet
  facet normal 0 0 1
    outer loop
      vertex 18.5118 0.188 5
      vertex 1.5 0 5
      vertex 18.5 0 5
    endloop
  endfacet
  facet normal 0 0 1
    outer loop
      vertex 1.48817 0.188 5
      vertex 18.5118 0.188 5
      vertex 18.5471 0.373034 5
    endloop
  endfacet
  facet normal 0 0 1
    outer loop
      vertex 1.45287 0.373034 5
      vertex 18.5471 0.373034 5
      vertex 18.6053 0.552186 5
    endloop
  endfacet
  facet normal 0 0 1
    outer loop
      vertex 1.39466 0.552186 5
      vertex 18.6053 0.552186 5
      vertex 18.6855 0.722631 5
    endloop
  endfacet
  facet normal 0 0 1
    outer loop
      vertex 1.31446 0.722631 5
      vertex 18.6855 0.722631 5
      vertex 18.7865 0.881678 5
    endloop
  endfacet
  facet normal 0 0 1
    outer loop
      vertex 1.21352 0.881678 5
      vertex 18.7865 0.881678 5
      vertex 18.9065 1.02682 5
    endloop
  endfacet
  facet normal 0 0 1
    outer loop
      vertex 1.09345 1.02682 5
      vertex 18.9065 1.02682 5
      vertex 19.0439 1.15577 5
    endloop
  endfacet
  facet normal 0 -0 1
    outer loop
      vertex 0.80374 1.26649 5
      vertex 19.1963 1.26649 5
      vertex 0.638668 1.35724 5
    endloop
  endfacet
  facet normal 0 0 1
    outer loop
      vertex 18.5118 0.188 5
      vertex 1.48817 0.188 5
      vertex 1.5 0 5
    endloop
  endfacet
  facet normal 0 0 1
    outer loop
      vertex 18.5471 0.373034 5
      vertex 1.45287 0.373034 5
      vertex 1.48817 0.188 5
    endloop
  endfacet
  facet normal 0 0 1
    outer loop
      vertex 18.6053 0.552186 5
      vertex 1.39466 0.552186 5
      vertex 1.45287 0.373034 5
    endloop
  endfacet
  facet normal 0 0 1
    outer loop
      vertex 18.6855 0.722631 5
      vertex 1.31446 0.722631 5
      vertex 1.39466 0.552186 5
    endloop
  endfacet
  facet normal 0 0 1
    outer loop
      vertex 18.7865 0.881678 5
      vertex 1.21352 0.881678 5
      vertex 1.31446 0.722631 5
    endloop
  endfacet
  facet normal 0 0 1
    outer loop
      vertex 18.9065 1.02682 5
      vertex 1.09345 1.02682 5
      vertex 1.21352 0.881678 5
    endloop
  endfacet
  facet normal 0 0 1
    outer loop
      vertex 19.0439 1.15577 5
      vertex 0.956136 1.15577 5
      vertex 1.09345 1.02682 5
    endloop
  endfacet
  facet normal 0 0 1
    outer loop
      vertex 19.0439 1.15577 5
      vertex 0.80374 1.26649 5
      vertex 0.956136 1.15577 5
    endloop
  endfacet
  facet normal 0 0 1
    outer loop
      vertex 19.1963 1.26649 5
      vertex 0.80374 1.26649 5
      vertex 19.0439 1.15577 5
    endloop
  endfacet
  facet normal 0 0 1
    outer loop
      vertex 30 10 5
      vertex 0.463525 1.42658 5
      vertex 0.638668 1.35724 5
    endloop
  endfacet
  facet normal 0 0 1
    outer loop
      vertex 30 10 5
      vertex 0.281072 1.47343 5
      vertex 0.463525 1.42658 5
    endloop
  endfacet
  facet normal 0 0 1
    outer loop
      vertex 30 10 5
      vertex 0.0941849 1.49704 5
      vertex 0.281072 1.47343 5
    endloop
  endfacet
  facet normal 0 0 1
    outer loop
      vertex 30 10 5
      vertex -0.0941849 1.49704 5
      vertex 0.0941849 1.49704 5
    endloop
  endfacet
  facet normal -0 0 1
    outer loop
      vertex -30 10 5
      vertex -0.0941849 1.49704 5
      vertex 30 10 5
    endloop
  endfacet
  facet normal 0 0 1
    outer loop
      vertex -0.0941849 1.49704 5
      vertex -30 10 5
      vertex -0.281072 1.47343 5
    endloop
  endfacet
  facet normal 0 0 1
    outer loop
      vertex -1.48817 0.188 5
      vertex -18.5 0 5
      vertex -1.5 0 5
    endloop
  endfacet
  facet normal 0 0 1
    outer loop
      vertex -18.5118 0.188 5
      vertex -1.48817 0.188 5
      vertex -1.45287 0.373034 5
    endloop
  endfacet
  facet normal 0 0 1
    outer loop
      vertex -18.5471 0.373034 5
      vertex -1.45287 0.373034 5
      vertex -1.39466 0.552186 5
    endloop
  endfacet
  facet normal 0 0 1
    outer loop
      vertex -18.6053 0.552186 5
      vertex -1.39466 0.552186 5
      vertex -1.31446 0.722631 5
    endloop
  endfacet
  facet normal 0 0 1
    outer loop
      vertex -18.6855 0.722631 5
      vertex -1.31446 0.722631 5
      vertex -1.21352 0.881678 5
    endloop
  endfacet
  facet normal 0 0 1
    outer loop
      vertex -18.7865 0.881678 5
      vertex -1.21352 0.881678 5
      vertex -1.09345 1.02682 5
    endloop
  endfacet
  facet normal 0 0 1
    outer loop
      vertex -18.9065 1.02682 5
      vertex -1.09345 1.02682 5
      vertex -0.956136 1.15577 5
    endloop
  endfacet
  facet normal 0 0 1
    outer loop
      vertex -19.0439 1.15577 5
      vertex -0.956136 1.15577 5
      vertex -0.80374 1.26649 5
    endloop
  endfacet
  facet normal 0 0 1
    outer loop
      vertex -19.1963 1.26649 5
      vertex -0.80374 1.26649 5
      vertex -0.638668 1.35724 5
    endloop
  endfacet
  facet normal 0 0 1
    outer loop
      vertex -30 10 5
      vertex -0.638668 1.35724 5
      vertex -0.463525 1.42658 5
    endloop
  endfacet
  facet normal 0 0 1
    outer loop
      vertex -0.281072 1.47343 5
      vertex -30 10 5
      vertex -0.463525 1.42658 5
    endloop
  endfacet
  facet normal 0 0 1
    outer loop
      vertex -1.48817 0.188 5
      vertex -18.5118 0.188 5
      vertex -18.5 0 5
    endloop
  endfacet
  facet normal 0 0 1
    outer loop
      vertex -1.45287 0.373034 5
      vertex -18.5471 0.373034 5
      vertex -18.5118 0.188 5
    endloop
  endfacet
  facet normal 0 0 1
    outer loop
      vertex -1.39466 0.552186 5
      vertex -18.6053 0.552186 5
      vertex -18.5471 0.373034 5
    endloop
  endfacet
  facet normal 0 0 1
    outer loop
      vertex -1.31446 0.722631 5
      vertex -18.6855 0.722631 5
      vertex -18.6053 0.552186 5
    endloop
  endfacet
  facet normal 0 0 1
    outer loop
      vertex -1.21352 0.881678 5
      vertex -18.7865 0.881678 5
      vertex -18.6855 0.722631 5
    endloop
  endfacet
  facet normal 0 0 1
    outer loop
      vertex -1.09345 1.02682 5
      vertex -18.9065 1.02682 5
      vertex -18.7865 0.881678 5
    endloop
  endfacet
  facet normal 0 0 1
    outer loop
      vertex -0.956136 1.15577 5
      vertex -19.0439 1.15577 5
      vertex -18.9065 1.02682 5
    endloop
  endfacet
  facet normal 0 0 1
    outer loop
      vertex -0.80374 1.26649 5
      vertex -19.1963 1.26649 5
      vertex -19.0439 1.15577 5
    endloop
  endfacet
  facet normal 0 0 1
    outer loop
      vertex -0.638668 1.35724 5
      vertex -19.3613 1.35724 5
      vertex -19.1963 1.26649 5
    endloop
  endfacet
  facet normal 0 0 1
    outer loop
      vertex -0.638668 1.35724 5
      vertex -30 10 5
      vertex -19.3613 1.35724 5
    endloop
  endfacet
  facet normal 0 0 1
    outer loop
      vertex -19.3613 1.35724 5
      vertex -30 10 5
      vertex -19.5365 1.42658 5
    endloop
  endfacet
  facet normal 0 0 1
    outer loop
      vertex -19.5365 1.42658 5
      vertex -30 10 5
      vertex -19.7189 1.47343 5
    endloop
  endfacet
  facet normal 0 0 1
    outer loop
      vertex -19.7189 1.47343 5
      vertex -30 10 5
      vertex -19.9058 1.49704 5
    endloop
  endfacet
  facet normal 0 0 1
    outer loop
      vertex -19.9058 1.49704 5
      vertex -30 10 5
      vertex -20.0942 1.49704 5
    endloop
  endfacet
  facet normal 0 0 1
    outer loop
      vertex -21.4882 0.188 5
      vertex -30 10 5
      vertex -21.5 0 5
    endloop
  endfacet
  facet normal 0 0 1
    outer loop
      vertex -21.4529 0.373034 5
      vertex -30 10 5
      vertex -21.4882 0.188 5
    endloop
  endfacet
  facet normal 0 0 1
    outer loop
      vertex -21.3947 0.552186 5
      vertex -30 10 5
      vertex -21.4529 0.373034 5
    endloop
  endfacet
  facet normal 0 0 1
    outer loop
      vertex -21.3145 0.722631 5
      vertex -30 10 5
      vertex -21.3947 0.552186 5
    endloop
  endfacet
  facet normal 0 0 1
    outer loop
      vertex -21.2135 0.881678 5
      vertex -30 10 5
      vertex -21.3145 0.722631 5
    endloop
  endfacet
  facet normal 0 0 1
    outer loop
      vertex -21.0935 1.02682 5
      vertex -30 10 5
      vertex -21.2135 0.881678 5
    endloop
  endfacet
  facet normal 0 0 1
    outer loop
      vertex -20.9561 1.15577 5
      vertex -30 10 5
      vertex -21.0935 1.02682 5
    endloop
  endfacet
  facet normal 0 0 1
    outer loop
      vertex -20.8037 1.26649 5
      vertex -30 10 5
      vertex -20.9561 1.15577 5
    endloop
  endfacet
  facet normal 0 0 1
    outer loop
      vertex -20.6387 1.35724 5
      vertex -30 10 5
      vertex -20.8037 1.26649 5
    endloop
  endfacet
  facet normal 0 0 1
    outer loop
      vertex -20.4635 1.42658 5
      vertex -30 10 5
      vertex -20.6387 1.35724 5
    endloop
  endfacet
  facet normal 0 0 1
    outer loop
      vertex -20.2811 1.47343 5
      vertex -30 10 5
      vertex -20.4635 1.42658 5
    endloop
  endfacet
  facet normal 0 0 1
    outer loop
      vertex -20.0942 1.49704 5
      vertex -30 10 5
      vertex -20.2811 1.47343 5
    endloop
  endfacet
  facet normal -0 0 1
    outer loop
      vertex 21.4882 -0.188 5
      vertex 30 -10 5
      vertex 21.5 0 5
    endloop
  endfacet
  facet normal -0 0 1
    outer loop
      vertex 21.4529 -0.373034 5
      vertex 30 -10 5
      vertex 21.4882 -0.188 5
    endloop
  endfacet
  facet normal -0 0 1
    outer loop
      vertex 21.3947 -0.552186 5
      vertex 30 -10 5
      vertex 21.4529 -0.373034 5
    endloop
  endfacet
  facet normal -0 0 1
    outer loop
      vertex 21.3145 -0.722631 5
      vertex 30 -10 5
      vertex 21.3947 -0.552186 5
    endloop
  endfacet
  facet normal -0 0 1
    outer loop
      vertex 21.2135 -0.881678 5
      vertex 30 -10 5
      vertex 21.3145 -0.722631 5
    endloop
  endfacet
  facet normal -0 0 1
    outer loop
      vertex 21.0935 -1.02682 5
      vertex 30 -10 5
      vertex 21.2135 -0.881678 5
    endloop
  endfacet
  facet normal -0 0 1
    outer loop
      vertex 20.9561 -1.15577 5
      vertex 30 -10 5
      vertex 21.0935 -1.02682 5
    endloop
  endfacet
  facet normal -0 0 1
    outer loop
      vertex 20.8037 -1.26649 5
      vertex 30 -10 5
      vertex 20.9561 -1.15577 5
    endloop
  endfacet
  facet normal -0 0 1
    outer loop
      vertex 20.6387 -1.35724 5
      vertex 30 -10 5
      vertex 20.8037 -1.26649 5
    endloop
  endfacet
  facet normal -0 0 1
    outer loop
      vertex 20.4635 -1.42658 5
      vertex 30 -10 5
      vertex 20.6387 -1.35724 5
    endloop
  endfacet
  facet normal -0 0 1
    outer loop
      vertex 20.2811 -1.47343 5
      vertex 30 -10 5
      vertex 20.4635 -1.42658 5
    endloop
  endfacet
  facet normal -0 0 1
    outer loop
      vertex 20.0942 -1.49704 5
      vertex 30 -10 5
      vertex 20.2811 -1.47343 5
    endloop
  endfacet
  facet normal -0 0 1
    outer loop
      vertex 19.9058 -1.49704 5
      vertex 30 -10 5
      vertex 20.0942 -1.49704 5
    endloop
  endfacet
  facet normal 0 0 1
    outer loop
      vertex 19.7189 -1.47343 5
      vertex 30 -10 5
      vertex 19.9058 -1.49704 5
    endloop
  endfacet
  facet normal 0 0 1
    outer loop
      vertex 19.5365 -1.42658 5
      vertex 30 -10 5
      vertex 19.7189 -1.47343 5
    endloop
  endfacet
  facet normal 0 0 1
    outer loop
      vertex 19.3613 -1.35724 5
      vertex 30 -10 5
      vertex 19.5365 -1.42658 5
    endloop
  endfacet
  facet normal 0 0 1
    outer loop
      vertex 0.638668 -1.35724 5
      vertex 19.3613 -1.35724 5
      vertex 19.1963 -1.26649 5
    endloop
  endfacet
  facet normal 0 0 1
    outer loop
      vertex 0.80374 -1.26649 5
      vertex 19.1963 -1.26649 5
      vertex 19.0439 -1.15577 5
    endloop
  endfacet
  facet normal -0 0 1
    outer loop
      vertex 1.5 0 5
      vertex 18.5118 -0.188 5
      vertex 18.5 0 5
    endloop
  endfacet
  facet normal 0 0 1
    outer loop
      vertex 1.48817 -0.188 5
      vertex 18.5118 -0.188 5
      vertex 1.5 0 5
    endloop
  endfacet
  facet normal 0 0 1
    outer loop
      vertex 18.5118 -0.188 5
      vertex 1.48817 -0.188 5
      vertex 18.5471 -0.373034 5
    endloop
  endfacet
  facet normal 0 0 1
    outer loop
      vertex 1.45287 -0.373034 5
      vertex 18.5471 -0.373034 5
      vertex 1.48817 -0.188 5
    endloop
  endfacet
  facet normal 0 0 1
    outer loop
      vertex 18.5471 -0.373034 5
      vertex 1.45287 -0.373034 5
      vertex 18.6053 -0.552186 5
    endloop
  endfacet
  facet normal 0 0 1
    outer loop
      vertex 1.39466 -0.552186 5
      vertex 18.6053 -0.552186 5
      vertex 1.45287 -0.373034 5
    endloop
  endfacet
  facet normal 0 0 1
    outer loop
      vertex 18.6053 -0.552186 5
      vertex 1.39466 -0.552186 5
      vertex 18.6855 -0.722631 5
    endloop
  endfacet
  facet normal 0 0 1
    outer loop
      vertex 1.31446 -0.722631 5
      vertex 18.6855 -0.722631 5
      vertex 1.39466 -0.552186 5
    endloop
  endfacet
  facet normal 0 0 1
    outer loop
      vertex 18.6855 -0.722631 5
      vertex 1.31446 -0.722631 5
      vertex 18.7865 -0.881678 5
    endloop
  endfacet
  facet normal 0 0 1
    outer loop
      vertex 1.21352 -0.881678 5
      vertex 18.7865 -0.881678 5
      vertex 1.31446 -0.722631 5
    endloop
  endfacet
  facet normal 0 0 1
    outer loop
      vertex 18.7865 -0.881678 5
      vertex 1.21352 -0.881678 5
      vertex 18.9065 -1.02682 5
    endloop
  endfacet
  facet normal 0 0 1
    outer loop
      vertex 1.09345 -1.02682 5
      vertex 18.9065 -1.02682 5
      vertex 1.21352 -0.881678 5
    endloop
  endfacet
  facet normal 0 0 1
    outer loop
      vertex 18.9065 -1.02682 5
      vertex 1.09345 -1.02682 5
      vertex 19.0439 -1.15577 5
    endloop
  endfacet
  facet normal 0 0 1
    outer loop
      vertex 0.956136 -1.15577 5
      vertex 19.0439 -1.15577 5
      vertex 1.09345 -1.02682 5
    endloop
  endfacet
  facet normal 0 0 1
    outer loop
      vertex 0.80374 -1.26649 5
      vertex 19.0439 -1.15577 5
      vertex 0.956136 -1.15577 5
    endloop
  endfacet
  facet normal 0 0 1
    outer loop
      vertex 19.1963 -1.26649 5
      vertex 0.80374 -1.26649 5
      vertex 0.638668 -1.35724 5
    endloop
  endfacet
  facet normal 0 0 1
    outer loop
      vertex 19.3613 -1.35724 5
      vertex 0.638668 -1.35724 5
      vertex 30 -10 5
    endloop
  endfacet
  facet normal -0 0 1
    outer loop
      vertex 0.463525 -1.42658 5
      vertex 30 -10 5
      vertex 0.638668 -1.35724 5
    endloop
  endfacet
  facet normal -0 0 1
    outer loop
      vertex 0.281072 -1.47343 5
      vertex 30 -10 5
      vertex 0.463525 -1.42658 5
    endloop
  endfacet
  facet normal -0 0 1
    outer loop
      vertex 0.0941849 -1.49704 5
      vertex 30 -10 5
      vertex 0.281072 -1.47343 5
    endloop
  endfacet
  facet normal -0 0 1
    outer loop
      vertex -0.0941849 -1.49704 5
      vertex 30 -10 5
      vertex 0.0941849 -1.49704 5
    endloop
  endfacet
  facet normal 0 0 1
    outer loop
      vertex -30 -10 5
      vertex -0.0941849 -1.49704 5
      vertex -0.281072 -1.47343 5
    endloop
  endfacet
  facet normal 0 0 1
    outer loop
      vertex -30 -10 5
      vertex -0.281072 -1.47343 5
      vertex -0.463525 -1.42658 5
    endloop
  endfacet
  facet normal -0 0 1
    outer loop
      vertex -18.5 0 5
      vertex -1.48817 -0.188 5
      vertex -1.5 0 5
    endloop
  endfacet
  facet normal 0 0 1
    outer loop
      vertex -18.5118 -0.188 5
      vertex -1.48817 -0.188 5
      vertex -18.5 0 5
    endloop
  endfacet
  facet normal 0 0 1
    outer loop
      vertex -1.48817 -0.188 5
      vertex -18.5118 -0.188 5
      vertex -1.45287 -0.373034 5
    endloop
  endfacet
  facet normal 0 0 1
    outer loop
      vertex -18.5471 -0.373034 5
      vertex -1.45287 -0.373034 5
      vertex -18.5118 -0.188 5
    endloop
  endfacet
  facet normal 0 0 1
    outer loop
      vertex -1.45287 -0.373034 5
      vertex -18.5471 -0.373034 5
      vertex -1.39466 -0.552186 5
    endloop
  endfacet
  facet normal 0 0 1
    outer loop
      vertex -18.6053 -0.552186 5
      vertex -1.39466 -0.552186 5
      vertex -18.5471 -0.373034 5
    endloop
  endfacet
  facet normal 0 0 1
    outer loop
      vertex -1.39466 -0.552186 5
      vertex -18.6053 -0.552186 5
      vertex -1.31446 -0.722631 5
    endloop
  endfacet
  facet normal 0 0 1
    outer loop
      vertex -18.6855 -0.722631 5
      vertex -1.31446 -0.722631 5
      vertex -18.6053 -0.552186 5
    endloop
  endfacet
  facet normal 0 0 1
    outer loop
      vertex -1.31446 -0.722631 5
      vertex -18.6855 -0.722631 5
      vertex -1.21352 -0.881678 5
    endloop
  endfacet
  facet normal 0 0 1
    outer loop
      vertex -18.7865 -0.881678 5
      vertex -1.21352 -0.881678 5
      vertex -18.6855 -0.722631 5
    endloop
  endfacet
  facet normal 0 0 1
    outer loop
      vertex -1.21352 -0.881678 5
      vertex -18.7865 -0.881678 5
      vertex -1.09345 -1.02682 5
    endloop
  endfacet
  facet normal 0 0 1
    outer loop
      vertex -18.9065 -1.02682 5
      vertex -1.09345 -1.02682 5
      vertex -18.7865 -0.881678 5
    endloop
  endfacet
  facet normal 0 0 1
    outer loop
      vertex -1.09345 -1.02682 5
      vertex -18.9065 -1.02682 5
      vertex -0.956136 -1.15577 5
    endloop
  endfacet
  facet normal 0 0 1
    outer loop
      vertex -19.0439 -1.15577 5
      vertex -0.956136 -1.15577 5
      vertex -18.9065 -1.02682 5
    endloop
  endfacet
  facet normal 0 0 1
    outer loop
      vertex -0.956136 -1.15577 5
      vertex -19.0439 -1.15577 5
      vertex -0.80374 -1.26649 5
    endloop
  endfacet
  facet normal 0 0 1
    outer loop
      vertex -19.1963 -1.26649 5
      vertex -0.80374 -1.26649 5
      vertex -19.0439 -1.15577 5
    endloop
  endfacet
  facet normal 0 0 1
    outer loop
      vertex -0.80374 -1.26649 5
      vertex -19.1963 -1.26649 5
      vertex -0.638668 -1.35724 5
    endloop
  endfacet
  facet normal 0 0 1
    outer loop
      vertex -19.3613 -1.35724 5
      vertex -0.638668 -1.35724 5
      vertex -19.1963 -1.26649 5
    endloop
  endfacet
  facet normal 0 0 1
    outer loop
      vertex -30 -10 5
      vertex -0.638668 -1.35724 5
      vertex -19.3613 -1.35724 5
    endloop
  endfacet
  facet normal 0 0 1
    outer loop
      vertex -0.638668 -1.35724 5
      vertex -30 -10 5
      vertex -0.463525 -1.42658 5
    endloop
  endfacet
  facet normal 0 0 1
    outer loop
      vertex -30 -10 5
      vertex -19.3613 -1.35724 5
      vertex -19.5365 -1.42658 5
    endloop
  endfacet
  facet normal 0 0 1
    outer loop
      vertex -30 -10 5
      vertex -19.5365 -1.42658 5
      vertex -19.7189 -1.47343 5
    endloop
  endfacet
  facet normal 0 0 1
    outer loop
      vertex -30 -10 5
      vertex -19.7189 -1.47343 5
      vertex -19.9058 -1.49704 5
    endloop
  endfacet
  facet normal 0 0 1
    outer loop
      vertex -30 -10 5
      vertex -19.9058 -1.49704 5
      vertex -20.0942 -1.49704 5
    endloop
  endfacet
  facet normal 0 0 1
    outer loop
      vertex -30 -10 5
      vertex -20.0942 -1.49704 5
      vertex -20.2811 -1.47343 5
    endloop
  endfacet
  facet normal 0 0 1
    outer loop
      vertex -30 -10 5
      vertex -21.5 0 5
      vertex -30 10 5
    endloop
  endfacet
  facet normal 0 0 1
    outer loop
      vertex -21.5 0 5
      vertex -30 -10 5
      vertex -21.4882 -0.188 5
    endloop
  endfacet
  facet normal 0 0 1
    outer loop
      vertex -21.4882 -0.188 5
      vertex -30 -10 5
      vertex -21.4529 -0.373034 5
    endloop
  endfacet
  facet normal 0 0 1
    outer loop
      vertex -21.4529 -0.373034 5
      vertex -30 -10 5
      vertex -21.3947 -0.552186 5
    endloop
  endfacet
  facet normal 0 0 1
    outer loop
      vertex -21.3947 -0.552186 5
      vertex -30 -10 5
      vertex -21.3145 -0.722631 5
    endloop
  endfacet
  facet normal 0 0 1
    outer loop
      vertex -0.0941849 -1.49704 5
      vertex -30 -10 5
      vertex 30 -10 5
    endloop
  endfacet
  facet normal 0 0 1
    outer loop
      vertex -20.4635 -1.42658 5
      vertex -30 -10 5
      vertex -20.2811 -1.47343 5
    endloop
  endfacet
  facet normal 0 0 1
    outer loop
      vertex -20.6387 -1.35724 5
      vertex -30 -10 5
      vertex -20.4635 -1.42658 5
    endloop
  endfacet
  facet normal 0 0 1
    outer loop
      vertex -20.8037 -1.26649 5
      vertex -30 -10 5
      vertex -20.6387 -1.35724 5
    endloop
  endfacet
  facet normal 0 0 1
    outer loop
      vertex -20.9561 -1.15577 5
      vertex -30 -10 5
      vertex -20.8037 -1.26649 5
    endloop
  endfacet
  facet normal 0 0 1
    outer loop
      vertex -21.0935 -1.02682 5
      vertex -30 -10 5
      vertex -20.9561 -1.15577 5
    endloop
  endfacet
  facet normal 0 0 1
    outer loop
      vertex -21.2135 -0.881678 5
      vertex -30 -10 5
      vertex -21.0935 -1.02682 5
    endloop
  endfacet
  facet normal 0 0 1
    outer loop
      vertex -21.3145 -0.722631 5
      vertex -30 -10 5
      vertex -21.2135 -0.881678 5
    endloop
  endfacet
  facet normal -0.998027 -0.0627931 0
    outer loop
      vertex 1.5 0 0
      vertex 1.48817 0.188 5
      vertex 1.48817 0.188 0
    endloop
  endfacet
  facet normal -0.998027 -0.0627931 0
    outer loop
      vertex 1.48817 0.188 5
      vertex 1.5 0 0
      vertex 1.5 0 5
    endloop
  endfacet
  facet normal 0.998027 -0.0627931 0
    outer loop
      vertex -1.5 0 5
      vertex -1.48817 0.188 0
      vertex -1.48817 0.188 5
    endloop
  endfacet
  facet normal 0.998027 -0.0627931 0
    outer loop
      vertex -1.48817 0.188 0
      vertex -1.5 0 5
      vertex -1.5 0 0
    endloop
  endfacet
  facet normal 0 -1 0
    outer loop
      vertex -0.0941849 1.49704 0
      vertex 0.0941849 1.49704 5
      vertex -0.0941849 1.49704 5
    endloop
  endfacet
  facet normal 0 -1 -0
    outer loop
      vertex 0.0941849 1.49704 5
      vertex -0.0941849 1.49704 0
      vertex 0.0941849 1.49704 0
    endloop
  endfacet
  facet normal 0 1 -0
    outer loop
      vertex 0.0941849 -1.49704 0
      vertex -0.0941849 -1.49704 5
      vertex 0.0941849 -1.49704 5
    endloop
  endfacet
  facet normal 0 1 0
    outer loop
      vertex -0.0941849 -1.49704 5
      vertex 0.0941849 -1.49704 0
      vertex -0.0941849 -1.49704 0
    endloop
  endfacet
  facet normal -0.684548 -0.728968 0
    outer loop
      vertex 0.956136 1.15577 0
      vertex 1.09345 1.02682 5
      vertex 0.956136 1.15577 5
    endloop
  endfacet
  facet normal -0.684548 -0.728968 -0
    outer loop
      vertex 1.09345 1.02682 5
      vertex 0.956136 1.15577 0
      vertex 1.09345 1.02682 0
    endloop
  endfacet
  facet normal 0.684548 -0.728968 0
    outer loop
      vertex -1.09345 1.02682 0
      vertex -0.956136 1.15577 5
      vertex -1.09345 1.02682 5
    endloop
  endfacet
  facet normal 0.684548 -0.728968 0
    outer loop
      vertex -0.956136 1.15577 5
      vertex -1.09345 1.02682 0
      vertex -0.956136 1.15577 0
    endloop
  endfacet
  facet normal 0.368126 -0.929776 0
    outer loop
      vertex -0.638668 1.35724 0
      vertex -0.463525 1.42658 5
      vertex -0.638668 1.35724 5
    endloop
  endfacet
  facet normal 0.368126 -0.929776 0
    outer loop
      vertex -0.463525 1.42658 5
      vertex -0.638668 1.35724 0
      vertex -0.463525 1.42658 0
    endloop
  endfacet
  facet normal -0.904829 -0.425775 0
    outer loop
      vertex 1.39466 0.552186 0
      vertex 1.31446 0.722631 5
      vertex 1.31446 0.722631 0
    endloop
  endfacet
  facet normal -0.904829 -0.425775 0
    outer loop
      vertex 1.31446 0.722631 5
      vertex 1.39466 0.552186 0
      vertex 1.39466 0.552186 5
    endloop
  endfacet
  facet normal -0.982287 -0.187382 0
    outer loop
      vertex 1.48817 0.188 0
      vertex 1.45287 0.373034 5
      vertex 1.45287 0.373034 0
    endloop
  endfacet
  facet normal -0.982287 -0.187382 0
    outer loop
      vertex 1.45287 0.373034 5
      vertex 1.48817 0.188 0
      vertex 1.48817 0.188 5
    endloop
  endfacet
  facet normal -0.368126 -0.929776 0
    outer loop
      vertex 0.463525 1.42658 0
      vertex 0.638668 1.35724 5
      vertex 0.463525 1.42658 5
    endloop
  endfacet
  facet normal -0.368126 -0.929776 -0
    outer loop
      vertex 0.638668 1.35724 5
      vertex 0.463525 1.42658 0
      vertex 0.638668 1.35724 0
    endloop
  endfacet
  facet normal -0.248692 -0.968583 0
    outer loop
      vertex 0.281072 1.47343 0
      vertex 0.463525 1.42658 5
      vertex 0.281072 1.47343 5
    endloop
  endfacet
  facet normal -0.248692 -0.968583 -0
    outer loop
      vertex 0.463525 1.42658 5
      vertex 0.281072 1.47343 0
      vertex 0.463525 1.42658 0
    endloop
  endfacet
  facet normal -0.481754 -0.876307 0
    outer loop
      vertex 0.638668 1.35724 0
      vertex 0.80374 1.26649 5
      vertex 0.638668 1.35724 5
    endloop
  endfacet
  facet normal -0.481754 -0.876307 -0
    outer loop
      vertex 0.80374 1.26649 5
      vertex 0.638668 1.35724 0
      vertex 0.80374 1.26649 0
    endloop
  endfacet
  facet normal 0.904829 -0.425775 0
    outer loop
      vertex -1.39466 0.552186 5
      vertex -1.31446 0.722631 0
      vertex -1.31446 0.722631 5
    endloop
  endfacet
  facet normal 0.904829 -0.425775 0
    outer loop
      vertex -1.31446 0.722631 0
      vertex -1.39466 0.552186 5
      vertex -1.39466 0.552186 0
    endloop
  endfacet
  facet normal 0.844326 -0.535829 0
    outer loop
      vertex -1.31446 0.722631 5
      vertex -1.21352 0.881678 0
      vertex -1.21352 0.881678 5
    endloop
  endfacet
  facet normal 0.844326 -0.535829 0
    outer loop
      vertex -1.21352 0.881678 0
      vertex -1.31446 0.722631 5
      vertex -1.31446 0.722631 0
    endloop
  endfacet
  facet normal 0.951056 -0.309019 0
    outer loop
      vertex -1.45287 0.373034 5
      vertex -1.39466 0.552186 0
      vertex -1.39466 0.552186 5
    endloop
  endfacet
  facet normal 0.951056 -0.309019 0
    outer loop
      vertex -1.39466 0.552186 0
      vertex -1.45287 0.373034 5
      vertex -1.45287 0.373034 0
    endloop
  endfacet
  facet normal 0.587783 -0.809019 0
    outer loop
      vertex -0.956136 1.15577 0
      vertex -0.80374 1.26649 5
      vertex -0.956136 1.15577 5
    endloop
  endfacet
  facet normal 0.587783 -0.809019 0
    outer loop
      vertex -0.80374 1.26649 5
      vertex -0.956136 1.15577 0
      vertex -0.80374 1.26649 0
    endloop
  endfacet
  facet normal 0.125333 -0.992115 0
    outer loop
      vertex -0.281072 1.47343 0
      vertex -0.0941849 1.49704 5
      vertex -0.281072 1.47343 5
    endloop
  endfacet
  facet normal 0.125333 -0.992115 0
    outer loop
      vertex -0.0941849 1.49704 5
      vertex -0.281072 1.47343 0
      vertex -0.0941849 1.49704 0
    endloop
  endfacet
  facet normal -0.125333 0.992115 0
    outer loop
      vertex 0.281072 -1.47343 0
      vertex 0.0941849 -1.49704 5
      vertex 0.281072 -1.47343 5
    endloop
  endfacet
  facet normal -0.125333 0.992115 0
    outer loop
      vertex 0.0941849 -1.49704 5
      vertex 0.281072 -1.47343 0
      vertex 0.0941849 -1.49704 0
    endloop
  endfacet
  facet normal -0.951056 -0.309019 0
    outer loop
      vertex 1.45287 0.373034 0
      vertex 1.39466 0.552186 5
      vertex 1.39466 0.552186 0
    endloop
  endfacet
  facet normal -0.951056 -0.309019 0
    outer loop
      vertex 1.39466 0.552186 5
      vertex 1.45287 0.373034 0
      vertex 1.45287 0.373034 5
    endloop
  endfacet
  facet normal -0.770513 -0.637424 0
    outer loop
      vertex 1.21352 0.881678 0
      vertex 1.09345 1.02682 5
      vertex 1.09345 1.02682 0
    endloop
  endfacet
  facet normal -0.770513 -0.637424 0
    outer loop
      vertex 1.09345 1.02682 5
      vertex 1.21352 0.881678 0
      vertex 1.21352 0.881678 5
    endloop
  endfacet
  facet normal -0.844326 -0.535829 0
    outer loop
      vertex 1.31446 0.722631 0
      vertex 1.21352 0.881678 5
      vertex 1.21352 0.881678 0
    endloop
  endfacet
  facet normal -0.844326 -0.535829 0
    outer loop
      vertex 1.21352 0.881678 5
      vertex 1.31446 0.722631 0
      vertex 1.31446 0.722631 5
    endloop
  endfacet
  facet normal -0.125333 -0.992115 0
    outer loop
      vertex 0.0941849 1.49704 0
      vertex 0.281072 1.47343 5
      vertex 0.0941849 1.49704 5
    endloop
  endfacet
  facet normal -0.125333 -0.992115 -0
    outer loop
      vertex 0.281072 1.47343 5
      vertex 0.0941849 1.49704 0
      vertex 0.281072 1.47343 0
    endloop
  endfacet
  facet normal -0.587783 -0.809019 0
    outer loop
      vertex 0.80374 1.26649 0
      vertex 0.956136 1.15577 5
      vertex 0.80374 1.26649 5
    endloop
  endfacet
  facet normal -0.587783 -0.809019 -0
    outer loop
      vertex 0.956136 1.15577 5
      vertex 0.80374 1.26649 0
      vertex 0.956136 1.15577 0
    endloop
  endfacet
  facet normal 0.770513 -0.637424 0
    outer loop
      vertex -1.21352 0.881678 5
      vertex -1.09345 1.02682 0
      vertex -1.09345 1.02682 5
    endloop
  endfacet
  facet normal 0.770513 -0.637424 0
    outer loop
      vertex -1.09345 1.02682 0
      vertex -1.21352 0.881678 5
      vertex -1.21352 0.881678 0
    endloop
  endfacet
  facet normal 0.982287 -0.187382 0
    outer loop
      vertex -1.48817 0.188 5
      vertex -1.45287 0.373034 0
      vertex -1.45287 0.373034 5
    endloop
  endfacet
  facet normal 0.982287 -0.187382 0
    outer loop
      vertex -1.45287 0.373034 0
      vertex -1.48817 0.188 5
      vertex -1.48817 0.188 0
    endloop
  endfacet
  facet normal 0.481754 -0.876307 0
    outer loop
      vertex -0.80374 1.26649 0
      vertex -0.638668 1.35724 5
      vertex -0.80374 1.26649 5
    endloop
  endfacet
  facet normal 0.481754 -0.876307 0
    outer loop
      vertex -0.638668 1.35724 5
      vertex -0.80374 1.26649 0
      vertex -0.638668 1.35724 0
    endloop
  endfacet
  facet normal 0.248692 -0.968583 0
    outer loop
      vertex -0.463525 1.42658 0
      vertex -0.281072 1.47343 5
      vertex -0.463525 1.42658 5
    endloop
  endfacet
  facet normal 0.248692 -0.968583 0
    outer loop
      vertex -0.281072 1.47343 5
      vertex -0.463525 1.42658 0
      vertex -0.281072 1.47343 0
    endloop
  endfacet
  facet normal -0.998027 0.0627931 0
    outer loop
      vertex 1.48817 -0.188 0
      vertex 1.5 0 5
      vertex 1.5 0 0
    endloop
  endfacet
  facet normal -0.998027 0.0627931 0
    outer loop
      vertex 1.5 0 5
      vertex 1.48817 -0.188 0
      vertex 1.48817 -0.188 5
    endloop
  endfacet
  facet normal -0.684548 0.728968 0
    outer loop
      vertex 1.09345 -1.02682 0
      vertex 0.956136 -1.15577 5
      vertex 1.09345 -1.02682 5
    endloop
  endfacet
  facet normal -0.684548 0.728968 0
    outer loop
      vertex 0.956136 -1.15577 5
      vertex 1.09345 -1.02682 0
      vertex 0.956136 -1.15577 0
    endloop
  endfacet
  facet normal -0.982287 0.187382 0
    outer loop
      vertex 1.45287 -0.373034 0
      vertex 1.48817 -0.188 5
      vertex 1.48817 -0.188 0
    endloop
  endfacet
  facet normal -0.982287 0.187382 0
    outer loop
      vertex 1.48817 -0.188 5
      vertex 1.45287 -0.373034 0
      vertex 1.45287 -0.373034 5
    endloop
  endfacet
  facet normal 0.904829 0.425775 0
    outer loop
      vertex -1.31446 -0.722631 5
      vertex -1.39466 -0.552186 0
      vertex -1.39466 -0.552186 5
    endloop
  endfacet
  facet normal 0.904829 0.425775 0
    outer loop
      vertex -1.39466 -0.552186 0
      vertex -1.31446 -0.722631 5
      vertex -1.31446 -0.722631 0
    endloop
  endfacet
  facet normal -0.368126 0.929776 0
    outer loop
      vertex 0.638668 -1.35724 0
      vertex 0.463525 -1.42658 5
      vertex 0.638668 -1.35724 5
    endloop
  endfacet
  facet normal -0.368126 0.929776 0
    outer loop
      vertex 0.463525 -1.42658 5
      vertex 0.638668 -1.35724 0
      vertex 0.463525 -1.42658 0
    endloop
  endfacet
  facet normal -0.481754 0.876307 0
    outer loop
      vertex 0.80374 -1.26649 0
      vertex 0.638668 -1.35724 5
      vertex 0.80374 -1.26649 5
    endloop
  endfacet
  facet normal -0.481754 0.876307 0
    outer loop
      vertex 0.638668 -1.35724 5
      vertex 0.80374 -1.26649 0
      vertex 0.638668 -1.35724 0
    endloop
  endfacet
  facet normal -0.904829 0.425775 0
    outer loop
      vertex 1.31446 -0.722631 0
      vertex 1.39466 -0.552186 5
      vertex 1.39466 -0.552186 0
    endloop
  endfacet
  facet normal -0.904829 0.425775 0
    outer loop
      vertex 1.39466 -0.552186 5
      vertex 1.31446 -0.722631 0
      vertex 1.31446 -0.722631 5
    endloop
  endfacet
  facet normal -0.770513 0.637424 0
    outer loop
      vertex 1.09345 -1.02682 0
      vertex 1.21352 -0.881678 5
      vertex 1.21352 -0.881678 0
    endloop
  endfacet
  facet normal -0.770513 0.637424 0
    outer loop
      vertex 1.21352 -0.881678 5
      vertex 1.09345 -1.02682 0
      vertex 1.09345 -1.02682 5
    endloop
  endfacet
  facet normal 0.368126 0.929776 -0
    outer loop
      vertex -0.463525 -1.42658 0
      vertex -0.638668 -1.35724 5
      vertex -0.463525 -1.42658 5
    endloop
  endfacet
  facet normal 0.368126 0.929776 0
    outer loop
      vertex -0.638668 -1.35724 5
      vertex -0.463525 -1.42658 0
      vertex -0.638668 -1.35724 0
    endloop
  endfacet
  facet normal 0.684548 0.728968 -0
    outer loop
      vertex -0.956136 -1.15577 0
      vertex -1.09345 -1.02682 5
      vertex -0.956136 -1.15577 5
    endloop
  endfacet
  facet normal 0.684548 0.728968 0
    outer loop
      vertex -1.09345 -1.02682 5
      vertex -0.956136 -1.15577 0
      vertex -1.09345 -1.02682 0
    endloop
  endfacet
  facet normal 0.951056 0.309019 0
    outer loop
      vertex -1.39466 -0.552186 5
      vertex -1.45287 -0.373034 0
      vertex -1.45287 -0.373034 5
    endloop
  endfacet
  facet normal 0.951056 0.309019 0
    outer loop
      vertex -1.45287 -0.373034 0
      vertex -1.39466 -0.552186 5
      vertex -1.39466 -0.552186 0
    endloop
  endfacet
  facet normal 0.998027 0.0627931 0
    outer loop
      vertex -1.48817 -0.188 5
      vertex -1.5 0 0
      vertex -1.5 0 5
    endloop
  endfacet
  facet normal 0.998027 0.0627931 0
    outer loop
      vertex -1.5 0 0
      vertex -1.48817 -0.188 5
      vertex -1.48817 -0.188 0
    endloop
  endfacet
  facet normal -0.248692 0.968583 0
    outer loop
      vertex 0.463525 -1.42658 0
      vertex 0.281072 -1.47343 5
      vertex 0.463525 -1.42658 5
    endloop
  endfacet
  facet normal -0.248692 0.968583 0
    outer loop
      vertex 0.281072 -1.47343 5
      vertex 0.463525 -1.42658 0
      vertex 0.281072 -1.47343 0
    endloop
  endfacet
  facet normal -0.587783 0.809019 0
    outer loop
      vertex 0.956136 -1.15577 0
      vertex 0.80374 -1.26649 5
      vertex 0.956136 -1.15577 5
    endloop
  endfacet
  facet normal -0.587783 0.809019 0
    outer loop
      vertex 0.80374 -1.26649 5
      vertex 0.956136 -1.15577 0
      vertex 0.80374 -1.26649 0
    endloop
  endfacet
  facet normal -0.951056 0.309019 0
    outer loop
      vertex 1.39466 -0.552186 0
      vertex 1.45287 -0.373034 5
      vertex 1.45287 -0.373034 0
    endloop
  endfacet
  facet normal -0.951056 0.309019 0
    outer loop
      vertex 1.45287 -0.373034 5
      vertex 1.39466 -0.552186 0
      vertex 1.39466 -0.552186 5
    endloop
  endfacet
  facet normal -0.844326 0.535829 0
    outer loop
      vertex 1.21352 -0.881678 0
      vertex 1.31446 -0.722631 5
      vertex 1.31446 -0.722631 0
    endloop
  endfacet
  facet normal -0.844326 0.535829 0
    outer loop
      vertex 1.31446 -0.722631 5
      vertex 1.21352 -0.881678 0
      vertex 1.21352 -0.881678 5
    endloop
  endfacet
  facet normal 0.125333 0.992115 -0
    outer loop
      vertex -0.0941849 -1.49704 0
      vertex -0.281072 -1.47343 5
      vertex -0.0941849 -1.49704 5
    endloop
  endfacet
  facet normal 0.125333 0.992115 0
    outer loop
      vertex -0.281072 -1.47343 5
      vertex -0.0941849 -1.49704 0
      vertex -0.281072 -1.47343 0
    endloop
  endfacet
  facet normal 0.248692 0.968583 -0
    outer loop
      vertex -0.281072 -1.47343 0
      vertex -0.463525 -1.42658 5
      vertex -0.281072 -1.47343 5
    endloop
  endfacet
  facet normal 0.248692 0.968583 0
    outer loop
      vertex -0.463525 -1.42658 5
      vertex -0.281072 -1.47343 0
      vertex -0.463525 -1.42658 0
    endloop
  endfacet
  facet normal 0.844326 0.535829 0
    outer loop
      vertex -1.21352 -0.881678 5
      vertex -1.31446 -0.722631 0
      vertex -1.31446 -0.722631 5
    endloop
  endfacet
  facet normal 0.844326 0.535829 0
    outer loop
      vertex -1.31446 -0.722631 0
      vertex -1.21352 -0.881678 5
      vertex -1.21352 -0.881678 0
    endloop
  endfacet
  facet normal 0.982287 0.187382 0
    outer loop
      vertex -1.45287 -0.373034 5
      vertex -1.48817 -0.188 0
      vertex -1.48817 -0.188 5
    endloop
  endfacet
  facet normal 0.982287 0.187382 0
    outer loop
      vertex -1.48817 -0.188 0
      vertex -1.45287 -0.373034 5
      vertex -1.45287 -0.373034 0
    endloop
  endfacet
  facet normal 0.770513 0.637424 0
    outer loop
      vertex -1.09345 -1.02682 5
      vertex -1.21352 -0.881678 0
      vertex -1.21352 -0.881678 5
    endloop
  endfacet
  facet normal 0.770513 0.637424 0
    outer loop
      vertex -1.21352 -0.881678 0
      vertex -1.09345 -1.02682 5
      vertex -1.09345 -1.02682 0
    endloop
  endfacet
  facet normal 0.481754 0.876307 -0
    outer loop
      vertex -0.638668 -1.35724 0
      vertex -0.80374 -1.26649 5
      vertex -0.638668 -1.35724 5
    endloop
  endfacet
  facet normal 0.481754 0.876307 0
    outer loop
      vertex -0.80374 -1.26649 5
      vertex -0.638668 -1.35724 0
      vertex -0.80374 -1.26649 0
    endloop
  endfacet
  facet normal 0.587783 0.809019 -0
    outer loop
      vertex -0.80374 -1.26649 0
      vertex -0.956136 -1.15577 5
      vertex -0.80374 -1.26649 5
    endloop
  endfacet
  facet normal 0.587783 0.809019 0
    outer loop
      vertex -0.956136 -1.15577 5
      vertex -0.80374 -1.26649 0
      vertex -0.956136 -1.15577 0
    endloop
  endfacet
  facet normal -0.998027 -0.062788 0
    outer loop
      vertex -18.5 0 0
      vertex -18.5118 0.188 5
      vertex -18.5118 0.188 0
    endloop
  endfacet
  facet normal -0.998027 -0.062788 0
    outer loop
      vertex -18.5118 0.188 5
      vertex -18.5 0 0
      vertex -18.5 0 5
    endloop
  endfacet
  facet normal 0.998026 -0.0627981 0
    outer loop
      vertex -21.5 0 5
      vertex -21.4882 0.188 0
      vertex -21.4882 0.188 5
    endloop
  endfacet
  facet normal 0.998026 -0.0627981 0
    outer loop
      vertex -21.4882 0.188 0
      vertex -21.5 0 5
      vertex -21.5 0 0
    endloop
  endfacet
  facet normal 0 -1 0
    outer loop
      vertex -20.0942 1.49704 0
      vertex -19.9058 1.49704 5
      vertex -20.0942 1.49704 5
    endloop
  endfacet
  facet normal 0 -1 -0
    outer loop
      vertex -19.9058 1.49704 5
      vertex -20.0942 1.49704 0
      vertex -19.9058 1.49704 0
    endloop
  endfacet
  facet normal 0 1 -0
    outer loop
      vertex -19.9058 -1.49704 0
      vertex -20.0942 -1.49704 5
      vertex -19.9058 -1.49704 5
    endloop
  endfacet
  facet normal 0 1 0
    outer loop
      vertex -20.0942 -1.49704 5
      vertex -19.9058 -1.49704 0
      vertex -20.0942 -1.49704 0
    endloop
  endfacet
  facet normal -0.68455 -0.728966 0
    outer loop
      vertex -19.0439 1.15577 0
      vertex -18.9065 1.02682 5
      vertex -19.0439 1.15577 5
    endloop
  endfacet
  facet normal -0.68455 -0.728966 -0
    outer loop
      vertex -18.9065 1.02682 5
      vertex -19.0439 1.15577 0
      vertex -18.9065 1.02682 0
    endloop
  endfacet
  facet normal 0.684545 -0.72897 0
    outer loop
      vertex -21.0935 1.02682 0
      vertex -20.9561 1.15577 5
      vertex -21.0935 1.02682 5
    endloop
  endfacet
  facet normal 0.684545 -0.72897 0
    outer loop
      vertex -20.9561 1.15577 5
      vertex -21.0935 1.02682 0
      vertex -20.9561 1.15577 0
    endloop
  endfacet
  facet normal 0.368125 -0.929776 0
    outer loop
      vertex -20.6387 1.35724 0
      vertex -20.4635 1.42658 5
      vertex -20.6387 1.35724 5
    endloop
  endfacet
  facet normal 0.368125 -0.929776 0
    outer loop
      vertex -20.4635 1.42658 5
      vertex -20.6387 1.35724 0
      vertex -20.4635 1.42658 0
    endloop
  endfacet
  facet normal -0.904829 -0.425775 0
    outer loop
      vertex -18.6053 0.552186 0
      vertex -18.6855 0.722631 5
      vertex -18.6855 0.722631 0
    endloop
  endfacet
  facet normal -0.904829 -0.425775 0
    outer loop
      vertex -18.6855 0.722631 5
      vertex -18.6053 0.552186 0
      vertex -18.6053 0.552186 5
    endloop
  endfacet
  facet normal -0.982287 -0.187382 0
    outer loop
      vertex -18.5118 0.188 0
      vertex -18.5471 0.373034 5
      vertex -18.5471 0.373034 0
    endloop
  endfacet
  facet normal -0.982287 -0.187382 0
    outer loop
      vertex -18.5471 0.373034 5
      vertex -18.5118 0.188 0
      vertex -18.5118 0.188 5
    endloop
  endfacet
  facet normal -0.368128 -0.929775 0
    outer loop
      vertex -19.5365 1.42658 0
      vertex -19.3613 1.35724 5
      vertex -19.5365 1.42658 5
    endloop
  endfacet
  facet normal -0.368128 -0.929775 -0
    outer loop
      vertex -19.3613 1.35724 5
      vertex -19.5365 1.42658 0
      vertex -19.3613 1.35724 0
    endloop
  endfacet
  facet normal -0.248692 -0.968583 0
    outer loop
      vertex -19.7189 1.47343 0
      vertex -19.5365 1.42658 5
      vertex -19.7189 1.47343 5
    endloop
  endfacet
  facet normal -0.248692 -0.968583 -0
    outer loop
      vertex -19.5365 1.42658 5
      vertex -19.7189 1.47343 0
      vertex -19.5365 1.42658 0
    endloop
  endfacet
  facet normal -0.481749 -0.876309 0
    outer loop
      vertex -19.3613 1.35724 0
      vertex -19.1963 1.26649 5
      vertex -19.3613 1.35724 5
    endloop
  endfacet
  facet normal -0.481749 -0.876309 -0
    outer loop
      vertex -19.1963 1.26649 5
      vertex -19.3613 1.35724 0
      vertex -19.1963 1.26649 0
    endloop
  endfacet
  facet normal 0.904829 -0.425775 0
    outer loop
      vertex -21.3947 0.552186 5
      vertex -21.3145 0.722631 0
      vertex -21.3145 0.722631 5
    endloop
  endfacet
  facet normal 0.904829 -0.425775 0
    outer loop
      vertex -21.3145 0.722631 0
      vertex -21.3947 0.552186 5
      vertex -21.3947 0.552186 0
    endloop
  endfacet
  facet normal 0.844322 -0.535836 0
    outer loop
      vertex -21.3145 0.722631 5
      vertex -21.2135 0.881678 0
      vertex -21.2135 0.881678 5
    endloop
  endfacet
  facet normal 0.844322 -0.535836 0
    outer loop
      vertex -21.2135 0.881678 0
      vertex -21.3145 0.722631 5
      vertex -21.3145 0.722631 0
    endloop
  endfacet
  facet normal 0.951059 -0.30901 0
    outer loop
      vertex -21.4529 0.373034 5
      vertex -21.3947 0.552186 0
      vertex -21.3947 0.552186 5
    endloop
  endfacet
  facet normal 0.951059 -0.30901 0
    outer loop
      vertex -21.3947 0.552186 0
      vertex -21.4529 0.373034 5
      vertex -21.4529 0.373034 0
    endloop
  endfacet
  facet normal 0.587785 -0.809017 0
    outer loop
      vertex -20.9561 1.15577 0
      vertex -20.8037 1.26649 5
      vertex -20.9561 1.15577 5
    endloop
  endfacet
  facet normal 0.587785 -0.809017 0
    outer loop
      vertex -20.8037 1.26649 5
      vertex -20.9561 1.15577 0
      vertex -20.8037 1.26649 0
    endloop
  endfacet
  facet normal 0.125333 -0.992115 0
    outer loop
      vertex -20.2811 1.47343 0
      vertex -20.0942 1.49704 5
      vertex -20.2811 1.47343 5
    endloop
  endfacet
  facet normal 0.125333 -0.992115 0
    outer loop
      vertex -20.0942 1.49704 5
      vertex -20.2811 1.47343 0
      vertex -20.0942 1.49704 0
    endloop
  endfacet
  facet normal -0.125332 0.992115 0
    outer loop
      vertex -19.7189 -1.47343 0
      vertex -19.9058 -1.49704 5
      vertex -19.7189 -1.47343 5
    endloop
  endfacet
  facet normal -0.125332 0.992115 0
    outer loop
      vertex -19.9058 -1.49704 5
      vertex -19.7189 -1.47343 0
      vertex -19.9058 -1.49704 0
    endloop
  endfacet
  facet normal -0.951056 -0.309019 0
    outer loop
      vertex -18.5471 0.373034 0
      vertex -18.6053 0.552186 5
      vertex -18.6053 0.552186 0
    endloop
  endfacet
  facet normal -0.951056 -0.309019 0
    outer loop
      vertex -18.6053 0.552186 5
      vertex -18.5471 0.373034 0
      vertex -18.5471 0.373034 5
    endloop
  endfacet
  facet normal -0.770511 -0.637427 0
    outer loop
      vertex -18.7865 0.881678 0
      vertex -18.9065 1.02682 5
      vertex -18.9065 1.02682 0
    endloop
  endfacet
  facet normal -0.770511 -0.637427 0
    outer loop
      vertex -18.9065 1.02682 5
      vertex -18.7865 0.881678 0
      vertex -18.7865 0.881678 5
    endloop
  endfacet
  facet normal -0.844326 -0.535829 0
    outer loop
      vertex -18.6855 0.722631 0
      vertex -18.7865 0.881678 5
      vertex -18.7865 0.881678 0
    endloop
  endfacet
  facet normal -0.844326 -0.535829 0
    outer loop
      vertex -18.7865 0.881678 5
      vertex -18.6855 0.722631 0
      vertex -18.6855 0.722631 5
    endloop
  endfacet
  facet normal -0.125332 -0.992115 0
    outer loop
      vertex -19.9058 1.49704 0
      vertex -19.7189 1.47343 5
      vertex -19.9058 1.49704 5
    endloop
  endfacet
  facet normal -0.125332 -0.992115 -0
    outer loop
      vertex -19.7189 1.47343 5
      vertex -19.9058 1.49704 0
      vertex -19.7189 1.47343 0
    endloop
  endfacet
  facet normal -0.587785 -0.809017 0
    outer loop
      vertex -19.1963 1.26649 0
      vertex -19.0439 1.15577 5
      vertex -19.1963 1.26649 5
    endloop
  endfacet
  facet normal -0.587785 -0.809017 -0
    outer loop
      vertex -19.0439 1.15577 5
      vertex -19.1963 1.26649 0
      vertex -19.0439 1.15577 0
    endloop
  endfacet
  facet normal 0.770516 -0.637421 0
    outer loop
      vertex -21.2135 0.881678 5
      vertex -21.0935 1.02682 0
      vertex -21.0935 1.02682 5
    endloop
  endfacet
  facet normal 0.770516 -0.637421 0
    outer loop
      vertex -21.0935 1.02682 0
      vertex -21.2135 0.881678 5
      vertex -21.2135 0.881678 0
    endloop
  endfacet
  facet normal 0.982287 -0.187382 0
    outer loop
      vertex -21.4882 0.188 5
      vertex -21.4529 0.373034 0
      vertex -21.4529 0.373034 5
    endloop
  endfacet
  facet normal 0.982287 -0.187382 0
    outer loop
      vertex -21.4529 0.373034 0
      vertex -21.4882 0.188 5
      vertex -21.4882 0.188 0
    endloop
  endfacet
  facet normal -0.998027 0.062788 0
    outer loop
      vertex -18.5118 -0.188 0
      vertex -18.5 0 5
      vertex -18.5 0 0
    endloop
  endfacet
  facet normal -0.998027 0.062788 0
    outer loop
      vertex -18.5 0 5
      vertex -18.5118 -0.188 0
      vertex -18.5118 -0.188 5
    endloop
  endfacet
  facet normal -0.982287 0.187382 0
    outer loop
      vertex -18.5471 -0.373034 0
      vertex -18.5118 -0.188 5
      vertex -18.5118 -0.188 0
    endloop
  endfacet
  facet normal -0.982287 0.187382 0
    outer loop
      vertex -18.5118 -0.188 5
      vertex -18.5471 -0.373034 0
      vertex -18.5471 -0.373034 5
    endloop
  endfacet
  facet normal -0.68455 0.728966 0
    outer loop
      vertex -18.9065 -1.02682 0
      vertex -19.0439 -1.15577 5
      vertex -18.9065 -1.02682 5
    endloop
  endfacet
  facet normal -0.68455 0.728966 0
    outer loop
      vertex -19.0439 -1.15577 5
      vertex -18.9065 -1.02682 0
      vertex -19.0439 -1.15577 0
    endloop
  endfacet
  facet normal 0.904829 0.425775 0
    outer loop
      vertex -21.3145 -0.722631 5
      vertex -21.3947 -0.552186 0
      vertex -21.3947 -0.552186 5
    endloop
  endfacet
  facet normal 0.904829 0.425775 0
    outer loop
      vertex -21.3947 -0.552186 0
      vertex -21.3145 -0.722631 5
      vertex -21.3145 -0.722631 0
    endloop
  endfacet
  facet normal -0.368128 0.929775 0
    outer loop
      vertex -19.3613 -1.35724 0
      vertex -19.5365 -1.42658 5
      vertex -19.3613 -1.35724 5
    endloop
  endfacet
  facet normal -0.368128 0.929775 0
    outer loop
      vertex -19.5365 -1.42658 5
      vertex -19.3613 -1.35724 0
      vertex -19.5365 -1.42658 0
    endloop
  endfacet
  facet normal 0.481754 -0.876307 0
    outer loop
      vertex -20.8037 1.26649 0
      vertex -20.6387 1.35724 5
      vertex -20.8037 1.26649 5
    endloop
  endfacet
  facet normal 0.481754 -0.876307 0
    outer loop
      vertex -20.6387 1.35724 5
      vertex -20.8037 1.26649 0
      vertex -20.6387 1.35724 0
    endloop
  endfacet
  facet normal 0.248692 -0.968583 0
    outer loop
      vertex -20.4635 1.42658 0
      vertex -20.2811 1.47343 5
      vertex -20.4635 1.42658 5
    endloop
  endfacet
  facet normal 0.248692 -0.968583 0
    outer loop
      vertex -20.2811 1.47343 5
      vertex -20.4635 1.42658 0
      vertex -20.2811 1.47343 0
    endloop
  endfacet
  facet normal -0.481749 0.876309 0
    outer loop
      vertex -19.1963 -1.26649 0
      vertex -19.3613 -1.35724 5
      vertex -19.1963 -1.26649 5
    endloop
  endfacet
  facet normal -0.481749 0.876309 0
    outer loop
      vertex -19.3613 -1.35724 5
      vertex -19.1963 -1.26649 0
      vertex -19.3613 -1.35724 0
    endloop
  endfacet
  facet normal -0.904829 0.425775 0
    outer loop
      vertex -18.6855 -0.722631 0
      vertex -18.6053 -0.552186 5
      vertex -18.6053 -0.552186 0
    endloop
  endfacet
  facet normal -0.904829 0.425775 0
    outer loop
      vertex -18.6053 -0.552186 5
      vertex -18.6855 -0.722631 0
      vertex -18.6855 -0.722631 5
    endloop
  endfacet
  facet normal -0.770511 0.637427 0
    outer loop
      vertex -18.9065 -1.02682 0
      vertex -18.7865 -0.881678 5
      vertex -18.7865 -0.881678 0
    endloop
  endfacet
  facet normal -0.770511 0.637427 0
    outer loop
      vertex -18.7865 -0.881678 5
      vertex -18.9065 -1.02682 0
      vertex -18.9065 -1.02682 5
    endloop
  endfacet
  facet normal 0.368125 0.929776 -0
    outer loop
      vertex -20.4635 -1.42658 0
      vertex -20.6387 -1.35724 5
      vertex -20.4635 -1.42658 5
    endloop
  endfacet
  facet normal 0.368125 0.929776 0
    outer loop
      vertex -20.6387 -1.35724 5
      vertex -20.4635 -1.42658 0
      vertex -20.6387 -1.35724 0
    endloop
  endfacet
  facet normal 0.684545 0.72897 -0
    outer loop
      vertex -20.9561 -1.15577 0
      vertex -21.0935 -1.02682 5
      vertex -20.9561 -1.15577 5
    endloop
  endfacet
  facet normal 0.684545 0.72897 0
    outer loop
      vertex -21.0935 -1.02682 5
      vertex -20.9561 -1.15577 0
      vertex -21.0935 -1.02682 0
    endloop
  endfacet
  facet normal 0.951059 0.30901 0
    outer loop
      vertex -21.3947 -0.552186 5
      vertex -21.4529 -0.373034 0
      vertex -21.4529 -0.373034 5
    endloop
  endfacet
  facet normal 0.951059 0.30901 0
    outer loop
      vertex -21.4529 -0.373034 0
      vertex -21.3947 -0.552186 5
      vertex -21.3947 -0.552186 0
    endloop
  endfacet
  facet normal -0.248692 0.968583 0
    outer loop
      vertex -19.5365 -1.42658 0
      vertex -19.7189 -1.47343 5
      vertex -19.5365 -1.42658 5
    endloop
  endfacet
  facet normal -0.248692 0.968583 0
    outer loop
      vertex -19.7189 -1.47343 5
      vertex -19.5365 -1.42658 0
      vertex -19.7189 -1.47343 0
    endloop
  endfacet
  facet normal -0.587785 0.809017 0
    outer loop
      vertex -19.0439 -1.15577 0
      vertex -19.1963 -1.26649 5
      vertex -19.0439 -1.15577 5
    endloop
  endfacet
  facet normal -0.587785 0.809017 0
    outer loop
      vertex -19.1963 -1.26649 5
      vertex -19.0439 -1.15577 0
      vertex -19.1963 -1.26649 0
    endloop
  endfacet
  facet normal -0.951056 0.309019 0
    outer loop
      vertex -18.6053 -0.552186 0
      vertex -18.5471 -0.373034 5
      vertex -18.5471 -0.373034 0
    endloop
  endfacet
  facet normal -0.951056 0.309019 0
    outer loop
      vertex -18.5471 -0.373034 5
      vertex -18.6053 -0.552186 0
      vertex -18.6053 -0.552186 5
    endloop
  endfacet
  facet normal -0.844326 0.535829 0
    outer loop
      vertex -18.7865 -0.881678 0
      vertex -18.6855 -0.722631 5
      vertex -18.6855 -0.722631 0
    endloop
  endfacet
  facet normal -0.844326 0.535829 0
    outer loop
      vertex -18.6855 -0.722631 5
      vertex -18.7865 -0.881678 0
      vertex -18.7865 -0.881678 5
    endloop
  endfacet
  facet normal 0.125333 0.992115 -0
    outer loop
      vertex -20.0942 -1.49704 0
      vertex -20.2811 -1.47343 5
      vertex -20.0942 -1.49704 5
    endloop
  endfacet
  facet normal 0.125333 0.992115 0
    outer loop
      vertex -20.2811 -1.47343 5
      vertex -20.0942 -1.49704 0
      vertex -20.2811 -1.47343 0
    endloop
  endfacet
  facet normal 0.587785 0.809017 -0
    outer loop
      vertex -20.8037 -1.26649 0
      vertex -20.9561 -1.15577 5
      vertex -20.8037 -1.26649 5
    endloop
  endfacet
  facet normal 0.587785 0.809017 0
    outer loop
      vertex -20.9561 -1.15577 5
      vertex -20.8037 -1.26649 0
      vertex -20.9561 -1.15577 0
    endloop
  endfacet
  facet normal 0.248692 0.968583 -0
    outer loop
      vertex -20.2811 -1.47343 0
      vertex -20.4635 -1.42658 5
      vertex -20.2811 -1.47343 5
    endloop
  endfacet
  facet normal 0.248692 0.968583 0
    outer loop
      vertex -20.4635 -1.42658 5
      vertex -20.2811 -1.47343 0
      vertex -20.4635 -1.42658 0
    endloop
  endfacet
  facet normal 0.844322 0.535836 0
    outer loop
      vertex -21.2135 -0.881678 5
      vertex -21.3145 -0.722631 0
      vertex -21.3145 -0.722631 5
    endloop
  endfacet
  facet normal 0.844322 0.535836 0
    outer loop
      vertex -21.3145 -0.722631 0
      vertex -21.2135 -0.881678 5
      vertex -21.2135 -0.881678 0
    endloop
  endfacet
  facet normal 0.982287 0.187382 0
    outer loop
      vertex -21.4529 -0.373034 5
      vertex -21.4882 -0.188 0
      vertex -21.4882 -0.188 5
    endloop
  endfacet
  facet normal 0.982287 0.187382 0
    outer loop
      vertex -21.4882 -0.188 0
      vertex -21.4529 -0.373034 5
      vertex -21.4529 -0.373034 0
    endloop
  endfacet
  facet normal 0.998026 0.0627981 0
    outer loop
      vertex -21.4882 -0.188 5
      vertex -21.5 0 0
      vertex -21.5 0 5
    endloop
  endfacet
  facet normal 0.998026 0.0627981 0
    outer loop
      vertex -21.5 0 0
      vertex -21.4882 -0.188 5
      vertex -21.4882 -0.188 0
    endloop
  endfacet
  facet normal 0.770516 0.637421 0
    outer loop
      vertex -21.0935 -1.02682 5
      vertex -21.2135 -0.881678 0
      vertex -21.2135 -0.881678 5
    endloop
  endfacet
  facet normal 0.770516 0.637421 0
    outer loop
      vertex -21.2135 -0.881678 0
      vertex -21.0935 -1.02682 5
      vertex -21.0935 -1.02682 0
    endloop
  endfacet
  facet normal 0.481754 0.876307 -0
    outer loop
      vertex -20.6387 -1.35724 0
      vertex -20.8037 -1.26649 5
      vertex -20.6387 -1.35724 5
    endloop
  endfacet
  facet normal 0.481754 0.876307 0
    outer loop
      vertex -20.8037 -1.26649 5
      vertex -20.6387 -1.35724 0
      vertex -20.8037 -1.26649 0
    endloop
  endfacet
  facet normal -0.998026 -0.0627981 0
    outer loop
      vertex 21.5 0 0
      vertex 21.4882 0.188 5
      vertex 21.4882 0.188 0
    endloop
  endfacet
  facet normal -0.998026 -0.0627981 0
    outer loop
      vertex 21.4882 0.188 5
      vertex 21.5 0 0
      vertex 21.5 0 5
    endloop
  endfacet
  facet normal 0.998027 0.062788 0
    outer loop
      vertex 18.5118 -0.188 5
      vertex 18.5 0 0
      vertex 18.5 0 5
    endloop
  endfacet
  facet normal 0.998027 0.062788 0
    outer loop
      vertex 18.5 0 0
      vertex 18.5118 -0.188 5
      vertex 18.5118 -0.188 0
    endloop
  endfacet
  facet normal 0.125332 -0.992115 0
    outer loop
      vertex 19.7189 1.47343 0
      vertex 19.9058 1.49704 5
      vertex 19.7189 1.47343 5
    endloop
  endfacet
  facet normal 0.125332 -0.992115 0
    outer loop
      vertex 19.9058 1.49704 5
      vertex 19.7189 1.47343 0
      vertex 19.9058 1.49704 0
    endloop
  endfacet
  facet normal -0.125333 0.992115 0
    outer loop
      vertex 20.2811 -1.47343 0
      vertex 20.0942 -1.49704 5
      vertex 20.2811 -1.47343 5
    endloop
  endfacet
  facet normal -0.125333 0.992115 0
    outer loop
      vertex 20.0942 -1.49704 5
      vertex 20.2811 -1.47343 0
      vertex 20.0942 -1.49704 0
    endloop
  endfacet
  facet normal -0.770516 0.637421 0
    outer loop
      vertex 21.0935 -1.02682 0
      vertex 21.2135 -0.881678 5
      vertex 21.2135 -0.881678 0
    endloop
  endfacet
  facet normal -0.770516 0.637421 0
    outer loop
      vertex 21.2135 -0.881678 5
      vertex 21.0935 -1.02682 0
      vertex 21.0935 -1.02682 5
    endloop
  endfacet
  facet normal -0.684545 -0.72897 0
    outer loop
      vertex 20.9561 1.15577 0
      vertex 21.0935 1.02682 5
      vertex 20.9561 1.15577 5
    endloop
  endfacet
  facet normal -0.684545 -0.72897 -0
    outer loop
      vertex 21.0935 1.02682 5
      vertex 20.9561 1.15577 0
      vertex 21.0935 1.02682 0
    endloop
  endfacet
  facet normal 0.770511 -0.637427 0
    outer loop
      vertex 18.7865 0.881678 5
      vertex 18.9065 1.02682 0
      vertex 18.9065 1.02682 5
    endloop
  endfacet
  facet normal 0.770511 -0.637427 0
    outer loop
      vertex 18.9065 1.02682 0
      vertex 18.7865 0.881678 5
      vertex 18.7865 0.881678 0
    endloop
  endfacet
  facet normal 0.481749 -0.876309 0
    outer loop
      vertex 19.1963 1.26649 0
      vertex 19.3613 1.35724 5
      vertex 19.1963 1.26649 5
    endloop
  endfacet
  facet normal 0.481749 -0.876309 0
    outer loop
      vertex 19.3613 1.35724 5
      vertex 19.1963 1.26649 0
      vertex 19.3613 1.35724 0
    endloop
  endfacet
  facet normal -0.904829 -0.425775 0
    outer loop
      vertex 21.3947 0.552186 0
      vertex 21.3145 0.722631 5
      vertex 21.3145 0.722631 0
    endloop
  endfacet
  facet normal -0.904829 -0.425775 0
    outer loop
      vertex 21.3145 0.722631 5
      vertex 21.3947 0.552186 0
      vertex 21.3947 0.552186 5
    endloop
  endfacet
  facet normal -0.982287 -0.187382 0
    outer loop
      vertex 21.4882 0.188 0
      vertex 21.4529 0.373034 5
      vertex 21.4529 0.373034 0
    endloop
  endfacet
  facet normal -0.982287 -0.187382 0
    outer loop
      vertex 21.4529 0.373034 5
      vertex 21.4882 0.188 0
      vertex 21.4882 0.188 5
    endloop
  endfacet
  facet normal -0.248692 -0.968583 0
    outer loop
      vertex 20.2811 1.47343 0
      vertex 20.4635 1.42658 5
      vertex 20.2811 1.47343 5
    endloop
  endfacet
  facet normal -0.248692 -0.968583 -0
    outer loop
      vertex 20.4635 1.42658 5
      vertex 20.2811 1.47343 0
      vertex 20.4635 1.42658 0
    endloop
  endfacet
  facet normal -0.125333 -0.992115 0
    outer loop
      vertex 20.0942 1.49704 0
      vertex 20.2811 1.47343 5
      vertex 20.0942 1.49704 5
    endloop
  endfacet
  facet normal -0.125333 -0.992115 -0
    outer loop
      vertex 20.2811 1.47343 5
      vertex 20.0942 1.49704 0
      vertex 20.2811 1.47343 0
    endloop
  endfacet
  facet normal -0.481754 -0.876307 0
    outer loop
      vertex 20.6387 1.35724 0
      vertex 20.8037 1.26649 5
      vertex 20.6387 1.35724 5
    endloop
  endfacet
  facet normal -0.481754 -0.876307 -0
    outer loop
      vertex 20.8037 1.26649 5
      vertex 20.6387 1.35724 0
      vertex 20.8037 1.26649 0
    endloop
  endfacet
  facet normal 0.904829 -0.425775 0
    outer loop
      vertex 18.6053 0.552186 5
      vertex 18.6855 0.722631 0
      vertex 18.6855 0.722631 5
    endloop
  endfacet
  facet normal 0.904829 -0.425775 0
    outer loop
      vertex 18.6855 0.722631 0
      vertex 18.6053 0.552186 5
      vertex 18.6053 0.552186 0
    endloop
  endfacet
  facet normal 0.844326 -0.535829 0
    outer loop
      vertex 18.6855 0.722631 5
      vertex 18.7865 0.881678 0
      vertex 18.7865 0.881678 5
    endloop
  endfacet
  facet normal 0.844326 -0.535829 0
    outer loop
      vertex 18.7865 0.881678 0
      vertex 18.6855 0.722631 5
      vertex 18.6855 0.722631 0
    endloop
  endfacet
  facet normal 0.982287 -0.187382 0
    outer loop
      vertex 18.5118 0.188 5
      vertex 18.5471 0.373034 0
      vertex 18.5471 0.373034 5
    endloop
  endfacet
  facet normal 0.982287 -0.187382 0
    outer loop
      vertex 18.5471 0.373034 0
      vertex 18.5118 0.188 5
      vertex 18.5118 0.188 0
    endloop
  endfacet
  facet normal 0.587785 -0.809017 0
    outer loop
      vertex 19.0439 1.15577 0
      vertex 19.1963 1.26649 5
      vertex 19.0439 1.15577 5
    endloop
  endfacet
  facet normal 0.587785 -0.809017 0
    outer loop
      vertex 19.1963 1.26649 5
      vertex 19.0439 1.15577 0
      vertex 19.1963 1.26649 0
    endloop
  endfacet
  facet normal 0.248692 -0.968583 0
    outer loop
      vertex 19.5365 1.42658 0
      vertex 19.7189 1.47343 5
      vertex 19.5365 1.42658 5
    endloop
  endfacet
  facet normal 0.248692 -0.968583 0
    outer loop
      vertex 19.7189 1.47343 5
      vertex 19.5365 1.42658 0
      vertex 19.7189 1.47343 0
    endloop
  endfacet
  facet normal -0.248692 0.968583 0
    outer loop
      vertex 20.4635 -1.42658 0
      vertex 20.2811 -1.47343 5
      vertex 20.4635 -1.42658 5
    endloop
  endfacet
  facet normal -0.248692 0.968583 0
    outer loop
      vertex 20.2811 -1.47343 5
      vertex 20.4635 -1.42658 0
      vertex 20.2811 -1.47343 0
    endloop
  endfacet
  facet normal -0.951059 -0.30901 0
    outer loop
      vertex 21.4529 0.373034 0
      vertex 21.3947 0.552186 5
      vertex 21.3947 0.552186 0
    endloop
  endfacet
  facet normal -0.951059 -0.30901 0
    outer loop
      vertex 21.3947 0.552186 5
      vertex 21.4529 0.373034 0
      vertex 21.4529 0.373034 5
    endloop
  endfacet
  facet normal -0.770516 -0.637421 0
    outer loop
      vertex 21.2135 0.881678 0
      vertex 21.0935 1.02682 5
      vertex 21.0935 1.02682 0
    endloop
  endfacet
  facet normal -0.770516 -0.637421 0
    outer loop
      vertex 21.0935 1.02682 5
      vertex 21.2135 0.881678 0
      vertex 21.2135 0.881678 5
    endloop
  endfacet
  facet normal -0.844322 -0.535836 0
    outer loop
      vertex 21.3145 0.722631 0
      vertex 21.2135 0.881678 5
      vertex 21.2135 0.881678 0
    endloop
  endfacet
  facet normal -0.844322 -0.535836 0
    outer loop
      vertex 21.2135 0.881678 5
      vertex 21.3145 0.722631 0
      vertex 21.3145 0.722631 5
    endloop
  endfacet
  facet normal 0 -1 0
    outer loop
      vertex 19.9058 1.49704 0
      vertex 20.0942 1.49704 5
      vertex 19.9058 1.49704 5
    endloop
  endfacet
  facet normal 0 -1 -0
    outer loop
      vertex 20.0942 1.49704 5
      vertex 19.9058 1.49704 0
      vertex 20.0942 1.49704 0
    endloop
  endfacet
  facet normal -0.587785 -0.809017 0
    outer loop
      vertex 20.8037 1.26649 0
      vertex 20.9561 1.15577 5
      vertex 20.8037 1.26649 5
    endloop
  endfacet
  facet normal -0.587785 -0.809017 -0
    outer loop
      vertex 20.9561 1.15577 5
      vertex 20.8037 1.26649 0
      vertex 20.9561 1.15577 0
    endloop
  endfacet
  facet normal 0.951056 -0.309019 0
    outer loop
      vertex 18.5471 0.373034 5
      vertex 18.6053 0.552186 0
      vertex 18.6053 0.552186 5
    endloop
  endfacet
  facet normal 0.951056 -0.309019 0
    outer loop
      vertex 18.6053 0.552186 0
      vertex 18.5471 0.373034 5
      vertex 18.5471 0.373034 0
    endloop
  endfacet
  facet normal 0.998027 -0.062788 0
    outer loop
      vertex 18.5 0 5
      vertex 18.5118 0.188 0
      vertex 18.5118 0.188 5
    endloop
  endfacet
  facet normal 0.998027 -0.062788 0
    outer loop
      vertex 18.5118 0.188 0
      vertex 18.5 0 5
      vertex 18.5 0 0
    endloop
  endfacet
  facet normal 0.68455 -0.728966 0
    outer loop
      vertex 18.9065 1.02682 0
      vertex 19.0439 1.15577 5
      vertex 18.9065 1.02682 5
    endloop
  endfacet
  facet normal 0.68455 -0.728966 0
    outer loop
      vertex 19.0439 1.15577 5
      vertex 18.9065 1.02682 0
      vertex 19.0439 1.15577 0
    endloop
  endfacet
  facet normal 0.368128 -0.929775 0
    outer loop
      vertex 19.3613 1.35724 0
      vertex 19.5365 1.42658 5
      vertex 19.3613 1.35724 5
    endloop
  endfacet
  facet normal 0.368128 -0.929775 0
    outer loop
      vertex 19.5365 1.42658 5
      vertex 19.3613 1.35724 0
      vertex 19.5365 1.42658 0
    endloop
  endfacet
  facet normal -0.998026 0.0627981 0
    outer loop
      vertex 21.4882 -0.188 0
      vertex 21.5 0 5
      vertex 21.5 0 0
    endloop
  endfacet
  facet normal -0.998026 0.0627981 0
    outer loop
      vertex 21.5 0 5
      vertex 21.4882 -0.188 0
      vertex 21.4882 -0.188 5
    endloop
  endfacet
  facet normal -0.844322 0.535836 0
    outer loop
      vertex 21.2135 -0.881678 0
      vertex 21.3145 -0.722631 5
      vertex 21.3145 -0.722631 0
    endloop
  endfacet
  facet normal -0.844322 0.535836 0
    outer loop
      vertex 21.3145 -0.722631 5
      vertex 21.2135 -0.881678 0
      vertex 21.2135 -0.881678 5
    endloop
  endfacet
  facet normal -0.982287 0.187382 0
    outer loop
      vertex 21.4529 -0.373034 0
      vertex 21.4882 -0.188 5
      vertex 21.4882 -0.188 0
    endloop
  endfacet
  facet normal -0.982287 0.187382 0
    outer loop
      vertex 21.4882 -0.188 5
      vertex 21.4529 -0.373034 0
      vertex 21.4529 -0.373034 5
    endloop
  endfacet
  facet normal 0.248692 0.968583 -0
    outer loop
      vertex 19.7189 -1.47343 0
      vertex 19.5365 -1.42658 5
      vertex 19.7189 -1.47343 5
    endloop
  endfacet
  facet normal 0.248692 0.968583 0
    outer loop
      vertex 19.5365 -1.42658 5
      vertex 19.7189 -1.47343 0
      vertex 19.5365 -1.42658 0
    endloop
  endfacet
  facet normal 0.982287 0.187382 0
    outer loop
      vertex 18.5471 -0.373034 5
      vertex 18.5118 -0.188 0
      vertex 18.5118 -0.188 5
    endloop
  endfacet
  facet normal 0.982287 0.187382 0
    outer loop
      vertex 18.5118 -0.188 0
      vertex 18.5471 -0.373034 5
      vertex 18.5471 -0.373034 0
    endloop
  endfacet
  facet normal -0.587785 0.809017 0
    outer loop
      vertex 20.9561 -1.15577 0
      vertex 20.8037 -1.26649 5
      vertex 20.9561 -1.15577 5
    endloop
  endfacet
  facet normal -0.587785 0.809017 0
    outer loop
      vertex 20.8037 -1.26649 5
      vertex 20.9561 -1.15577 0
      vertex 20.8037 -1.26649 0
    endloop
  endfacet
  facet normal -0.481754 0.876307 0
    outer loop
      vertex 20.8037 -1.26649 0
      vertex 20.6387 -1.35724 5
      vertex 20.8037 -1.26649 5
    endloop
  endfacet
  facet normal -0.481754 0.876307 0
    outer loop
      vertex 20.6387 -1.35724 5
      vertex 20.8037 -1.26649 0
      vertex 20.6387 -1.35724 0
    endloop
  endfacet
  facet normal -0.368125 -0.929776 0
    outer loop
      vertex 20.4635 1.42658 0
      vertex 20.6387 1.35724 5
      vertex 20.4635 1.42658 5
    endloop
  endfacet
  facet normal -0.368125 -0.929776 -0
    outer loop
      vertex 20.6387 1.35724 5
      vertex 20.4635 1.42658 0
      vertex 20.6387 1.35724 0
    endloop
  endfacet
  facet normal -0.951059 0.30901 0
    outer loop
      vertex 21.3947 -0.552186 0
      vertex 21.4529 -0.373034 5
      vertex 21.4529 -0.373034 0
    endloop
  endfacet
  facet normal -0.951059 0.30901 0
    outer loop
      vertex 21.4529 -0.373034 5
      vertex 21.3947 -0.552186 0
      vertex 21.3947 -0.552186 5
    endloop
  endfacet
  facet normal -0.904829 0.425775 0
    outer loop
      vertex 21.3145 -0.722631 0
      vertex 21.3947 -0.552186 5
      vertex 21.3947 -0.552186 0
    endloop
  endfacet
  facet normal -0.904829 0.425775 0
    outer loop
      vertex 21.3947 -0.552186 5
      vertex 21.3145 -0.722631 0
      vertex 21.3145 -0.722631 5
    endloop
  endfacet
  facet normal 0.68455 0.728966 -0
    outer loop
      vertex 19.0439 -1.15577 0
      vertex 18.9065 -1.02682 5
      vertex 19.0439 -1.15577 5
    endloop
  endfacet
  facet normal 0.68455 0.728966 0
    outer loop
      vertex 18.9065 -1.02682 5
      vertex 19.0439 -1.15577 0
      vertex 18.9065 -1.02682 0
    endloop
  endfacet
  facet normal 0.844326 0.535829 0
    outer loop
      vertex 18.7865 -0.881678 5
      vertex 18.6855 -0.722631 0
      vertex 18.6855 -0.722631 5
    endloop
  endfacet
  facet normal 0.844326 0.535829 0
    outer loop
      vertex 18.6855 -0.722631 0
      vertex 18.7865 -0.881678 5
      vertex 18.7865 -0.881678 0
    endloop
  endfacet
  facet normal 0.951056 0.309019 0
    outer loop
      vertex 18.6053 -0.552186 5
      vertex 18.5471 -0.373034 0
      vertex 18.5471 -0.373034 5
    endloop
  endfacet
  facet normal 0.951056 0.309019 0
    outer loop
      vertex 18.5471 -0.373034 0
      vertex 18.6053 -0.552186 5
      vertex 18.6053 -0.552186 0
    endloop
  endfacet
  facet normal 0.904829 0.425775 0
    outer loop
      vertex 18.6855 -0.722631 5
      vertex 18.6053 -0.552186 0
      vertex 18.6053 -0.552186 5
    endloop
  endfacet
  facet normal 0.904829 0.425775 0
    outer loop
      vertex 18.6053 -0.552186 0
      vertex 18.6855 -0.722631 5
      vertex 18.6855 -0.722631 0
    endloop
  endfacet
  facet normal -0.684545 0.72897 0
    outer loop
      vertex 21.0935 -1.02682 0
      vertex 20.9561 -1.15577 5
      vertex 21.0935 -1.02682 5
    endloop
  endfacet
  facet normal -0.684545 0.72897 0
    outer loop
      vertex 20.9561 -1.15577 5
      vertex 21.0935 -1.02682 0
      vertex 20.9561 -1.15577 0
    endloop
  endfacet
  facet normal -0.368125 0.929776 0
    outer loop
      vertex 20.6387 -1.35724 0
      vertex 20.4635 -1.42658 5
      vertex 20.6387 -1.35724 5
    endloop
  endfacet
  facet normal -0.368125 0.929776 0
    outer loop
      vertex 20.4635 -1.42658 5
      vertex 20.6387 -1.35724 0
      vertex 20.4635 -1.42658 0
    endloop
  endfacet
  facet normal 0.587785 0.809017 -0
    outer loop
      vertex 19.1963 -1.26649 0
      vertex 19.0439 -1.15577 5
      vertex 19.1963 -1.26649 5
    endloop
  endfacet
  facet normal 0.587785 0.809017 0
    outer loop
      vertex 19.0439 -1.15577 5
      vertex 19.1963 -1.26649 0
      vertex 19.0439 -1.15577 0
    endloop
  endfacet
  facet normal 0.368128 0.929775 -0
    outer loop
      vertex 19.5365 -1.42658 0
      vertex 19.3613 -1.35724 5
      vertex 19.5365 -1.42658 5
    endloop
  endfacet
  facet normal 0.368128 0.929775 0
    outer loop
      vertex 19.3613 -1.35724 5
      vertex 19.5365 -1.42658 0
      vertex 19.3613 -1.35724 0
    endloop
  endfacet
  facet normal 0.125332 0.992115 -0
    outer loop
      vertex 19.9058 -1.49704 0
      vertex 19.7189 -1.47343 5
      vertex 19.9058 -1.49704 5
    endloop
  endfacet
  facet normal 0.125332 0.992115 0
    outer loop
      vertex 19.7189 -1.47343 5
      vertex 19.9058 -1.49704 0
      vertex 19.7189 -1.47343 0
    endloop
  endfacet
  facet normal 0.770511 0.637427 0
    outer loop
      vertex 18.9065 -1.02682 5
      vertex 18.7865 -0.881678 0
      vertex 18.7865 -0.881678 5
    endloop
  endfacet
  facet normal 0.770511 0.637427 0
    outer loop
      vertex 18.7865 -0.881678 0
      vertex 18.9065 -1.02682 5
      vertex 18.9065 -1.02682 0
    endloop
  endfacet
  facet normal 0 1 -0
    outer loop
      vertex 20.0942 -1.49704 0
      vertex 19.9058 -1.49704 5
      vertex 20.0942 -1.49704 5
    endloop
  endfacet
  facet normal 0 1 0
    outer loop
      vertex 19.9058 -1.49704 5
      vertex 20.0942 -1.49704 0
      vertex 19.9058 -1.49704 0
    endloop
  endfacet
  facet normal 0.481749 0.876309 -0
    outer loop
      vertex 19.3613 -1.35724 0
      vertex 19.1963 -1.26649 5
      vertex 19.3613 -1.35724 5
    endloop
  endfacet
  facet normal 0.481749 0.876309 0
    outer loop
      vertex 19.1963 -1.26649 5
      vertex 19.3613 -1.35724 0
      vertex 19.1963 -1.26649 0
    endloop
  endfacet
endsolid OpenSCAD_Model
