solid OpenSCAD_Model
  facet normal 0 0 -1
    outer loop
      vertex 58.65 -10 0
      vertex 38.65 -10 0
      vertex 58.65 0 0
    endloop
  endfacet
  facet normal 0 0 -1
    outer loop
      vertex 95.3 12.25 0
      vertex 97.3 107.75 0
      vertex 97.3 0 0
    endloop
  endfacet
  facet normal 0 0 -1
    outer loop
      vertex 95.3 107.593 0
      vertex 97.3 107.75 0
      vertex 95.3 12.25 0
    endloop
  endfacet
  facet normal 0 0 -1
    outer loop
      vertex 95.2785 107.728 0
      vertex 97.3 107.75 0
      vertex 95.3 107.593 0
    endloop
  endfacet
  facet normal -0 0 -1
    outer loop
      vertex 97.3 107.75 0
      vertex 95.2785 107.728 0
      vertex 97.2021 108.368 0
    endloop
  endfacet
  facet normal -0 0 -1
    outer loop
      vertex 97.2021 108.368 0
      vertex 95.2785 107.728 0
      vertex 96.918 108.926 0
    endloop
  endfacet
  facet normal 0 0 -1
    outer loop
      vertex 58.65 0 0
      vertex 95.3 12.25 0
      vertex 97.3 0 0
    endloop
  endfacet
  facet normal 0 0 -1
    outer loop
      vertex 38.65 0 0
      vertex 58.65 0 0
      vertex 38.65 -10 0
    endloop
  endfacet
  facet normal 0 0 -1
    outer loop
      vertex 38.65 0 0
      vertex 95.3 12.25 0
      vertex 58.65 0 0
    endloop
  endfacet
  facet normal 0 0 -1
    outer loop
      vertex 38.65 0 0
      vertex 2 12.25 0
      vertex 95.3 12.25 0
    endloop
  endfacet
  facet normal 0 0 -1
    outer loop
      vertex 0 107.75 0
      vertex 2 107.593 0
      vertex 2 12.25 0
    endloop
  endfacet
  facet normal 0 -0 -1
    outer loop
      vertex 0.0978851 108.368 0
      vertex 2 107.593 0
      vertex 0 107.75 0
    endloop
  endfacet
  facet normal 0 0 -1
    outer loop
      vertex 2 107.593 0
      vertex 1.38196 109.652 0
      vertex 2 109.75 0
    endloop
  endfacet
  facet normal 0 0 -1
    outer loop
      vertex 2 107.593 0
      vertex 0.824417 109.368 0
      vertex 1.38196 109.652 0
    endloop
  endfacet
  facet normal 0 0 -1
    outer loop
      vertex 2 107.593 0
      vertex 0.381958 108.926 0
      vertex 0.824417 109.368 0
    endloop
  endfacet
  facet normal 0 0 -1
    outer loop
      vertex 0 0 0
      vertex 2 12.25 0
      vertex 38.65 0 0
    endloop
  endfacet
  facet normal 0 0 -1
    outer loop
      vertex 0 107.75 0
      vertex 2 12.25 0
      vertex 0 0 0
    endloop
  endfacet
  facet normal 0 0 -1
    outer loop
      vertex 2 107.593 0
      vertex 0.0978851 108.368 0
      vertex 0.381958 108.926 0
    endloop
  endfacet
  facet normal -0 0 -1
    outer loop
      vertex 96.918 108.926 0
      vertex 95.2785 107.728 0
      vertex 96.4756 109.368 0
    endloop
  endfacet
  facet normal -0 0 -1
    outer loop
      vertex 96.4756 109.368 0
      vertex 95.2785 107.728 0
      vertex 95.918 109.652 0
    endloop
  endfacet
  facet normal -0 0 -1
    outer loop
      vertex 95.918 109.652 0
      vertex 95.2785 107.728 0
      vertex 95.3 109.75 0
    endloop
  endfacet
  facet normal 0 0 -1
    outer loop
      vertex 95.1425 107.75 0
      vertex 95.3 109.75 0
      vertex 95.2785 107.728 0
    endloop
  endfacet
  facet normal 0 0 -1
    outer loop
      vertex 2.15744 107.75 0
      vertex 95.3 109.75 0
      vertex 95.1425 107.75 0
    endloop
  endfacet
  facet normal 0 0 -1
    outer loop
      vertex 2.15744 107.75 0
      vertex 2 109.75 0
      vertex 95.3 109.75 0
    endloop
  endfacet
  facet normal 0 0 -1
    outer loop
      vertex 2.02151 107.728 0
      vertex 2 109.75 0
      vertex 2.15744 107.75 0
    endloop
  endfacet
  facet normal 0 0 -1
    outer loop
      vertex 2 109.75 0
      vertex 2.02151 107.728 0
      vertex 2 107.593 0
    endloop
  endfacet
  facet normal 1 0 0
    outer loop
      vertex 58.65 -9 4.8
      vertex 58.65 -10 4.8
      vertex 58.65 -9 3.8
    endloop
  endfacet
  facet normal 1 0 0
    outer loop
      vertex 58.65 -7 4.8
      vertex 58.65 -8 4.8
      vertex 58.65 -7 3.8
    endloop
  endfacet
  facet normal 1 0 0
    outer loop
      vertex 58.65 -5 4.8
      vertex 58.65 -6 4.8
      vertex 58.65 -5 3.8
    endloop
  endfacet
  facet normal 1 0 0
    outer loop
      vertex 58.65 -3 4.8
      vertex 58.65 -4 4.8
      vertex 58.65 -3 3.8
    endloop
  endfacet
  facet normal 1 0 0
    outer loop
      vertex 58.65 -1 4.8
      vertex 58.65 -2 4.8
      vertex 58.65 -1 3.8
    endloop
  endfacet
  facet normal 1 -0 0
    outer loop
      vertex 58.65 -1 3.8
      vertex 58.65 0 0
      vertex 58.65 0 3.8
    endloop
  endfacet
  facet normal 1 0 0
    outer loop
      vertex 58.65 -2 3.8
      vertex 58.65 -1 3.8
      vertex 58.65 -2 4.8
    endloop
  endfacet
  facet normal 1 0 0
    outer loop
      vertex 58.65 -1 3.8
      vertex 58.65 -2 3.8
      vertex 58.65 0 0
    endloop
  endfacet
  facet normal 1 -0 0
    outer loop
      vertex 58.65 -3 3.8
      vertex 58.65 0 0
      vertex 58.65 -2 3.8
    endloop
  endfacet
  facet normal 1 0 0
    outer loop
      vertex 58.65 -4 3.8
      vertex 58.65 -3 3.8
      vertex 58.65 -4 4.8
    endloop
  endfacet
  facet normal 1 0 0
    outer loop
      vertex 58.65 -3 3.8
      vertex 58.65 -4 3.8
      vertex 58.65 0 0
    endloop
  endfacet
  facet normal 1 -0 0
    outer loop
      vertex 58.65 -5 3.8
      vertex 58.65 0 0
      vertex 58.65 -4 3.8
    endloop
  endfacet
  facet normal 1 0 0
    outer loop
      vertex 58.65 -6 3.8
      vertex 58.65 -5 3.8
      vertex 58.65 -6 4.8
    endloop
  endfacet
  facet normal 1 0 0
    outer loop
      vertex 58.65 -10 0
      vertex 58.65 -5 3.8
      vertex 58.65 -6 3.8
    endloop
  endfacet
  facet normal 1 0 0
    outer loop
      vertex 58.65 -10 0
      vertex 58.65 -6 3.8
      vertex 58.65 -7 3.8
    endloop
  endfacet
  facet normal 1 0 0
    outer loop
      vertex 58.65 -8 3.8
      vertex 58.65 -7 3.8
      vertex 58.65 -8 4.8
    endloop
  endfacet
  facet normal 1 0 0
    outer loop
      vertex 58.65 -10 0
      vertex 58.65 -7 3.8
      vertex 58.65 -8 3.8
    endloop
  endfacet
  facet normal 1 0 0
    outer loop
      vertex 58.65 -10 0
      vertex 58.65 -8 3.8
      vertex 58.65 -9 3.8
    endloop
  endfacet
  facet normal 1 0 0
    outer loop
      vertex 58.65 -10 3.8
      vertex 58.65 -9 3.8
      vertex 58.65 -10 4.8
    endloop
  endfacet
  facet normal 1 0 0
    outer loop
      vertex 58.65 -10 0
      vertex 58.65 -9 3.8
      vertex 58.65 -10 3.8
    endloop
  endfacet
  facet normal 1 0 0
    outer loop
      vertex 58.65 -5 3.8
      vertex 58.65 -10 0
      vertex 58.65 0 0
    endloop
  endfacet
  facet normal -1 0 0
    outer loop
      vertex 38.65 0 0
      vertex 38.65 -1 3.8
      vertex 38.65 0 3.8
    endloop
  endfacet
  facet normal -1 0 0
    outer loop
      vertex 38.65 -1 3.8
      vertex 38.65 -2 3.8
      vertex 38.65 -1 4.8
    endloop
  endfacet
  facet normal -1 0 0
    outer loop
      vertex 38.65 0 0
      vertex 38.65 -2 3.8
      vertex 38.65 -1 3.8
    endloop
  endfacet
  facet normal -1 0 0
    outer loop
      vertex 38.65 0 0
      vertex 38.65 -3 3.8
      vertex 38.65 -2 3.8
    endloop
  endfacet
  facet normal -1 0 0
    outer loop
      vertex 38.65 -3 3.8
      vertex 38.65 -4 3.8
      vertex 38.65 -3 4.8
    endloop
  endfacet
  facet normal -1 0 0
    outer loop
      vertex 38.65 0 0
      vertex 38.65 -4 3.8
      vertex 38.65 -3 3.8
    endloop
  endfacet
  facet normal -1 0 0
    outer loop
      vertex 38.65 0 0
      vertex 38.65 -5 3.8
      vertex 38.65 -4 3.8
    endloop
  endfacet
  facet normal -1 0 0
    outer loop
      vertex 38.65 -5 3.8
      vertex 38.65 -6 3.8
      vertex 38.65 -5 4.8
    endloop
  endfacet
  facet normal -1 0 0
    outer loop
      vertex 38.65 -10 0
      vertex 38.65 -5 3.8
      vertex 38.65 0 0
    endloop
  endfacet
  facet normal -1 -0 0
    outer loop
      vertex 38.65 -5 3.8
      vertex 38.65 -10 0
      vertex 38.65 -6 3.8
    endloop
  endfacet
  facet normal -1 0 0
    outer loop
      vertex 38.65 -7 3.8
      vertex 38.65 -8 3.8
      vertex 38.65 -7 4.8
    endloop
  endfacet
  facet normal -1 -0 0
    outer loop
      vertex 38.65 -6 3.8
      vertex 38.65 -10 0
      vertex 38.65 -7 3.8
    endloop
  endfacet
  facet normal -1 -0 0
    outer loop
      vertex 38.65 -7 3.8
      vertex 38.65 -10 0
      vertex 38.65 -8 3.8
    endloop
  endfacet
  facet normal -1 -0 0
    outer loop
      vertex 38.65 -8 3.8
      vertex 38.65 -10 0
      vertex 38.65 -9 3.8
    endloop
  endfacet
  facet normal -1 0 0
    outer loop
      vertex 38.65 -10 3.8
      vertex 38.65 -9 3.8
      vertex 38.65 -10 0
    endloop
  endfacet
  facet normal -1 0 0
    outer loop
      vertex 38.65 -9 3.8
      vertex 38.65 -10 3.8
      vertex 38.65 -9 4.8
    endloop
  endfacet
  facet normal -1 -0 0
    outer loop
      vertex 38.65 -9 4.8
      vertex 38.65 -10 3.8
      vertex 38.65 -10 4.8
    endloop
  endfacet
  facet normal -1 -0 0
    outer loop
      vertex 38.65 -1 4.8
      vertex 38.65 -2 3.8
      vertex 38.65 -2 4.8
    endloop
  endfacet
  facet normal -1 -0 0
    outer loop
      vertex 38.65 -3 4.8
      vertex 38.65 -4 3.8
      vertex 38.65 -4 4.8
    endloop
  endfacet
  facet normal -1 -0 0
    outer loop
      vertex 38.65 -5 4.8
      vertex 38.65 -6 3.8
      vertex 38.65 -6 4.8
    endloop
  endfacet
  facet normal -1 -0 0
    outer loop
      vertex 38.65 -7 4.8
      vertex 38.65 -8 3.8
      vertex 38.65 -8 4.8
    endloop
  endfacet
  facet normal 0 -1 0
    outer loop
      vertex 38.65 -10 0
      vertex 58.65 -10 3.8
      vertex 38.65 -10 3.8
    endloop
  endfacet
  facet normal 0 -1 -0
    outer loop
      vertex 58.65 -10 3.8
      vertex 38.65 -10 0
      vertex 58.65 -10 0
    endloop
  endfacet
  facet normal 0 -1 0
    outer loop
      vertex 38.65 -10 3.8
      vertex 58.65 -10 4.8
      vertex 38.65 -10 4.8
    endloop
  endfacet
  facet normal 0 -1 -0
    outer loop
      vertex 58.65 -10 4.8
      vertex 38.65 -10 3.8
      vertex 58.65 -10 3.8
    endloop
  endfacet
  facet normal 0 -1 0
    outer loop
      vertex 0 0 4.8
      vertex 38.65 0 3.8
      vertex 97.3 0 4.8
    endloop
  endfacet
  facet normal 0 -1 0
    outer loop
      vertex 0 0 0
      vertex 38.65 0 3.8
      vertex 0 0 4.8
    endloop
  endfacet
  facet normal 0 -1 -0
    outer loop
      vertex 38.65 0 3.8
      vertex 0 0 0
      vertex 38.65 0 0
    endloop
  endfacet
  facet normal 0 -1 0
    outer loop
      vertex 58.65 0 3.8
      vertex 97.3 0 4.8
      vertex 38.65 0 3.8
    endloop
  endfacet
  facet normal 0 -1 0
    outer loop
      vertex 97.3 0 0
      vertex 58.65 0 3.8
      vertex 58.65 0 0
    endloop
  endfacet
  facet normal 0 -1 0
    outer loop
      vertex 58.65 0 3.8
      vertex 97.3 0 0
      vertex 97.3 0 4.8
    endloop
  endfacet
  facet normal -0 0 1
    outer loop
      vertex 38.65 -9 4.8
      vertex 58.65 -10 4.8
      vertex 58.65 -9 4.8
    endloop
  endfacet
  facet normal 0 0 1
    outer loop
      vertex 58.65 -10 4.8
      vertex 38.65 -9 4.8
      vertex 38.65 -10 4.8
    endloop
  endfacet
  facet normal -0 0 1
    outer loop
      vertex 38.65 -1 4.8
      vertex 58.65 -2 4.8
      vertex 58.65 -1 4.8
    endloop
  endfacet
  facet normal 0 0 1
    outer loop
      vertex 58.65 -2 4.8
      vertex 38.65 -1 4.8
      vertex 38.65 -2 4.8
    endloop
  endfacet
  facet normal -0 0 1
    outer loop
      vertex 38.65 -3 4.8
      vertex 58.65 -4 4.8
      vertex 58.65 -3 4.8
    endloop
  endfacet
  facet normal 0 0 1
    outer loop
      vertex 58.65 -4 4.8
      vertex 38.65 -3 4.8
      vertex 38.65 -4 4.8
    endloop
  endfacet
  facet normal -0 0 1
    outer loop
      vertex 38.65 -5 4.8
      vertex 58.65 -6 4.8
      vertex 58.65 -5 4.8
    endloop
  endfacet
  facet normal 0 0 1
    outer loop
      vertex 58.65 -6 4.8
      vertex 38.65 -5 4.8
      vertex 38.65 -6 4.8
    endloop
  endfacet
  facet normal -0 0 1
    outer loop
      vertex 38.65 -7 4.8
      vertex 58.65 -8 4.8
      vertex 58.65 -7 4.8
    endloop
  endfacet
  facet normal 0 0 1
    outer loop
      vertex 58.65 -8 4.8
      vertex 38.65 -7 4.8
      vertex 38.65 -8 4.8
    endloop
  endfacet
  facet normal -0 0 1
    outer loop
      vertex 38.65 0 3.8
      vertex 58.65 -1 3.8
      vertex 58.65 0 3.8
    endloop
  endfacet
  facet normal 0 0 1
    outer loop
      vertex 58.65 -1 3.8
      vertex 38.65 0 3.8
      vertex 38.65 -1 3.8
    endloop
  endfacet
  facet normal -0 0 1
    outer loop
      vertex 38.65 -2 3.8
      vertex 58.65 -3 3.8
      vertex 58.65 -2 3.8
    endloop
  endfacet
  facet normal 0 0 1
    outer loop
      vertex 58.65 -3 3.8
      vertex 38.65 -2 3.8
      vertex 38.65 -3 3.8
    endloop
  endfacet
  facet normal -0 0 1
    outer loop
      vertex 38.65 -4 3.8
      vertex 58.65 -5 3.8
      vertex 58.65 -4 3.8
    endloop
  endfacet
  facet normal 0 0 1
    outer loop
      vertex 58.65 -5 3.8
      vertex 38.65 -4 3.8
      vertex 38.65 -5 3.8
    endloop
  endfacet
  facet normal -0 0 1
    outer loop
      vertex 38.65 -6 3.8
      vertex 58.65 -7 3.8
      vertex 58.65 -6 3.8
    endloop
  endfacet
  facet normal 0 0 1
    outer loop
      vertex 58.65 -7 3.8
      vertex 38.65 -6 3.8
      vertex 38.65 -7 3.8
    endloop
  endfacet
  facet normal -0 0 1
    outer loop
      vertex 38.65 -8 3.8
      vertex 58.65 -9 3.8
      vertex 58.65 -8 3.8
    endloop
  endfacet
  facet normal 0 0 1
    outer loop
      vertex 58.65 -9 3.8
      vertex 38.65 -8 3.8
      vertex 38.65 -9 3.8
    endloop
  endfacet
  facet normal 0 1 -0
    outer loop
      vertex 58.65 -1 3.8
      vertex 38.65 -1 4.8
      vertex 58.65 -1 4.8
    endloop
  endfacet
  facet normal 0 1 0
    outer loop
      vertex 38.65 -1 4.8
      vertex 58.65 -1 3.8
      vertex 38.65 -1 3.8
    endloop
  endfacet
  facet normal 0 -1 0
    outer loop
      vertex 38.65 -2 3.8
      vertex 58.65 -2 4.8
      vertex 38.65 -2 4.8
    endloop
  endfacet
  facet normal 0 -1 -0
    outer loop
      vertex 58.65 -2 4.8
      vertex 38.65 -2 3.8
      vertex 58.65 -2 3.8
    endloop
  endfacet
  facet normal 0 1 -0
    outer loop
      vertex 58.65 -3 3.8
      vertex 38.65 -3 4.8
      vertex 58.65 -3 4.8
    endloop
  endfacet
  facet normal 0 1 0
    outer loop
      vertex 38.65 -3 4.8
      vertex 58.65 -3 3.8
      vertex 38.65 -3 3.8
    endloop
  endfacet
  facet normal 0 -1 0
    outer loop
      vertex 38.65 -4 3.8
      vertex 58.65 -4 4.8
      vertex 38.65 -4 4.8
    endloop
  endfacet
  facet normal 0 -1 -0
    outer loop
      vertex 58.65 -4 4.8
      vertex 38.65 -4 3.8
      vertex 58.65 -4 3.8
    endloop
  endfacet
  facet normal 0 1 -0
    outer loop
      vertex 58.65 -5 3.8
      vertex 38.65 -5 4.8
      vertex 58.65 -5 4.8
    endloop
  endfacet
  facet normal 0 1 0
    outer loop
      vertex 38.65 -5 4.8
      vertex 58.65 -5 3.8
      vertex 38.65 -5 3.8
    endloop
  endfacet
  facet normal 0 -1 0
    outer loop
      vertex 38.65 -6 3.8
      vertex 58.65 -6 4.8
      vertex 38.65 -6 4.8
    endloop
  endfacet
  facet normal 0 -1 -0
    outer loop
      vertex 58.65 -6 4.8
      vertex 38.65 -6 3.8
      vertex 58.65 -6 3.8
    endloop
  endfacet
  facet normal 0 1 -0
    outer loop
      vertex 58.65 -7 3.8
      vertex 38.65 -7 4.8
      vertex 58.65 -7 4.8
    endloop
  endfacet
  facet normal 0 1 0
    outer loop
      vertex 38.65 -7 4.8
      vertex 58.65 -7 3.8
      vertex 38.65 -7 3.8
    endloop
  endfacet
  facet normal 0 -1 0
    outer loop
      vertex 38.65 -8 3.8
      vertex 58.65 -8 4.8
      vertex 38.65 -8 4.8
    endloop
  endfacet
  facet normal 0 -1 -0
    outer loop
      vertex 58.65 -8 4.8
      vertex 38.65 -8 3.8
      vertex 58.65 -8 3.8
    endloop
  endfacet
  facet normal 0 1 -0
    outer loop
      vertex 58.65 -9 3.8
      vertex 38.65 -9 4.8
      vertex 58.65 -9 4.8
    endloop
  endfacet
  facet normal 0 1 0
    outer loop
      vertex 38.65 -9 4.8
      vertex 58.65 -9 3.8
      vertex 38.65 -9 3.8
    endloop
  endfacet
  facet normal 0 0 1
    outer loop
      vertex 95.3 12.25 4.8
      vertex 38.65 8 4.8
      vertex 58.65 8 4.8
    endloop
  endfacet
  facet normal 0 0 1
    outer loop
      vertex 38.65 8 4.8
      vertex 2 12.25 4.8
      vertex 38.65 2 4.8
    endloop
  endfacet
  facet normal -0 0 1
    outer loop
      vertex 2 12.25 4.8
      vertex 38.65 8 4.8
      vertex 95.3 12.25 4.8
    endloop
  endfacet
  facet normal 0 0 1
    outer loop
      vertex 97.3 107.75 4.8
      vertex 95.2785 107.728 4.8
      vertex 95.3 107.593 4.8
    endloop
  endfacet
  facet normal 0 0 1
    outer loop
      vertex 95.3 109.75 4.8
      vertex 95.1425 107.75 4.8
      vertex 95.2785 107.728 4.8
    endloop
  endfacet
  facet normal 0 0 1
    outer loop
      vertex 95.3 109.75 4.8
      vertex 2.15744 107.75 4.8
      vertex 95.1425 107.75 4.8
    endloop
  endfacet
  facet normal -0 0 1
    outer loop
      vertex 2 109.75 4.8
      vertex 2.15744 107.75 4.8
      vertex 95.3 109.75 4.8
    endloop
  endfacet
  facet normal 0 0 1
    outer loop
      vertex 2 109.75 4.8
      vertex 2.02151 107.728 4.8
      vertex 2.15744 107.75 4.8
    endloop
  endfacet
  facet normal -0 0 1
    outer loop
      vertex 1.38196 109.652 4.8
      vertex 2.02151 107.728 4.8
      vertex 2 109.75 4.8
    endloop
  endfacet
  facet normal -0 0 1
    outer loop
      vertex 0.824417 109.368 4.8
      vertex 2.02151 107.728 4.8
      vertex 1.38196 109.652 4.8
    endloop
  endfacet
  facet normal -0 0 1
    outer loop
      vertex 0.381958 108.926 4.8
      vertex 2.02151 107.728 4.8
      vertex 0.824417 109.368 4.8
    endloop
  endfacet
  facet normal 0 0 1
    outer loop
      vertex 95.2785 107.728 4.8
      vertex 97.3 107.75 4.8
      vertex 97.2021 108.368 4.8
    endloop
  endfacet
  facet normal 0 0 1
    outer loop
      vertex 95.2785 107.728 4.8
      vertex 97.2021 108.368 4.8
      vertex 96.918 108.926 4.8
    endloop
  endfacet
  facet normal 0 0 1
    outer loop
      vertex 95.2785 107.728 4.8
      vertex 96.918 108.926 4.8
      vertex 96.4756 109.368 4.8
    endloop
  endfacet
  facet normal 0 0 1
    outer loop
      vertex 95.2785 107.728 4.8
      vertex 96.4756 109.368 4.8
      vertex 95.918 109.652 4.8
    endloop
  endfacet
  facet normal 0 0 1
    outer loop
      vertex 95.2785 107.728 4.8
      vertex 95.918 109.652 4.8
      vertex 95.3 109.75 4.8
    endloop
  endfacet
  facet normal 0 0 1
    outer loop
      vertex 97.3 107.75 4.8
      vertex 95.3 107.593 4.8
      vertex 95.3 12.25 4.8
    endloop
  endfacet
  facet normal 0 0 1
    outer loop
      vertex 97.3 107.75 4.8
      vertex 95.3 12.25 4.8
      vertex 97.3 0 4.8
    endloop
  endfacet
  facet normal 0 0 1
    outer loop
      vertex 58.65 2 4.8
      vertex 95.3 12.25 4.8
      vertex 58.65 8 4.8
    endloop
  endfacet
  facet normal 0 0 1
    outer loop
      vertex 95.3 12.25 4.8
      vertex 58.65 2 4.8
      vertex 97.3 0 4.8
    endloop
  endfacet
  facet normal -0 0 1
    outer loop
      vertex 38.65 2 4.8
      vertex 97.3 0 4.8
      vertex 58.65 2 4.8
    endloop
  endfacet
  facet normal -0 0 1
    outer loop
      vertex 0.0978851 108.368 4.8
      vertex 2.02151 107.728 4.8
      vertex 0.381958 108.926 4.8
    endloop
  endfacet
  facet normal -0 0 1
    outer loop
      vertex 0 107.75 4.8
      vertex 2.02151 107.728 4.8
      vertex 0.0978851 108.368 4.8
    endloop
  endfacet
  facet normal 0 0 1
    outer loop
      vertex 2.02151 107.728 4.8
      vertex 0 107.75 4.8
      vertex 2 107.593 4.8
    endloop
  endfacet
  facet normal 0 0 1
    outer loop
      vertex 2 107.593 4.8
      vertex 0 107.75 4.8
      vertex 2 12.25 4.8
    endloop
  endfacet
  facet normal 0 0 1
    outer loop
      vertex 38.65 2 4.8
      vertex 0 0 4.8
      vertex 97.3 0 4.8
    endloop
  endfacet
  facet normal 0 0 1
    outer loop
      vertex 2 12.25 4.8
      vertex 0 0 4.8
      vertex 38.65 2 4.8
    endloop
  endfacet
  facet normal 0 0 1
    outer loop
      vertex 0 0 4.8
      vertex 2 12.25 4.8
      vertex 0 107.75 4.8
    endloop
  endfacet
  facet normal 0.891012 0.45398 0
    outer loop
      vertex 97.2021 108.368 4.8
      vertex 96.918 108.926 0
      vertex 96.918 108.926 4.8
    endloop
  endfacet
  facet normal 0.891012 0.45398 0
    outer loop
      vertex 96.918 108.926 0
      vertex 97.2021 108.368 4.8
      vertex 97.2021 108.368 0
    endloop
  endfacet
  facet normal 0.707107 0.707107 0
    outer loop
      vertex 96.918 108.926 4.8
      vertex 96.4756 109.368 0
      vertex 96.4756 109.368 4.8
    endloop
  endfacet
  facet normal 0.707107 0.707107 0
    outer loop
      vertex 96.4756 109.368 0
      vertex 96.918 108.926 4.8
      vertex 96.918 108.926 0
    endloop
  endfacet
  facet normal 0.45398 0.891012 -0
    outer loop
      vertex 96.4756 109.368 0
      vertex 95.918 109.652 4.8
      vertex 96.4756 109.368 4.8
    endloop
  endfacet
  facet normal 0.45398 0.891012 0
    outer loop
      vertex 95.918 109.652 4.8
      vertex 96.4756 109.368 0
      vertex 95.918 109.652 0
    endloop
  endfacet
  facet normal 0.156457 0.987685 -0
    outer loop
      vertex 95.918 109.652 0
      vertex 95.3 109.75 4.8
      vertex 95.918 109.652 4.8
    endloop
  endfacet
  facet normal 0.156457 0.987685 0
    outer loop
      vertex 95.3 109.75 4.8
      vertex 95.918 109.652 0
      vertex 95.3 109.75 0
    endloop
  endfacet
  facet normal 0 1 -0
    outer loop
      vertex 95.3 109.75 0
      vertex 2 109.75 4.8
      vertex 95.3 109.75 4.8
    endloop
  endfacet
  facet normal 0 1 0
    outer loop
      vertex 2 109.75 4.8
      vertex 95.3 109.75 0
      vertex 2 109.75 0
    endloop
  endfacet
  facet normal -0.156453 0.987685 0
    outer loop
      vertex 2 109.75 0
      vertex 1.38196 109.652 4.8
      vertex 2 109.75 4.8
    endloop
  endfacet
  facet normal -0.156453 0.987685 0
    outer loop
      vertex 1.38196 109.652 4.8
      vertex 2 109.75 0
      vertex 1.38196 109.652 0
    endloop
  endfacet
  facet normal -0.45398 0.891012 0
    outer loop
      vertex 1.38196 109.652 0
      vertex 0.824417 109.368 4.8
      vertex 1.38196 109.652 4.8
    endloop
  endfacet
  facet normal -0.45398 0.891012 0
    outer loop
      vertex 0.824417 109.368 4.8
      vertex 1.38196 109.652 0
      vertex 0.824417 109.368 0
    endloop
  endfacet
  facet normal -0.707107 0.707107 0
    outer loop
      vertex 0.381958 108.926 0
      vertex 0.824417 109.368 4.8
      vertex 0.824417 109.368 0
    endloop
  endfacet
  facet normal -0.707107 0.707107 0
    outer loop
      vertex 0.824417 109.368 4.8
      vertex 0.381958 108.926 0
      vertex 0.381958 108.926 4.8
    endloop
  endfacet
  facet normal -0.891012 0.45398 0
    outer loop
      vertex 0.0978851 108.368 0
      vertex 0.381958 108.926 4.8
      vertex 0.381958 108.926 0
    endloop
  endfacet
  facet normal -0.891012 0.45398 0
    outer loop
      vertex 0.381958 108.926 4.8
      vertex 0.0978851 108.368 0
      vertex 0.0978851 108.368 4.8
    endloop
  endfacet
  facet normal -0.987689 0.156433 0
    outer loop
      vertex 0 107.75 0
      vertex 0.0978851 108.368 4.8
      vertex 0.0978851 108.368 0
    endloop
  endfacet
  facet normal -0.987689 0.156433 0
    outer loop
      vertex 0.0978851 108.368 4.8
      vertex 0 107.75 0
      vertex 0 107.75 4.8
    endloop
  endfacet
  facet normal -1 0 0
    outer loop
      vertex 0 0 0
      vertex 0 107.75 4.8
      vertex 0 107.75 0
    endloop
  endfacet
  facet normal -1 -0 0
    outer loop
      vertex 0 107.75 4.8
      vertex 0 0 0
      vertex 0 0 4.8
    endloop
  endfacet
  facet normal 1 -0 0
    outer loop
      vertex 97.3 0 4.8
      vertex 97.3 107.75 0
      vertex 97.3 107.75 4.8
    endloop
  endfacet
  facet normal 1 0 0
    outer loop
      vertex 97.3 107.75 0
      vertex 97.3 0 4.8
      vertex 97.3 0 0
    endloop
  endfacet
  facet normal 0.987685 0.156457 0
    outer loop
      vertex 97.3 107.75 4.8
      vertex 97.2021 108.368 0
      vertex 97.2021 108.368 4.8
    endloop
  endfacet
  facet normal 0.987685 0.156457 0
    outer loop
      vertex 97.2021 108.368 0
      vertex 97.3 107.75 4.8
      vertex 97.3 107.75 0
    endloop
  endfacet
  facet normal 1 -0 0
    outer loop
      vertex 2 12.25 4.8
      vertex 2 107.593 0
      vertex 2 107.593 4.8
    endloop
  endfacet
  facet normal 1 0 0
    outer loop
      vertex 2 107.593 0
      vertex 2 12.25 4.8
      vertex 2 12.25 0
    endloop
  endfacet
  facet normal 0.98769 -0.156424 0
    outer loop
      vertex 2 107.593 4.8
      vertex 2.02151 107.728 0
      vertex 2.02151 107.728 4.8
    endloop
  endfacet
  facet normal 0.98769 -0.156424 0
    outer loop
      vertex 2.02151 107.728 0
      vertex 2 107.593 4.8
      vertex 2 107.593 0
    endloop
  endfacet
  facet normal 0.156447 -0.987686 0
    outer loop
      vertex 2.02151 107.728 0
      vertex 2.15744 107.75 4.8
      vertex 2.02151 107.728 4.8
    endloop
  endfacet
  facet normal 0.156447 -0.987686 0
    outer loop
      vertex 2.15744 107.75 4.8
      vertex 2.02151 107.728 0
      vertex 2.15744 107.75 0
    endloop
  endfacet
  facet normal 0 -1 0
    outer loop
      vertex 2.15744 107.75 0
      vertex 95.1425 107.75 4.8
      vertex 2.15744 107.75 4.8
    endloop
  endfacet
  facet normal 0 -1 -0
    outer loop
      vertex 95.1425 107.75 4.8
      vertex 2.15744 107.75 0
      vertex 95.1425 107.75 0
    endloop
  endfacet
  facet normal -0.156464 -0.987684 0
    outer loop
      vertex 95.1425 107.75 0
      vertex 95.2785 107.728 4.8
      vertex 95.1425 107.75 4.8
    endloop
  endfacet
  facet normal -0.156464 -0.987684 -0
    outer loop
      vertex 95.2785 107.728 4.8
      vertex 95.1425 107.75 0
      vertex 95.2785 107.728 0
    endloop
  endfacet
  facet normal -0.987684 -0.156464 0
    outer loop
      vertex 95.3 107.593 0
      vertex 95.2785 107.728 4.8
      vertex 95.2785 107.728 0
    endloop
  endfacet
  facet normal -0.987684 -0.156464 0
    outer loop
      vertex 95.2785 107.728 4.8
      vertex 95.3 107.593 0
      vertex 95.3 107.593 4.8
    endloop
  endfacet
  facet normal -1 0 0
    outer loop
      vertex 95.3 12.25 0
      vertex 95.3 107.593 4.8
      vertex 95.3 107.593 0
    endloop
  endfacet
  facet normal -1 -0 0
    outer loop
      vertex 95.3 107.593 4.8
      vertex 95.3 12.25 0
      vertex 95.3 12.25 4.8
    endloop
  endfacet
  facet normal 0 1 -0
    outer loop
      vertex 95.3 12.25 0
      vertex 2 12.25 4.8
      vertex 95.3 12.25 4.8
    endloop
  endfacet
  facet normal 0 1 0
    outer loop
      vertex 2 12.25 4.8
      vertex 95.3 12.25 0
      vertex 2 12.25 0
    endloop
  endfacet
  facet normal 1 0 0
    outer loop
      vertex 58.65 3 6.8
      vertex 58.65 2 4.8
      vertex 58.65 8 4.8
    endloop
  endfacet
  facet normal 0 -0.894427 0.447214
    outer loop
      vertex 38.65 2 4.8
      vertex 58.65 3 6.8
      vertex 38.65 3 6.8
    endloop
  endfacet
  facet normal 0 -0.894427 0.447214
    outer loop
      vertex 58.65 3 6.8
      vertex 38.65 2 4.8
      vertex 58.65 2 4.8
    endloop
  endfacet
  facet normal -1 0 0
    outer loop
      vertex 38.65 8 4.8
      vertex 38.65 2 4.8
      vertex 38.65 3 6.8
    endloop
  endfacet
  facet normal -0 0.371391 0.928477
    outer loop
      vertex 38.65 8 4.8
      vertex 58.65 3 6.8
      vertex 58.65 8 4.8
    endloop
  endfacet
  facet normal 0 0.371391 0.928477
    outer loop
      vertex 58.65 3 6.8
      vertex 38.65 8 4.8
      vertex 38.65 3 6.8
    endloop
  endfacet
endsolid OpenSCAD_Model
