solid OpenSCAD_Model
  facet normal -0.987689 -0.156433 0
    outer loop
      vertex -4.2 0 -4
      vertex -4.33704 0.865247 -1
      vertex -4.33704 0.865247 -4
    endloop
  endfacet
  facet normal -0.987689 -0.156433 0
    outer loop
      vertex -4.33704 0.865247 -1
      vertex -4.2 0 -4
      vertex -4.2 0 -1
    endloop
  endfacet
  facet normal -0.453996 0.891004 0
    outer loop
      vertex -5.3542 -2.26525 -4
      vertex -5.5 -2.33954 -1
      vertex -5.3542 -2.26525 -1
    endloop
  endfacet
  facet normal -0.45399 0.891007 3.58244e-07
    outer loop
      vertex -6.13475 -2.66296 -4
      vertex -5.5 -2.33954 -1
      vertex -5.3542 -2.26525 -4
    endloop
  endfacet
  facet normal -0.453989 0.891007 0
    outer loop
      vertex -5.5 -2.33954 -1
      vertex -6.13475 -2.66296 -4
      vertex -6.13475 -2.66296 -1
    endloop
  endfacet
  facet normal 0.453989 0.891007 -0
    outer loop
      vertex -7.86525 -2.66296 -4
      vertex -8.5 -2.33954 -1
      vertex -7.86525 -2.66296 -1
    endloop
  endfacet
  facet normal 0.45399 0.891007 3.58244e-07
    outer loop
      vertex -8.6458 -2.26525 -4
      vertex -8.5 -2.33954 -1
      vertex -7.86525 -2.66296 -4
    endloop
  endfacet
  facet normal 0.453996 0.891004 0
    outer loop
      vertex -8.5 -2.33954 -1
      vertex -8.6458 -2.26525 -4
      vertex -8.6458 -2.26525 -1
    endloop
  endfacet
  facet normal 0.987689 -0.156433 0
    outer loop
      vertex -9.8 0 -1
      vertex -9.66296 0.865247 -4
      vertex -9.66296 0.865247 -1
    endloop
  endfacet
  facet normal 0.987689 -0.156433 0
    outer loop
      vertex -9.66296 0.865247 -4
      vertex -9.8 0 -1
      vertex -9.8 0 -4
    endloop
  endfacet
  facet normal -0.891007 -0.453989 0
    outer loop
      vertex -4.33704 0.865247 -4
      vertex -4.73475 1.6458 -1
      vertex -4.73475 1.6458 -4
    endloop
  endfacet
  facet normal -0.891007 -0.453989 0
    outer loop
      vertex -4.73475 1.6458 -1
      vertex -4.33704 0.865247 -4
      vertex -4.33704 0.865247 -1
    endloop
  endfacet
  facet normal -0.156432 0.987689 0
    outer loop
      vertex -6.13475 -2.66296 -4
      vertex -7 -2.8 -1
      vertex -6.13475 -2.66296 -1
    endloop
  endfacet
  facet normal -0.156432 0.987689 0
    outer loop
      vertex -7 -2.8 -1
      vertex -6.13475 -2.66296 -4
      vertex -7 -2.8 -4
    endloop
  endfacet
  facet normal -0.453989 -0.891007 0
    outer loop
      vertex -6.13475 2.66296 -4
      vertex -5.5 2.33954 -1
      vertex -6.13475 2.66296 -1
    endloop
  endfacet
  facet normal -0.45399 -0.891007 3.58244e-07
    outer loop
      vertex -5.3542 2.26525 -4
      vertex -5.5 2.33954 -1
      vertex -6.13475 2.66296 -4
    endloop
  endfacet
  facet normal -0.453996 -0.891004 0
    outer loop
      vertex -5.5 2.33954 -1
      vertex -5.3542 2.26525 -4
      vertex -5.3542 2.26525 -1
    endloop
  endfacet
  facet normal 0.156432 -0.987689 0
    outer loop
      vertex -7.86525 2.66296 -4
      vertex -7 2.8 -1
      vertex -7.86525 2.66296 -1
    endloop
  endfacet
  facet normal 0.156432 -0.987689 0
    outer loop
      vertex -7 2.8 -1
      vertex -7.86525 2.66296 -4
      vertex -7 2.8 -4
    endloop
  endfacet
  facet normal 0.987689 0.156433 0
    outer loop
      vertex -9.66296 -0.865247 -1
      vertex -9.8 0 -4
      vertex -9.8 0 -1
    endloop
  endfacet
  facet normal 0.987689 0.156433 0
    outer loop
      vertex -9.8 0 -4
      vertex -9.66296 -0.865247 -1
      vertex -9.66296 -0.865247 -4
    endloop
  endfacet
  facet normal 0.156432 0.987689 -0
    outer loop
      vertex -7 -2.8 -4
      vertex -7.86525 -2.66296 -1
      vertex -7 -2.8 -1
    endloop
  endfacet
  facet normal 0.156432 0.987689 0
    outer loop
      vertex -7.86525 -2.66296 -1
      vertex -7 -2.8 -4
      vertex -7.86525 -2.66296 -4
    endloop
  endfacet
  facet normal 0.891007 -0.453989 0
    outer loop
      vertex -9.66296 0.865247 -1
      vertex -9.26525 1.6458 -4
      vertex -9.26525 1.6458 -1
    endloop
  endfacet
  facet normal 0.891007 -0.453989 0
    outer loop
      vertex -9.26525 1.6458 -4
      vertex -9.66296 0.865247 -1
      vertex -9.66296 0.865247 -4
    endloop
  endfacet
  facet normal 0.707107 -0.707107 0
    outer loop
      vertex -9.26525 1.6458 -1
      vertex -8.6458 2.26525 -4
      vertex -8.6458 2.26525 -1
    endloop
  endfacet
  facet normal 0.707107 -0.707107 0
    outer loop
      vertex -8.6458 2.26525 -4
      vertex -9.26525 1.6458 -1
      vertex -9.26525 1.6458 -4
    endloop
  endfacet
  facet normal 0.453996 -0.891004 0
    outer loop
      vertex -8.6458 2.26525 -4
      vertex -8.5 2.33954 -1
      vertex -8.6458 2.26525 -1
    endloop
  endfacet
  facet normal 0.45399 -0.891007 3.58244e-07
    outer loop
      vertex -7.86525 2.66296 -4
      vertex -8.5 2.33954 -1
      vertex -8.6458 2.26525 -4
    endloop
  endfacet
  facet normal 0.453989 -0.891007 0
    outer loop
      vertex -8.5 2.33954 -1
      vertex -7.86525 2.66296 -4
      vertex -7.86525 2.66296 -1
    endloop
  endfacet
  facet normal 0.707107 0.707107 0
    outer loop
      vertex -8.6458 -2.26525 -1
      vertex -9.26525 -1.6458 -4
      vertex -9.26525 -1.6458 -1
    endloop
  endfacet
  facet normal 0.707107 0.707107 0
    outer loop
      vertex -9.26525 -1.6458 -4
      vertex -8.6458 -2.26525 -1
      vertex -8.6458 -2.26525 -4
    endloop
  endfacet
  facet normal 0.891007 0.453989 0
    outer loop
      vertex -9.26525 -1.6458 -1
      vertex -9.66296 -0.865247 -4
      vertex -9.66296 -0.865247 -1
    endloop
  endfacet
  facet normal 0.891007 0.453989 0
    outer loop
      vertex -9.66296 -0.865247 -4
      vertex -9.26525 -1.6458 -1
      vertex -9.26525 -1.6458 -4
    endloop
  endfacet
  facet normal -0.707107 0.707107 0
    outer loop
      vertex -5.3542 -2.26525 -4
      vertex -4.73475 -1.6458 -1
      vertex -4.73475 -1.6458 -4
    endloop
  endfacet
  facet normal -0.707107 0.707107 0
    outer loop
      vertex -4.73475 -1.6458 -1
      vertex -5.3542 -2.26525 -4
      vertex -5.3542 -2.26525 -1
    endloop
  endfacet
  facet normal -0.707107 -0.707107 0
    outer loop
      vertex -4.73475 1.6458 -4
      vertex -5.3542 2.26525 -1
      vertex -5.3542 2.26525 -4
    endloop
  endfacet
  facet normal -0.707107 -0.707107 0
    outer loop
      vertex -5.3542 2.26525 -1
      vertex -4.73475 1.6458 -4
      vertex -4.73475 1.6458 -1
    endloop
  endfacet
  facet normal -0.156432 -0.987689 0
    outer loop
      vertex -7 2.8 -4
      vertex -6.13475 2.66296 -1
      vertex -7 2.8 -1
    endloop
  endfacet
  facet normal -0.156432 -0.987689 -0
    outer loop
      vertex -6.13475 2.66296 -1
      vertex -7 2.8 -4
      vertex -6.13475 2.66296 -4
    endloop
  endfacet
  facet normal -0.987689 0.156433 0
    outer loop
      vertex -4.33704 -0.865247 -4
      vertex -4.2 0 -1
      vertex -4.2 0 -4
    endloop
  endfacet
  facet normal -0.987689 0.156433 0
    outer loop
      vertex -4.2 0 -1
      vertex -4.33704 -0.865247 -4
      vertex -4.33704 -0.865247 -1
    endloop
  endfacet
  facet normal -0 0 1
    outer loop
      vertex -6.13475 -2.66296 -1
      vertex -5.5 -2.8 -1
      vertex -5.5 -2.33954 -1
    endloop
  endfacet
  facet normal 0 0 1
    outer loop
      vertex -5.5 -2.8 -1
      vertex -6.13475 -2.66296 -1
      vertex -7 -2.8 -1
    endloop
  endfacet
  facet normal 0 0 1
    outer loop
      vertex -7.86525 -2.66296 -1
      vertex -8.5 -2.8 -1
      vertex -7 -2.8 -1
    endloop
  endfacet
  facet normal 0 0 1
    outer loop
      vertex -8.5 -2.8 -1
      vertex -7.86525 -2.66296 -1
      vertex -8.5 -2.33954 -1
    endloop
  endfacet
  facet normal -0 0 1
    outer loop
      vertex -8.5 2.8 -1
      vertex -7.86525 2.66296 -1
      vertex -7 2.8 -1
    endloop
  endfacet
  facet normal 0 0 1
    outer loop
      vertex -7.86525 2.66296 -1
      vertex -8.5 2.8 -1
      vertex -8.5 2.33954 -1
    endloop
  endfacet
  facet normal 0 0 1
    outer loop
      vertex -5.5 2.8 -1
      vertex -6.13475 2.66296 -1
      vertex -5.5 2.33954 -1
    endloop
  endfacet
  facet normal 0 -0 1
    outer loop
      vertex -6.13475 2.66296 -1
      vertex -5.5 2.8 -1
      vertex -7 2.8 -1
    endloop
  endfacet
  facet normal 0 0 -1
    outer loop
      vertex -4.33704 -0.865247 -1
      vertex -4.33704 0.865247 -1
      vertex -4.2 0 -1
    endloop
  endfacet
  facet normal 0 0 -1
    outer loop
      vertex -5.5 -2.33954 -1
      vertex -4.33704 -0.865247 -1
      vertex -4.73475 -1.6458 -1
    endloop
  endfacet
  facet normal -0 0 -1
    outer loop
      vertex -4.33704 -0.865247 -1
      vertex -5.5 -2.33954 -1
      vertex -4.33704 0.865247 -1
    endloop
  endfacet
  facet normal 0 0 -1
    outer loop
      vertex -5.5 -2.33954 -1
      vertex -4.73475 -1.6458 -1
      vertex -5.3542 -2.26525 -1
    endloop
  endfacet
  facet normal 0 0 -1
    outer loop
      vertex -5.5 2.33954 -1
      vertex -4.33704 0.865247 -1
      vertex -5.5 -2.33954 -1
    endloop
  endfacet
  facet normal 0 0 -1
    outer loop
      vertex -4.33704 0.865247 -1
      vertex -5.5 2.33954 -1
      vertex -4.73475 1.6458 -1
    endloop
  endfacet
  facet normal 0 0 -1
    outer loop
      vertex -4.73475 1.6458 -1
      vertex -5.5 2.33954 -1
      vertex -5.3542 2.26525 -1
    endloop
  endfacet
  facet normal 0 0 -1
    outer loop
      vertex -9.26525 -1.6458 -1
      vertex -8.5 -2.33954 -1
      vertex -8.6458 -2.26525 -1
    endloop
  endfacet
  facet normal 0 0 -1
    outer loop
      vertex -9.66296 -0.865247 -1
      vertex -8.5 -2.33954 -1
      vertex -9.26525 -1.6458 -1
    endloop
  endfacet
  facet normal 0 0 -1
    outer loop
      vertex -8.5 -2.33954 -1
      vertex -9.66296 -0.865247 -1
      vertex -8.5 2.33954 -1
    endloop
  endfacet
  facet normal 0 0 -1
    outer loop
      vertex -8.5 2.33954 -1
      vertex -9.26525 1.6458 -1
      vertex -8.6458 2.26525 -1
    endloop
  endfacet
  facet normal 0 0 -1
    outer loop
      vertex -9.66296 0.865247 -1
      vertex -8.5 2.33954 -1
      vertex -9.66296 -0.865247 -1
    endloop
  endfacet
  facet normal 0 0 -1
    outer loop
      vertex -8.5 2.33954 -1
      vertex -9.66296 0.865247 -1
      vertex -9.26525 1.6458 -1
    endloop
  endfacet
  facet normal 0 -0 -1
    outer loop
      vertex -9.66296 0.865247 -1
      vertex -9.66296 -0.865247 -1
      vertex -9.8 0 -1
    endloop
  endfacet
  facet normal -0.891007 0.453989 0
    outer loop
      vertex -4.73475 -1.6458 -4
      vertex -4.33704 -0.865247 -1
      vertex -4.33704 -0.865247 -4
    endloop
  endfacet
  facet normal -0.891007 0.453989 0
    outer loop
      vertex -4.33704 -0.865247 -1
      vertex -4.73475 -1.6458 -4
      vertex -4.73475 -1.6458 -1
    endloop
  endfacet
  facet normal 0 0 -1
    outer loop
      vertex 9.66296 -0.865247 -4
      vertex 11.35 -1.29999 -4
      vertex 11.2032 -2.22704 -4
    endloop
  endfacet
  facet normal 0 0 -1
    outer loop
      vertex 11.35 -1.29999 -4
      vertex 9.8 0 -4
      vertex 11.35 1.3 -4
    endloop
  endfacet
  facet normal 0 0 -1
    outer loop
      vertex 9.26525 -1.6458 -4
      vertex 11.2032 -2.22704 -4
      vertex 10.777 -3.06334 -4
    endloop
  endfacet
  facet normal 0 0 -1
    outer loop
      vertex 9.66296 0.865247 -4
      vertex 11.35 1.3 -4
      vertex 9.8 0 -4
    endloop
  endfacet
  facet normal 0 0 -1
    outer loop
      vertex 9.26525 -1.6458 -4
      vertex 10.777 -3.06334 -4
      vertex 10.1133 -3.72704 -4
    endloop
  endfacet
  facet normal -0 0 -1
    outer loop
      vertex 11.35 1.3 -4
      vertex 9.66296 0.865247 -4
      vertex 11.2032 2.22706 -4
    endloop
  endfacet
  facet normal 0 0 -1
    outer loop
      vertex 9.26525 1.6458 -4
      vertex 11.2032 2.22706 -4
      vertex 9.66296 0.865247 -4
    endloop
  endfacet
  facet normal 0 0 -1
    outer loop
      vertex 11.35 -1.29999 -4
      vertex 9.66296 -0.865247 -4
      vertex 9.8 0 -4
    endloop
  endfacet
  facet normal 0 0 -1
    outer loop
      vertex 8.6458 -2.26525 -4
      vertex 10.1133 -3.72704 -4
      vertex 9.27704 -4.15316 -4
    endloop
  endfacet
  facet normal 0 0 -1
    outer loop
      vertex 11.2032 -2.22704 -4
      vertex 9.26525 -1.6458 -4
      vertex 9.66296 -0.865247 -4
    endloop
  endfacet
  facet normal 0 0 -1
    outer loop
      vertex 10.1133 -3.72704 -4
      vertex 8.6458 -2.26525 -4
      vertex 9.26525 -1.6458 -4
    endloop
  endfacet
  facet normal 0 0 -1
    outer loop
      vertex 7.86525 -2.66296 -4
      vertex 9.27704 -4.15316 -4
      vertex 8.35 -4.29999 -4
    endloop
  endfacet
  facet normal 0 0 -1
    outer loop
      vertex 9.27704 -4.15316 -4
      vertex 7.86525 -2.66296 -4
      vertex 8.6458 -2.26525 -4
    endloop
  endfacet
  facet normal 0 0 -1
    outer loop
      vertex 8.35 -4.29999 -4
      vertex 7 -2.8 -4
      vertex 7.86525 -2.66296 -4
    endloop
  endfacet
  facet normal 0 0 -1
    outer loop
      vertex 8.35 -4.29999 -4
      vertex 6.13475 -2.66296 -4
      vertex 7 -2.8 -4
    endloop
  endfacet
  facet normal 0 0 -1
    outer loop
      vertex 8.35 -4.29999 -4
      vertex 5.3542 -2.26525 -4
      vertex 6.13475 -2.66296 -4
    endloop
  endfacet
  facet normal 0 0 -1
    outer loop
      vertex 4.33704 -0.865247 -4
      vertex -4.2 0 -4
      vertex 4.2 0 -4
    endloop
  endfacet
  facet normal 0 0 -1
    outer loop
      vertex -4.33704 -0.865247 -4
      vertex 4.33704 -0.865247 -4
      vertex 4.73475 -1.6458 -4
    endloop
  endfacet
  facet normal 0 0 -1
    outer loop
      vertex -4.73475 -1.6458 -4
      vertex 4.73475 -1.6458 -4
      vertex 5.3542 -2.26525 -4
    endloop
  endfacet
  facet normal 0 0 -1
    outer loop
      vertex -5.3542 -2.26525 -4
      vertex 5.3542 -2.26525 -4
      vertex 8.35 -4.29999 -4
    endloop
  endfacet
  facet normal 0 0 -1
    outer loop
      vertex 4.33704 -0.865247 -4
      vertex -4.33704 -0.865247 -4
      vertex -4.2 0 -4
    endloop
  endfacet
  facet normal 0 0 -1
    outer loop
      vertex 4.73475 -1.6458 -4
      vertex -4.73475 -1.6458 -4
      vertex -4.33704 -0.865247 -4
    endloop
  endfacet
  facet normal 0 0 -1
    outer loop
      vertex 5.3542 -2.26525 -4
      vertex -5.3542 -2.26525 -4
      vertex -4.73475 -1.6458 -4
    endloop
  endfacet
  facet normal 0 0 -1
    outer loop
      vertex -8.35 -4.29999 -4
      vertex -5.3542 -2.26525 -4
      vertex 8.35 -4.29999 -4
    endloop
  endfacet
  facet normal 0 0 -1
    outer loop
      vertex -5.3542 -2.26525 -4
      vertex -8.35 -4.29999 -4
      vertex -6.13475 -2.66296 -4
    endloop
  endfacet
  facet normal 0 0 -1
    outer loop
      vertex -6.13475 -2.66296 -4
      vertex -8.35 -4.29999 -4
      vertex -7 -2.8 -4
    endloop
  endfacet
  facet normal 0 0 -1
    outer loop
      vertex -8.35 -4.29999 -4
      vertex -7.86525 -2.66296 -4
      vertex -7 -2.8 -4
    endloop
  endfacet
  facet normal 0 0 -1
    outer loop
      vertex -9.27706 -4.15316 -4
      vertex -7.86525 -2.66296 -4
      vertex -8.35 -4.29999 -4
    endloop
  endfacet
  facet normal -0 0 -1
    outer loop
      vertex -7.86525 -2.66296 -4
      vertex -9.27706 -4.15316 -4
      vertex -8.6458 -2.26525 -4
    endloop
  endfacet
  facet normal 0 0 -1
    outer loop
      vertex -10.1134 -3.72704 -4
      vertex -8.6458 -2.26525 -4
      vertex -9.27706 -4.15316 -4
    endloop
  endfacet
  facet normal -0 0 -1
    outer loop
      vertex -8.6458 -2.26525 -4
      vertex -10.1134 -3.72704 -4
      vertex -9.26525 -1.6458 -4
    endloop
  endfacet
  facet normal 0 0 -1
    outer loop
      vertex -10.7771 -3.06334 -4
      vertex -9.26525 -1.6458 -4
      vertex -10.1134 -3.72704 -4
    endloop
  endfacet
  facet normal 0 0 -1
    outer loop
      vertex -11.2032 -2.22704 -4
      vertex -9.26525 -1.6458 -4
      vertex -10.7771 -3.06334 -4
    endloop
  endfacet
  facet normal -0 0 -1
    outer loop
      vertex 11.2032 2.22706 -4
      vertex 9.26525 1.6458 -4
      vertex 10.777 3.06337 -4
    endloop
  endfacet
  facet normal -0 0 -1
    outer loop
      vertex 10.777 3.06337 -4
      vertex 9.26525 1.6458 -4
      vertex 10.1133 3.72706 -4
    endloop
  endfacet
  facet normal 0 0 -1
    outer loop
      vertex 8.6458 2.26525 -4
      vertex 10.1133 3.72706 -4
      vertex 9.26525 1.6458 -4
    endloop
  endfacet
  facet normal -0 0 -1
    outer loop
      vertex 10.1133 3.72706 -4
      vertex 8.6458 2.26525 -4
      vertex 9.27704 4.15318 -4
    endloop
  endfacet
  facet normal 0 0 -1
    outer loop
      vertex 7.86525 2.66296 -4
      vertex 9.27704 4.15318 -4
      vertex 8.6458 2.26525 -4
    endloop
  endfacet
  facet normal -0 0 -1
    outer loop
      vertex 9.27704 4.15318 -4
      vertex 7.86525 2.66296 -4
      vertex 8.35 4.3 -4
    endloop
  endfacet
  facet normal 0 0 -1
    outer loop
      vertex 7 2.8 -4
      vertex 8.35 4.3 -4
      vertex 7.86525 2.66296 -4
    endloop
  endfacet
  facet normal 0 0 -1
    outer loop
      vertex 6.13475 2.66296 -4
      vertex 8.35 4.3 -4
      vertex 7 2.8 -4
    endloop
  endfacet
  facet normal 0 0 -1
    outer loop
      vertex 5.3542 2.26525 -4
      vertex 8.35 4.3 -4
      vertex 6.13475 2.66296 -4
    endloop
  endfacet
  facet normal 0 0 -1
    outer loop
      vertex -4.2 0 -4
      vertex 4.33704 0.865247 -4
      vertex 4.2 0 -4
    endloop
  endfacet
  facet normal 0 0 -1
    outer loop
      vertex -4.33704 0.865247 -4
      vertex 4.33704 0.865247 -4
      vertex -4.2 0 -4
    endloop
  endfacet
  facet normal 0 0 -1
    outer loop
      vertex 4.33704 0.865247 -4
      vertex -4.33704 0.865247 -4
      vertex 4.73475 1.6458 -4
    endloop
  endfacet
  facet normal 0 0 -1
    outer loop
      vertex -4.73475 1.6458 -4
      vertex 4.73475 1.6458 -4
      vertex -4.33704 0.865247 -4
    endloop
  endfacet
  facet normal 0 0 -1
    outer loop
      vertex 4.73475 1.6458 -4
      vertex -4.73475 1.6458 -4
      vertex 5.3542 2.26525 -4
    endloop
  endfacet
  facet normal 0 0 -1
    outer loop
      vertex -5.3542 2.26525 -4
      vertex 5.3542 2.26525 -4
      vertex -4.73475 1.6458 -4
    endloop
  endfacet
  facet normal 0 0 -1
    outer loop
      vertex 5.3542 2.26525 -4
      vertex -5.3542 2.26525 -4
      vertex 8.35 4.3 -4
    endloop
  endfacet
  facet normal 0 0 -1
    outer loop
      vertex -8.35 4.3 -4
      vertex -5.3542 2.26525 -4
      vertex -6.13475 2.66296 -4
    endloop
  endfacet
  facet normal 0 0 -1
    outer loop
      vertex -8.35 4.3 -4
      vertex -6.13475 2.66296 -4
      vertex -7 2.8 -4
    endloop
  endfacet
  facet normal 0 0 -1
    outer loop
      vertex -5.3542 2.26525 -4
      vertex -8.35 4.3 -4
      vertex 8.35 4.3 -4
    endloop
  endfacet
  facet normal 0 0 -1
    outer loop
      vertex -7.86525 2.66296 -4
      vertex -8.35 4.3 -4
      vertex -7 2.8 -4
    endloop
  endfacet
  facet normal 0 0 -1
    outer loop
      vertex -9.27706 4.15318 -4
      vertex -7.86525 2.66296 -4
      vertex -8.6458 2.26525 -4
    endloop
  endfacet
  facet normal 0 0 -1
    outer loop
      vertex -10.1134 3.72706 -4
      vertex -8.6458 2.26525 -4
      vertex -9.26525 1.6458 -4
    endloop
  endfacet
  facet normal 0 0 -1
    outer loop
      vertex -7.86525 2.66296 -4
      vertex -9.27706 4.15318 -4
      vertex -8.35 4.3 -4
    endloop
  endfacet
  facet normal 0 0 -1
    outer loop
      vertex -11.2032 2.22706 -4
      vertex -9.26525 1.6458 -4
      vertex -9.66296 0.865247 -4
    endloop
  endfacet
  facet normal 0 0 -1
    outer loop
      vertex -11.35 1.3 -4
      vertex -9.66296 0.865247 -4
      vertex -9.8 0 -4
    endloop
  endfacet
  facet normal 0 0 -1
    outer loop
      vertex -8.6458 2.26525 -4
      vertex -10.1134 3.72706 -4
      vertex -9.27706 4.15318 -4
    endloop
  endfacet
  facet normal -0 0 -1
    outer loop
      vertex -9.26525 -1.6458 -4
      vertex -11.2032 -2.22704 -4
      vertex -9.66296 -0.865247 -4
    endloop
  endfacet
  facet normal 0 0 -1
    outer loop
      vertex -11.35 -1.29999 -4
      vertex -9.66296 -0.865247 -4
      vertex -11.2032 -2.22704 -4
    endloop
  endfacet
  facet normal 0 0 -1
    outer loop
      vertex -11.35 1.3 -4
      vertex -9.8 0 -4
      vertex -11.35 -1.29999 -4
    endloop
  endfacet
  facet normal -0 0 -1
    outer loop
      vertex -9.66296 -0.865247 -4
      vertex -11.35 -1.29999 -4
      vertex -9.8 0 -4
    endloop
  endfacet
  facet normal 0 0 -1
    outer loop
      vertex -9.66296 0.865247 -4
      vertex -11.35 1.3 -4
      vertex -11.2032 2.22706 -4
    endloop
  endfacet
  facet normal 0 0 -1
    outer loop
      vertex -9.26525 1.6458 -4
      vertex -10.7771 3.06337 -4
      vertex -10.1134 3.72706 -4
    endloop
  endfacet
  facet normal 0 0 -1
    outer loop
      vertex -9.26525 1.6458 -4
      vertex -11.2032 2.22706 -4
      vertex -10.7771 3.06337 -4
    endloop
  endfacet
  facet normal 0 0 -1
    outer loop
      vertex -8.5 -2.8 -0.799999
      vertex -5.5 -1.5 -0.799999
      vertex -5.5 -2.8 -0.799999
    endloop
  endfacet
  facet normal -0 0 -1
    outer loop
      vertex -5.5 -1.5 -0.799999
      vertex -8.5 -2.8 -0.799999
      vertex -8.5 -1.5 -0.799999
    endloop
  endfacet
  facet normal 0 0 -1
    outer loop
      vertex -8.5 1.5 -0.799999
      vertex -5.5 2.8 -0.799999
      vertex -5.5 1.5 -0.799999
    endloop
  endfacet
  facet normal -0 0 -1
    outer loop
      vertex -5.5 2.8 -0.799999
      vertex -8.5 1.5 -0.799999
      vertex -8.5 2.8 -0.799999
    endloop
  endfacet
  facet normal 1 0 0
    outer loop
      vertex -8.5 2.8 -0.799999
      vertex -8.5 2.33954 -1
      vertex -8.5 2.8 -1
    endloop
  endfacet
  facet normal 1 -0 0
    outer loop
      vertex -8.5 1.5 -0.799999
      vertex -8.5 2.33954 -1
      vertex -8.5 2.8 -0.799999
    endloop
  endfacet
  facet normal 1 0 0
    outer loop
      vertex -8.5 -1.5 -0.799999
      vertex -8.5 1.5 -0.799999
      vertex -8.5 0 -0.599999
    endloop
  endfacet
  facet normal 1 0 0
    outer loop
      vertex -8.5 -1.5 -0.799999
      vertex -8.5 0 -0.599999
      vertex -8.5 -1.5 -0.599999
    endloop
  endfacet
  facet normal 1 0 0
    outer loop
      vertex -8.5 1.5 -0.799999
      vertex -8.5 -1.5 -0.799999
      vertex -8.5 2.33954 -1
    endloop
  endfacet
  facet normal 1 0 0
    outer loop
      vertex -8.5 -1.5 -0.799999
      vertex -8.5 -2.33954 -1
      vertex -8.5 2.33954 -1
    endloop
  endfacet
  facet normal 1 -0 0
    outer loop
      vertex -8.5 -2.8 -0.799999
      vertex -8.5 -2.33954 -1
      vertex -8.5 -1.5 -0.799999
    endloop
  endfacet
  facet normal 1 0 0
    outer loop
      vertex -8.5 -2.33954 -1
      vertex -8.5 -2.8 -0.799999
      vertex -8.5 -2.8 -1
    endloop
  endfacet
  facet normal 1 0 0
    outer loop
      vertex -8.5 1.5 -0.599999
      vertex -8.5 0 -0.599999
      vertex -8.5 1.5 -0.799999
    endloop
  endfacet
  facet normal 0 1 0
    outer loop
      vertex -7 -2.8 -1
      vertex -5.5 -2.8 -0.799999
      vertex -5.5 -2.8 -1
    endloop
  endfacet
  facet normal 0 1 0
    outer loop
      vertex -5.5 -2.8 -0.799999
      vertex -7 -2.8 -1
      vertex -8.5 -2.8 -0.799999
    endloop
  endfacet
  facet normal 0 1 0
    outer loop
      vertex -8.5 -2.8 -0.799999
      vertex -7 -2.8 -1
      vertex -8.5 -2.8 -1
    endloop
  endfacet
  facet normal -1 0 0
    outer loop
      vertex -5.5 2.33954 -1
      vertex -5.5 2.8 -0.799999
      vertex -5.5 2.8 -1
    endloop
  endfacet
  facet normal -1 0 0
    outer loop
      vertex -5.5 2.33954 -1
      vertex -5.5 1.5 -0.799999
      vertex -5.5 2.8 -0.799999
    endloop
  endfacet
  facet normal -1 0 0
    outer loop
      vertex -5.5 1.5 -0.799999
      vertex -5.5 0 -0.599999
      vertex -5.5 1.5 -0.599999
    endloop
  endfacet
  facet normal -1 0 0
    outer loop
      vertex -5.5 -1.5 -0.799999
      vertex -5.5 1.5 -0.799999
      vertex -5.5 2.33954 -1
    endloop
  endfacet
  facet normal -1 0 0
    outer loop
      vertex -5.5 1.5 -0.799999
      vertex -5.5 -1.5 -0.799999
      vertex -5.5 0 -0.599999
    endloop
  endfacet
  facet normal -1 0 0
    outer loop
      vertex -5.5 -2.33954 -1
      vertex -5.5 -1.5 -0.799999
      vertex -5.5 2.33954 -1
    endloop
  endfacet
  facet normal -1 0 0
    outer loop
      vertex -5.5 -2.8 -0.799999
      vertex -5.5 -2.33954 -1
      vertex -5.5 -2.8 -1
    endloop
  endfacet
  facet normal -1 0 0
    outer loop
      vertex -5.5 -2.33954 -1
      vertex -5.5 -2.8 -0.799999
      vertex -5.5 -1.5 -0.799999
    endloop
  endfacet
  facet normal -1 -0 0
    outer loop
      vertex -5.5 0 -0.599999
      vertex -5.5 -1.5 -0.799999
      vertex -5.5 -1.5 -0.599999
    endloop
  endfacet
  facet normal 0 -1 0
    outer loop
      vertex -7 2.8 -1
      vertex -8.5 2.8 -0.799999
      vertex -8.5 2.8 -1
    endloop
  endfacet
  facet normal 0 -1 0
    outer loop
      vertex -8.5 2.8 -0.799999
      vertex -7 2.8 -1
      vertex -5.5 2.8 -0.799999
    endloop
  endfacet
  facet normal 0 -1 -0
    outer loop
      vertex -5.5 2.8 -0.799999
      vertex -7 2.8 -1
      vertex -5.5 2.8 -1
    endloop
  endfacet
  facet normal 0 0 -1
    outer loop
      vertex -8.5 -1.5 -0.599999
      vertex -7.46352 -1.42658 -0.599999
      vertex -7 -1.5 -0.599999
    endloop
  endfacet
  facet normal 0 0 -1
    outer loop
      vertex -8.5 -1.5 -0.599999
      vertex -7.88168 -1.21352 -0.599999
      vertex -7.46352 -1.42658 -0.599999
    endloop
  endfacet
  facet normal 0 0 -1
    outer loop
      vertex -8.5 -1.5 -0.599999
      vertex -8.21352 -0.881678 -0.599999
      vertex -7.88168 -1.21352 -0.599999
    endloop
  endfacet
  facet normal 0 0 -1
    outer loop
      vertex -8.5 -1.5 -0.599999
      vertex -8.42658 -0.463525 -0.599999
      vertex -8.21352 -0.881678 -0.599999
    endloop
  endfacet
  facet normal -0 0 -1
    outer loop
      vertex -8.42658 -0.463525 -0.599999
      vertex -8.5 -1.5 -0.599999
      vertex -8.5 0 -0.599999
    endloop
  endfacet
  facet normal 0 0 -1
    outer loop
      vertex -5.57342 0.463525 -0.599999
      vertex -5.5 1.5 -0.599999
      vertex -5.5 0 -0.599999
    endloop
  endfacet
  facet normal 0 0 -1
    outer loop
      vertex -5.78648 0.881678 -0.599999
      vertex -5.5 1.5 -0.599999
      vertex -5.57342 0.463525 -0.599999
    endloop
  endfacet
  facet normal 0 0 -1
    outer loop
      vertex -6.11832 1.21352 -0.599999
      vertex -5.5 1.5 -0.599999
      vertex -5.78648 0.881678 -0.599999
    endloop
  endfacet
  facet normal 0 0 -1
    outer loop
      vertex -6.53648 1.42658 -0.599999
      vertex -5.5 1.5 -0.599999
      vertex -6.11832 1.21352 -0.599999
    endloop
  endfacet
  facet normal -0 0 -1
    outer loop
      vertex -5.5 1.5 -0.599999
      vertex -6.53648 1.42658 -0.599999
      vertex -7 1.5 -0.599999
    endloop
  endfacet
  facet normal 0 0 -1
    outer loop
      vertex -7.46352 1.42658 -0.599999
      vertex -8.5 1.5 -0.599999
      vertex -7 1.5 -0.599999
    endloop
  endfacet
  facet normal 0 0 -1
    outer loop
      vertex -7.88168 1.21352 -0.599999
      vertex -8.5 1.5 -0.599999
      vertex -7.46352 1.42658 -0.599999
    endloop
  endfacet
  facet normal 0 0 -1
    outer loop
      vertex -8.21352 0.881678 -0.599999
      vertex -8.5 1.5 -0.599999
      vertex -7.88168 1.21352 -0.599999
    endloop
  endfacet
  facet normal 0 0 -1
    outer loop
      vertex -8.42658 0.463525 -0.599999
      vertex -8.5 1.5 -0.599999
      vertex -8.21352 0.881678 -0.599999
    endloop
  endfacet
  facet normal 0 0 -1
    outer loop
      vertex -8.5 1.5 -0.599999
      vertex -8.42658 0.463525 -0.599999
      vertex -8.5 0 -0.599999
    endloop
  endfacet
  facet normal 0 0 -1
    outer loop
      vertex -5.5 -1.5 -0.599999
      vertex -5.57342 -0.463525 -0.599999
      vertex -5.5 0 -0.599999
    endloop
  endfacet
  facet normal 0 0 -1
    outer loop
      vertex -5.5 -1.5 -0.599999
      vertex -5.78648 -0.881678 -0.599999
      vertex -5.57342 -0.463525 -0.599999
    endloop
  endfacet
  facet normal 0 0 -1
    outer loop
      vertex -5.5 -1.5 -0.599999
      vertex -6.11832 -1.21352 -0.599999
      vertex -5.78648 -0.881678 -0.599999
    endloop
  endfacet
  facet normal 0 0 -1
    outer loop
      vertex -5.5 -1.5 -0.599999
      vertex -6.53648 -1.42658 -0.599999
      vertex -6.11832 -1.21352 -0.599999
    endloop
  endfacet
  facet normal 0 -0 -1
    outer loop
      vertex -6.53648 -1.42658 -0.599999
      vertex -5.5 -1.5 -0.599999
      vertex -7 -1.5 -0.599999
    endloop
  endfacet
  facet normal 0 1 -0
    outer loop
      vertex -5.5 -1.5 -0.799999
      vertex -7 -1.5 -0.599999
      vertex -5.5 -1.5 -0.599999
    endloop
  endfacet
  facet normal 0 1 0
    outer loop
      vertex -8.5 -1.5 -0.799999
      vertex -7 -1.5 -0.599999
      vertex -5.5 -1.5 -0.799999
    endloop
  endfacet
  facet normal 0 1 0
    outer loop
      vertex -7 -1.5 -0.599999
      vertex -8.5 -1.5 -0.799999
      vertex -8.5 -1.5 -0.599999
    endloop
  endfacet
  facet normal 0 -1 0
    outer loop
      vertex -8.5 1.5 -0.799999
      vertex -7 1.5 -0.599999
      vertex -8.5 1.5 -0.599999
    endloop
  endfacet
  facet normal 0 -1 0
    outer loop
      vertex -5.5 1.5 -0.799999
      vertex -7 1.5 -0.599999
      vertex -8.5 1.5 -0.799999
    endloop
  endfacet
  facet normal 0 -1 0
    outer loop
      vertex -7 1.5 -0.599999
      vertex -5.5 1.5 -0.799999
      vertex -5.5 1.5 -0.599999
    endloop
  endfacet
  facet normal 0.453985 -0.891009 0
    outer loop
      vertex -7.88168 1.21352 -0.599999
      vertex -7.46352 1.42658 0
      vertex -7.88168 1.21352 0
    endloop
  endfacet
  facet normal 0.453985 -0.891009 0
    outer loop
      vertex -7.46352 1.42658 0
      vertex -7.88168 1.21352 -0.599999
      vertex -7.46352 1.42658 -0.599999
    endloop
  endfacet
  facet normal -0.987687 -0.156445 0
    outer loop
      vertex -5.5 0 -0.599999
      vertex -5.57342 0.463525 0
      vertex -5.57342 0.463525 -0.599999
    endloop
  endfacet
  facet normal -0.987687 -0.156445 0
    outer loop
      vertex -5.57342 0.463525 0
      vertex -5.5 0 -0.599999
      vertex -5.5 0 0
    endloop
  endfacet
  facet normal 0.891006 0.453991 0
    outer loop
      vertex -8.21352 -0.881678 0
      vertex -8.42658 -0.463525 -0.599999
      vertex -8.42658 -0.463525 0
    endloop
  endfacet
  facet normal 0.891006 0.453991 0
    outer loop
      vertex -8.42658 -0.463525 -0.599999
      vertex -8.21352 -0.881678 0
      vertex -8.21352 -0.881678 -0.599999
    endloop
  endfacet
  facet normal -0.707109 0.707105 0
    outer loop
      vertex -6.11832 -1.21352 -0.599999
      vertex -5.78648 -0.881678 0
      vertex -5.78648 -0.881678 -0.599999
    endloop
  endfacet
  facet normal -0.707109 0.707105 0
    outer loop
      vertex -5.78648 -0.881678 0
      vertex -6.11832 -1.21352 -0.599999
      vertex -6.11832 -1.21352 0
    endloop
  endfacet
  facet normal 0.707109 -0.707105 0
    outer loop
      vertex -8.21352 0.881678 0
      vertex -7.88168 1.21352 -0.599999
      vertex -7.88168 1.21352 0
    endloop
  endfacet
  facet normal 0.707109 -0.707105 0
    outer loop
      vertex -7.88168 1.21352 -0.599999
      vertex -8.21352 0.881678 0
      vertex -8.21352 0.881678 -0.599999
    endloop
  endfacet
  facet normal 0.987687 0.156445 0
    outer loop
      vertex -8.42658 -0.463525 0
      vertex -8.5 0 -0.599999
      vertex -8.5 0 0
    endloop
  endfacet
  facet normal 0.987687 0.156445 0
    outer loop
      vertex -8.5 0 -0.599999
      vertex -8.42658 -0.463525 0
      vertex -8.42658 -0.463525 -0.599999
    endloop
  endfacet
  facet normal -0.707109 -0.707105 0
    outer loop
      vertex -5.78648 0.881678 -0.599999
      vertex -6.11832 1.21352 0
      vertex -6.11832 1.21352 -0.599999
    endloop
  endfacet
  facet normal -0.707109 -0.707105 0
    outer loop
      vertex -6.11832 1.21352 0
      vertex -5.78648 0.881678 -0.599999
      vertex -5.78648 0.881678 0
    endloop
  endfacet
  facet normal -0.156446 -0.987686 0
    outer loop
      vertex -7 1.5 -0.599999
      vertex -6.53648 1.42658 0
      vertex -7 1.5 0
    endloop
  endfacet
  facet normal -0.156446 -0.987686 -0
    outer loop
      vertex -6.53648 1.42658 0
      vertex -7 1.5 -0.599999
      vertex -6.53648 1.42658 -0.599999
    endloop
  endfacet
  facet normal -0.453985 -0.891009 0
    outer loop
      vertex -6.53648 1.42658 -0.599999
      vertex -6.11832 1.21352 0
      vertex -6.53648 1.42658 0
    endloop
  endfacet
  facet normal -0.453985 -0.891009 -0
    outer loop
      vertex -6.11832 1.21352 0
      vertex -6.53648 1.42658 -0.599999
      vertex -6.11832 1.21352 -0.599999
    endloop
  endfacet
  facet normal 0.891006 -0.453991 0
    outer loop
      vertex -8.42658 0.463525 0
      vertex -8.21352 0.881678 -0.599999
      vertex -8.21352 0.881678 0
    endloop
  endfacet
  facet normal 0.891006 -0.453991 0
    outer loop
      vertex -8.21352 0.881678 -0.599999
      vertex -8.42658 0.463525 0
      vertex -8.42658 0.463525 -0.599999
    endloop
  endfacet
  facet normal -0.156446 0.987686 0
    outer loop
      vertex -6.53648 -1.42658 -0.599999
      vertex -7 -1.5 0
      vertex -6.53648 -1.42658 0
    endloop
  endfacet
  facet normal -0.156446 0.987686 0
    outer loop
      vertex -7 -1.5 0
      vertex -6.53648 -1.42658 -0.599999
      vertex -7 -1.5 -0.599999
    endloop
  endfacet
  facet normal -0.453985 0.891009 0
    outer loop
      vertex -6.11832 -1.21352 -0.599999
      vertex -6.53648 -1.42658 0
      vertex -6.11832 -1.21352 0
    endloop
  endfacet
  facet normal -0.453985 0.891009 0
    outer loop
      vertex -6.53648 -1.42658 0
      vertex -6.11832 -1.21352 -0.599999
      vertex -6.53648 -1.42658 -0.599999
    endloop
  endfacet
  facet normal 0.156446 -0.987686 0
    outer loop
      vertex -7.46352 1.42658 -0.599999
      vertex -7 1.5 0
      vertex -7.46352 1.42658 0
    endloop
  endfacet
  facet normal 0.156446 -0.987686 0
    outer loop
      vertex -7 1.5 0
      vertex -7.46352 1.42658 -0.599999
      vertex -7 1.5 -0.599999
    endloop
  endfacet
  facet normal 0.987687 -0.156445 0
    outer loop
      vertex -8.5 0 0
      vertex -8.42658 0.463525 -0.599999
      vertex -8.42658 0.463525 0
    endloop
  endfacet
  facet normal 0.987687 -0.156445 0
    outer loop
      vertex -8.42658 0.463525 -0.599999
      vertex -8.5 0 0
      vertex -8.5 0 -0.599999
    endloop
  endfacet
  facet normal 0.707109 0.707105 0
    outer loop
      vertex -7.88168 -1.21352 0
      vertex -8.21352 -0.881678 -0.599999
      vertex -8.21352 -0.881678 0
    endloop
  endfacet
  facet normal 0.707109 0.707105 0
    outer loop
      vertex -8.21352 -0.881678 -0.599999
      vertex -7.88168 -1.21352 0
      vertex -7.88168 -1.21352 -0.599999
    endloop
  endfacet
  facet normal -0.891006 -0.453991 0
    outer loop
      vertex -5.57342 0.463525 -0.599999
      vertex -5.78648 0.881678 0
      vertex -5.78648 0.881678 -0.599999
    endloop
  endfacet
  facet normal -0.891006 -0.453991 0
    outer loop
      vertex -5.78648 0.881678 0
      vertex -5.57342 0.463525 -0.599999
      vertex -5.57342 0.463525 0
    endloop
  endfacet
  facet normal -0.891006 0.453991 0
    outer loop
      vertex -5.78648 -0.881678 -0.599999
      vertex -5.57342 -0.463525 0
      vertex -5.57342 -0.463525 -0.599999
    endloop
  endfacet
  facet normal -0.891006 0.453991 0
    outer loop
      vertex -5.57342 -0.463525 0
      vertex -5.78648 -0.881678 -0.599999
      vertex -5.78648 -0.881678 0
    endloop
  endfacet
  facet normal 0 0 1
    outer loop
      vertex 8.21352 0.881678 0
      vertex 11.35 1.3 0
      vertex 11.2032 2.22706 0
    endloop
  endfacet
  facet normal 0 0 1
    outer loop
      vertex 11.35 1.3 0
      vertex 8.5 0 0
      vertex 11.35 -1.29999 0
    endloop
  endfacet
  facet normal 0 0 1
    outer loop
      vertex 8.21352 0.881678 0
      vertex 11.2032 2.22706 0
      vertex 10.777 3.06337 0
    endloop
  endfacet
  facet normal -0 0 1
    outer loop
      vertex 8.42658 -0.463525 0
      vertex 11.35 -1.29999 0
      vertex 8.5 0 0
    endloop
  endfacet
  facet normal 0 0 1
    outer loop
      vertex 8.21352 0.881678 0
      vertex 10.777 3.06337 0
      vertex 10.1133 3.72706 0
    endloop
  endfacet
  facet normal -0 0 1
    outer loop
      vertex 8.21352 -0.881678 0
      vertex 11.35 -1.29999 0
      vertex 8.42658 -0.463525 0
    endloop
  endfacet
  facet normal 0 0 1
    outer loop
      vertex 7.88168 1.21352 0
      vertex 10.1133 3.72706 0
      vertex 9.27704 4.15318 0
    endloop
  endfacet
  facet normal 0 0 1
    outer loop
      vertex 11.35 -1.29999 0
      vertex 8.21352 -0.881678 0
      vertex 11.2032 -2.22704 0
    endloop
  endfacet
  facet normal 0 0 1
    outer loop
      vertex 11.2032 -2.22704 0
      vertex 8.21352 -0.881678 0
      vertex 10.777 -3.06334 0
    endloop
  endfacet
  facet normal 0 0 1
    outer loop
      vertex 11.35 1.3 0
      vertex 8.42658 0.463525 0
      vertex 8.5 0 0
    endloop
  endfacet
  facet normal 0 0 1
    outer loop
      vertex 7.88168 1.21352 0
      vertex 9.27704 4.15318 0
      vertex 8.35 4.3 0
    endloop
  endfacet
  facet normal 0 0 1
    outer loop
      vertex 11.35 1.3 0
      vertex 8.21352 0.881678 0
      vertex 8.42658 0.463525 0
    endloop
  endfacet
  facet normal 0 0 1
    outer loop
      vertex 10.1133 3.72706 0
      vertex 7.88168 1.21352 0
      vertex 8.21352 0.881678 0
    endloop
  endfacet
  facet normal 0 0 1
    outer loop
      vertex 8.35 4.3 0
      vertex 7.46352 1.42658 0
      vertex 7.88168 1.21352 0
    endloop
  endfacet
  facet normal 0 0 1
    outer loop
      vertex 8.35 4.3 0
      vertex 7 1.5 0
      vertex 7.46352 1.42658 0
    endloop
  endfacet
  facet normal 0 0 1
    outer loop
      vertex 8.35 4.3 0
      vertex 6.53648 1.42658 0
      vertex 7 1.5 0
    endloop
  endfacet
  facet normal 0 0 1
    outer loop
      vertex 8.35 4.3 0
      vertex 6.11832 1.21352 0
      vertex 6.53648 1.42658 0
    endloop
  endfacet
  facet normal 0 0 1
    outer loop
      vertex -6.11832 1.21352 0
      vertex 6.11832 1.21352 0
      vertex 8.35 4.3 0
    endloop
  endfacet
  facet normal 0 0 1
    outer loop
      vertex 5.57342 0.463525 0
      vertex -5.5 0 0
      vertex 5.5 0 0
    endloop
  endfacet
  facet normal 0 0 1
    outer loop
      vertex -5.57342 0.463525 0
      vertex 5.57342 0.463525 0
      vertex 5.78648 0.881678 0
    endloop
  endfacet
  facet normal 0 0 1
    outer loop
      vertex 6.11832 1.21352 0
      vertex -6.11832 1.21352 0
      vertex 5.78648 0.881678 0
    endloop
  endfacet
  facet normal 0 0 1
    outer loop
      vertex 5.57342 0.463525 0
      vertex -5.57342 0.463525 0
      vertex -5.5 0 0
    endloop
  endfacet
  facet normal 0 0 1
    outer loop
      vertex 5.78648 0.881678 0
      vertex -5.78648 0.881678 0
      vertex -5.57342 0.463525 0
    endloop
  endfacet
  facet normal 0 0 1
    outer loop
      vertex 5.78648 0.881678 0
      vertex -6.11832 1.21352 0
      vertex -5.78648 0.881678 0
    endloop
  endfacet
  facet normal -0 0 1
    outer loop
      vertex -8.35 4.3 0
      vertex -6.11832 1.21352 0
      vertex 8.35 4.3 0
    endloop
  endfacet
  facet normal 0 0 1
    outer loop
      vertex -6.11832 1.21352 0
      vertex -8.35 4.3 0
      vertex -6.53648 1.42658 0
    endloop
  endfacet
  facet normal 0 0 1
    outer loop
      vertex -6.53648 1.42658 0
      vertex -8.35 4.3 0
      vertex -7 1.5 0
    endloop
  endfacet
  facet normal 0 0 1
    outer loop
      vertex -7 1.5 0
      vertex -8.35 4.3 0
      vertex -7.46352 1.42658 0
    endloop
  endfacet
  facet normal 0 0 1
    outer loop
      vertex -8.35 4.3 0
      vertex -7.88168 1.21352 0
      vertex -7.46352 1.42658 0
    endloop
  endfacet
  facet normal -0 0 1
    outer loop
      vertex -9.27706 4.15318 0
      vertex -7.88168 1.21352 0
      vertex -8.35 4.3 0
    endloop
  endfacet
  facet normal -0 0 1
    outer loop
      vertex -10.1134 3.72706 0
      vertex -7.88168 1.21352 0
      vertex -9.27706 4.15318 0
    endloop
  endfacet
  facet normal 0 0 1
    outer loop
      vertex -7.88168 1.21352 0
      vertex -10.1134 3.72706 0
      vertex -8.21352 0.881678 0
    endloop
  endfacet
  facet normal -0 0 1
    outer loop
      vertex -10.7771 3.06337 0
      vertex -8.21352 0.881678 0
      vertex -10.1134 3.72706 0
    endloop
  endfacet
  facet normal 0 0 1
    outer loop
      vertex 10.777 -3.06334 0
      vertex 8.21352 -0.881678 0
      vertex 10.1133 -3.72704 0
    endloop
  endfacet
  facet normal -0 0 1
    outer loop
      vertex 7.88168 -1.21352 0
      vertex 10.1133 -3.72704 0
      vertex 8.21352 -0.881678 0
    endloop
  endfacet
  facet normal 0 0 1
    outer loop
      vertex 10.1133 -3.72704 0
      vertex 7.88168 -1.21352 0
      vertex 9.27704 -4.15316 0
    endloop
  endfacet
  facet normal 0 0 1
    outer loop
      vertex 9.27704 -4.15316 0
      vertex 7.88168 -1.21352 0
      vertex 8.35 -4.29999 0
    endloop
  endfacet
  facet normal -0 0 1
    outer loop
      vertex 7.46352 -1.42658 0
      vertex 8.35 -4.29999 0
      vertex 7.88168 -1.21352 0
    endloop
  endfacet
  facet normal -0 0 1
    outer loop
      vertex 7 -1.5 0
      vertex 8.35 -4.29999 0
      vertex 7.46352 -1.42658 0
    endloop
  endfacet
  facet normal 0 0 1
    outer loop
      vertex 6.53648 -1.42658 0
      vertex 8.35 -4.29999 0
      vertex 7 -1.5 0
    endloop
  endfacet
  facet normal 0 0 1
    outer loop
      vertex 6.11832 -1.21352 0
      vertex 8.35 -4.29999 0
      vertex 6.53648 -1.42658 0
    endloop
  endfacet
  facet normal 0 0 1
    outer loop
      vertex -6.11832 -1.21352 0
      vertex 6.11832 -1.21352 0
      vertex 5.78648 -0.881678 0
    endloop
  endfacet
  facet normal -0 0 1
    outer loop
      vertex -5.5 0 0
      vertex 5.57342 -0.463525 0
      vertex 5.5 0 0
    endloop
  endfacet
  facet normal 0 0 1
    outer loop
      vertex -5.57342 -0.463525 0
      vertex 5.57342 -0.463525 0
      vertex -5.5 0 0
    endloop
  endfacet
  facet normal 0 0 1
    outer loop
      vertex 5.57342 -0.463525 0
      vertex -5.57342 -0.463525 0
      vertex 5.78648 -0.881678 0
    endloop
  endfacet
  facet normal 0 0 1
    outer loop
      vertex -5.78648 -0.881678 0
      vertex 5.78648 -0.881678 0
      vertex -5.57342 -0.463525 0
    endloop
  endfacet
  facet normal 0 0 1
    outer loop
      vertex -6.11832 -1.21352 0
      vertex 5.78648 -0.881678 0
      vertex -5.78648 -0.881678 0
    endloop
  endfacet
  facet normal 0 0 1
    outer loop
      vertex 6.11832 -1.21352 0
      vertex -6.11832 -1.21352 0
      vertex 8.35 -4.29999 0
    endloop
  endfacet
  facet normal 0 0 1
    outer loop
      vertex -8.35 -4.29999 0
      vertex -6.11832 -1.21352 0
      vertex -6.53648 -1.42658 0
    endloop
  endfacet
  facet normal 0 0 1
    outer loop
      vertex -8.35 -4.29999 0
      vertex -6.53648 -1.42658 0
      vertex -7 -1.5 0
    endloop
  endfacet
  facet normal 0 0 1
    outer loop
      vertex -8.35 -4.29999 0
      vertex -7 -1.5 0
      vertex -7.46352 -1.42658 0
    endloop
  endfacet
  facet normal 0 0 1
    outer loop
      vertex -6.11832 -1.21352 0
      vertex -8.35 -4.29999 0
      vertex 8.35 -4.29999 0
    endloop
  endfacet
  facet normal 0 0 1
    outer loop
      vertex -7.88168 -1.21352 0
      vertex -8.35 -4.29999 0
      vertex -7.46352 -1.42658 0
    endloop
  endfacet
  facet normal 0 0 1
    outer loop
      vertex -10.1134 -3.72704 0
      vertex -7.88168 -1.21352 0
      vertex -8.21352 -0.881678 0
    endloop
  endfacet
  facet normal 0 0 1
    outer loop
      vertex -11.35 -1.29999 0
      vertex -8.21352 -0.881678 0
      vertex -8.42658 -0.463525 0
    endloop
  endfacet
  facet normal 0 0 1
    outer loop
      vertex -11.35 -1.29999 0
      vertex -8.42658 -0.463525 0
      vertex -8.5 0 0
    endloop
  endfacet
  facet normal -0 0 1
    outer loop
      vertex -11.2032 2.22706 0
      vertex -8.21352 0.881678 0
      vertex -10.7771 3.06337 0
    endloop
  endfacet
  facet normal 0 0 1
    outer loop
      vertex -11.35 -1.29999 0
      vertex -8.5 0 0
      vertex -11.35 1.3 0
    endloop
  endfacet
  facet normal -0 0 1
    outer loop
      vertex -11.35 1.3 0
      vertex -8.21352 0.881678 0
      vertex -11.2032 2.22706 0
    endloop
  endfacet
  facet normal 0 0 1
    outer loop
      vertex -8.21352 -0.881678 0
      vertex -11.35 -1.29999 0
      vertex -11.2032 -2.22704 0
    endloop
  endfacet
  facet normal 0 0 1
    outer loop
      vertex -8.21352 0.881678 0
      vertex -11.35 1.3 0
      vertex -8.42658 0.463525 0
    endloop
  endfacet
  facet normal 0 0 1
    outer loop
      vertex -7.88168 -1.21352 0
      vertex -9.27706 -4.15316 0
      vertex -8.35 -4.29999 0
    endloop
  endfacet
  facet normal 0 0 1
    outer loop
      vertex -8.42658 0.463525 0
      vertex -11.35 1.3 0
      vertex -8.5 0 0
    endloop
  endfacet
  facet normal 0 0 1
    outer loop
      vertex -7.88168 -1.21352 0
      vertex -10.1134 -3.72704 0
      vertex -9.27706 -4.15316 0
    endloop
  endfacet
  facet normal 0 0 1
    outer loop
      vertex -8.21352 -0.881678 0
      vertex -10.7771 -3.06334 0
      vertex -10.1134 -3.72704 0
    endloop
  endfacet
  facet normal 0 0 1
    outer loop
      vertex -8.21352 -0.881678 0
      vertex -11.2032 -2.22704 0
      vertex -10.7771 -3.06334 0
    endloop
  endfacet
  facet normal 0.453985 0.891009 -0
    outer loop
      vertex -7.46352 -1.42658 -0.599999
      vertex -7.88168 -1.21352 0
      vertex -7.46352 -1.42658 0
    endloop
  endfacet
  facet normal 0.453985 0.891009 0
    outer loop
      vertex -7.88168 -1.21352 0
      vertex -7.46352 -1.42658 -0.599999
      vertex -7.88168 -1.21352 -0.599999
    endloop
  endfacet
  facet normal 0.156446 0.987686 -0
    outer loop
      vertex -7 -1.5 -0.599999
      vertex -7.46352 -1.42658 0
      vertex -7 -1.5 0
    endloop
  endfacet
  facet normal 0.156446 0.987686 0
    outer loop
      vertex -7.46352 -1.42658 0
      vertex -7 -1.5 -0.599999
      vertex -7.46352 -1.42658 -0.599999
    endloop
  endfacet
  facet normal -0.987687 0.156445 0
    outer loop
      vertex -5.57342 -0.463525 -0.599999
      vertex -5.5 0 0
      vertex -5.5 0 -0.599999
    endloop
  endfacet
  facet normal -0.987687 0.156445 0
    outer loop
      vertex -5.5 0 0
      vertex -5.57342 -0.463525 -0.599999
      vertex -5.57342 -0.463525 0
    endloop
  endfacet
  facet normal -0.987689 -0.156433 0
    outer loop
      vertex 9.8 0 -4
      vertex 9.66296 0.865247 -1
      vertex 9.66296 0.865247 -4
    endloop
  endfacet
  facet normal -0.987689 -0.156433 0
    outer loop
      vertex 9.66296 0.865247 -1
      vertex 9.8 0 -4
      vertex 9.8 0 -1
    endloop
  endfacet
  facet normal -0.453996 0.891004 0
    outer loop
      vertex 8.6458 -2.26525 -4
      vertex 8.5 -2.33954 -1
      vertex 8.6458 -2.26525 -1
    endloop
  endfacet
  facet normal -0.45399 0.891007 3.58244e-07
    outer loop
      vertex 7.86525 -2.66296 -4
      vertex 8.5 -2.33954 -1
      vertex 8.6458 -2.26525 -4
    endloop
  endfacet
  facet normal -0.453989 0.891007 0
    outer loop
      vertex 8.5 -2.33954 -1
      vertex 7.86525 -2.66296 -4
      vertex 7.86525 -2.66296 -1
    endloop
  endfacet
  facet normal 0.453989 0.891007 -0
    outer loop
      vertex 6.13475 -2.66296 -4
      vertex 5.5 -2.33954 -1
      vertex 6.13475 -2.66296 -1
    endloop
  endfacet
  facet normal 0.45399 0.891007 3.58244e-07
    outer loop
      vertex 5.3542 -2.26525 -4
      vertex 5.5 -2.33954 -1
      vertex 6.13475 -2.66296 -4
    endloop
  endfacet
  facet normal 0.453996 0.891004 0
    outer loop
      vertex 5.5 -2.33954 -1
      vertex 5.3542 -2.26525 -4
      vertex 5.3542 -2.26525 -1
    endloop
  endfacet
  facet normal 0.987689 -0.156433 0
    outer loop
      vertex 4.2 0 -1
      vertex 4.33704 0.865247 -4
      vertex 4.33704 0.865247 -1
    endloop
  endfacet
  facet normal 0.987689 -0.156433 0
    outer loop
      vertex 4.33704 0.865247 -4
      vertex 4.2 0 -1
      vertex 4.2 0 -4
    endloop
  endfacet
  facet normal -0.891007 -0.453989 0
    outer loop
      vertex 9.66296 0.865247 -4
      vertex 9.26525 1.6458 -1
      vertex 9.26525 1.6458 -4
    endloop
  endfacet
  facet normal -0.891007 -0.453989 0
    outer loop
      vertex 9.26525 1.6458 -1
      vertex 9.66296 0.865247 -4
      vertex 9.66296 0.865247 -1
    endloop
  endfacet
  facet normal -0.156432 0.987689 0
    outer loop
      vertex 7.86525 -2.66296 -4
      vertex 7 -2.8 -1
      vertex 7.86525 -2.66296 -1
    endloop
  endfacet
  facet normal -0.156432 0.987689 0
    outer loop
      vertex 7 -2.8 -1
      vertex 7.86525 -2.66296 -4
      vertex 7 -2.8 -4
    endloop
  endfacet
  facet normal -0.453989 -0.891007 0
    outer loop
      vertex 7.86525 2.66296 -4
      vertex 8.5 2.33954 -1
      vertex 7.86525 2.66296 -1
    endloop
  endfacet
  facet normal -0.45399 -0.891007 3.58244e-07
    outer loop
      vertex 8.6458 2.26525 -4
      vertex 8.5 2.33954 -1
      vertex 7.86525 2.66296 -4
    endloop
  endfacet
  facet normal -0.453996 -0.891004 0
    outer loop
      vertex 8.5 2.33954 -1
      vertex 8.6458 2.26525 -4
      vertex 8.6458 2.26525 -1
    endloop
  endfacet
  facet normal 0.156432 -0.987689 0
    outer loop
      vertex 6.13475 2.66296 -4
      vertex 7 2.8 -1
      vertex 6.13475 2.66296 -1
    endloop
  endfacet
  facet normal 0.156432 -0.987689 0
    outer loop
      vertex 7 2.8 -1
      vertex 6.13475 2.66296 -4
      vertex 7 2.8 -4
    endloop
  endfacet
  facet normal 0.987689 0.156433 0
    outer loop
      vertex 4.33704 -0.865247 -1
      vertex 4.2 0 -4
      vertex 4.2 0 -1
    endloop
  endfacet
  facet normal 0.987689 0.156433 0
    outer loop
      vertex 4.2 0 -4
      vertex 4.33704 -0.865247 -1
      vertex 4.33704 -0.865247 -4
    endloop
  endfacet
  facet normal 0.156432 0.987689 -0
    outer loop
      vertex 7 -2.8 -4
      vertex 6.13475 -2.66296 -1
      vertex 7 -2.8 -1
    endloop
  endfacet
  facet normal 0.156432 0.987689 0
    outer loop
      vertex 6.13475 -2.66296 -1
      vertex 7 -2.8 -4
      vertex 6.13475 -2.66296 -4
    endloop
  endfacet
  facet normal 0.891007 -0.453989 0
    outer loop
      vertex 4.33704 0.865247 -1
      vertex 4.73475 1.6458 -4
      vertex 4.73475 1.6458 -1
    endloop
  endfacet
  facet normal 0.891007 -0.453989 0
    outer loop
      vertex 4.73475 1.6458 -4
      vertex 4.33704 0.865247 -1
      vertex 4.33704 0.865247 -4
    endloop
  endfacet
  facet normal 0.707107 -0.707107 0
    outer loop
      vertex 4.73475 1.6458 -1
      vertex 5.3542 2.26525 -4
      vertex 5.3542 2.26525 -1
    endloop
  endfacet
  facet normal 0.707107 -0.707107 0
    outer loop
      vertex 5.3542 2.26525 -4
      vertex 4.73475 1.6458 -1
      vertex 4.73475 1.6458 -4
    endloop
  endfacet
  facet normal 0.453996 -0.891004 0
    outer loop
      vertex 5.3542 2.26525 -4
      vertex 5.5 2.33954 -1
      vertex 5.3542 2.26525 -1
    endloop
  endfacet
  facet normal 0.45399 -0.891007 3.58244e-07
    outer loop
      vertex 6.13475 2.66296 -4
      vertex 5.5 2.33954 -1
      vertex 5.3542 2.26525 -4
    endloop
  endfacet
  facet normal 0.453989 -0.891007 0
    outer loop
      vertex 5.5 2.33954 -1
      vertex 6.13475 2.66296 -4
      vertex 6.13475 2.66296 -1
    endloop
  endfacet
  facet normal 0.707107 0.707107 0
    outer loop
      vertex 5.3542 -2.26525 -1
      vertex 4.73475 -1.6458 -4
      vertex 4.73475 -1.6458 -1
    endloop
  endfacet
  facet normal 0.707107 0.707107 0
    outer loop
      vertex 4.73475 -1.6458 -4
      vertex 5.3542 -2.26525 -1
      vertex 5.3542 -2.26525 -4
    endloop
  endfacet
  facet normal 0.891007 0.453989 0
    outer loop
      vertex 4.73475 -1.6458 -1
      vertex 4.33704 -0.865247 -4
      vertex 4.33704 -0.865247 -1
    endloop
  endfacet
  facet normal 0.891007 0.453989 0
    outer loop
      vertex 4.33704 -0.865247 -4
      vertex 4.73475 -1.6458 -1
      vertex 4.73475 -1.6458 -4
    endloop
  endfacet
  facet normal -0.707107 0.707107 0
    outer loop
      vertex 8.6458 -2.26525 -4
      vertex 9.26525 -1.6458 -1
      vertex 9.26525 -1.6458 -4
    endloop
  endfacet
  facet normal -0.707107 0.707107 0
    outer loop
      vertex 9.26525 -1.6458 -1
      vertex 8.6458 -2.26525 -4
      vertex 8.6458 -2.26525 -1
    endloop
  endfacet
  facet normal -0.707107 -0.707107 0
    outer loop
      vertex 9.26525 1.6458 -4
      vertex 8.6458 2.26525 -1
      vertex 8.6458 2.26525 -4
    endloop
  endfacet
  facet normal -0.707107 -0.707107 0
    outer loop
      vertex 8.6458 2.26525 -1
      vertex 9.26525 1.6458 -4
      vertex 9.26525 1.6458 -1
    endloop
  endfacet
  facet normal -0.156432 -0.987689 0
    outer loop
      vertex 7 2.8 -4
      vertex 7.86525 2.66296 -1
      vertex 7 2.8 -1
    endloop
  endfacet
  facet normal -0.156432 -0.987689 -0
    outer loop
      vertex 7.86525 2.66296 -1
      vertex 7 2.8 -4
      vertex 7.86525 2.66296 -4
    endloop
  endfacet
  facet normal -0.987689 0.156433 0
    outer loop
      vertex 9.66296 -0.865247 -4
      vertex 9.8 0 -1
      vertex 9.8 0 -4
    endloop
  endfacet
  facet normal -0.987689 0.156433 0
    outer loop
      vertex 9.8 0 -1
      vertex 9.66296 -0.865247 -4
      vertex 9.66296 -0.865247 -1
    endloop
  endfacet
  facet normal -0 0 1
    outer loop
      vertex 7.86525 -2.66296 -1
      vertex 8.5 -2.8 -1
      vertex 8.5 -2.33954 -1
    endloop
  endfacet
  facet normal 0 0 1
    outer loop
      vertex 8.5 -2.8 -1
      vertex 7.86525 -2.66296 -1
      vertex 7 -2.8 -1
    endloop
  endfacet
  facet normal 0 0 1
    outer loop
      vertex 6.13475 -2.66296 -1
      vertex 5.5 -2.8 -1
      vertex 7 -2.8 -1
    endloop
  endfacet
  facet normal 0 0 1
    outer loop
      vertex 5.5 -2.8 -1
      vertex 6.13475 -2.66296 -1
      vertex 5.5 -2.33954 -1
    endloop
  endfacet
  facet normal -0 0 1
    outer loop
      vertex 5.5 2.8 -1
      vertex 6.13475 2.66296 -1
      vertex 7 2.8 -1
    endloop
  endfacet
  facet normal 0 0 1
    outer loop
      vertex 6.13475 2.66296 -1
      vertex 5.5 2.8 -1
      vertex 5.5 2.33954 -1
    endloop
  endfacet
  facet normal 0 0 1
    outer loop
      vertex 8.5 2.8 -1
      vertex 7.86525 2.66296 -1
      vertex 8.5 2.33954 -1
    endloop
  endfacet
  facet normal 0 -0 1
    outer loop
      vertex 7.86525 2.66296 -1
      vertex 8.5 2.8 -1
      vertex 7 2.8 -1
    endloop
  endfacet
  facet normal 0 0 -1
    outer loop
      vertex 9.66296 -0.865247 -1
      vertex 9.66296 0.865247 -1
      vertex 9.8 0 -1
    endloop
  endfacet
  facet normal 0 0 -1
    outer loop
      vertex 8.5 -2.33954 -1
      vertex 9.66296 -0.865247 -1
      vertex 9.26525 -1.6458 -1
    endloop
  endfacet
  facet normal -0 0 -1
    outer loop
      vertex 9.66296 -0.865247 -1
      vertex 8.5 -2.33954 -1
      vertex 9.66296 0.865247 -1
    endloop
  endfacet
  facet normal 0 0 -1
    outer loop
      vertex 8.5 -2.33954 -1
      vertex 9.26525 -1.6458 -1
      vertex 8.6458 -2.26525 -1
    endloop
  endfacet
  facet normal 0 0 -1
    outer loop
      vertex 8.5 2.33954 -1
      vertex 9.66296 0.865247 -1
      vertex 8.5 -2.33954 -1
    endloop
  endfacet
  facet normal 0 0 -1
    outer loop
      vertex 9.66296 0.865247 -1
      vertex 8.5 2.33954 -1
      vertex 9.26525 1.6458 -1
    endloop
  endfacet
  facet normal 0 0 -1
    outer loop
      vertex 9.26525 1.6458 -1
      vertex 8.5 2.33954 -1
      vertex 8.6458 2.26525 -1
    endloop
  endfacet
  facet normal 0 0 -1
    outer loop
      vertex 4.73475 -1.6458 -1
      vertex 5.5 -2.33954 -1
      vertex 5.3542 -2.26525 -1
    endloop
  endfacet
  facet normal 0 0 -1
    outer loop
      vertex 4.33704 -0.865247 -1
      vertex 5.5 -2.33954 -1
      vertex 4.73475 -1.6458 -1
    endloop
  endfacet
  facet normal 0 0 -1
    outer loop
      vertex 5.5 -2.33954 -1
      vertex 4.33704 -0.865247 -1
      vertex 5.5 2.33954 -1
    endloop
  endfacet
  facet normal 0 0 -1
    outer loop
      vertex 5.5 2.33954 -1
      vertex 4.73475 1.6458 -1
      vertex 5.3542 2.26525 -1
    endloop
  endfacet
  facet normal 0 0 -1
    outer loop
      vertex 4.33704 0.865247 -1
      vertex 5.5 2.33954 -1
      vertex 4.33704 -0.865247 -1
    endloop
  endfacet
  facet normal 0 0 -1
    outer loop
      vertex 5.5 2.33954 -1
      vertex 4.33704 0.865247 -1
      vertex 4.73475 1.6458 -1
    endloop
  endfacet
  facet normal 0 -0 -1
    outer loop
      vertex 4.33704 0.865247 -1
      vertex 4.33704 -0.865247 -1
      vertex 4.2 0 -1
    endloop
  endfacet
  facet normal -0.891007 0.453989 0
    outer loop
      vertex 9.26525 -1.6458 -4
      vertex 9.66296 -0.865247 -1
      vertex 9.66296 -0.865247 -4
    endloop
  endfacet
  facet normal -0.891007 0.453989 0
    outer loop
      vertex 9.66296 -0.865247 -1
      vertex 9.26525 -1.6458 -4
      vertex 9.26525 -1.6458 -1
    endloop
  endfacet
  facet normal 0 0 -1
    outer loop
      vertex 5.5 -2.8 -0.799999
      vertex 8.5 -1.5 -0.799999
      vertex 8.5 -2.8 -0.799999
    endloop
  endfacet
  facet normal -0 0 -1
    outer loop
      vertex 8.5 -1.5 -0.799999
      vertex 5.5 -2.8 -0.799999
      vertex 5.5 -1.5 -0.799999
    endloop
  endfacet
  facet normal 0 0 -1
    outer loop
      vertex 5.5 1.5 -0.799999
      vertex 8.5 2.8 -0.799999
      vertex 8.5 1.5 -0.799999
    endloop
  endfacet
  facet normal -0 0 -1
    outer loop
      vertex 8.5 2.8 -0.799999
      vertex 5.5 1.5 -0.799999
      vertex 5.5 2.8 -0.799999
    endloop
  endfacet
  facet normal 1 0 0
    outer loop
      vertex 5.5 2.8 -0.799999
      vertex 5.5 2.33954 -1
      vertex 5.5 2.8 -1
    endloop
  endfacet
  facet normal 1 -0 0
    outer loop
      vertex 5.5 1.5 -0.799999
      vertex 5.5 2.33954 -1
      vertex 5.5 2.8 -0.799999
    endloop
  endfacet
  facet normal 1 0 0
    outer loop
      vertex 5.5 -1.5 -0.799999
      vertex 5.5 1.5 -0.799999
      vertex 5.5 0 -0.599999
    endloop
  endfacet
  facet normal 1 0 0
    outer loop
      vertex 5.5 -1.5 -0.799999
      vertex 5.5 0 -0.599999
      vertex 5.5 -1.5 -0.599999
    endloop
  endfacet
  facet normal 1 0 0
    outer loop
      vertex 5.5 1.5 -0.799999
      vertex 5.5 -1.5 -0.799999
      vertex 5.5 2.33954 -1
    endloop
  endfacet
  facet normal 1 0 0
    outer loop
      vertex 5.5 -1.5 -0.799999
      vertex 5.5 -2.33954 -1
      vertex 5.5 2.33954 -1
    endloop
  endfacet
  facet normal 1 -0 0
    outer loop
      vertex 5.5 -2.8 -0.799999
      vertex 5.5 -2.33954 -1
      vertex 5.5 -1.5 -0.799999
    endloop
  endfacet
  facet normal 1 0 0
    outer loop
      vertex 5.5 -2.33954 -1
      vertex 5.5 -2.8 -0.799999
      vertex 5.5 -2.8 -1
    endloop
  endfacet
  facet normal 1 0 0
    outer loop
      vertex 5.5 1.5 -0.599999
      vertex 5.5 0 -0.599999
      vertex 5.5 1.5 -0.799999
    endloop
  endfacet
  facet normal 0 1 0
    outer loop
      vertex 7 -2.8 -1
      vertex 8.5 -2.8 -0.799999
      vertex 8.5 -2.8 -1
    endloop
  endfacet
  facet normal 0 1 0
    outer loop
      vertex 8.5 -2.8 -0.799999
      vertex 7 -2.8 -1
      vertex 5.5 -2.8 -0.799999
    endloop
  endfacet
  facet normal 0 1 0
    outer loop
      vertex 5.5 -2.8 -0.799999
      vertex 7 -2.8 -1
      vertex 5.5 -2.8 -1
    endloop
  endfacet
  facet normal -1 0 0
    outer loop
      vertex 8.5 2.33954 -1
      vertex 8.5 2.8 -0.799999
      vertex 8.5 2.8 -1
    endloop
  endfacet
  facet normal -1 0 0
    outer loop
      vertex 8.5 2.33954 -1
      vertex 8.5 1.5 -0.799999
      vertex 8.5 2.8 -0.799999
    endloop
  endfacet
  facet normal -1 0 0
    outer loop
      vertex 8.5 1.5 -0.799999
      vertex 8.5 0 -0.599999
      vertex 8.5 1.5 -0.599999
    endloop
  endfacet
  facet normal -1 0 0
    outer loop
      vertex 8.5 -1.5 -0.799999
      vertex 8.5 1.5 -0.799999
      vertex 8.5 2.33954 -1
    endloop
  endfacet
  facet normal -1 0 0
    outer loop
      vertex 8.5 1.5 -0.799999
      vertex 8.5 -1.5 -0.799999
      vertex 8.5 0 -0.599999
    endloop
  endfacet
  facet normal -1 0 0
    outer loop
      vertex 8.5 -2.33954 -1
      vertex 8.5 -1.5 -0.799999
      vertex 8.5 2.33954 -1
    endloop
  endfacet
  facet normal -1 0 0
    outer loop
      vertex 8.5 -2.8 -0.799999
      vertex 8.5 -2.33954 -1
      vertex 8.5 -2.8 -1
    endloop
  endfacet
  facet normal -1 0 0
    outer loop
      vertex 8.5 -2.33954 -1
      vertex 8.5 -2.8 -0.799999
      vertex 8.5 -1.5 -0.799999
    endloop
  endfacet
  facet normal -1 -0 0
    outer loop
      vertex 8.5 0 -0.599999
      vertex 8.5 -1.5 -0.799999
      vertex 8.5 -1.5 -0.599999
    endloop
  endfacet
  facet normal 0 -1 0
    outer loop
      vertex 7 2.8 -1
      vertex 5.5 2.8 -0.799999
      vertex 5.5 2.8 -1
    endloop
  endfacet
  facet normal 0 -1 0
    outer loop
      vertex 5.5 2.8 -0.799999
      vertex 7 2.8 -1
      vertex 8.5 2.8 -0.799999
    endloop
  endfacet
  facet normal 0 -1 -0
    outer loop
      vertex 8.5 2.8 -0.799999
      vertex 7 2.8 -1
      vertex 8.5 2.8 -1
    endloop
  endfacet
  facet normal 0 0 -1
    outer loop
      vertex 5.5 -1.5 -0.599999
      vertex 6.53648 -1.42658 -0.599999
      vertex 7 -1.5 -0.599999
    endloop
  endfacet
  facet normal 0 0 -1
    outer loop
      vertex 5.5 -1.5 -0.599999
      vertex 6.11832 -1.21352 -0.599999
      vertex 6.53648 -1.42658 -0.599999
    endloop
  endfacet
  facet normal 0 0 -1
    outer loop
      vertex 5.5 -1.5 -0.599999
      vertex 5.78648 -0.881678 -0.599999
      vertex 6.11832 -1.21352 -0.599999
    endloop
  endfacet
  facet normal 0 0 -1
    outer loop
      vertex 5.5 -1.5 -0.599999
      vertex 5.57342 -0.463525 -0.599999
      vertex 5.78648 -0.881678 -0.599999
    endloop
  endfacet
  facet normal -0 0 -1
    outer loop
      vertex 5.57342 -0.463525 -0.599999
      vertex 5.5 -1.5 -0.599999
      vertex 5.5 0 -0.599999
    endloop
  endfacet
  facet normal 0 0 -1
    outer loop
      vertex 8.42658 0.463525 -0.599999
      vertex 8.5 1.5 -0.599999
      vertex 8.5 0 -0.599999
    endloop
  endfacet
  facet normal 0 0 -1
    outer loop
      vertex 8.21352 0.881678 -0.599999
      vertex 8.5 1.5 -0.599999
      vertex 8.42658 0.463525 -0.599999
    endloop
  endfacet
  facet normal 0 0 -1
    outer loop
      vertex 7.88168 1.21352 -0.599999
      vertex 8.5 1.5 -0.599999
      vertex 8.21352 0.881678 -0.599999
    endloop
  endfacet
  facet normal 0 0 -1
    outer loop
      vertex 7.46352 1.42658 -0.599999
      vertex 8.5 1.5 -0.599999
      vertex 7.88168 1.21352 -0.599999
    endloop
  endfacet
  facet normal -0 0 -1
    outer loop
      vertex 8.5 1.5 -0.599999
      vertex 7.46352 1.42658 -0.599999
      vertex 7 1.5 -0.599999
    endloop
  endfacet
  facet normal 0 0 -1
    outer loop
      vertex 6.53648 1.42658 -0.599999
      vertex 5.5 1.5 -0.599999
      vertex 7 1.5 -0.599999
    endloop
  endfacet
  facet normal 0 0 -1
    outer loop
      vertex 6.11832 1.21352 -0.599999
      vertex 5.5 1.5 -0.599999
      vertex 6.53648 1.42658 -0.599999
    endloop
  endfacet
  facet normal 0 0 -1
    outer loop
      vertex 5.78648 0.881678 -0.599999
      vertex 5.5 1.5 -0.599999
      vertex 6.11832 1.21352 -0.599999
    endloop
  endfacet
  facet normal 0 0 -1
    outer loop
      vertex 5.57342 0.463525 -0.599999
      vertex 5.5 1.5 -0.599999
      vertex 5.78648 0.881678 -0.599999
    endloop
  endfacet
  facet normal 0 0 -1
    outer loop
      vertex 5.5 1.5 -0.599999
      vertex 5.57342 0.463525 -0.599999
      vertex 5.5 0 -0.599999
    endloop
  endfacet
  facet normal 0 0 -1
    outer loop
      vertex 8.5 -1.5 -0.599999
      vertex 8.42658 -0.463525 -0.599999
      vertex 8.5 0 -0.599999
    endloop
  endfacet
  facet normal 0 0 -1
    outer loop
      vertex 8.5 -1.5 -0.599999
      vertex 8.21352 -0.881678 -0.599999
      vertex 8.42658 -0.463525 -0.599999
    endloop
  endfacet
  facet normal 0 0 -1
    outer loop
      vertex 8.5 -1.5 -0.599999
      vertex 7.88168 -1.21352 -0.599999
      vertex 8.21352 -0.881678 -0.599999
    endloop
  endfacet
  facet normal 0 0 -1
    outer loop
      vertex 8.5 -1.5 -0.599999
      vertex 7.46352 -1.42658 -0.599999
      vertex 7.88168 -1.21352 -0.599999
    endloop
  endfacet
  facet normal 0 -0 -1
    outer loop
      vertex 7.46352 -1.42658 -0.599999
      vertex 8.5 -1.5 -0.599999
      vertex 7 -1.5 -0.599999
    endloop
  endfacet
  facet normal 0 1 -0
    outer loop
      vertex 8.5 -1.5 -0.799999
      vertex 7 -1.5 -0.599999
      vertex 8.5 -1.5 -0.599999
    endloop
  endfacet
  facet normal 0 1 0
    outer loop
      vertex 5.5 -1.5 -0.799999
      vertex 7 -1.5 -0.599999
      vertex 8.5 -1.5 -0.799999
    endloop
  endfacet
  facet normal 0 1 0
    outer loop
      vertex 7 -1.5 -0.599999
      vertex 5.5 -1.5 -0.799999
      vertex 5.5 -1.5 -0.599999
    endloop
  endfacet
  facet normal 0 -1 0
    outer loop
      vertex 5.5 1.5 -0.799999
      vertex 7 1.5 -0.599999
      vertex 5.5 1.5 -0.599999
    endloop
  endfacet
  facet normal 0 -1 0
    outer loop
      vertex 8.5 1.5 -0.799999
      vertex 7 1.5 -0.599999
      vertex 5.5 1.5 -0.799999
    endloop
  endfacet
  facet normal 0 -1 0
    outer loop
      vertex 7 1.5 -0.599999
      vertex 8.5 1.5 -0.799999
      vertex 8.5 1.5 -0.599999
    endloop
  endfacet
  facet normal 0.453985 -0.891009 0
    outer loop
      vertex 6.11832 1.21352 -0.599999
      vertex 6.53648 1.42658 0
      vertex 6.11832 1.21352 0
    endloop
  endfacet
  facet normal 0.453985 -0.891009 0
    outer loop
      vertex 6.53648 1.42658 0
      vertex 6.11832 1.21352 -0.599999
      vertex 6.53648 1.42658 -0.599999
    endloop
  endfacet
  facet normal -0.987687 -0.156445 0
    outer loop
      vertex 8.5 0 -0.599999
      vertex 8.42658 0.463525 0
      vertex 8.42658 0.463525 -0.599999
    endloop
  endfacet
  facet normal -0.987687 -0.156445 0
    outer loop
      vertex 8.42658 0.463525 0
      vertex 8.5 0 -0.599999
      vertex 8.5 0 0
    endloop
  endfacet
  facet normal 0.891006 0.453991 0
    outer loop
      vertex 5.78648 -0.881678 0
      vertex 5.57342 -0.463525 -0.599999
      vertex 5.57342 -0.463525 0
    endloop
  endfacet
  facet normal 0.891006 0.453991 0
    outer loop
      vertex 5.57342 -0.463525 -0.599999
      vertex 5.78648 -0.881678 0
      vertex 5.78648 -0.881678 -0.599999
    endloop
  endfacet
  facet normal -0.707109 0.707105 0
    outer loop
      vertex 7.88168 -1.21352 -0.599999
      vertex 8.21352 -0.881678 0
      vertex 8.21352 -0.881678 -0.599999
    endloop
  endfacet
  facet normal -0.707109 0.707105 0
    outer loop
      vertex 8.21352 -0.881678 0
      vertex 7.88168 -1.21352 -0.599999
      vertex 7.88168 -1.21352 0
    endloop
  endfacet
  facet normal 0.707109 -0.707105 0
    outer loop
      vertex 5.78648 0.881678 0
      vertex 6.11832 1.21352 -0.599999
      vertex 6.11832 1.21352 0
    endloop
  endfacet
  facet normal 0.707109 -0.707105 0
    outer loop
      vertex 6.11832 1.21352 -0.599999
      vertex 5.78648 0.881678 0
      vertex 5.78648 0.881678 -0.599999
    endloop
  endfacet
  facet normal 0.987687 0.156445 0
    outer loop
      vertex 5.57342 -0.463525 0
      vertex 5.5 0 -0.599999
      vertex 5.5 0 0
    endloop
  endfacet
  facet normal 0.987687 0.156445 0
    outer loop
      vertex 5.5 0 -0.599999
      vertex 5.57342 -0.463525 0
      vertex 5.57342 -0.463525 -0.599999
    endloop
  endfacet
  facet normal -0.707109 -0.707105 0
    outer loop
      vertex 8.21352 0.881678 -0.599999
      vertex 7.88168 1.21352 0
      vertex 7.88168 1.21352 -0.599999
    endloop
  endfacet
  facet normal -0.707109 -0.707105 0
    outer loop
      vertex 7.88168 1.21352 0
      vertex 8.21352 0.881678 -0.599999
      vertex 8.21352 0.881678 0
    endloop
  endfacet
  facet normal -0.156446 -0.987686 0
    outer loop
      vertex 7 1.5 -0.599999
      vertex 7.46352 1.42658 0
      vertex 7 1.5 0
    endloop
  endfacet
  facet normal -0.156446 -0.987686 -0
    outer loop
      vertex 7.46352 1.42658 0
      vertex 7 1.5 -0.599999
      vertex 7.46352 1.42658 -0.599999
    endloop
  endfacet
  facet normal -0.453985 -0.891009 0
    outer loop
      vertex 7.46352 1.42658 -0.599999
      vertex 7.88168 1.21352 0
      vertex 7.46352 1.42658 0
    endloop
  endfacet
  facet normal -0.453985 -0.891009 -0
    outer loop
      vertex 7.88168 1.21352 0
      vertex 7.46352 1.42658 -0.599999
      vertex 7.88168 1.21352 -0.599999
    endloop
  endfacet
  facet normal 0.891006 -0.453991 0
    outer loop
      vertex 5.57342 0.463525 0
      vertex 5.78648 0.881678 -0.599999
      vertex 5.78648 0.881678 0
    endloop
  endfacet
  facet normal 0.891006 -0.453991 0
    outer loop
      vertex 5.78648 0.881678 -0.599999
      vertex 5.57342 0.463525 0
      vertex 5.57342 0.463525 -0.599999
    endloop
  endfacet
  facet normal -0.156446 0.987686 0
    outer loop
      vertex 7.46352 -1.42658 -0.599999
      vertex 7 -1.5 0
      vertex 7.46352 -1.42658 0
    endloop
  endfacet
  facet normal -0.156446 0.987686 0
    outer loop
      vertex 7 -1.5 0
      vertex 7.46352 -1.42658 -0.599999
      vertex 7 -1.5 -0.599999
    endloop
  endfacet
  facet normal -0.453985 0.891009 0
    outer loop
      vertex 7.88168 -1.21352 -0.599999
      vertex 7.46352 -1.42658 0
      vertex 7.88168 -1.21352 0
    endloop
  endfacet
  facet normal -0.453985 0.891009 0
    outer loop
      vertex 7.46352 -1.42658 0
      vertex 7.88168 -1.21352 -0.599999
      vertex 7.46352 -1.42658 -0.599999
    endloop
  endfacet
  facet normal 0.156446 -0.987686 0
    outer loop
      vertex 6.53648 1.42658 -0.599999
      vertex 7 1.5 0
      vertex 6.53648 1.42658 0
    endloop
  endfacet
  facet normal 0.156446 -0.987686 0
    outer loop
      vertex 7 1.5 0
      vertex 6.53648 1.42658 -0.599999
      vertex 7 1.5 -0.599999
    endloop
  endfacet
  facet normal 0.987687 -0.156445 0
    outer loop
      vertex 5.5 0 0
      vertex 5.57342 0.463525 -0.599999
      vertex 5.57342 0.463525 0
    endloop
  endfacet
  facet normal 0.987687 -0.156445 0
    outer loop
      vertex 5.57342 0.463525 -0.599999
      vertex 5.5 0 0
      vertex 5.5 0 -0.599999
    endloop
  endfacet
  facet normal 0.707109 0.707105 0
    outer loop
      vertex 6.11832 -1.21352 0
      vertex 5.78648 -0.881678 -0.599999
      vertex 5.78648 -0.881678 0
    endloop
  endfacet
  facet normal 0.707109 0.707105 0
    outer loop
      vertex 5.78648 -0.881678 -0.599999
      vertex 6.11832 -1.21352 0
      vertex 6.11832 -1.21352 -0.599999
    endloop
  endfacet
  facet normal -0.891006 -0.453991 0
    outer loop
      vertex 8.42658 0.463525 -0.599999
      vertex 8.21352 0.881678 0
      vertex 8.21352 0.881678 -0.599999
    endloop
  endfacet
  facet normal -0.891006 -0.453991 0
    outer loop
      vertex 8.21352 0.881678 0
      vertex 8.42658 0.463525 -0.599999
      vertex 8.42658 0.463525 0
    endloop
  endfacet
  facet normal -0.891006 0.453991 0
    outer loop
      vertex 8.21352 -0.881678 -0.599999
      vertex 8.42658 -0.463525 0
      vertex 8.42658 -0.463525 -0.599999
    endloop
  endfacet
  facet normal -0.891006 0.453991 0
    outer loop
      vertex 8.42658 -0.463525 0
      vertex 8.21352 -0.881678 -0.599999
      vertex 8.21352 -0.881678 0
    endloop
  endfacet
  facet normal 0.453985 0.891009 -0
    outer loop
      vertex 6.53648 -1.42658 -0.599999
      vertex 6.11832 -1.21352 0
      vertex 6.53648 -1.42658 0
    endloop
  endfacet
  facet normal 0.453985 0.891009 0
    outer loop
      vertex 6.11832 -1.21352 0
      vertex 6.53648 -1.42658 -0.599999
      vertex 6.11832 -1.21352 -0.599999
    endloop
  endfacet
  facet normal 0.156446 0.987686 -0
    outer loop
      vertex 7 -1.5 -0.599999
      vertex 6.53648 -1.42658 0
      vertex 7 -1.5 0
    endloop
  endfacet
  facet normal 0.156446 0.987686 0
    outer loop
      vertex 6.53648 -1.42658 0
      vertex 7 -1.5 -0.599999
      vertex 6.53648 -1.42658 -0.599999
    endloop
  endfacet
  facet normal -0.987687 0.156445 0
    outer loop
      vertex 8.42658 -0.463525 -0.599999
      vertex 8.5 0 0
      vertex 8.5 0 -0.599999
    endloop
  endfacet
  facet normal -0.987687 0.156445 0
    outer loop
      vertex 8.5 0 0
      vertex 8.42658 -0.463525 -0.599999
      vertex 8.42658 -0.463525 0
    endloop
  endfacet
  facet normal 0 -1 0
    outer loop
      vertex -8.35 -4.29999 -4
      vertex 8.35 -4.29999 0
      vertex -8.35 -4.29999 0
    endloop
  endfacet
  facet normal 0 -1 -0
    outer loop
      vertex 8.35 -4.29999 0
      vertex -8.35 -4.29999 -4
      vertex 8.35 -4.29999 -4
    endloop
  endfacet
  facet normal 0.707107 -0.707107 0
    outer loop
      vertex 10.1133 -3.72704 0
      vertex 10.777 -3.06334 -4
      vertex 10.777 -3.06334 0
    endloop
  endfacet
  facet normal 0.707107 -0.707107 0
    outer loop
      vertex 10.777 -3.06334 -4
      vertex 10.1133 -3.72704 0
      vertex 10.1133 -3.72704 -4
    endloop
  endfacet
  facet normal -0.453977 0.891014 0
    outer loop
      vertex -9.27706 4.15318 -4
      vertex -10.1134 3.72706 0
      vertex -9.27706 4.15318 0
    endloop
  endfacet
  facet normal -0.453977 0.891014 0
    outer loop
      vertex -10.1134 3.72706 0
      vertex -9.27706 4.15318 -4
      vertex -10.1134 3.72706 -4
    endloop
  endfacet
  facet normal 0.454011 0.890996 -0
    outer loop
      vertex 10.1133 3.72706 -4
      vertex 9.27704 4.15318 0
      vertex 10.1133 3.72706 0
    endloop
  endfacet
  facet normal 0.454011 0.890996 0
    outer loop
      vertex 9.27704 4.15318 0
      vertex 10.1133 3.72706 -4
      vertex 9.27704 4.15318 -4
    endloop
  endfacet
  facet normal 0.707101 0.707112 0
    outer loop
      vertex 10.777 3.06337 0
      vertex 10.1133 3.72706 -4
      vertex 10.1133 3.72706 0
    endloop
  endfacet
  facet normal 0.707101 0.707112 0
    outer loop
      vertex 10.1133 3.72706 -4
      vertex 10.777 3.06337 0
      vertex 10.777 3.06337 -4
    endloop
  endfacet
  facet normal 0.890973 0.454057 0
    outer loop
      vertex 11.2032 2.22706 0
      vertex 10.777 3.06337 -4
      vertex 10.777 3.06337 0
    endloop
  endfacet
  facet normal 0.890973 0.454057 0
    outer loop
      vertex 10.777 3.06337 -4
      vertex 11.2032 2.22706 0
      vertex 11.2032 2.22706 -4
    endloop
  endfacet
  facet normal 0.156425 0.98769 -0
    outer loop
      vertex 9.27704 4.15318 -4
      vertex 8.35 4.3 0
      vertex 9.27704 4.15318 0
    endloop
  endfacet
  facet normal 0.156425 0.98769 0
    outer loop
      vertex 8.35 4.3 0
      vertex 9.27704 4.15318 -4
      vertex 8.35 4.3 -4
    endloop
  endfacet
  facet normal -0.156422 0.98769 0
    outer loop
      vertex -8.35 4.3 -4
      vertex -9.27706 4.15318 0
      vertex -8.35 4.3 0
    endloop
  endfacet
  facet normal -0.156422 0.98769 0
    outer loop
      vertex -9.27706 4.15318 0
      vertex -8.35 4.3 -4
      vertex -9.27706 4.15318 -4
    endloop
  endfacet
  facet normal -0.707101 0.707112 0
    outer loop
      vertex -10.7771 3.06337 -4
      vertex -10.1134 3.72706 0
      vertex -10.1134 3.72706 -4
    endloop
  endfacet
  facet normal -0.707101 0.707112 0
    outer loop
      vertex -10.1134 3.72706 0
      vertex -10.7771 3.06337 -4
      vertex -10.7771 3.06337 0
    endloop
  endfacet
  facet normal -0.156433 -0.987689 0
    outer loop
      vertex -9.27706 -4.15316 -4
      vertex -8.35 -4.29999 0
      vertex -9.27706 -4.15316 0
    endloop
  endfacet
  facet normal -0.156433 -0.987689 -0
    outer loop
      vertex -8.35 -4.29999 0
      vertex -9.27706 -4.15316 -4
      vertex -8.35 -4.29999 -4
    endloop
  endfacet
  facet normal 0.987694 0.156401 0
    outer loop
      vertex 11.35 1.3 0
      vertex 11.2032 2.22706 -4
      vertex 11.2032 2.22706 0
    endloop
  endfacet
  facet normal 0.987694 0.156401 0
    outer loop
      vertex 11.2032 2.22706 -4
      vertex 11.35 1.3 0
      vertex 11.35 1.3 -4
    endloop
  endfacet
  facet normal 0.89097 -0.454061 0
    outer loop
      vertex 10.777 -3.06334 0
      vertex 11.2032 -2.22704 -4
      vertex 11.2032 -2.22704 0
    endloop
  endfacet
  facet normal 0.89097 -0.454061 0
    outer loop
      vertex 11.2032 -2.22704 -4
      vertex 10.777 -3.06334 0
      vertex 10.777 -3.06334 -4
    endloop
  endfacet
  facet normal 1 -0 0
    outer loop
      vertex 11.35 -1.29999 0
      vertex 11.35 1.3 -4
      vertex 11.35 1.3 0
    endloop
  endfacet
  facet normal 1 0 0
    outer loop
      vertex 11.35 1.3 -4
      vertex 11.35 -1.29999 0
      vertex 11.35 -1.29999 -4
    endloop
  endfacet
  facet normal 0 1 -0
    outer loop
      vertex 8.35 4.3 -4
      vertex -8.35 4.3 0
      vertex 8.35 4.3 0
    endloop
  endfacet
  facet normal 0 1 0
    outer loop
      vertex -8.35 4.3 0
      vertex 8.35 4.3 -4
      vertex -8.35 4.3 -4
    endloop
  endfacet
  facet normal -1 0 0
    outer loop
      vertex -11.35 -1.29999 -4
      vertex -11.35 1.3 0
      vertex -11.35 1.3 -4
    endloop
  endfacet
  facet normal -1 -0 0
    outer loop
      vertex -11.35 1.3 0
      vertex -11.35 -1.29999 -4
      vertex -11.35 -1.29999 0
    endloop
  endfacet
  facet normal -0.453977 -0.891014 0
    outer loop
      vertex -10.1134 -3.72704 -4
      vertex -9.27706 -4.15316 0
      vertex -10.1134 -3.72704 0
    endloop
  endfacet
  facet normal -0.453977 -0.891014 -0
    outer loop
      vertex -9.27706 -4.15316 0
      vertex -10.1134 -3.72704 -4
      vertex -9.27706 -4.15316 -4
    endloop
  endfacet
  facet normal -0.987694 0.156401 0
    outer loop
      vertex -11.35 1.3 -4
      vertex -11.2032 2.22706 0
      vertex -11.2032 2.22706 -4
    endloop
  endfacet
  facet normal -0.987694 0.156401 0
    outer loop
      vertex -11.2032 2.22706 0
      vertex -11.35 1.3 -4
      vertex -11.35 1.3 0
    endloop
  endfacet
  facet normal 0.987693 -0.156403 0
    outer loop
      vertex 11.2032 -2.22704 0
      vertex 11.35 -1.29999 -4
      vertex 11.35 -1.29999 0
    endloop
  endfacet
  facet normal 0.987693 -0.156403 0
    outer loop
      vertex 11.35 -1.29999 -4
      vertex 11.2032 -2.22704 0
      vertex 11.2032 -2.22704 -4
    endloop
  endfacet
  facet normal -0.891016 0.453973 0
    outer loop
      vertex -11.2032 2.22706 -4
      vertex -10.7771 3.06337 0
      vertex -10.7771 3.06337 -4
    endloop
  endfacet
  facet normal -0.891016 0.453973 0
    outer loop
      vertex -10.7771 3.06337 0
      vertex -11.2032 2.22706 -4
      vertex -11.2032 2.22706 0
    endloop
  endfacet
  facet normal -0.707107 -0.707107 0
    outer loop
      vertex -10.1134 -3.72704 -4
      vertex -10.7771 -3.06334 0
      vertex -10.7771 -3.06334 -4
    endloop
  endfacet
  facet normal -0.707107 -0.707107 0
    outer loop
      vertex -10.7771 -3.06334 0
      vertex -10.1134 -3.72704 -4
      vertex -10.1134 -3.72704 0
    endloop
  endfacet
  facet normal 0.156436 -0.987688 0
    outer loop
      vertex 8.35 -4.29999 -4
      vertex 9.27704 -4.15316 0
      vertex 8.35 -4.29999 0
    endloop
  endfacet
  facet normal 0.156436 -0.987688 0
    outer loop
      vertex 9.27704 -4.15316 0
      vertex 8.35 -4.29999 -4
      vertex 9.27704 -4.15316 -4
    endloop
  endfacet
  facet normal 0.454011 -0.890996 0
    outer loop
      vertex 9.27704 -4.15316 -4
      vertex 10.1133 -3.72704 0
      vertex 9.27704 -4.15316 0
    endloop
  endfacet
  facet normal 0.454011 -0.890996 0
    outer loop
      vertex 10.1133 -3.72704 0
      vertex 9.27704 -4.15316 -4
      vertex 10.1133 -3.72704 -4
    endloop
  endfacet
  facet normal -0.987693 -0.156403 0
    outer loop
      vertex -11.2032 -2.22704 -4
      vertex -11.35 -1.29999 0
      vertex -11.35 -1.29999 -4
    endloop
  endfacet
  facet normal -0.987693 -0.156403 0
    outer loop
      vertex -11.35 -1.29999 0
      vertex -11.2032 -2.22704 -4
      vertex -11.2032 -2.22704 0
    endloop
  endfacet
  facet normal -0.891013 -0.453977 0
    outer loop
      vertex -10.7771 -3.06334 -4
      vertex -11.2032 -2.22704 0
      vertex -11.2032 -2.22704 -4
    endloop
  endfacet
  facet normal -0.891013 -0.453977 0
    outer loop
      vertex -11.2032 -2.22704 0
      vertex -10.7771 -3.06334 -4
      vertex -10.7771 -3.06334 0
    endloop
  endfacet
endsolid OpenSCAD_Model
