G04 #@! TF.GenerationSoftware,KiCad,Pcbnew,(5.1.4)-1*
G04 #@! TF.CreationDate,2019-09-08T22:11:41-07:00*
G04 #@! TF.ProjectId,arduino-micro,61726475-696e-46f2-9d6d-6963726f2e6b,rev?*
G04 #@! TF.SameCoordinates,Original*
G04 #@! TF.FileFunction,Legend,Bot*
G04 #@! TF.FilePolarity,Positive*
%FSLAX46Y46*%
G04 Gerber Fmt 4.6, Leading zero omitted, Abs format (unit mm)*
G04 Created by KiCad (PCBNEW (5.1.4)-1) date 2019-09-08 22:11:41*
%MOMM*%
%LPD*%
G04 APERTURE LIST*
%ADD10C,0.120000*%
%ADD11C,0.200000*%
%ADD12C,0.127000*%
%ADD13C,0.150000*%
%ADD14C,0.050000*%
%ADD15C,0.075000*%
G04 APERTURE END LIST*
D10*
X121930000Y-106080000D02*
X122530000Y-106080000D01*
X121930000Y-107680000D02*
X121930000Y-106080000D01*
X122530000Y-107680000D02*
X121930000Y-107680000D01*
X121930000Y-108620000D02*
X122530000Y-108620000D01*
X121930000Y-110220000D02*
X121930000Y-108620000D01*
X122530000Y-110220000D02*
X121930000Y-110220000D01*
X121930000Y-111160000D02*
X122530000Y-111160000D01*
X121930000Y-112760000D02*
X121930000Y-111160000D01*
X122530000Y-112760000D02*
X121930000Y-112760000D01*
X121930000Y-113700000D02*
X122530000Y-113700000D01*
X121930000Y-115300000D02*
X121930000Y-113700000D01*
X122530000Y-115300000D02*
X121930000Y-115300000D01*
X116510000Y-107130000D02*
X117510000Y-107130000D01*
X116510000Y-114250000D02*
X117510000Y-114250000D01*
X118040000Y-107130000D02*
X117510000Y-106880000D01*
X118040000Y-114250000D02*
X118040000Y-107130000D01*
X117510000Y-114500000D02*
X118040000Y-114250000D01*
X117510000Y-106880000D02*
X116510000Y-106880000D01*
X117510000Y-114500000D02*
X117510000Y-106880000D01*
X116510000Y-114500000D02*
X117510000Y-114500000D01*
X121500000Y-116170000D02*
X117500000Y-116170000D01*
X122530000Y-105500000D02*
X122530000Y-115880000D01*
X116510000Y-105500000D02*
X122530000Y-105500000D01*
X116510000Y-115880000D02*
X116510000Y-105500000D01*
X122530000Y-115880000D02*
X116510000Y-115880000D01*
X151590000Y-97740000D02*
X159650000Y-97740000D01*
X151590000Y-102260000D02*
X151590000Y-97740000D01*
X159650000Y-102260000D02*
X151590000Y-102260000D01*
X132430000Y-106080000D02*
X133030000Y-106080000D01*
X132430000Y-107680000D02*
X132430000Y-106080000D01*
X133030000Y-107680000D02*
X132430000Y-107680000D01*
X132430000Y-108620000D02*
X133030000Y-108620000D01*
X132430000Y-110220000D02*
X132430000Y-108620000D01*
X133030000Y-110220000D02*
X132430000Y-110220000D01*
X132430000Y-111160000D02*
X133030000Y-111160000D01*
X132430000Y-112760000D02*
X132430000Y-111160000D01*
X133030000Y-112760000D02*
X132430000Y-112760000D01*
X132430000Y-113700000D02*
X133030000Y-113700000D01*
X132430000Y-115300000D02*
X132430000Y-113700000D01*
X133030000Y-115300000D02*
X132430000Y-115300000D01*
X127010000Y-107130000D02*
X128010000Y-107130000D01*
X127010000Y-114250000D02*
X128010000Y-114250000D01*
X128540000Y-107130000D02*
X128010000Y-106880000D01*
X128540000Y-114250000D02*
X128540000Y-107130000D01*
X128010000Y-114500000D02*
X128540000Y-114250000D01*
X128010000Y-106880000D02*
X127010000Y-106880000D01*
X128010000Y-114500000D02*
X128010000Y-106880000D01*
X127010000Y-114500000D02*
X128010000Y-114500000D01*
X132000000Y-116170000D02*
X128000000Y-116170000D01*
X133030000Y-105500000D02*
X133030000Y-115880000D01*
X127010000Y-105500000D02*
X133030000Y-105500000D01*
X127010000Y-115880000D02*
X127010000Y-105500000D01*
X133030000Y-115880000D02*
X127010000Y-115880000D01*
D11*
X123300000Y-100700000D02*
G75*
G03X123300000Y-100700000I-100000J0D01*
G01*
D12*
X121950000Y-99686500D02*
X121950000Y-99210000D01*
X121950000Y-96700000D02*
X121950000Y-97290000D01*
X118310000Y-96700000D02*
X121950000Y-96700000D01*
X121950000Y-102600000D02*
X121950000Y-101610000D01*
X118310000Y-102600000D02*
X121950000Y-102600000D01*
X114000000Y-96700000D02*
X115090000Y-96700000D01*
X114000000Y-97750000D02*
X114000000Y-96700000D01*
X113250000Y-97750000D02*
X114000000Y-97750000D01*
X113250000Y-102250000D02*
X113250000Y-97750000D01*
X114000000Y-102250000D02*
X113250000Y-102250000D01*
X114000000Y-102600000D02*
X114000000Y-102250000D01*
X115090000Y-102600000D02*
X114000000Y-102600000D01*
D13*
X192500000Y-134620000D02*
X142020000Y-134620000D01*
X190500000Y-116620000D02*
X190500000Y-134620000D01*
X192500000Y-116586000D02*
X142020000Y-116586000D01*
X142020000Y-116620000D02*
X142020000Y-134620000D01*
X192500000Y-116586000D02*
X192500000Y-134620000D01*
D10*
X140920000Y-109145000D02*
X139105000Y-109145000D01*
X140920000Y-109380000D02*
X140920000Y-109145000D01*
X144780000Y-109380000D02*
X140920000Y-109380000D01*
X148640000Y-109380000D02*
X148640000Y-109145000D01*
X144780000Y-109380000D02*
X148640000Y-109380000D01*
X140920000Y-96360000D02*
X140920000Y-96595000D01*
X144780000Y-96360000D02*
X140920000Y-96360000D01*
X148640000Y-96360000D02*
X148640000Y-96595000D01*
X144780000Y-96360000D02*
X148640000Y-96360000D01*
X178238748Y-98790000D02*
X178761252Y-98790000D01*
X178238748Y-100210000D02*
X178761252Y-100210000D01*
X178238748Y-96290000D02*
X178761252Y-96290000D01*
X178238748Y-97710000D02*
X178761252Y-97710000D01*
X132738748Y-122790000D02*
X133261252Y-122790000D01*
X132738748Y-124210000D02*
X133261252Y-124210000D01*
X132738748Y-127790000D02*
X133261252Y-127790000D01*
X132738748Y-129210000D02*
X133261252Y-129210000D01*
X173238748Y-101290000D02*
X173761252Y-101290000D01*
X173238748Y-102710000D02*
X173761252Y-102710000D01*
X173238748Y-98790000D02*
X173761252Y-98790000D01*
X173238748Y-100210000D02*
X173761252Y-100210000D01*
X173238748Y-96290000D02*
X173761252Y-96290000D01*
X173238748Y-97710000D02*
X173761252Y-97710000D01*
D13*
X123072380Y-110356666D02*
X123786666Y-110356666D01*
X123929523Y-110309047D01*
X124024761Y-110213809D01*
X124072380Y-110070952D01*
X124072380Y-109975714D01*
X123167619Y-110785238D02*
X123120000Y-110832857D01*
X123072380Y-110928095D01*
X123072380Y-111166190D01*
X123120000Y-111261428D01*
X123167619Y-111309047D01*
X123262857Y-111356666D01*
X123358095Y-111356666D01*
X123500952Y-111309047D01*
X124072380Y-110737619D01*
X124072380Y-111356666D01*
X156166666Y-103457142D02*
X156214285Y-103504761D01*
X156357142Y-103552380D01*
X156452380Y-103552380D01*
X156595238Y-103504761D01*
X156690476Y-103409523D01*
X156738095Y-103314285D01*
X156785714Y-103123809D01*
X156785714Y-102980952D01*
X156738095Y-102790476D01*
X156690476Y-102695238D01*
X156595238Y-102600000D01*
X156452380Y-102552380D01*
X156357142Y-102552380D01*
X156214285Y-102600000D01*
X156166666Y-102647619D01*
X155214285Y-103552380D02*
X155785714Y-103552380D01*
X155500000Y-103552380D02*
X155500000Y-102552380D01*
X155595238Y-102695238D01*
X155690476Y-102790476D01*
X155785714Y-102838095D01*
X134572380Y-109880476D02*
X133572380Y-109880476D01*
X134286666Y-110213809D01*
X133572380Y-110547142D01*
X134572380Y-110547142D01*
X134572380Y-111547142D02*
X134572380Y-110975714D01*
X134572380Y-111261428D02*
X133572380Y-111261428D01*
X133715238Y-111166190D01*
X133810476Y-111070952D01*
X133858095Y-110975714D01*
D14*
X115838933Y-103755923D02*
X115838933Y-104213066D01*
X115869409Y-104304495D01*
X115930361Y-104365447D01*
X116021790Y-104395923D01*
X116082742Y-104395923D01*
X115198933Y-104395923D02*
X115564647Y-104395923D01*
X115381790Y-104395923D02*
X115381790Y-103755923D01*
X115442742Y-103847352D01*
X115503695Y-103908304D01*
X115564647Y-103938780D01*
X118209142Y-95695923D02*
X118209142Y-95055923D01*
X117965333Y-95055923D01*
X117904380Y-95086400D01*
X117873904Y-95116876D01*
X117843428Y-95177828D01*
X117843428Y-95269257D01*
X117873904Y-95330209D01*
X117904380Y-95360685D01*
X117965333Y-95391161D01*
X118209142Y-95391161D01*
X117386285Y-95055923D02*
X117386285Y-95513066D01*
X117416761Y-95604495D01*
X117477714Y-95665447D01*
X117569142Y-95695923D01*
X117630095Y-95695923D01*
X117081523Y-95452114D02*
X116593904Y-95452114D01*
X116167238Y-95055923D02*
X116106285Y-95055923D01*
X116045333Y-95086400D01*
X116014857Y-95116876D01*
X115984380Y-95177828D01*
X115953904Y-95299733D01*
X115953904Y-95452114D01*
X115984380Y-95574019D01*
X116014857Y-95634971D01*
X116045333Y-95665447D01*
X116106285Y-95695923D01*
X116167238Y-95695923D01*
X116228190Y-95665447D01*
X116258666Y-95634971D01*
X116289142Y-95574019D01*
X116319619Y-95452114D01*
X116319619Y-95299733D01*
X116289142Y-95177828D01*
X116258666Y-95116876D01*
X116228190Y-95086400D01*
X116167238Y-95055923D01*
X115588190Y-95330209D02*
X115649142Y-95299733D01*
X115679619Y-95269257D01*
X115710095Y-95208304D01*
X115710095Y-95177828D01*
X115679619Y-95116876D01*
X115649142Y-95086400D01*
X115588190Y-95055923D01*
X115466285Y-95055923D01*
X115405333Y-95086400D01*
X115374857Y-95116876D01*
X115344380Y-95177828D01*
X115344380Y-95208304D01*
X115374857Y-95269257D01*
X115405333Y-95299733D01*
X115466285Y-95330209D01*
X115588190Y-95330209D01*
X115649142Y-95360685D01*
X115679619Y-95391161D01*
X115710095Y-95452114D01*
X115710095Y-95574019D01*
X115679619Y-95634971D01*
X115649142Y-95665447D01*
X115588190Y-95695923D01*
X115466285Y-95695923D01*
X115405333Y-95665447D01*
X115374857Y-95634971D01*
X115344380Y-95574019D01*
X115344380Y-95452114D01*
X115374857Y-95391161D01*
X115405333Y-95360685D01*
X115466285Y-95330209D01*
X114978666Y-95330209D02*
X115039619Y-95299733D01*
X115070095Y-95269257D01*
X115100571Y-95208304D01*
X115100571Y-95177828D01*
X115070095Y-95116876D01*
X115039619Y-95086400D01*
X114978666Y-95055923D01*
X114856761Y-95055923D01*
X114795809Y-95086400D01*
X114765333Y-95116876D01*
X114734857Y-95177828D01*
X114734857Y-95208304D01*
X114765333Y-95269257D01*
X114795809Y-95299733D01*
X114856761Y-95330209D01*
X114978666Y-95330209D01*
X115039619Y-95360685D01*
X115070095Y-95391161D01*
X115100571Y-95452114D01*
X115100571Y-95574019D01*
X115070095Y-95634971D01*
X115039619Y-95665447D01*
X114978666Y-95695923D01*
X114856761Y-95695923D01*
X114795809Y-95665447D01*
X114765333Y-95634971D01*
X114734857Y-95574019D01*
X114734857Y-95452114D01*
X114765333Y-95391161D01*
X114795809Y-95360685D01*
X114856761Y-95330209D01*
X114094857Y-95634971D02*
X114125333Y-95665447D01*
X114216761Y-95695923D01*
X114277714Y-95695923D01*
X114369142Y-95665447D01*
X114430095Y-95604495D01*
X114460571Y-95543542D01*
X114491047Y-95421638D01*
X114491047Y-95330209D01*
X114460571Y-95208304D01*
X114430095Y-95147352D01*
X114369142Y-95086400D01*
X114277714Y-95055923D01*
X114216761Y-95055923D01*
X114125333Y-95086400D01*
X114094857Y-95116876D01*
X113820571Y-95695923D02*
X113820571Y-95055923D01*
X113820571Y-95360685D02*
X113454857Y-95360685D01*
X113454857Y-95695923D02*
X113454857Y-95055923D01*
D13*
X189198095Y-115022380D02*
X188531428Y-116022380D01*
X188531428Y-115022380D02*
X189198095Y-116022380D01*
X188198095Y-115736666D02*
X187721904Y-115736666D01*
X188293333Y-116022380D02*
X187960000Y-115022380D01*
X187626666Y-116022380D01*
X186769523Y-116022380D02*
X187340952Y-116022380D01*
X187055238Y-116022380D02*
X187055238Y-115022380D01*
X187150476Y-115165238D01*
X187245714Y-115260476D01*
X187340952Y-115308095D01*
D15*
X191242190Y-124972047D02*
X191646952Y-124972047D01*
X191694571Y-124995857D01*
X191718380Y-125019666D01*
X191742190Y-125067285D01*
X191742190Y-125162523D01*
X191718380Y-125210142D01*
X191694571Y-125233952D01*
X191646952Y-125257761D01*
X191242190Y-125257761D01*
X191718380Y-125472047D02*
X191742190Y-125543476D01*
X191742190Y-125662523D01*
X191718380Y-125710142D01*
X191694571Y-125733952D01*
X191646952Y-125757761D01*
X191599333Y-125757761D01*
X191551714Y-125733952D01*
X191527904Y-125710142D01*
X191504095Y-125662523D01*
X191480285Y-125567285D01*
X191456476Y-125519666D01*
X191432666Y-125495857D01*
X191385047Y-125472047D01*
X191337428Y-125472047D01*
X191289809Y-125495857D01*
X191266000Y-125519666D01*
X191242190Y-125567285D01*
X191242190Y-125686333D01*
X191266000Y-125757761D01*
X191480285Y-126138714D02*
X191504095Y-126210142D01*
X191527904Y-126233952D01*
X191575523Y-126257761D01*
X191646952Y-126257761D01*
X191694571Y-126233952D01*
X191718380Y-126210142D01*
X191742190Y-126162523D01*
X191742190Y-125972047D01*
X191242190Y-125972047D01*
X191242190Y-126138714D01*
X191266000Y-126186333D01*
X191289809Y-126210142D01*
X191337428Y-126233952D01*
X191385047Y-126233952D01*
X191432666Y-126210142D01*
X191456476Y-126186333D01*
X191480285Y-126138714D01*
X191480285Y-125972047D01*
X184778095Y-131552190D02*
X184468571Y-131552190D01*
X184635238Y-131742666D01*
X184563809Y-131742666D01*
X184516190Y-131766476D01*
X184492380Y-131790285D01*
X184468571Y-131837904D01*
X184468571Y-131956952D01*
X184492380Y-132004571D01*
X184516190Y-132028380D01*
X184563809Y-132052190D01*
X184706666Y-132052190D01*
X184754285Y-132028380D01*
X184778095Y-132004571D01*
X184254285Y-132004571D02*
X184230476Y-132028380D01*
X184254285Y-132052190D01*
X184278095Y-132028380D01*
X184254285Y-132004571D01*
X184254285Y-132052190D01*
X184063809Y-131552190D02*
X183754285Y-131552190D01*
X183920952Y-131742666D01*
X183849523Y-131742666D01*
X183801904Y-131766476D01*
X183778095Y-131790285D01*
X183754285Y-131837904D01*
X183754285Y-131956952D01*
X183778095Y-132004571D01*
X183801904Y-132028380D01*
X183849523Y-132052190D01*
X183992380Y-132052190D01*
X184040000Y-132028380D01*
X184063809Y-132004571D01*
X183611428Y-131552190D02*
X183444761Y-132052190D01*
X183278095Y-131552190D01*
D13*
X145541904Y-109672380D02*
X145541904Y-110481904D01*
X145494285Y-110577142D01*
X145446666Y-110624761D01*
X145351428Y-110672380D01*
X145160952Y-110672380D01*
X145065714Y-110624761D01*
X145018095Y-110577142D01*
X144970476Y-110481904D01*
X144970476Y-109672380D01*
X143970476Y-110672380D02*
X144541904Y-110672380D01*
X144256190Y-110672380D02*
X144256190Y-109672380D01*
X144351428Y-109815238D01*
X144446666Y-109910476D01*
X144541904Y-109958095D01*
X178666666Y-101602380D02*
X179000000Y-101126190D01*
X179238095Y-101602380D02*
X179238095Y-100602380D01*
X178857142Y-100602380D01*
X178761904Y-100650000D01*
X178714285Y-100697619D01*
X178666666Y-100792857D01*
X178666666Y-100935714D01*
X178714285Y-101030952D01*
X178761904Y-101078571D01*
X178857142Y-101126190D01*
X179238095Y-101126190D01*
X177761904Y-100602380D02*
X178238095Y-100602380D01*
X178285714Y-101078571D01*
X178238095Y-101030952D01*
X178142857Y-100983333D01*
X177904761Y-100983333D01*
X177809523Y-101030952D01*
X177761904Y-101078571D01*
X177714285Y-101173809D01*
X177714285Y-101411904D01*
X177761904Y-101507142D01*
X177809523Y-101554761D01*
X177904761Y-101602380D01*
X178142857Y-101602380D01*
X178238095Y-101554761D01*
X178285714Y-101507142D01*
X178666666Y-99102380D02*
X179000000Y-98626190D01*
X179238095Y-99102380D02*
X179238095Y-98102380D01*
X178857142Y-98102380D01*
X178761904Y-98150000D01*
X178714285Y-98197619D01*
X178666666Y-98292857D01*
X178666666Y-98435714D01*
X178714285Y-98530952D01*
X178761904Y-98578571D01*
X178857142Y-98626190D01*
X179238095Y-98626190D01*
X177809523Y-98435714D02*
X177809523Y-99102380D01*
X178047619Y-98054761D02*
X178285714Y-98769047D01*
X177666666Y-98769047D01*
X133166666Y-125602380D02*
X133500000Y-125126190D01*
X133738095Y-125602380D02*
X133738095Y-124602380D01*
X133357142Y-124602380D01*
X133261904Y-124650000D01*
X133214285Y-124697619D01*
X133166666Y-124792857D01*
X133166666Y-124935714D01*
X133214285Y-125030952D01*
X133261904Y-125078571D01*
X133357142Y-125126190D01*
X133738095Y-125126190D01*
X132785714Y-124697619D02*
X132738095Y-124650000D01*
X132642857Y-124602380D01*
X132404761Y-124602380D01*
X132309523Y-124650000D01*
X132261904Y-124697619D01*
X132214285Y-124792857D01*
X132214285Y-124888095D01*
X132261904Y-125030952D01*
X132833333Y-125602380D01*
X132214285Y-125602380D01*
X133166666Y-130602380D02*
X133500000Y-130126190D01*
X133738095Y-130602380D02*
X133738095Y-129602380D01*
X133357142Y-129602380D01*
X133261904Y-129650000D01*
X133214285Y-129697619D01*
X133166666Y-129792857D01*
X133166666Y-129935714D01*
X133214285Y-130030952D01*
X133261904Y-130078571D01*
X133357142Y-130126190D01*
X133738095Y-130126190D01*
X132214285Y-130602380D02*
X132785714Y-130602380D01*
X132500000Y-130602380D02*
X132500000Y-129602380D01*
X132595238Y-129745238D01*
X132690476Y-129840476D01*
X132785714Y-129888095D01*
X173666666Y-104007142D02*
X173714285Y-104054761D01*
X173857142Y-104102380D01*
X173952380Y-104102380D01*
X174095238Y-104054761D01*
X174190476Y-103959523D01*
X174238095Y-103864285D01*
X174285714Y-103673809D01*
X174285714Y-103530952D01*
X174238095Y-103340476D01*
X174190476Y-103245238D01*
X174095238Y-103150000D01*
X173952380Y-103102380D01*
X173857142Y-103102380D01*
X173714285Y-103150000D01*
X173666666Y-103197619D01*
X172809523Y-103435714D02*
X172809523Y-104102380D01*
X173047619Y-103054761D02*
X173285714Y-103769047D01*
X172666666Y-103769047D01*
X173666666Y-101507142D02*
X173714285Y-101554761D01*
X173857142Y-101602380D01*
X173952380Y-101602380D01*
X174095238Y-101554761D01*
X174190476Y-101459523D01*
X174238095Y-101364285D01*
X174285714Y-101173809D01*
X174285714Y-101030952D01*
X174238095Y-100840476D01*
X174190476Y-100745238D01*
X174095238Y-100650000D01*
X173952380Y-100602380D01*
X173857142Y-100602380D01*
X173714285Y-100650000D01*
X173666666Y-100697619D01*
X173333333Y-100602380D02*
X172714285Y-100602380D01*
X173047619Y-100983333D01*
X172904761Y-100983333D01*
X172809523Y-101030952D01*
X172761904Y-101078571D01*
X172714285Y-101173809D01*
X172714285Y-101411904D01*
X172761904Y-101507142D01*
X172809523Y-101554761D01*
X172904761Y-101602380D01*
X173190476Y-101602380D01*
X173285714Y-101554761D01*
X173333333Y-101507142D01*
X173666666Y-99007142D02*
X173714285Y-99054761D01*
X173857142Y-99102380D01*
X173952380Y-99102380D01*
X174095238Y-99054761D01*
X174190476Y-98959523D01*
X174238095Y-98864285D01*
X174285714Y-98673809D01*
X174285714Y-98530952D01*
X174238095Y-98340476D01*
X174190476Y-98245238D01*
X174095238Y-98150000D01*
X173952380Y-98102380D01*
X173857142Y-98102380D01*
X173714285Y-98150000D01*
X173666666Y-98197619D01*
X173285714Y-98197619D02*
X173238095Y-98150000D01*
X173142857Y-98102380D01*
X172904761Y-98102380D01*
X172809523Y-98150000D01*
X172761904Y-98197619D01*
X172714285Y-98292857D01*
X172714285Y-98388095D01*
X172761904Y-98530952D01*
X173333333Y-99102380D01*
X172714285Y-99102380D01*
M02*
