M48
; DRILL file {KiCad (5.1.4)-1} date 9/8/2019 10:11:44 PM
; FORMAT={-:-/ absolute / inch / decimal}
; #@! TF.CreationDate,2019-09-08T22:11:44-07:00
; #@! TF.GenerationSoftware,Kicad,Pcbnew,(5.1.4)-1
; #@! TF.FileFunction,Plated,1,2,PTH
FMAT,2
INCH
T1C0.0157
T2C0.0276
T3C0.0394
T4C0.0400
T5C0.0472
T6C0.0591
%
G90
G05
T1
X4.8819Y-3.9567
X4.9016Y-4.5669
X5.0394Y-3.9567
X5.2362Y-4.6654
X5.2756Y-4.1929
X5.3015Y-4.56
X5.374Y-4.5276
X5.4743Y-4.7904
X5.5118Y-4.3898
X5.6299Y-4.753
X5.6299Y-5.1575
X5.6331Y-4.1266
X5.6693Y-4.0945
X5.8268Y-4.4882
X5.9423Y-4.4016
X5.9843Y-4.2126
X6.0236Y-4.2126
X6.0433Y-4.3504
X6.063Y-4.7244
X6.0742Y-4.8824
X6.1031Y-4.6959
X6.1731Y-5.1654
X6.2346Y-4.753
X6.2992Y-3.8189
X6.3196Y-4.753
X6.3344Y-4.0909
X6.3642Y-4.1166
X6.378Y-4.1535
X6.4173Y-4.8031
X6.6535Y-4.5276
X6.7126Y-3.878
X6.8701Y-4.311
X6.9291Y-3.9764
X7.0079Y-4.8031
X7.1457Y-3.9764
X7.2441Y-5.1575
X7.3622Y-5.1575
T3
X6.15Y-3.75
X6.15Y-4.35
X6.25Y-3.75
X6.25Y-4.35
X6.35Y-3.75
X6.35Y-4.35
X6.45Y-3.75
X6.45Y-4.35
X6.55Y-3.75
X6.55Y-4.35
X6.65Y-3.75
X6.65Y-4.35
X4.8425Y-4.8622
X4.8425Y-5.0591
X5.4134Y-4.8622
X5.4134Y-4.9606
X5.4134Y-5.0591
T4
X5.7457Y-4.6457
X5.7457Y-5.2457
X5.8457Y-4.6457
X5.8457Y-5.2457
X5.9457Y-4.6457
X5.9457Y-5.2457
X6.0457Y-4.6457
X6.0457Y-5.2457
X6.1457Y-4.6457
X6.1457Y-5.2457
X6.2457Y-4.6457
X6.2457Y-5.2457
X6.3457Y-4.6457
X6.3457Y-5.2457
X6.4457Y-4.6457
X6.4457Y-5.2457
X6.5457Y-4.6457
X6.5457Y-5.2457
X6.6457Y-4.6457
X6.6457Y-5.2457
X6.7457Y-4.6457
X6.7457Y-5.2457
X6.8457Y-4.6457
X6.8457Y-5.2457
X6.9457Y-4.6457
X6.9457Y-5.2457
X7.0457Y-4.6457
X7.0457Y-5.2457
X7.1457Y-4.6457
X7.1457Y-5.2457
X7.2457Y-4.6457
X7.2457Y-5.2457
X7.3457Y-4.6457
X7.3457Y-5.2457
T5
X4.7047Y-4.2079
X4.7047Y-4.3079
X4.7047Y-4.4079
X4.7047Y-4.5079
X5.1181Y-4.2079
X5.1181Y-4.3079
X5.1181Y-4.4079
X5.1181Y-4.5079
T2
G00X4.5748Y-3.811
M15
G01X4.6142Y-3.811
M16
G05
G00X4.5748Y-4.0354
M15
G01X4.6142Y-4.0354
M16
G05
G00X4.752Y-3.8701
M15
G01X4.7913Y-3.8701
M16
G05
G00X4.752Y-3.9606
M15
G01X4.7913Y-3.9606
M16
G05
T6
G00X5.1437Y-4.7402
M15
G01X5.0925Y-4.7402
M16
G05
G00X5.1437Y-5.1811
M15
G01X5.0925Y-5.1811
M16
G05
T0
M30
