G04 #@! TF.GenerationSoftware,KiCad,Pcbnew,(5.1.4)-1*
G04 #@! TF.CreationDate,2019-09-08T22:11:41-07:00*
G04 #@! TF.ProjectId,arduino-micro,61726475-696e-46f2-9d6d-6963726f2e6b,rev?*
G04 #@! TF.SameCoordinates,Original*
G04 #@! TF.FileFunction,Paste,Bot*
G04 #@! TF.FilePolarity,Positive*
%FSLAX46Y46*%
G04 Gerber Fmt 4.6, Leading zero omitted, Abs format (unit mm)*
G04 Created by KiCad (PCBNEW (5.1.4)-1) date 2019-09-08 22:11:41*
%MOMM*%
%LPD*%
G04 APERTURE LIST*
%ADD10C,0.100000*%
%ADD11C,2.075000*%
%ADD12C,0.600000*%
%ADD13C,1.150000*%
G04 APERTURE END LIST*
D10*
G36*
X159924504Y-98726204D02*
G01*
X159948773Y-98729804D01*
X159972571Y-98735765D01*
X159995671Y-98744030D01*
X160017849Y-98754520D01*
X160038893Y-98767133D01*
X160058598Y-98781747D01*
X160076777Y-98798223D01*
X160093253Y-98816402D01*
X160107867Y-98836107D01*
X160120480Y-98857151D01*
X160130970Y-98879329D01*
X160139235Y-98902429D01*
X160145196Y-98926227D01*
X160148796Y-98950496D01*
X160150000Y-98975000D01*
X160150000Y-101025000D01*
X160148796Y-101049504D01*
X160145196Y-101073773D01*
X160139235Y-101097571D01*
X160130970Y-101120671D01*
X160120480Y-101142849D01*
X160107867Y-101163893D01*
X160093253Y-101183598D01*
X160076777Y-101201777D01*
X160058598Y-101218253D01*
X160038893Y-101232867D01*
X160017849Y-101245480D01*
X159995671Y-101255970D01*
X159972571Y-101264235D01*
X159948773Y-101270196D01*
X159924504Y-101273796D01*
X159900000Y-101275000D01*
X158325000Y-101275000D01*
X158300496Y-101273796D01*
X158276227Y-101270196D01*
X158252429Y-101264235D01*
X158229329Y-101255970D01*
X158207151Y-101245480D01*
X158186107Y-101232867D01*
X158166402Y-101218253D01*
X158148223Y-101201777D01*
X158131747Y-101183598D01*
X158117133Y-101163893D01*
X158104520Y-101142849D01*
X158094030Y-101120671D01*
X158085765Y-101097571D01*
X158079804Y-101073773D01*
X158076204Y-101049504D01*
X158075000Y-101025000D01*
X158075000Y-98975000D01*
X158076204Y-98950496D01*
X158079804Y-98926227D01*
X158085765Y-98902429D01*
X158094030Y-98879329D01*
X158104520Y-98857151D01*
X158117133Y-98836107D01*
X158131747Y-98816402D01*
X158148223Y-98798223D01*
X158166402Y-98781747D01*
X158186107Y-98767133D01*
X158207151Y-98754520D01*
X158229329Y-98744030D01*
X158252429Y-98735765D01*
X158276227Y-98729804D01*
X158300496Y-98726204D01*
X158325000Y-98725000D01*
X159900000Y-98725000D01*
X159924504Y-98726204D01*
X159924504Y-98726204D01*
G37*
D11*
X159112500Y-100000000D03*
D10*
G36*
X153699504Y-98726204D02*
G01*
X153723773Y-98729804D01*
X153747571Y-98735765D01*
X153770671Y-98744030D01*
X153792849Y-98754520D01*
X153813893Y-98767133D01*
X153833598Y-98781747D01*
X153851777Y-98798223D01*
X153868253Y-98816402D01*
X153882867Y-98836107D01*
X153895480Y-98857151D01*
X153905970Y-98879329D01*
X153914235Y-98902429D01*
X153920196Y-98926227D01*
X153923796Y-98950496D01*
X153925000Y-98975000D01*
X153925000Y-101025000D01*
X153923796Y-101049504D01*
X153920196Y-101073773D01*
X153914235Y-101097571D01*
X153905970Y-101120671D01*
X153895480Y-101142849D01*
X153882867Y-101163893D01*
X153868253Y-101183598D01*
X153851777Y-101201777D01*
X153833598Y-101218253D01*
X153813893Y-101232867D01*
X153792849Y-101245480D01*
X153770671Y-101255970D01*
X153747571Y-101264235D01*
X153723773Y-101270196D01*
X153699504Y-101273796D01*
X153675000Y-101275000D01*
X152100000Y-101275000D01*
X152075496Y-101273796D01*
X152051227Y-101270196D01*
X152027429Y-101264235D01*
X152004329Y-101255970D01*
X151982151Y-101245480D01*
X151961107Y-101232867D01*
X151941402Y-101218253D01*
X151923223Y-101201777D01*
X151906747Y-101183598D01*
X151892133Y-101163893D01*
X151879520Y-101142849D01*
X151869030Y-101120671D01*
X151860765Y-101097571D01*
X151854804Y-101073773D01*
X151851204Y-101049504D01*
X151850000Y-101025000D01*
X151850000Y-98975000D01*
X151851204Y-98950496D01*
X151854804Y-98926227D01*
X151860765Y-98902429D01*
X151869030Y-98879329D01*
X151879520Y-98857151D01*
X151892133Y-98836107D01*
X151906747Y-98816402D01*
X151923223Y-98798223D01*
X151941402Y-98781747D01*
X151961107Y-98767133D01*
X151982151Y-98754520D01*
X152004329Y-98744030D01*
X152027429Y-98735765D01*
X152051227Y-98729804D01*
X152075496Y-98726204D01*
X152100000Y-98725000D01*
X153675000Y-98725000D01*
X153699504Y-98726204D01*
X153699504Y-98726204D01*
G37*
D11*
X152887500Y-100000000D03*
D10*
G36*
X150319703Y-108285722D02*
G01*
X150334264Y-108287882D01*
X150348543Y-108291459D01*
X150362403Y-108296418D01*
X150375710Y-108302712D01*
X150388336Y-108310280D01*
X150400159Y-108319048D01*
X150411066Y-108328934D01*
X150420952Y-108339841D01*
X150429720Y-108351664D01*
X150437288Y-108364290D01*
X150443582Y-108377597D01*
X150448541Y-108391457D01*
X150452118Y-108405736D01*
X150454278Y-108420297D01*
X150455000Y-108435000D01*
X150455000Y-108735000D01*
X150454278Y-108749703D01*
X150452118Y-108764264D01*
X150448541Y-108778543D01*
X150443582Y-108792403D01*
X150437288Y-108805710D01*
X150429720Y-108818336D01*
X150420952Y-108830159D01*
X150411066Y-108841066D01*
X150400159Y-108850952D01*
X150388336Y-108859720D01*
X150375710Y-108867288D01*
X150362403Y-108873582D01*
X150348543Y-108878541D01*
X150334264Y-108882118D01*
X150319703Y-108884278D01*
X150305000Y-108885000D01*
X148555000Y-108885000D01*
X148540297Y-108884278D01*
X148525736Y-108882118D01*
X148511457Y-108878541D01*
X148497597Y-108873582D01*
X148484290Y-108867288D01*
X148471664Y-108859720D01*
X148459841Y-108850952D01*
X148448934Y-108841066D01*
X148439048Y-108830159D01*
X148430280Y-108818336D01*
X148422712Y-108805710D01*
X148416418Y-108792403D01*
X148411459Y-108778543D01*
X148407882Y-108764264D01*
X148405722Y-108749703D01*
X148405000Y-108735000D01*
X148405000Y-108435000D01*
X148405722Y-108420297D01*
X148407882Y-108405736D01*
X148411459Y-108391457D01*
X148416418Y-108377597D01*
X148422712Y-108364290D01*
X148430280Y-108351664D01*
X148439048Y-108339841D01*
X148448934Y-108328934D01*
X148459841Y-108319048D01*
X148471664Y-108310280D01*
X148484290Y-108302712D01*
X148497597Y-108296418D01*
X148511457Y-108291459D01*
X148525736Y-108287882D01*
X148540297Y-108285722D01*
X148555000Y-108285000D01*
X150305000Y-108285000D01*
X150319703Y-108285722D01*
X150319703Y-108285722D01*
G37*
D12*
X149430000Y-108585000D03*
D10*
G36*
X150319703Y-107015722D02*
G01*
X150334264Y-107017882D01*
X150348543Y-107021459D01*
X150362403Y-107026418D01*
X150375710Y-107032712D01*
X150388336Y-107040280D01*
X150400159Y-107049048D01*
X150411066Y-107058934D01*
X150420952Y-107069841D01*
X150429720Y-107081664D01*
X150437288Y-107094290D01*
X150443582Y-107107597D01*
X150448541Y-107121457D01*
X150452118Y-107135736D01*
X150454278Y-107150297D01*
X150455000Y-107165000D01*
X150455000Y-107465000D01*
X150454278Y-107479703D01*
X150452118Y-107494264D01*
X150448541Y-107508543D01*
X150443582Y-107522403D01*
X150437288Y-107535710D01*
X150429720Y-107548336D01*
X150420952Y-107560159D01*
X150411066Y-107571066D01*
X150400159Y-107580952D01*
X150388336Y-107589720D01*
X150375710Y-107597288D01*
X150362403Y-107603582D01*
X150348543Y-107608541D01*
X150334264Y-107612118D01*
X150319703Y-107614278D01*
X150305000Y-107615000D01*
X148555000Y-107615000D01*
X148540297Y-107614278D01*
X148525736Y-107612118D01*
X148511457Y-107608541D01*
X148497597Y-107603582D01*
X148484290Y-107597288D01*
X148471664Y-107589720D01*
X148459841Y-107580952D01*
X148448934Y-107571066D01*
X148439048Y-107560159D01*
X148430280Y-107548336D01*
X148422712Y-107535710D01*
X148416418Y-107522403D01*
X148411459Y-107508543D01*
X148407882Y-107494264D01*
X148405722Y-107479703D01*
X148405000Y-107465000D01*
X148405000Y-107165000D01*
X148405722Y-107150297D01*
X148407882Y-107135736D01*
X148411459Y-107121457D01*
X148416418Y-107107597D01*
X148422712Y-107094290D01*
X148430280Y-107081664D01*
X148439048Y-107069841D01*
X148448934Y-107058934D01*
X148459841Y-107049048D01*
X148471664Y-107040280D01*
X148484290Y-107032712D01*
X148497597Y-107026418D01*
X148511457Y-107021459D01*
X148525736Y-107017882D01*
X148540297Y-107015722D01*
X148555000Y-107015000D01*
X150305000Y-107015000D01*
X150319703Y-107015722D01*
X150319703Y-107015722D01*
G37*
D12*
X149430000Y-107315000D03*
D10*
G36*
X150319703Y-105745722D02*
G01*
X150334264Y-105747882D01*
X150348543Y-105751459D01*
X150362403Y-105756418D01*
X150375710Y-105762712D01*
X150388336Y-105770280D01*
X150400159Y-105779048D01*
X150411066Y-105788934D01*
X150420952Y-105799841D01*
X150429720Y-105811664D01*
X150437288Y-105824290D01*
X150443582Y-105837597D01*
X150448541Y-105851457D01*
X150452118Y-105865736D01*
X150454278Y-105880297D01*
X150455000Y-105895000D01*
X150455000Y-106195000D01*
X150454278Y-106209703D01*
X150452118Y-106224264D01*
X150448541Y-106238543D01*
X150443582Y-106252403D01*
X150437288Y-106265710D01*
X150429720Y-106278336D01*
X150420952Y-106290159D01*
X150411066Y-106301066D01*
X150400159Y-106310952D01*
X150388336Y-106319720D01*
X150375710Y-106327288D01*
X150362403Y-106333582D01*
X150348543Y-106338541D01*
X150334264Y-106342118D01*
X150319703Y-106344278D01*
X150305000Y-106345000D01*
X148555000Y-106345000D01*
X148540297Y-106344278D01*
X148525736Y-106342118D01*
X148511457Y-106338541D01*
X148497597Y-106333582D01*
X148484290Y-106327288D01*
X148471664Y-106319720D01*
X148459841Y-106310952D01*
X148448934Y-106301066D01*
X148439048Y-106290159D01*
X148430280Y-106278336D01*
X148422712Y-106265710D01*
X148416418Y-106252403D01*
X148411459Y-106238543D01*
X148407882Y-106224264D01*
X148405722Y-106209703D01*
X148405000Y-106195000D01*
X148405000Y-105895000D01*
X148405722Y-105880297D01*
X148407882Y-105865736D01*
X148411459Y-105851457D01*
X148416418Y-105837597D01*
X148422712Y-105824290D01*
X148430280Y-105811664D01*
X148439048Y-105799841D01*
X148448934Y-105788934D01*
X148459841Y-105779048D01*
X148471664Y-105770280D01*
X148484290Y-105762712D01*
X148497597Y-105756418D01*
X148511457Y-105751459D01*
X148525736Y-105747882D01*
X148540297Y-105745722D01*
X148555000Y-105745000D01*
X150305000Y-105745000D01*
X150319703Y-105745722D01*
X150319703Y-105745722D01*
G37*
D12*
X149430000Y-106045000D03*
D10*
G36*
X150319703Y-104475722D02*
G01*
X150334264Y-104477882D01*
X150348543Y-104481459D01*
X150362403Y-104486418D01*
X150375710Y-104492712D01*
X150388336Y-104500280D01*
X150400159Y-104509048D01*
X150411066Y-104518934D01*
X150420952Y-104529841D01*
X150429720Y-104541664D01*
X150437288Y-104554290D01*
X150443582Y-104567597D01*
X150448541Y-104581457D01*
X150452118Y-104595736D01*
X150454278Y-104610297D01*
X150455000Y-104625000D01*
X150455000Y-104925000D01*
X150454278Y-104939703D01*
X150452118Y-104954264D01*
X150448541Y-104968543D01*
X150443582Y-104982403D01*
X150437288Y-104995710D01*
X150429720Y-105008336D01*
X150420952Y-105020159D01*
X150411066Y-105031066D01*
X150400159Y-105040952D01*
X150388336Y-105049720D01*
X150375710Y-105057288D01*
X150362403Y-105063582D01*
X150348543Y-105068541D01*
X150334264Y-105072118D01*
X150319703Y-105074278D01*
X150305000Y-105075000D01*
X148555000Y-105075000D01*
X148540297Y-105074278D01*
X148525736Y-105072118D01*
X148511457Y-105068541D01*
X148497597Y-105063582D01*
X148484290Y-105057288D01*
X148471664Y-105049720D01*
X148459841Y-105040952D01*
X148448934Y-105031066D01*
X148439048Y-105020159D01*
X148430280Y-105008336D01*
X148422712Y-104995710D01*
X148416418Y-104982403D01*
X148411459Y-104968543D01*
X148407882Y-104954264D01*
X148405722Y-104939703D01*
X148405000Y-104925000D01*
X148405000Y-104625000D01*
X148405722Y-104610297D01*
X148407882Y-104595736D01*
X148411459Y-104581457D01*
X148416418Y-104567597D01*
X148422712Y-104554290D01*
X148430280Y-104541664D01*
X148439048Y-104529841D01*
X148448934Y-104518934D01*
X148459841Y-104509048D01*
X148471664Y-104500280D01*
X148484290Y-104492712D01*
X148497597Y-104486418D01*
X148511457Y-104481459D01*
X148525736Y-104477882D01*
X148540297Y-104475722D01*
X148555000Y-104475000D01*
X150305000Y-104475000D01*
X150319703Y-104475722D01*
X150319703Y-104475722D01*
G37*
D12*
X149430000Y-104775000D03*
D10*
G36*
X150319703Y-103205722D02*
G01*
X150334264Y-103207882D01*
X150348543Y-103211459D01*
X150362403Y-103216418D01*
X150375710Y-103222712D01*
X150388336Y-103230280D01*
X150400159Y-103239048D01*
X150411066Y-103248934D01*
X150420952Y-103259841D01*
X150429720Y-103271664D01*
X150437288Y-103284290D01*
X150443582Y-103297597D01*
X150448541Y-103311457D01*
X150452118Y-103325736D01*
X150454278Y-103340297D01*
X150455000Y-103355000D01*
X150455000Y-103655000D01*
X150454278Y-103669703D01*
X150452118Y-103684264D01*
X150448541Y-103698543D01*
X150443582Y-103712403D01*
X150437288Y-103725710D01*
X150429720Y-103738336D01*
X150420952Y-103750159D01*
X150411066Y-103761066D01*
X150400159Y-103770952D01*
X150388336Y-103779720D01*
X150375710Y-103787288D01*
X150362403Y-103793582D01*
X150348543Y-103798541D01*
X150334264Y-103802118D01*
X150319703Y-103804278D01*
X150305000Y-103805000D01*
X148555000Y-103805000D01*
X148540297Y-103804278D01*
X148525736Y-103802118D01*
X148511457Y-103798541D01*
X148497597Y-103793582D01*
X148484290Y-103787288D01*
X148471664Y-103779720D01*
X148459841Y-103770952D01*
X148448934Y-103761066D01*
X148439048Y-103750159D01*
X148430280Y-103738336D01*
X148422712Y-103725710D01*
X148416418Y-103712403D01*
X148411459Y-103698543D01*
X148407882Y-103684264D01*
X148405722Y-103669703D01*
X148405000Y-103655000D01*
X148405000Y-103355000D01*
X148405722Y-103340297D01*
X148407882Y-103325736D01*
X148411459Y-103311457D01*
X148416418Y-103297597D01*
X148422712Y-103284290D01*
X148430280Y-103271664D01*
X148439048Y-103259841D01*
X148448934Y-103248934D01*
X148459841Y-103239048D01*
X148471664Y-103230280D01*
X148484290Y-103222712D01*
X148497597Y-103216418D01*
X148511457Y-103211459D01*
X148525736Y-103207882D01*
X148540297Y-103205722D01*
X148555000Y-103205000D01*
X150305000Y-103205000D01*
X150319703Y-103205722D01*
X150319703Y-103205722D01*
G37*
D12*
X149430000Y-103505000D03*
D10*
G36*
X150319703Y-101935722D02*
G01*
X150334264Y-101937882D01*
X150348543Y-101941459D01*
X150362403Y-101946418D01*
X150375710Y-101952712D01*
X150388336Y-101960280D01*
X150400159Y-101969048D01*
X150411066Y-101978934D01*
X150420952Y-101989841D01*
X150429720Y-102001664D01*
X150437288Y-102014290D01*
X150443582Y-102027597D01*
X150448541Y-102041457D01*
X150452118Y-102055736D01*
X150454278Y-102070297D01*
X150455000Y-102085000D01*
X150455000Y-102385000D01*
X150454278Y-102399703D01*
X150452118Y-102414264D01*
X150448541Y-102428543D01*
X150443582Y-102442403D01*
X150437288Y-102455710D01*
X150429720Y-102468336D01*
X150420952Y-102480159D01*
X150411066Y-102491066D01*
X150400159Y-102500952D01*
X150388336Y-102509720D01*
X150375710Y-102517288D01*
X150362403Y-102523582D01*
X150348543Y-102528541D01*
X150334264Y-102532118D01*
X150319703Y-102534278D01*
X150305000Y-102535000D01*
X148555000Y-102535000D01*
X148540297Y-102534278D01*
X148525736Y-102532118D01*
X148511457Y-102528541D01*
X148497597Y-102523582D01*
X148484290Y-102517288D01*
X148471664Y-102509720D01*
X148459841Y-102500952D01*
X148448934Y-102491066D01*
X148439048Y-102480159D01*
X148430280Y-102468336D01*
X148422712Y-102455710D01*
X148416418Y-102442403D01*
X148411459Y-102428543D01*
X148407882Y-102414264D01*
X148405722Y-102399703D01*
X148405000Y-102385000D01*
X148405000Y-102085000D01*
X148405722Y-102070297D01*
X148407882Y-102055736D01*
X148411459Y-102041457D01*
X148416418Y-102027597D01*
X148422712Y-102014290D01*
X148430280Y-102001664D01*
X148439048Y-101989841D01*
X148448934Y-101978934D01*
X148459841Y-101969048D01*
X148471664Y-101960280D01*
X148484290Y-101952712D01*
X148497597Y-101946418D01*
X148511457Y-101941459D01*
X148525736Y-101937882D01*
X148540297Y-101935722D01*
X148555000Y-101935000D01*
X150305000Y-101935000D01*
X150319703Y-101935722D01*
X150319703Y-101935722D01*
G37*
D12*
X149430000Y-102235000D03*
D10*
G36*
X150319703Y-100665722D02*
G01*
X150334264Y-100667882D01*
X150348543Y-100671459D01*
X150362403Y-100676418D01*
X150375710Y-100682712D01*
X150388336Y-100690280D01*
X150400159Y-100699048D01*
X150411066Y-100708934D01*
X150420952Y-100719841D01*
X150429720Y-100731664D01*
X150437288Y-100744290D01*
X150443582Y-100757597D01*
X150448541Y-100771457D01*
X150452118Y-100785736D01*
X150454278Y-100800297D01*
X150455000Y-100815000D01*
X150455000Y-101115000D01*
X150454278Y-101129703D01*
X150452118Y-101144264D01*
X150448541Y-101158543D01*
X150443582Y-101172403D01*
X150437288Y-101185710D01*
X150429720Y-101198336D01*
X150420952Y-101210159D01*
X150411066Y-101221066D01*
X150400159Y-101230952D01*
X150388336Y-101239720D01*
X150375710Y-101247288D01*
X150362403Y-101253582D01*
X150348543Y-101258541D01*
X150334264Y-101262118D01*
X150319703Y-101264278D01*
X150305000Y-101265000D01*
X148555000Y-101265000D01*
X148540297Y-101264278D01*
X148525736Y-101262118D01*
X148511457Y-101258541D01*
X148497597Y-101253582D01*
X148484290Y-101247288D01*
X148471664Y-101239720D01*
X148459841Y-101230952D01*
X148448934Y-101221066D01*
X148439048Y-101210159D01*
X148430280Y-101198336D01*
X148422712Y-101185710D01*
X148416418Y-101172403D01*
X148411459Y-101158543D01*
X148407882Y-101144264D01*
X148405722Y-101129703D01*
X148405000Y-101115000D01*
X148405000Y-100815000D01*
X148405722Y-100800297D01*
X148407882Y-100785736D01*
X148411459Y-100771457D01*
X148416418Y-100757597D01*
X148422712Y-100744290D01*
X148430280Y-100731664D01*
X148439048Y-100719841D01*
X148448934Y-100708934D01*
X148459841Y-100699048D01*
X148471664Y-100690280D01*
X148484290Y-100682712D01*
X148497597Y-100676418D01*
X148511457Y-100671459D01*
X148525736Y-100667882D01*
X148540297Y-100665722D01*
X148555000Y-100665000D01*
X150305000Y-100665000D01*
X150319703Y-100665722D01*
X150319703Y-100665722D01*
G37*
D12*
X149430000Y-100965000D03*
D10*
G36*
X150319703Y-99395722D02*
G01*
X150334264Y-99397882D01*
X150348543Y-99401459D01*
X150362403Y-99406418D01*
X150375710Y-99412712D01*
X150388336Y-99420280D01*
X150400159Y-99429048D01*
X150411066Y-99438934D01*
X150420952Y-99449841D01*
X150429720Y-99461664D01*
X150437288Y-99474290D01*
X150443582Y-99487597D01*
X150448541Y-99501457D01*
X150452118Y-99515736D01*
X150454278Y-99530297D01*
X150455000Y-99545000D01*
X150455000Y-99845000D01*
X150454278Y-99859703D01*
X150452118Y-99874264D01*
X150448541Y-99888543D01*
X150443582Y-99902403D01*
X150437288Y-99915710D01*
X150429720Y-99928336D01*
X150420952Y-99940159D01*
X150411066Y-99951066D01*
X150400159Y-99960952D01*
X150388336Y-99969720D01*
X150375710Y-99977288D01*
X150362403Y-99983582D01*
X150348543Y-99988541D01*
X150334264Y-99992118D01*
X150319703Y-99994278D01*
X150305000Y-99995000D01*
X148555000Y-99995000D01*
X148540297Y-99994278D01*
X148525736Y-99992118D01*
X148511457Y-99988541D01*
X148497597Y-99983582D01*
X148484290Y-99977288D01*
X148471664Y-99969720D01*
X148459841Y-99960952D01*
X148448934Y-99951066D01*
X148439048Y-99940159D01*
X148430280Y-99928336D01*
X148422712Y-99915710D01*
X148416418Y-99902403D01*
X148411459Y-99888543D01*
X148407882Y-99874264D01*
X148405722Y-99859703D01*
X148405000Y-99845000D01*
X148405000Y-99545000D01*
X148405722Y-99530297D01*
X148407882Y-99515736D01*
X148411459Y-99501457D01*
X148416418Y-99487597D01*
X148422712Y-99474290D01*
X148430280Y-99461664D01*
X148439048Y-99449841D01*
X148448934Y-99438934D01*
X148459841Y-99429048D01*
X148471664Y-99420280D01*
X148484290Y-99412712D01*
X148497597Y-99406418D01*
X148511457Y-99401459D01*
X148525736Y-99397882D01*
X148540297Y-99395722D01*
X148555000Y-99395000D01*
X150305000Y-99395000D01*
X150319703Y-99395722D01*
X150319703Y-99395722D01*
G37*
D12*
X149430000Y-99695000D03*
D10*
G36*
X150319703Y-98125722D02*
G01*
X150334264Y-98127882D01*
X150348543Y-98131459D01*
X150362403Y-98136418D01*
X150375710Y-98142712D01*
X150388336Y-98150280D01*
X150400159Y-98159048D01*
X150411066Y-98168934D01*
X150420952Y-98179841D01*
X150429720Y-98191664D01*
X150437288Y-98204290D01*
X150443582Y-98217597D01*
X150448541Y-98231457D01*
X150452118Y-98245736D01*
X150454278Y-98260297D01*
X150455000Y-98275000D01*
X150455000Y-98575000D01*
X150454278Y-98589703D01*
X150452118Y-98604264D01*
X150448541Y-98618543D01*
X150443582Y-98632403D01*
X150437288Y-98645710D01*
X150429720Y-98658336D01*
X150420952Y-98670159D01*
X150411066Y-98681066D01*
X150400159Y-98690952D01*
X150388336Y-98699720D01*
X150375710Y-98707288D01*
X150362403Y-98713582D01*
X150348543Y-98718541D01*
X150334264Y-98722118D01*
X150319703Y-98724278D01*
X150305000Y-98725000D01*
X148555000Y-98725000D01*
X148540297Y-98724278D01*
X148525736Y-98722118D01*
X148511457Y-98718541D01*
X148497597Y-98713582D01*
X148484290Y-98707288D01*
X148471664Y-98699720D01*
X148459841Y-98690952D01*
X148448934Y-98681066D01*
X148439048Y-98670159D01*
X148430280Y-98658336D01*
X148422712Y-98645710D01*
X148416418Y-98632403D01*
X148411459Y-98618543D01*
X148407882Y-98604264D01*
X148405722Y-98589703D01*
X148405000Y-98575000D01*
X148405000Y-98275000D01*
X148405722Y-98260297D01*
X148407882Y-98245736D01*
X148411459Y-98231457D01*
X148416418Y-98217597D01*
X148422712Y-98204290D01*
X148430280Y-98191664D01*
X148439048Y-98179841D01*
X148448934Y-98168934D01*
X148459841Y-98159048D01*
X148471664Y-98150280D01*
X148484290Y-98142712D01*
X148497597Y-98136418D01*
X148511457Y-98131459D01*
X148525736Y-98127882D01*
X148540297Y-98125722D01*
X148555000Y-98125000D01*
X150305000Y-98125000D01*
X150319703Y-98125722D01*
X150319703Y-98125722D01*
G37*
D12*
X149430000Y-98425000D03*
D10*
G36*
X150319703Y-96855722D02*
G01*
X150334264Y-96857882D01*
X150348543Y-96861459D01*
X150362403Y-96866418D01*
X150375710Y-96872712D01*
X150388336Y-96880280D01*
X150400159Y-96889048D01*
X150411066Y-96898934D01*
X150420952Y-96909841D01*
X150429720Y-96921664D01*
X150437288Y-96934290D01*
X150443582Y-96947597D01*
X150448541Y-96961457D01*
X150452118Y-96975736D01*
X150454278Y-96990297D01*
X150455000Y-97005000D01*
X150455000Y-97305000D01*
X150454278Y-97319703D01*
X150452118Y-97334264D01*
X150448541Y-97348543D01*
X150443582Y-97362403D01*
X150437288Y-97375710D01*
X150429720Y-97388336D01*
X150420952Y-97400159D01*
X150411066Y-97411066D01*
X150400159Y-97420952D01*
X150388336Y-97429720D01*
X150375710Y-97437288D01*
X150362403Y-97443582D01*
X150348543Y-97448541D01*
X150334264Y-97452118D01*
X150319703Y-97454278D01*
X150305000Y-97455000D01*
X148555000Y-97455000D01*
X148540297Y-97454278D01*
X148525736Y-97452118D01*
X148511457Y-97448541D01*
X148497597Y-97443582D01*
X148484290Y-97437288D01*
X148471664Y-97429720D01*
X148459841Y-97420952D01*
X148448934Y-97411066D01*
X148439048Y-97400159D01*
X148430280Y-97388336D01*
X148422712Y-97375710D01*
X148416418Y-97362403D01*
X148411459Y-97348543D01*
X148407882Y-97334264D01*
X148405722Y-97319703D01*
X148405000Y-97305000D01*
X148405000Y-97005000D01*
X148405722Y-96990297D01*
X148407882Y-96975736D01*
X148411459Y-96961457D01*
X148416418Y-96947597D01*
X148422712Y-96934290D01*
X148430280Y-96921664D01*
X148439048Y-96909841D01*
X148448934Y-96898934D01*
X148459841Y-96889048D01*
X148471664Y-96880280D01*
X148484290Y-96872712D01*
X148497597Y-96866418D01*
X148511457Y-96861459D01*
X148525736Y-96857882D01*
X148540297Y-96855722D01*
X148555000Y-96855000D01*
X150305000Y-96855000D01*
X150319703Y-96855722D01*
X150319703Y-96855722D01*
G37*
D12*
X149430000Y-97155000D03*
D10*
G36*
X141019703Y-96855722D02*
G01*
X141034264Y-96857882D01*
X141048543Y-96861459D01*
X141062403Y-96866418D01*
X141075710Y-96872712D01*
X141088336Y-96880280D01*
X141100159Y-96889048D01*
X141111066Y-96898934D01*
X141120952Y-96909841D01*
X141129720Y-96921664D01*
X141137288Y-96934290D01*
X141143582Y-96947597D01*
X141148541Y-96961457D01*
X141152118Y-96975736D01*
X141154278Y-96990297D01*
X141155000Y-97005000D01*
X141155000Y-97305000D01*
X141154278Y-97319703D01*
X141152118Y-97334264D01*
X141148541Y-97348543D01*
X141143582Y-97362403D01*
X141137288Y-97375710D01*
X141129720Y-97388336D01*
X141120952Y-97400159D01*
X141111066Y-97411066D01*
X141100159Y-97420952D01*
X141088336Y-97429720D01*
X141075710Y-97437288D01*
X141062403Y-97443582D01*
X141048543Y-97448541D01*
X141034264Y-97452118D01*
X141019703Y-97454278D01*
X141005000Y-97455000D01*
X139255000Y-97455000D01*
X139240297Y-97454278D01*
X139225736Y-97452118D01*
X139211457Y-97448541D01*
X139197597Y-97443582D01*
X139184290Y-97437288D01*
X139171664Y-97429720D01*
X139159841Y-97420952D01*
X139148934Y-97411066D01*
X139139048Y-97400159D01*
X139130280Y-97388336D01*
X139122712Y-97375710D01*
X139116418Y-97362403D01*
X139111459Y-97348543D01*
X139107882Y-97334264D01*
X139105722Y-97319703D01*
X139105000Y-97305000D01*
X139105000Y-97005000D01*
X139105722Y-96990297D01*
X139107882Y-96975736D01*
X139111459Y-96961457D01*
X139116418Y-96947597D01*
X139122712Y-96934290D01*
X139130280Y-96921664D01*
X139139048Y-96909841D01*
X139148934Y-96898934D01*
X139159841Y-96889048D01*
X139171664Y-96880280D01*
X139184290Y-96872712D01*
X139197597Y-96866418D01*
X139211457Y-96861459D01*
X139225736Y-96857882D01*
X139240297Y-96855722D01*
X139255000Y-96855000D01*
X141005000Y-96855000D01*
X141019703Y-96855722D01*
X141019703Y-96855722D01*
G37*
D12*
X140130000Y-97155000D03*
D10*
G36*
X141019703Y-98125722D02*
G01*
X141034264Y-98127882D01*
X141048543Y-98131459D01*
X141062403Y-98136418D01*
X141075710Y-98142712D01*
X141088336Y-98150280D01*
X141100159Y-98159048D01*
X141111066Y-98168934D01*
X141120952Y-98179841D01*
X141129720Y-98191664D01*
X141137288Y-98204290D01*
X141143582Y-98217597D01*
X141148541Y-98231457D01*
X141152118Y-98245736D01*
X141154278Y-98260297D01*
X141155000Y-98275000D01*
X141155000Y-98575000D01*
X141154278Y-98589703D01*
X141152118Y-98604264D01*
X141148541Y-98618543D01*
X141143582Y-98632403D01*
X141137288Y-98645710D01*
X141129720Y-98658336D01*
X141120952Y-98670159D01*
X141111066Y-98681066D01*
X141100159Y-98690952D01*
X141088336Y-98699720D01*
X141075710Y-98707288D01*
X141062403Y-98713582D01*
X141048543Y-98718541D01*
X141034264Y-98722118D01*
X141019703Y-98724278D01*
X141005000Y-98725000D01*
X139255000Y-98725000D01*
X139240297Y-98724278D01*
X139225736Y-98722118D01*
X139211457Y-98718541D01*
X139197597Y-98713582D01*
X139184290Y-98707288D01*
X139171664Y-98699720D01*
X139159841Y-98690952D01*
X139148934Y-98681066D01*
X139139048Y-98670159D01*
X139130280Y-98658336D01*
X139122712Y-98645710D01*
X139116418Y-98632403D01*
X139111459Y-98618543D01*
X139107882Y-98604264D01*
X139105722Y-98589703D01*
X139105000Y-98575000D01*
X139105000Y-98275000D01*
X139105722Y-98260297D01*
X139107882Y-98245736D01*
X139111459Y-98231457D01*
X139116418Y-98217597D01*
X139122712Y-98204290D01*
X139130280Y-98191664D01*
X139139048Y-98179841D01*
X139148934Y-98168934D01*
X139159841Y-98159048D01*
X139171664Y-98150280D01*
X139184290Y-98142712D01*
X139197597Y-98136418D01*
X139211457Y-98131459D01*
X139225736Y-98127882D01*
X139240297Y-98125722D01*
X139255000Y-98125000D01*
X141005000Y-98125000D01*
X141019703Y-98125722D01*
X141019703Y-98125722D01*
G37*
D12*
X140130000Y-98425000D03*
D10*
G36*
X141019703Y-99395722D02*
G01*
X141034264Y-99397882D01*
X141048543Y-99401459D01*
X141062403Y-99406418D01*
X141075710Y-99412712D01*
X141088336Y-99420280D01*
X141100159Y-99429048D01*
X141111066Y-99438934D01*
X141120952Y-99449841D01*
X141129720Y-99461664D01*
X141137288Y-99474290D01*
X141143582Y-99487597D01*
X141148541Y-99501457D01*
X141152118Y-99515736D01*
X141154278Y-99530297D01*
X141155000Y-99545000D01*
X141155000Y-99845000D01*
X141154278Y-99859703D01*
X141152118Y-99874264D01*
X141148541Y-99888543D01*
X141143582Y-99902403D01*
X141137288Y-99915710D01*
X141129720Y-99928336D01*
X141120952Y-99940159D01*
X141111066Y-99951066D01*
X141100159Y-99960952D01*
X141088336Y-99969720D01*
X141075710Y-99977288D01*
X141062403Y-99983582D01*
X141048543Y-99988541D01*
X141034264Y-99992118D01*
X141019703Y-99994278D01*
X141005000Y-99995000D01*
X139255000Y-99995000D01*
X139240297Y-99994278D01*
X139225736Y-99992118D01*
X139211457Y-99988541D01*
X139197597Y-99983582D01*
X139184290Y-99977288D01*
X139171664Y-99969720D01*
X139159841Y-99960952D01*
X139148934Y-99951066D01*
X139139048Y-99940159D01*
X139130280Y-99928336D01*
X139122712Y-99915710D01*
X139116418Y-99902403D01*
X139111459Y-99888543D01*
X139107882Y-99874264D01*
X139105722Y-99859703D01*
X139105000Y-99845000D01*
X139105000Y-99545000D01*
X139105722Y-99530297D01*
X139107882Y-99515736D01*
X139111459Y-99501457D01*
X139116418Y-99487597D01*
X139122712Y-99474290D01*
X139130280Y-99461664D01*
X139139048Y-99449841D01*
X139148934Y-99438934D01*
X139159841Y-99429048D01*
X139171664Y-99420280D01*
X139184290Y-99412712D01*
X139197597Y-99406418D01*
X139211457Y-99401459D01*
X139225736Y-99397882D01*
X139240297Y-99395722D01*
X139255000Y-99395000D01*
X141005000Y-99395000D01*
X141019703Y-99395722D01*
X141019703Y-99395722D01*
G37*
D12*
X140130000Y-99695000D03*
D10*
G36*
X141019703Y-100665722D02*
G01*
X141034264Y-100667882D01*
X141048543Y-100671459D01*
X141062403Y-100676418D01*
X141075710Y-100682712D01*
X141088336Y-100690280D01*
X141100159Y-100699048D01*
X141111066Y-100708934D01*
X141120952Y-100719841D01*
X141129720Y-100731664D01*
X141137288Y-100744290D01*
X141143582Y-100757597D01*
X141148541Y-100771457D01*
X141152118Y-100785736D01*
X141154278Y-100800297D01*
X141155000Y-100815000D01*
X141155000Y-101115000D01*
X141154278Y-101129703D01*
X141152118Y-101144264D01*
X141148541Y-101158543D01*
X141143582Y-101172403D01*
X141137288Y-101185710D01*
X141129720Y-101198336D01*
X141120952Y-101210159D01*
X141111066Y-101221066D01*
X141100159Y-101230952D01*
X141088336Y-101239720D01*
X141075710Y-101247288D01*
X141062403Y-101253582D01*
X141048543Y-101258541D01*
X141034264Y-101262118D01*
X141019703Y-101264278D01*
X141005000Y-101265000D01*
X139255000Y-101265000D01*
X139240297Y-101264278D01*
X139225736Y-101262118D01*
X139211457Y-101258541D01*
X139197597Y-101253582D01*
X139184290Y-101247288D01*
X139171664Y-101239720D01*
X139159841Y-101230952D01*
X139148934Y-101221066D01*
X139139048Y-101210159D01*
X139130280Y-101198336D01*
X139122712Y-101185710D01*
X139116418Y-101172403D01*
X139111459Y-101158543D01*
X139107882Y-101144264D01*
X139105722Y-101129703D01*
X139105000Y-101115000D01*
X139105000Y-100815000D01*
X139105722Y-100800297D01*
X139107882Y-100785736D01*
X139111459Y-100771457D01*
X139116418Y-100757597D01*
X139122712Y-100744290D01*
X139130280Y-100731664D01*
X139139048Y-100719841D01*
X139148934Y-100708934D01*
X139159841Y-100699048D01*
X139171664Y-100690280D01*
X139184290Y-100682712D01*
X139197597Y-100676418D01*
X139211457Y-100671459D01*
X139225736Y-100667882D01*
X139240297Y-100665722D01*
X139255000Y-100665000D01*
X141005000Y-100665000D01*
X141019703Y-100665722D01*
X141019703Y-100665722D01*
G37*
D12*
X140130000Y-100965000D03*
D10*
G36*
X141019703Y-101935722D02*
G01*
X141034264Y-101937882D01*
X141048543Y-101941459D01*
X141062403Y-101946418D01*
X141075710Y-101952712D01*
X141088336Y-101960280D01*
X141100159Y-101969048D01*
X141111066Y-101978934D01*
X141120952Y-101989841D01*
X141129720Y-102001664D01*
X141137288Y-102014290D01*
X141143582Y-102027597D01*
X141148541Y-102041457D01*
X141152118Y-102055736D01*
X141154278Y-102070297D01*
X141155000Y-102085000D01*
X141155000Y-102385000D01*
X141154278Y-102399703D01*
X141152118Y-102414264D01*
X141148541Y-102428543D01*
X141143582Y-102442403D01*
X141137288Y-102455710D01*
X141129720Y-102468336D01*
X141120952Y-102480159D01*
X141111066Y-102491066D01*
X141100159Y-102500952D01*
X141088336Y-102509720D01*
X141075710Y-102517288D01*
X141062403Y-102523582D01*
X141048543Y-102528541D01*
X141034264Y-102532118D01*
X141019703Y-102534278D01*
X141005000Y-102535000D01*
X139255000Y-102535000D01*
X139240297Y-102534278D01*
X139225736Y-102532118D01*
X139211457Y-102528541D01*
X139197597Y-102523582D01*
X139184290Y-102517288D01*
X139171664Y-102509720D01*
X139159841Y-102500952D01*
X139148934Y-102491066D01*
X139139048Y-102480159D01*
X139130280Y-102468336D01*
X139122712Y-102455710D01*
X139116418Y-102442403D01*
X139111459Y-102428543D01*
X139107882Y-102414264D01*
X139105722Y-102399703D01*
X139105000Y-102385000D01*
X139105000Y-102085000D01*
X139105722Y-102070297D01*
X139107882Y-102055736D01*
X139111459Y-102041457D01*
X139116418Y-102027597D01*
X139122712Y-102014290D01*
X139130280Y-102001664D01*
X139139048Y-101989841D01*
X139148934Y-101978934D01*
X139159841Y-101969048D01*
X139171664Y-101960280D01*
X139184290Y-101952712D01*
X139197597Y-101946418D01*
X139211457Y-101941459D01*
X139225736Y-101937882D01*
X139240297Y-101935722D01*
X139255000Y-101935000D01*
X141005000Y-101935000D01*
X141019703Y-101935722D01*
X141019703Y-101935722D01*
G37*
D12*
X140130000Y-102235000D03*
D10*
G36*
X141019703Y-103205722D02*
G01*
X141034264Y-103207882D01*
X141048543Y-103211459D01*
X141062403Y-103216418D01*
X141075710Y-103222712D01*
X141088336Y-103230280D01*
X141100159Y-103239048D01*
X141111066Y-103248934D01*
X141120952Y-103259841D01*
X141129720Y-103271664D01*
X141137288Y-103284290D01*
X141143582Y-103297597D01*
X141148541Y-103311457D01*
X141152118Y-103325736D01*
X141154278Y-103340297D01*
X141155000Y-103355000D01*
X141155000Y-103655000D01*
X141154278Y-103669703D01*
X141152118Y-103684264D01*
X141148541Y-103698543D01*
X141143582Y-103712403D01*
X141137288Y-103725710D01*
X141129720Y-103738336D01*
X141120952Y-103750159D01*
X141111066Y-103761066D01*
X141100159Y-103770952D01*
X141088336Y-103779720D01*
X141075710Y-103787288D01*
X141062403Y-103793582D01*
X141048543Y-103798541D01*
X141034264Y-103802118D01*
X141019703Y-103804278D01*
X141005000Y-103805000D01*
X139255000Y-103805000D01*
X139240297Y-103804278D01*
X139225736Y-103802118D01*
X139211457Y-103798541D01*
X139197597Y-103793582D01*
X139184290Y-103787288D01*
X139171664Y-103779720D01*
X139159841Y-103770952D01*
X139148934Y-103761066D01*
X139139048Y-103750159D01*
X139130280Y-103738336D01*
X139122712Y-103725710D01*
X139116418Y-103712403D01*
X139111459Y-103698543D01*
X139107882Y-103684264D01*
X139105722Y-103669703D01*
X139105000Y-103655000D01*
X139105000Y-103355000D01*
X139105722Y-103340297D01*
X139107882Y-103325736D01*
X139111459Y-103311457D01*
X139116418Y-103297597D01*
X139122712Y-103284290D01*
X139130280Y-103271664D01*
X139139048Y-103259841D01*
X139148934Y-103248934D01*
X139159841Y-103239048D01*
X139171664Y-103230280D01*
X139184290Y-103222712D01*
X139197597Y-103216418D01*
X139211457Y-103211459D01*
X139225736Y-103207882D01*
X139240297Y-103205722D01*
X139255000Y-103205000D01*
X141005000Y-103205000D01*
X141019703Y-103205722D01*
X141019703Y-103205722D01*
G37*
D12*
X140130000Y-103505000D03*
D10*
G36*
X141019703Y-104475722D02*
G01*
X141034264Y-104477882D01*
X141048543Y-104481459D01*
X141062403Y-104486418D01*
X141075710Y-104492712D01*
X141088336Y-104500280D01*
X141100159Y-104509048D01*
X141111066Y-104518934D01*
X141120952Y-104529841D01*
X141129720Y-104541664D01*
X141137288Y-104554290D01*
X141143582Y-104567597D01*
X141148541Y-104581457D01*
X141152118Y-104595736D01*
X141154278Y-104610297D01*
X141155000Y-104625000D01*
X141155000Y-104925000D01*
X141154278Y-104939703D01*
X141152118Y-104954264D01*
X141148541Y-104968543D01*
X141143582Y-104982403D01*
X141137288Y-104995710D01*
X141129720Y-105008336D01*
X141120952Y-105020159D01*
X141111066Y-105031066D01*
X141100159Y-105040952D01*
X141088336Y-105049720D01*
X141075710Y-105057288D01*
X141062403Y-105063582D01*
X141048543Y-105068541D01*
X141034264Y-105072118D01*
X141019703Y-105074278D01*
X141005000Y-105075000D01*
X139255000Y-105075000D01*
X139240297Y-105074278D01*
X139225736Y-105072118D01*
X139211457Y-105068541D01*
X139197597Y-105063582D01*
X139184290Y-105057288D01*
X139171664Y-105049720D01*
X139159841Y-105040952D01*
X139148934Y-105031066D01*
X139139048Y-105020159D01*
X139130280Y-105008336D01*
X139122712Y-104995710D01*
X139116418Y-104982403D01*
X139111459Y-104968543D01*
X139107882Y-104954264D01*
X139105722Y-104939703D01*
X139105000Y-104925000D01*
X139105000Y-104625000D01*
X139105722Y-104610297D01*
X139107882Y-104595736D01*
X139111459Y-104581457D01*
X139116418Y-104567597D01*
X139122712Y-104554290D01*
X139130280Y-104541664D01*
X139139048Y-104529841D01*
X139148934Y-104518934D01*
X139159841Y-104509048D01*
X139171664Y-104500280D01*
X139184290Y-104492712D01*
X139197597Y-104486418D01*
X139211457Y-104481459D01*
X139225736Y-104477882D01*
X139240297Y-104475722D01*
X139255000Y-104475000D01*
X141005000Y-104475000D01*
X141019703Y-104475722D01*
X141019703Y-104475722D01*
G37*
D12*
X140130000Y-104775000D03*
D10*
G36*
X141019703Y-105745722D02*
G01*
X141034264Y-105747882D01*
X141048543Y-105751459D01*
X141062403Y-105756418D01*
X141075710Y-105762712D01*
X141088336Y-105770280D01*
X141100159Y-105779048D01*
X141111066Y-105788934D01*
X141120952Y-105799841D01*
X141129720Y-105811664D01*
X141137288Y-105824290D01*
X141143582Y-105837597D01*
X141148541Y-105851457D01*
X141152118Y-105865736D01*
X141154278Y-105880297D01*
X141155000Y-105895000D01*
X141155000Y-106195000D01*
X141154278Y-106209703D01*
X141152118Y-106224264D01*
X141148541Y-106238543D01*
X141143582Y-106252403D01*
X141137288Y-106265710D01*
X141129720Y-106278336D01*
X141120952Y-106290159D01*
X141111066Y-106301066D01*
X141100159Y-106310952D01*
X141088336Y-106319720D01*
X141075710Y-106327288D01*
X141062403Y-106333582D01*
X141048543Y-106338541D01*
X141034264Y-106342118D01*
X141019703Y-106344278D01*
X141005000Y-106345000D01*
X139255000Y-106345000D01*
X139240297Y-106344278D01*
X139225736Y-106342118D01*
X139211457Y-106338541D01*
X139197597Y-106333582D01*
X139184290Y-106327288D01*
X139171664Y-106319720D01*
X139159841Y-106310952D01*
X139148934Y-106301066D01*
X139139048Y-106290159D01*
X139130280Y-106278336D01*
X139122712Y-106265710D01*
X139116418Y-106252403D01*
X139111459Y-106238543D01*
X139107882Y-106224264D01*
X139105722Y-106209703D01*
X139105000Y-106195000D01*
X139105000Y-105895000D01*
X139105722Y-105880297D01*
X139107882Y-105865736D01*
X139111459Y-105851457D01*
X139116418Y-105837597D01*
X139122712Y-105824290D01*
X139130280Y-105811664D01*
X139139048Y-105799841D01*
X139148934Y-105788934D01*
X139159841Y-105779048D01*
X139171664Y-105770280D01*
X139184290Y-105762712D01*
X139197597Y-105756418D01*
X139211457Y-105751459D01*
X139225736Y-105747882D01*
X139240297Y-105745722D01*
X139255000Y-105745000D01*
X141005000Y-105745000D01*
X141019703Y-105745722D01*
X141019703Y-105745722D01*
G37*
D12*
X140130000Y-106045000D03*
D10*
G36*
X141019703Y-107015722D02*
G01*
X141034264Y-107017882D01*
X141048543Y-107021459D01*
X141062403Y-107026418D01*
X141075710Y-107032712D01*
X141088336Y-107040280D01*
X141100159Y-107049048D01*
X141111066Y-107058934D01*
X141120952Y-107069841D01*
X141129720Y-107081664D01*
X141137288Y-107094290D01*
X141143582Y-107107597D01*
X141148541Y-107121457D01*
X141152118Y-107135736D01*
X141154278Y-107150297D01*
X141155000Y-107165000D01*
X141155000Y-107465000D01*
X141154278Y-107479703D01*
X141152118Y-107494264D01*
X141148541Y-107508543D01*
X141143582Y-107522403D01*
X141137288Y-107535710D01*
X141129720Y-107548336D01*
X141120952Y-107560159D01*
X141111066Y-107571066D01*
X141100159Y-107580952D01*
X141088336Y-107589720D01*
X141075710Y-107597288D01*
X141062403Y-107603582D01*
X141048543Y-107608541D01*
X141034264Y-107612118D01*
X141019703Y-107614278D01*
X141005000Y-107615000D01*
X139255000Y-107615000D01*
X139240297Y-107614278D01*
X139225736Y-107612118D01*
X139211457Y-107608541D01*
X139197597Y-107603582D01*
X139184290Y-107597288D01*
X139171664Y-107589720D01*
X139159841Y-107580952D01*
X139148934Y-107571066D01*
X139139048Y-107560159D01*
X139130280Y-107548336D01*
X139122712Y-107535710D01*
X139116418Y-107522403D01*
X139111459Y-107508543D01*
X139107882Y-107494264D01*
X139105722Y-107479703D01*
X139105000Y-107465000D01*
X139105000Y-107165000D01*
X139105722Y-107150297D01*
X139107882Y-107135736D01*
X139111459Y-107121457D01*
X139116418Y-107107597D01*
X139122712Y-107094290D01*
X139130280Y-107081664D01*
X139139048Y-107069841D01*
X139148934Y-107058934D01*
X139159841Y-107049048D01*
X139171664Y-107040280D01*
X139184290Y-107032712D01*
X139197597Y-107026418D01*
X139211457Y-107021459D01*
X139225736Y-107017882D01*
X139240297Y-107015722D01*
X139255000Y-107015000D01*
X141005000Y-107015000D01*
X141019703Y-107015722D01*
X141019703Y-107015722D01*
G37*
D12*
X140130000Y-107315000D03*
D10*
G36*
X141019703Y-108285722D02*
G01*
X141034264Y-108287882D01*
X141048543Y-108291459D01*
X141062403Y-108296418D01*
X141075710Y-108302712D01*
X141088336Y-108310280D01*
X141100159Y-108319048D01*
X141111066Y-108328934D01*
X141120952Y-108339841D01*
X141129720Y-108351664D01*
X141137288Y-108364290D01*
X141143582Y-108377597D01*
X141148541Y-108391457D01*
X141152118Y-108405736D01*
X141154278Y-108420297D01*
X141155000Y-108435000D01*
X141155000Y-108735000D01*
X141154278Y-108749703D01*
X141152118Y-108764264D01*
X141148541Y-108778543D01*
X141143582Y-108792403D01*
X141137288Y-108805710D01*
X141129720Y-108818336D01*
X141120952Y-108830159D01*
X141111066Y-108841066D01*
X141100159Y-108850952D01*
X141088336Y-108859720D01*
X141075710Y-108867288D01*
X141062403Y-108873582D01*
X141048543Y-108878541D01*
X141034264Y-108882118D01*
X141019703Y-108884278D01*
X141005000Y-108885000D01*
X139255000Y-108885000D01*
X139240297Y-108884278D01*
X139225736Y-108882118D01*
X139211457Y-108878541D01*
X139197597Y-108873582D01*
X139184290Y-108867288D01*
X139171664Y-108859720D01*
X139159841Y-108850952D01*
X139148934Y-108841066D01*
X139139048Y-108830159D01*
X139130280Y-108818336D01*
X139122712Y-108805710D01*
X139116418Y-108792403D01*
X139111459Y-108778543D01*
X139107882Y-108764264D01*
X139105722Y-108749703D01*
X139105000Y-108735000D01*
X139105000Y-108435000D01*
X139105722Y-108420297D01*
X139107882Y-108405736D01*
X139111459Y-108391457D01*
X139116418Y-108377597D01*
X139122712Y-108364290D01*
X139130280Y-108351664D01*
X139139048Y-108339841D01*
X139148934Y-108328934D01*
X139159841Y-108319048D01*
X139171664Y-108310280D01*
X139184290Y-108302712D01*
X139197597Y-108296418D01*
X139211457Y-108291459D01*
X139225736Y-108287882D01*
X139240297Y-108285722D01*
X139255000Y-108285000D01*
X141005000Y-108285000D01*
X141019703Y-108285722D01*
X141019703Y-108285722D01*
G37*
D12*
X140130000Y-108585000D03*
D10*
G36*
X179874505Y-98801204D02*
G01*
X179898773Y-98804804D01*
X179922572Y-98810765D01*
X179945671Y-98819030D01*
X179967850Y-98829520D01*
X179988893Y-98842132D01*
X180008599Y-98856747D01*
X180026777Y-98873223D01*
X180043253Y-98891401D01*
X180057868Y-98911107D01*
X180070480Y-98932150D01*
X180080970Y-98954329D01*
X180089235Y-98977428D01*
X180095196Y-99001227D01*
X180098796Y-99025495D01*
X180100000Y-99049999D01*
X180100000Y-99950001D01*
X180098796Y-99974505D01*
X180095196Y-99998773D01*
X180089235Y-100022572D01*
X180080970Y-100045671D01*
X180070480Y-100067850D01*
X180057868Y-100088893D01*
X180043253Y-100108599D01*
X180026777Y-100126777D01*
X180008599Y-100143253D01*
X179988893Y-100157868D01*
X179967850Y-100170480D01*
X179945671Y-100180970D01*
X179922572Y-100189235D01*
X179898773Y-100195196D01*
X179874505Y-100198796D01*
X179850001Y-100200000D01*
X179199999Y-100200000D01*
X179175495Y-100198796D01*
X179151227Y-100195196D01*
X179127428Y-100189235D01*
X179104329Y-100180970D01*
X179082150Y-100170480D01*
X179061107Y-100157868D01*
X179041401Y-100143253D01*
X179023223Y-100126777D01*
X179006747Y-100108599D01*
X178992132Y-100088893D01*
X178979520Y-100067850D01*
X178969030Y-100045671D01*
X178960765Y-100022572D01*
X178954804Y-99998773D01*
X178951204Y-99974505D01*
X178950000Y-99950001D01*
X178950000Y-99049999D01*
X178951204Y-99025495D01*
X178954804Y-99001227D01*
X178960765Y-98977428D01*
X178969030Y-98954329D01*
X178979520Y-98932150D01*
X178992132Y-98911107D01*
X179006747Y-98891401D01*
X179023223Y-98873223D01*
X179041401Y-98856747D01*
X179061107Y-98842132D01*
X179082150Y-98829520D01*
X179104329Y-98819030D01*
X179127428Y-98810765D01*
X179151227Y-98804804D01*
X179175495Y-98801204D01*
X179199999Y-98800000D01*
X179850001Y-98800000D01*
X179874505Y-98801204D01*
X179874505Y-98801204D01*
G37*
D13*
X179525000Y-99500000D03*
D10*
G36*
X177824505Y-98801204D02*
G01*
X177848773Y-98804804D01*
X177872572Y-98810765D01*
X177895671Y-98819030D01*
X177917850Y-98829520D01*
X177938893Y-98842132D01*
X177958599Y-98856747D01*
X177976777Y-98873223D01*
X177993253Y-98891401D01*
X178007868Y-98911107D01*
X178020480Y-98932150D01*
X178030970Y-98954329D01*
X178039235Y-98977428D01*
X178045196Y-99001227D01*
X178048796Y-99025495D01*
X178050000Y-99049999D01*
X178050000Y-99950001D01*
X178048796Y-99974505D01*
X178045196Y-99998773D01*
X178039235Y-100022572D01*
X178030970Y-100045671D01*
X178020480Y-100067850D01*
X178007868Y-100088893D01*
X177993253Y-100108599D01*
X177976777Y-100126777D01*
X177958599Y-100143253D01*
X177938893Y-100157868D01*
X177917850Y-100170480D01*
X177895671Y-100180970D01*
X177872572Y-100189235D01*
X177848773Y-100195196D01*
X177824505Y-100198796D01*
X177800001Y-100200000D01*
X177149999Y-100200000D01*
X177125495Y-100198796D01*
X177101227Y-100195196D01*
X177077428Y-100189235D01*
X177054329Y-100180970D01*
X177032150Y-100170480D01*
X177011107Y-100157868D01*
X176991401Y-100143253D01*
X176973223Y-100126777D01*
X176956747Y-100108599D01*
X176942132Y-100088893D01*
X176929520Y-100067850D01*
X176919030Y-100045671D01*
X176910765Y-100022572D01*
X176904804Y-99998773D01*
X176901204Y-99974505D01*
X176900000Y-99950001D01*
X176900000Y-99049999D01*
X176901204Y-99025495D01*
X176904804Y-99001227D01*
X176910765Y-98977428D01*
X176919030Y-98954329D01*
X176929520Y-98932150D01*
X176942132Y-98911107D01*
X176956747Y-98891401D01*
X176973223Y-98873223D01*
X176991401Y-98856747D01*
X177011107Y-98842132D01*
X177032150Y-98829520D01*
X177054329Y-98819030D01*
X177077428Y-98810765D01*
X177101227Y-98804804D01*
X177125495Y-98801204D01*
X177149999Y-98800000D01*
X177800001Y-98800000D01*
X177824505Y-98801204D01*
X177824505Y-98801204D01*
G37*
D13*
X177475000Y-99500000D03*
D10*
G36*
X179874505Y-96301204D02*
G01*
X179898773Y-96304804D01*
X179922572Y-96310765D01*
X179945671Y-96319030D01*
X179967850Y-96329520D01*
X179988893Y-96342132D01*
X180008599Y-96356747D01*
X180026777Y-96373223D01*
X180043253Y-96391401D01*
X180057868Y-96411107D01*
X180070480Y-96432150D01*
X180080970Y-96454329D01*
X180089235Y-96477428D01*
X180095196Y-96501227D01*
X180098796Y-96525495D01*
X180100000Y-96549999D01*
X180100000Y-97450001D01*
X180098796Y-97474505D01*
X180095196Y-97498773D01*
X180089235Y-97522572D01*
X180080970Y-97545671D01*
X180070480Y-97567850D01*
X180057868Y-97588893D01*
X180043253Y-97608599D01*
X180026777Y-97626777D01*
X180008599Y-97643253D01*
X179988893Y-97657868D01*
X179967850Y-97670480D01*
X179945671Y-97680970D01*
X179922572Y-97689235D01*
X179898773Y-97695196D01*
X179874505Y-97698796D01*
X179850001Y-97700000D01*
X179199999Y-97700000D01*
X179175495Y-97698796D01*
X179151227Y-97695196D01*
X179127428Y-97689235D01*
X179104329Y-97680970D01*
X179082150Y-97670480D01*
X179061107Y-97657868D01*
X179041401Y-97643253D01*
X179023223Y-97626777D01*
X179006747Y-97608599D01*
X178992132Y-97588893D01*
X178979520Y-97567850D01*
X178969030Y-97545671D01*
X178960765Y-97522572D01*
X178954804Y-97498773D01*
X178951204Y-97474505D01*
X178950000Y-97450001D01*
X178950000Y-96549999D01*
X178951204Y-96525495D01*
X178954804Y-96501227D01*
X178960765Y-96477428D01*
X178969030Y-96454329D01*
X178979520Y-96432150D01*
X178992132Y-96411107D01*
X179006747Y-96391401D01*
X179023223Y-96373223D01*
X179041401Y-96356747D01*
X179061107Y-96342132D01*
X179082150Y-96329520D01*
X179104329Y-96319030D01*
X179127428Y-96310765D01*
X179151227Y-96304804D01*
X179175495Y-96301204D01*
X179199999Y-96300000D01*
X179850001Y-96300000D01*
X179874505Y-96301204D01*
X179874505Y-96301204D01*
G37*
D13*
X179525000Y-97000000D03*
D10*
G36*
X177824505Y-96301204D02*
G01*
X177848773Y-96304804D01*
X177872572Y-96310765D01*
X177895671Y-96319030D01*
X177917850Y-96329520D01*
X177938893Y-96342132D01*
X177958599Y-96356747D01*
X177976777Y-96373223D01*
X177993253Y-96391401D01*
X178007868Y-96411107D01*
X178020480Y-96432150D01*
X178030970Y-96454329D01*
X178039235Y-96477428D01*
X178045196Y-96501227D01*
X178048796Y-96525495D01*
X178050000Y-96549999D01*
X178050000Y-97450001D01*
X178048796Y-97474505D01*
X178045196Y-97498773D01*
X178039235Y-97522572D01*
X178030970Y-97545671D01*
X178020480Y-97567850D01*
X178007868Y-97588893D01*
X177993253Y-97608599D01*
X177976777Y-97626777D01*
X177958599Y-97643253D01*
X177938893Y-97657868D01*
X177917850Y-97670480D01*
X177895671Y-97680970D01*
X177872572Y-97689235D01*
X177848773Y-97695196D01*
X177824505Y-97698796D01*
X177800001Y-97700000D01*
X177149999Y-97700000D01*
X177125495Y-97698796D01*
X177101227Y-97695196D01*
X177077428Y-97689235D01*
X177054329Y-97680970D01*
X177032150Y-97670480D01*
X177011107Y-97657868D01*
X176991401Y-97643253D01*
X176973223Y-97626777D01*
X176956747Y-97608599D01*
X176942132Y-97588893D01*
X176929520Y-97567850D01*
X176919030Y-97545671D01*
X176910765Y-97522572D01*
X176904804Y-97498773D01*
X176901204Y-97474505D01*
X176900000Y-97450001D01*
X176900000Y-96549999D01*
X176901204Y-96525495D01*
X176904804Y-96501227D01*
X176910765Y-96477428D01*
X176919030Y-96454329D01*
X176929520Y-96432150D01*
X176942132Y-96411107D01*
X176956747Y-96391401D01*
X176973223Y-96373223D01*
X176991401Y-96356747D01*
X177011107Y-96342132D01*
X177032150Y-96329520D01*
X177054329Y-96319030D01*
X177077428Y-96310765D01*
X177101227Y-96304804D01*
X177125495Y-96301204D01*
X177149999Y-96300000D01*
X177800001Y-96300000D01*
X177824505Y-96301204D01*
X177824505Y-96301204D01*
G37*
D13*
X177475000Y-97000000D03*
D10*
G36*
X134374505Y-122801204D02*
G01*
X134398773Y-122804804D01*
X134422572Y-122810765D01*
X134445671Y-122819030D01*
X134467850Y-122829520D01*
X134488893Y-122842132D01*
X134508599Y-122856747D01*
X134526777Y-122873223D01*
X134543253Y-122891401D01*
X134557868Y-122911107D01*
X134570480Y-122932150D01*
X134580970Y-122954329D01*
X134589235Y-122977428D01*
X134595196Y-123001227D01*
X134598796Y-123025495D01*
X134600000Y-123049999D01*
X134600000Y-123950001D01*
X134598796Y-123974505D01*
X134595196Y-123998773D01*
X134589235Y-124022572D01*
X134580970Y-124045671D01*
X134570480Y-124067850D01*
X134557868Y-124088893D01*
X134543253Y-124108599D01*
X134526777Y-124126777D01*
X134508599Y-124143253D01*
X134488893Y-124157868D01*
X134467850Y-124170480D01*
X134445671Y-124180970D01*
X134422572Y-124189235D01*
X134398773Y-124195196D01*
X134374505Y-124198796D01*
X134350001Y-124200000D01*
X133699999Y-124200000D01*
X133675495Y-124198796D01*
X133651227Y-124195196D01*
X133627428Y-124189235D01*
X133604329Y-124180970D01*
X133582150Y-124170480D01*
X133561107Y-124157868D01*
X133541401Y-124143253D01*
X133523223Y-124126777D01*
X133506747Y-124108599D01*
X133492132Y-124088893D01*
X133479520Y-124067850D01*
X133469030Y-124045671D01*
X133460765Y-124022572D01*
X133454804Y-123998773D01*
X133451204Y-123974505D01*
X133450000Y-123950001D01*
X133450000Y-123049999D01*
X133451204Y-123025495D01*
X133454804Y-123001227D01*
X133460765Y-122977428D01*
X133469030Y-122954329D01*
X133479520Y-122932150D01*
X133492132Y-122911107D01*
X133506747Y-122891401D01*
X133523223Y-122873223D01*
X133541401Y-122856747D01*
X133561107Y-122842132D01*
X133582150Y-122829520D01*
X133604329Y-122819030D01*
X133627428Y-122810765D01*
X133651227Y-122804804D01*
X133675495Y-122801204D01*
X133699999Y-122800000D01*
X134350001Y-122800000D01*
X134374505Y-122801204D01*
X134374505Y-122801204D01*
G37*
D13*
X134025000Y-123500000D03*
D10*
G36*
X132324505Y-122801204D02*
G01*
X132348773Y-122804804D01*
X132372572Y-122810765D01*
X132395671Y-122819030D01*
X132417850Y-122829520D01*
X132438893Y-122842132D01*
X132458599Y-122856747D01*
X132476777Y-122873223D01*
X132493253Y-122891401D01*
X132507868Y-122911107D01*
X132520480Y-122932150D01*
X132530970Y-122954329D01*
X132539235Y-122977428D01*
X132545196Y-123001227D01*
X132548796Y-123025495D01*
X132550000Y-123049999D01*
X132550000Y-123950001D01*
X132548796Y-123974505D01*
X132545196Y-123998773D01*
X132539235Y-124022572D01*
X132530970Y-124045671D01*
X132520480Y-124067850D01*
X132507868Y-124088893D01*
X132493253Y-124108599D01*
X132476777Y-124126777D01*
X132458599Y-124143253D01*
X132438893Y-124157868D01*
X132417850Y-124170480D01*
X132395671Y-124180970D01*
X132372572Y-124189235D01*
X132348773Y-124195196D01*
X132324505Y-124198796D01*
X132300001Y-124200000D01*
X131649999Y-124200000D01*
X131625495Y-124198796D01*
X131601227Y-124195196D01*
X131577428Y-124189235D01*
X131554329Y-124180970D01*
X131532150Y-124170480D01*
X131511107Y-124157868D01*
X131491401Y-124143253D01*
X131473223Y-124126777D01*
X131456747Y-124108599D01*
X131442132Y-124088893D01*
X131429520Y-124067850D01*
X131419030Y-124045671D01*
X131410765Y-124022572D01*
X131404804Y-123998773D01*
X131401204Y-123974505D01*
X131400000Y-123950001D01*
X131400000Y-123049999D01*
X131401204Y-123025495D01*
X131404804Y-123001227D01*
X131410765Y-122977428D01*
X131419030Y-122954329D01*
X131429520Y-122932150D01*
X131442132Y-122911107D01*
X131456747Y-122891401D01*
X131473223Y-122873223D01*
X131491401Y-122856747D01*
X131511107Y-122842132D01*
X131532150Y-122829520D01*
X131554329Y-122819030D01*
X131577428Y-122810765D01*
X131601227Y-122804804D01*
X131625495Y-122801204D01*
X131649999Y-122800000D01*
X132300001Y-122800000D01*
X132324505Y-122801204D01*
X132324505Y-122801204D01*
G37*
D13*
X131975000Y-123500000D03*
D10*
G36*
X134374505Y-127801204D02*
G01*
X134398773Y-127804804D01*
X134422572Y-127810765D01*
X134445671Y-127819030D01*
X134467850Y-127829520D01*
X134488893Y-127842132D01*
X134508599Y-127856747D01*
X134526777Y-127873223D01*
X134543253Y-127891401D01*
X134557868Y-127911107D01*
X134570480Y-127932150D01*
X134580970Y-127954329D01*
X134589235Y-127977428D01*
X134595196Y-128001227D01*
X134598796Y-128025495D01*
X134600000Y-128049999D01*
X134600000Y-128950001D01*
X134598796Y-128974505D01*
X134595196Y-128998773D01*
X134589235Y-129022572D01*
X134580970Y-129045671D01*
X134570480Y-129067850D01*
X134557868Y-129088893D01*
X134543253Y-129108599D01*
X134526777Y-129126777D01*
X134508599Y-129143253D01*
X134488893Y-129157868D01*
X134467850Y-129170480D01*
X134445671Y-129180970D01*
X134422572Y-129189235D01*
X134398773Y-129195196D01*
X134374505Y-129198796D01*
X134350001Y-129200000D01*
X133699999Y-129200000D01*
X133675495Y-129198796D01*
X133651227Y-129195196D01*
X133627428Y-129189235D01*
X133604329Y-129180970D01*
X133582150Y-129170480D01*
X133561107Y-129157868D01*
X133541401Y-129143253D01*
X133523223Y-129126777D01*
X133506747Y-129108599D01*
X133492132Y-129088893D01*
X133479520Y-129067850D01*
X133469030Y-129045671D01*
X133460765Y-129022572D01*
X133454804Y-128998773D01*
X133451204Y-128974505D01*
X133450000Y-128950001D01*
X133450000Y-128049999D01*
X133451204Y-128025495D01*
X133454804Y-128001227D01*
X133460765Y-127977428D01*
X133469030Y-127954329D01*
X133479520Y-127932150D01*
X133492132Y-127911107D01*
X133506747Y-127891401D01*
X133523223Y-127873223D01*
X133541401Y-127856747D01*
X133561107Y-127842132D01*
X133582150Y-127829520D01*
X133604329Y-127819030D01*
X133627428Y-127810765D01*
X133651227Y-127804804D01*
X133675495Y-127801204D01*
X133699999Y-127800000D01*
X134350001Y-127800000D01*
X134374505Y-127801204D01*
X134374505Y-127801204D01*
G37*
D13*
X134025000Y-128500000D03*
D10*
G36*
X132324505Y-127801204D02*
G01*
X132348773Y-127804804D01*
X132372572Y-127810765D01*
X132395671Y-127819030D01*
X132417850Y-127829520D01*
X132438893Y-127842132D01*
X132458599Y-127856747D01*
X132476777Y-127873223D01*
X132493253Y-127891401D01*
X132507868Y-127911107D01*
X132520480Y-127932150D01*
X132530970Y-127954329D01*
X132539235Y-127977428D01*
X132545196Y-128001227D01*
X132548796Y-128025495D01*
X132550000Y-128049999D01*
X132550000Y-128950001D01*
X132548796Y-128974505D01*
X132545196Y-128998773D01*
X132539235Y-129022572D01*
X132530970Y-129045671D01*
X132520480Y-129067850D01*
X132507868Y-129088893D01*
X132493253Y-129108599D01*
X132476777Y-129126777D01*
X132458599Y-129143253D01*
X132438893Y-129157868D01*
X132417850Y-129170480D01*
X132395671Y-129180970D01*
X132372572Y-129189235D01*
X132348773Y-129195196D01*
X132324505Y-129198796D01*
X132300001Y-129200000D01*
X131649999Y-129200000D01*
X131625495Y-129198796D01*
X131601227Y-129195196D01*
X131577428Y-129189235D01*
X131554329Y-129180970D01*
X131532150Y-129170480D01*
X131511107Y-129157868D01*
X131491401Y-129143253D01*
X131473223Y-129126777D01*
X131456747Y-129108599D01*
X131442132Y-129088893D01*
X131429520Y-129067850D01*
X131419030Y-129045671D01*
X131410765Y-129022572D01*
X131404804Y-128998773D01*
X131401204Y-128974505D01*
X131400000Y-128950001D01*
X131400000Y-128049999D01*
X131401204Y-128025495D01*
X131404804Y-128001227D01*
X131410765Y-127977428D01*
X131419030Y-127954329D01*
X131429520Y-127932150D01*
X131442132Y-127911107D01*
X131456747Y-127891401D01*
X131473223Y-127873223D01*
X131491401Y-127856747D01*
X131511107Y-127842132D01*
X131532150Y-127829520D01*
X131554329Y-127819030D01*
X131577428Y-127810765D01*
X131601227Y-127804804D01*
X131625495Y-127801204D01*
X131649999Y-127800000D01*
X132300001Y-127800000D01*
X132324505Y-127801204D01*
X132324505Y-127801204D01*
G37*
D13*
X131975000Y-128500000D03*
D10*
G36*
X174874505Y-101301204D02*
G01*
X174898773Y-101304804D01*
X174922572Y-101310765D01*
X174945671Y-101319030D01*
X174967850Y-101329520D01*
X174988893Y-101342132D01*
X175008599Y-101356747D01*
X175026777Y-101373223D01*
X175043253Y-101391401D01*
X175057868Y-101411107D01*
X175070480Y-101432150D01*
X175080970Y-101454329D01*
X175089235Y-101477428D01*
X175095196Y-101501227D01*
X175098796Y-101525495D01*
X175100000Y-101549999D01*
X175100000Y-102450001D01*
X175098796Y-102474505D01*
X175095196Y-102498773D01*
X175089235Y-102522572D01*
X175080970Y-102545671D01*
X175070480Y-102567850D01*
X175057868Y-102588893D01*
X175043253Y-102608599D01*
X175026777Y-102626777D01*
X175008599Y-102643253D01*
X174988893Y-102657868D01*
X174967850Y-102670480D01*
X174945671Y-102680970D01*
X174922572Y-102689235D01*
X174898773Y-102695196D01*
X174874505Y-102698796D01*
X174850001Y-102700000D01*
X174199999Y-102700000D01*
X174175495Y-102698796D01*
X174151227Y-102695196D01*
X174127428Y-102689235D01*
X174104329Y-102680970D01*
X174082150Y-102670480D01*
X174061107Y-102657868D01*
X174041401Y-102643253D01*
X174023223Y-102626777D01*
X174006747Y-102608599D01*
X173992132Y-102588893D01*
X173979520Y-102567850D01*
X173969030Y-102545671D01*
X173960765Y-102522572D01*
X173954804Y-102498773D01*
X173951204Y-102474505D01*
X173950000Y-102450001D01*
X173950000Y-101549999D01*
X173951204Y-101525495D01*
X173954804Y-101501227D01*
X173960765Y-101477428D01*
X173969030Y-101454329D01*
X173979520Y-101432150D01*
X173992132Y-101411107D01*
X174006747Y-101391401D01*
X174023223Y-101373223D01*
X174041401Y-101356747D01*
X174061107Y-101342132D01*
X174082150Y-101329520D01*
X174104329Y-101319030D01*
X174127428Y-101310765D01*
X174151227Y-101304804D01*
X174175495Y-101301204D01*
X174199999Y-101300000D01*
X174850001Y-101300000D01*
X174874505Y-101301204D01*
X174874505Y-101301204D01*
G37*
D13*
X174525000Y-102000000D03*
D10*
G36*
X172824505Y-101301204D02*
G01*
X172848773Y-101304804D01*
X172872572Y-101310765D01*
X172895671Y-101319030D01*
X172917850Y-101329520D01*
X172938893Y-101342132D01*
X172958599Y-101356747D01*
X172976777Y-101373223D01*
X172993253Y-101391401D01*
X173007868Y-101411107D01*
X173020480Y-101432150D01*
X173030970Y-101454329D01*
X173039235Y-101477428D01*
X173045196Y-101501227D01*
X173048796Y-101525495D01*
X173050000Y-101549999D01*
X173050000Y-102450001D01*
X173048796Y-102474505D01*
X173045196Y-102498773D01*
X173039235Y-102522572D01*
X173030970Y-102545671D01*
X173020480Y-102567850D01*
X173007868Y-102588893D01*
X172993253Y-102608599D01*
X172976777Y-102626777D01*
X172958599Y-102643253D01*
X172938893Y-102657868D01*
X172917850Y-102670480D01*
X172895671Y-102680970D01*
X172872572Y-102689235D01*
X172848773Y-102695196D01*
X172824505Y-102698796D01*
X172800001Y-102700000D01*
X172149999Y-102700000D01*
X172125495Y-102698796D01*
X172101227Y-102695196D01*
X172077428Y-102689235D01*
X172054329Y-102680970D01*
X172032150Y-102670480D01*
X172011107Y-102657868D01*
X171991401Y-102643253D01*
X171973223Y-102626777D01*
X171956747Y-102608599D01*
X171942132Y-102588893D01*
X171929520Y-102567850D01*
X171919030Y-102545671D01*
X171910765Y-102522572D01*
X171904804Y-102498773D01*
X171901204Y-102474505D01*
X171900000Y-102450001D01*
X171900000Y-101549999D01*
X171901204Y-101525495D01*
X171904804Y-101501227D01*
X171910765Y-101477428D01*
X171919030Y-101454329D01*
X171929520Y-101432150D01*
X171942132Y-101411107D01*
X171956747Y-101391401D01*
X171973223Y-101373223D01*
X171991401Y-101356747D01*
X172011107Y-101342132D01*
X172032150Y-101329520D01*
X172054329Y-101319030D01*
X172077428Y-101310765D01*
X172101227Y-101304804D01*
X172125495Y-101301204D01*
X172149999Y-101300000D01*
X172800001Y-101300000D01*
X172824505Y-101301204D01*
X172824505Y-101301204D01*
G37*
D13*
X172475000Y-102000000D03*
D10*
G36*
X174874505Y-98801204D02*
G01*
X174898773Y-98804804D01*
X174922572Y-98810765D01*
X174945671Y-98819030D01*
X174967850Y-98829520D01*
X174988893Y-98842132D01*
X175008599Y-98856747D01*
X175026777Y-98873223D01*
X175043253Y-98891401D01*
X175057868Y-98911107D01*
X175070480Y-98932150D01*
X175080970Y-98954329D01*
X175089235Y-98977428D01*
X175095196Y-99001227D01*
X175098796Y-99025495D01*
X175100000Y-99049999D01*
X175100000Y-99950001D01*
X175098796Y-99974505D01*
X175095196Y-99998773D01*
X175089235Y-100022572D01*
X175080970Y-100045671D01*
X175070480Y-100067850D01*
X175057868Y-100088893D01*
X175043253Y-100108599D01*
X175026777Y-100126777D01*
X175008599Y-100143253D01*
X174988893Y-100157868D01*
X174967850Y-100170480D01*
X174945671Y-100180970D01*
X174922572Y-100189235D01*
X174898773Y-100195196D01*
X174874505Y-100198796D01*
X174850001Y-100200000D01*
X174199999Y-100200000D01*
X174175495Y-100198796D01*
X174151227Y-100195196D01*
X174127428Y-100189235D01*
X174104329Y-100180970D01*
X174082150Y-100170480D01*
X174061107Y-100157868D01*
X174041401Y-100143253D01*
X174023223Y-100126777D01*
X174006747Y-100108599D01*
X173992132Y-100088893D01*
X173979520Y-100067850D01*
X173969030Y-100045671D01*
X173960765Y-100022572D01*
X173954804Y-99998773D01*
X173951204Y-99974505D01*
X173950000Y-99950001D01*
X173950000Y-99049999D01*
X173951204Y-99025495D01*
X173954804Y-99001227D01*
X173960765Y-98977428D01*
X173969030Y-98954329D01*
X173979520Y-98932150D01*
X173992132Y-98911107D01*
X174006747Y-98891401D01*
X174023223Y-98873223D01*
X174041401Y-98856747D01*
X174061107Y-98842132D01*
X174082150Y-98829520D01*
X174104329Y-98819030D01*
X174127428Y-98810765D01*
X174151227Y-98804804D01*
X174175495Y-98801204D01*
X174199999Y-98800000D01*
X174850001Y-98800000D01*
X174874505Y-98801204D01*
X174874505Y-98801204D01*
G37*
D13*
X174525000Y-99500000D03*
D10*
G36*
X172824505Y-98801204D02*
G01*
X172848773Y-98804804D01*
X172872572Y-98810765D01*
X172895671Y-98819030D01*
X172917850Y-98829520D01*
X172938893Y-98842132D01*
X172958599Y-98856747D01*
X172976777Y-98873223D01*
X172993253Y-98891401D01*
X173007868Y-98911107D01*
X173020480Y-98932150D01*
X173030970Y-98954329D01*
X173039235Y-98977428D01*
X173045196Y-99001227D01*
X173048796Y-99025495D01*
X173050000Y-99049999D01*
X173050000Y-99950001D01*
X173048796Y-99974505D01*
X173045196Y-99998773D01*
X173039235Y-100022572D01*
X173030970Y-100045671D01*
X173020480Y-100067850D01*
X173007868Y-100088893D01*
X172993253Y-100108599D01*
X172976777Y-100126777D01*
X172958599Y-100143253D01*
X172938893Y-100157868D01*
X172917850Y-100170480D01*
X172895671Y-100180970D01*
X172872572Y-100189235D01*
X172848773Y-100195196D01*
X172824505Y-100198796D01*
X172800001Y-100200000D01*
X172149999Y-100200000D01*
X172125495Y-100198796D01*
X172101227Y-100195196D01*
X172077428Y-100189235D01*
X172054329Y-100180970D01*
X172032150Y-100170480D01*
X172011107Y-100157868D01*
X171991401Y-100143253D01*
X171973223Y-100126777D01*
X171956747Y-100108599D01*
X171942132Y-100088893D01*
X171929520Y-100067850D01*
X171919030Y-100045671D01*
X171910765Y-100022572D01*
X171904804Y-99998773D01*
X171901204Y-99974505D01*
X171900000Y-99950001D01*
X171900000Y-99049999D01*
X171901204Y-99025495D01*
X171904804Y-99001227D01*
X171910765Y-98977428D01*
X171919030Y-98954329D01*
X171929520Y-98932150D01*
X171942132Y-98911107D01*
X171956747Y-98891401D01*
X171973223Y-98873223D01*
X171991401Y-98856747D01*
X172011107Y-98842132D01*
X172032150Y-98829520D01*
X172054329Y-98819030D01*
X172077428Y-98810765D01*
X172101227Y-98804804D01*
X172125495Y-98801204D01*
X172149999Y-98800000D01*
X172800001Y-98800000D01*
X172824505Y-98801204D01*
X172824505Y-98801204D01*
G37*
D13*
X172475000Y-99500000D03*
D10*
G36*
X174874505Y-96301204D02*
G01*
X174898773Y-96304804D01*
X174922572Y-96310765D01*
X174945671Y-96319030D01*
X174967850Y-96329520D01*
X174988893Y-96342132D01*
X175008599Y-96356747D01*
X175026777Y-96373223D01*
X175043253Y-96391401D01*
X175057868Y-96411107D01*
X175070480Y-96432150D01*
X175080970Y-96454329D01*
X175089235Y-96477428D01*
X175095196Y-96501227D01*
X175098796Y-96525495D01*
X175100000Y-96549999D01*
X175100000Y-97450001D01*
X175098796Y-97474505D01*
X175095196Y-97498773D01*
X175089235Y-97522572D01*
X175080970Y-97545671D01*
X175070480Y-97567850D01*
X175057868Y-97588893D01*
X175043253Y-97608599D01*
X175026777Y-97626777D01*
X175008599Y-97643253D01*
X174988893Y-97657868D01*
X174967850Y-97670480D01*
X174945671Y-97680970D01*
X174922572Y-97689235D01*
X174898773Y-97695196D01*
X174874505Y-97698796D01*
X174850001Y-97700000D01*
X174199999Y-97700000D01*
X174175495Y-97698796D01*
X174151227Y-97695196D01*
X174127428Y-97689235D01*
X174104329Y-97680970D01*
X174082150Y-97670480D01*
X174061107Y-97657868D01*
X174041401Y-97643253D01*
X174023223Y-97626777D01*
X174006747Y-97608599D01*
X173992132Y-97588893D01*
X173979520Y-97567850D01*
X173969030Y-97545671D01*
X173960765Y-97522572D01*
X173954804Y-97498773D01*
X173951204Y-97474505D01*
X173950000Y-97450001D01*
X173950000Y-96549999D01*
X173951204Y-96525495D01*
X173954804Y-96501227D01*
X173960765Y-96477428D01*
X173969030Y-96454329D01*
X173979520Y-96432150D01*
X173992132Y-96411107D01*
X174006747Y-96391401D01*
X174023223Y-96373223D01*
X174041401Y-96356747D01*
X174061107Y-96342132D01*
X174082150Y-96329520D01*
X174104329Y-96319030D01*
X174127428Y-96310765D01*
X174151227Y-96304804D01*
X174175495Y-96301204D01*
X174199999Y-96300000D01*
X174850001Y-96300000D01*
X174874505Y-96301204D01*
X174874505Y-96301204D01*
G37*
D13*
X174525000Y-97000000D03*
D10*
G36*
X172824505Y-96301204D02*
G01*
X172848773Y-96304804D01*
X172872572Y-96310765D01*
X172895671Y-96319030D01*
X172917850Y-96329520D01*
X172938893Y-96342132D01*
X172958599Y-96356747D01*
X172976777Y-96373223D01*
X172993253Y-96391401D01*
X173007868Y-96411107D01*
X173020480Y-96432150D01*
X173030970Y-96454329D01*
X173039235Y-96477428D01*
X173045196Y-96501227D01*
X173048796Y-96525495D01*
X173050000Y-96549999D01*
X173050000Y-97450001D01*
X173048796Y-97474505D01*
X173045196Y-97498773D01*
X173039235Y-97522572D01*
X173030970Y-97545671D01*
X173020480Y-97567850D01*
X173007868Y-97588893D01*
X172993253Y-97608599D01*
X172976777Y-97626777D01*
X172958599Y-97643253D01*
X172938893Y-97657868D01*
X172917850Y-97670480D01*
X172895671Y-97680970D01*
X172872572Y-97689235D01*
X172848773Y-97695196D01*
X172824505Y-97698796D01*
X172800001Y-97700000D01*
X172149999Y-97700000D01*
X172125495Y-97698796D01*
X172101227Y-97695196D01*
X172077428Y-97689235D01*
X172054329Y-97680970D01*
X172032150Y-97670480D01*
X172011107Y-97657868D01*
X171991401Y-97643253D01*
X171973223Y-97626777D01*
X171956747Y-97608599D01*
X171942132Y-97588893D01*
X171929520Y-97567850D01*
X171919030Y-97545671D01*
X171910765Y-97522572D01*
X171904804Y-97498773D01*
X171901204Y-97474505D01*
X171900000Y-97450001D01*
X171900000Y-96549999D01*
X171901204Y-96525495D01*
X171904804Y-96501227D01*
X171910765Y-96477428D01*
X171919030Y-96454329D01*
X171929520Y-96432150D01*
X171942132Y-96411107D01*
X171956747Y-96391401D01*
X171973223Y-96373223D01*
X171991401Y-96356747D01*
X172011107Y-96342132D01*
X172032150Y-96329520D01*
X172054329Y-96319030D01*
X172077428Y-96310765D01*
X172101227Y-96304804D01*
X172125495Y-96301204D01*
X172149999Y-96300000D01*
X172800001Y-96300000D01*
X172824505Y-96301204D01*
X172824505Y-96301204D01*
G37*
D13*
X172475000Y-97000000D03*
M02*
