G04 #@! TF.GenerationSoftware,KiCad,Pcbnew,(5.1.4)-1*
G04 #@! TF.CreationDate,2019-09-08T22:11:41-07:00*
G04 #@! TF.ProjectId,arduino-micro,61726475-696e-46f2-9d6d-6963726f2e6b,rev?*
G04 #@! TF.SameCoordinates,Original*
G04 #@! TF.FileFunction,Legend,Top*
G04 #@! TF.FilePolarity,Positive*
%FSLAX46Y46*%
G04 Gerber Fmt 4.6, Leading zero omitted, Abs format (unit mm)*
G04 Created by KiCad (PCBNEW (5.1.4)-1) date 2019-09-08 22:11:41*
%MOMM*%
%LPD*%
G04 APERTURE LIST*
%ADD10C,0.120000*%
%ADD11C,0.150000*%
G04 APERTURE END LIST*
D10*
X126238748Y-97710000D02*
X126761252Y-97710000D01*
X126238748Y-96290000D02*
X126761252Y-96290000D01*
X126238748Y-103710000D02*
X126761252Y-103710000D01*
X126238748Y-102290000D02*
X126761252Y-102290000D01*
X177800000Y-127000000D02*
X180340000Y-127000000D01*
X177800000Y-124460000D02*
X180340000Y-124460000D01*
X181610000Y-124980000D02*
X181610000Y-126480000D01*
X176530000Y-124980000D02*
X176530000Y-126480000D01*
X162560000Y-127000000D02*
X165100000Y-127000000D01*
X162560000Y-124460000D02*
X165100000Y-124460000D01*
X166370000Y-124980000D02*
X166370000Y-126480000D01*
X161290000Y-124980000D02*
X161290000Y-126480000D01*
X147320000Y-127000000D02*
X149860000Y-127000000D01*
X147320000Y-124460000D02*
X149860000Y-124460000D01*
X151130000Y-124980000D02*
X151130000Y-126480000D01*
X146050000Y-124980000D02*
X146050000Y-126480000D01*
X169910000Y-93000000D02*
X167910000Y-93000000D01*
X137290000Y-112490000D02*
X187830000Y-112490000D01*
X137290000Y-93250000D02*
X137290000Y-112490000D01*
X187830000Y-93250000D02*
X137290000Y-93250000D01*
X187830000Y-93250000D02*
X187830000Y-112490000D01*
X133000000Y-126000000D02*
G75*
G03X133000000Y-126000000I-3000000J0D01*
G01*
X128000000Y-131900000D02*
X123900000Y-131900000D01*
X123900000Y-120100000D02*
X128000000Y-120100000D01*
X132000000Y-120100000D02*
X136100000Y-120100000D01*
X132000000Y-131800000D02*
X136100000Y-131800000D01*
X136100000Y-131800000D02*
X136100000Y-120100000D01*
X137500000Y-129800000D02*
X137800000Y-130100000D01*
X137800000Y-130100000D02*
X137200000Y-130100000D01*
X137200000Y-130100000D02*
X137500000Y-129800000D01*
X123900000Y-131900000D02*
X123900000Y-129300000D01*
X123900000Y-127300000D02*
X123900000Y-124700000D01*
X123900000Y-122700000D02*
X123900000Y-120100000D01*
X130000000Y-126500000D02*
X130000000Y-125500000D01*
X130500000Y-126000000D02*
X129500000Y-126000000D01*
X186428748Y-128980000D02*
X186951252Y-128980000D01*
X186428748Y-127560000D02*
X186951252Y-127560000D01*
X155738748Y-128980000D02*
X156261252Y-128980000D01*
X155738748Y-127560000D02*
X156261252Y-127560000D01*
X171188748Y-128980000D02*
X171711252Y-128980000D01*
X171188748Y-127560000D02*
X171711252Y-127560000D01*
X131738748Y-100710000D02*
X132261252Y-100710000D01*
X131738748Y-99290000D02*
X132261252Y-99290000D01*
X131738748Y-97710000D02*
X132261252Y-97710000D01*
X131738748Y-96290000D02*
X132261252Y-96290000D01*
X131738748Y-103710000D02*
X132261252Y-103710000D01*
X131738748Y-102290000D02*
X132261252Y-102290000D01*
D11*
X125857142Y-95802380D02*
X125523809Y-95326190D01*
X125285714Y-95802380D02*
X125285714Y-94802380D01*
X125666666Y-94802380D01*
X125761904Y-94850000D01*
X125809523Y-94897619D01*
X125857142Y-94992857D01*
X125857142Y-95135714D01*
X125809523Y-95230952D01*
X125761904Y-95278571D01*
X125666666Y-95326190D01*
X125285714Y-95326190D01*
X126809523Y-95802380D02*
X126238095Y-95802380D01*
X126523809Y-95802380D02*
X126523809Y-94802380D01*
X126428571Y-94945238D01*
X126333333Y-95040476D01*
X126238095Y-95088095D01*
X127190476Y-94897619D02*
X127238095Y-94850000D01*
X127333333Y-94802380D01*
X127571428Y-94802380D01*
X127666666Y-94850000D01*
X127714285Y-94897619D01*
X127761904Y-94992857D01*
X127761904Y-95088095D01*
X127714285Y-95230952D01*
X127142857Y-95802380D01*
X127761904Y-95802380D01*
X125857142Y-101802380D02*
X125523809Y-101326190D01*
X125285714Y-101802380D02*
X125285714Y-100802380D01*
X125666666Y-100802380D01*
X125761904Y-100850000D01*
X125809523Y-100897619D01*
X125857142Y-100992857D01*
X125857142Y-101135714D01*
X125809523Y-101230952D01*
X125761904Y-101278571D01*
X125666666Y-101326190D01*
X125285714Y-101326190D01*
X126809523Y-101802380D02*
X126238095Y-101802380D01*
X126523809Y-101802380D02*
X126523809Y-100802380D01*
X126428571Y-100945238D01*
X126333333Y-101040476D01*
X126238095Y-101088095D01*
X127761904Y-101802380D02*
X127190476Y-101802380D01*
X127476190Y-101802380D02*
X127476190Y-100802380D01*
X127380952Y-100945238D01*
X127285714Y-101040476D01*
X127190476Y-101088095D01*
X178308095Y-121372380D02*
X178308095Y-122181904D01*
X178355714Y-122277142D01*
X178403333Y-122324761D01*
X178498571Y-122372380D01*
X178689047Y-122372380D01*
X178784285Y-122324761D01*
X178831904Y-122277142D01*
X178879523Y-122181904D01*
X178879523Y-121372380D01*
X179831904Y-121372380D02*
X179355714Y-121372380D01*
X179308095Y-121848571D01*
X179355714Y-121800952D01*
X179450952Y-121753333D01*
X179689047Y-121753333D01*
X179784285Y-121800952D01*
X179831904Y-121848571D01*
X179879523Y-121943809D01*
X179879523Y-122181904D01*
X179831904Y-122277142D01*
X179784285Y-122324761D01*
X179689047Y-122372380D01*
X179450952Y-122372380D01*
X179355714Y-122324761D01*
X179308095Y-122277142D01*
X163068095Y-121372380D02*
X163068095Y-122181904D01*
X163115714Y-122277142D01*
X163163333Y-122324761D01*
X163258571Y-122372380D01*
X163449047Y-122372380D01*
X163544285Y-122324761D01*
X163591904Y-122277142D01*
X163639523Y-122181904D01*
X163639523Y-121372380D01*
X164544285Y-121705714D02*
X164544285Y-122372380D01*
X164306190Y-121324761D02*
X164068095Y-122039047D01*
X164687142Y-122039047D01*
X147828095Y-121372380D02*
X147828095Y-122181904D01*
X147875714Y-122277142D01*
X147923333Y-122324761D01*
X148018571Y-122372380D01*
X148209047Y-122372380D01*
X148304285Y-122324761D01*
X148351904Y-122277142D01*
X148399523Y-122181904D01*
X148399523Y-121372380D01*
X148780476Y-121372380D02*
X149399523Y-121372380D01*
X149066190Y-121753333D01*
X149209047Y-121753333D01*
X149304285Y-121800952D01*
X149351904Y-121848571D01*
X149399523Y-121943809D01*
X149399523Y-122181904D01*
X149351904Y-122277142D01*
X149304285Y-122324761D01*
X149209047Y-122372380D01*
X148923333Y-122372380D01*
X148828095Y-122324761D01*
X148780476Y-122277142D01*
X188512380Y-95571904D02*
X189321904Y-95571904D01*
X189417142Y-95524285D01*
X189464761Y-95476666D01*
X189512380Y-95381428D01*
X189512380Y-95190952D01*
X189464761Y-95095714D01*
X189417142Y-95048095D01*
X189321904Y-95000476D01*
X188512380Y-95000476D01*
X188607619Y-94571904D02*
X188560000Y-94524285D01*
X188512380Y-94429047D01*
X188512380Y-94190952D01*
X188560000Y-94095714D01*
X188607619Y-94048095D01*
X188702857Y-94000476D01*
X188798095Y-94000476D01*
X188940952Y-94048095D01*
X189512380Y-94619523D01*
X189512380Y-94000476D01*
X133366666Y-133604761D02*
X133509523Y-133652380D01*
X133747619Y-133652380D01*
X133842857Y-133604761D01*
X133890476Y-133557142D01*
X133938095Y-133461904D01*
X133938095Y-133366666D01*
X133890476Y-133271428D01*
X133842857Y-133223809D01*
X133747619Y-133176190D01*
X133557142Y-133128571D01*
X133461904Y-133080952D01*
X133414285Y-133033333D01*
X133366666Y-132938095D01*
X133366666Y-132842857D01*
X133414285Y-132747619D01*
X133461904Y-132700000D01*
X133557142Y-132652380D01*
X133795238Y-132652380D01*
X133938095Y-132700000D01*
X134271428Y-132652380D02*
X134509523Y-133652380D01*
X134700000Y-132938095D01*
X134890476Y-133652380D01*
X135128571Y-132652380D01*
X136033333Y-133652380D02*
X135461904Y-133652380D01*
X135747619Y-133652380D02*
X135747619Y-132652380D01*
X135652380Y-132795238D01*
X135557142Y-132890476D01*
X135461904Y-132938095D01*
X186047142Y-127072380D02*
X185713809Y-126596190D01*
X185475714Y-127072380D02*
X185475714Y-126072380D01*
X185856666Y-126072380D01*
X185951904Y-126120000D01*
X185999523Y-126167619D01*
X186047142Y-126262857D01*
X186047142Y-126405714D01*
X185999523Y-126500952D01*
X185951904Y-126548571D01*
X185856666Y-126596190D01*
X185475714Y-126596190D01*
X186999523Y-127072380D02*
X186428095Y-127072380D01*
X186713809Y-127072380D02*
X186713809Y-126072380D01*
X186618571Y-126215238D01*
X186523333Y-126310476D01*
X186428095Y-126358095D01*
X187618571Y-126072380D02*
X187713809Y-126072380D01*
X187809047Y-126120000D01*
X187856666Y-126167619D01*
X187904285Y-126262857D01*
X187951904Y-126453333D01*
X187951904Y-126691428D01*
X187904285Y-126881904D01*
X187856666Y-126977142D01*
X187809047Y-127024761D01*
X187713809Y-127072380D01*
X187618571Y-127072380D01*
X187523333Y-127024761D01*
X187475714Y-126977142D01*
X187428095Y-126881904D01*
X187380476Y-126691428D01*
X187380476Y-126453333D01*
X187428095Y-126262857D01*
X187475714Y-126167619D01*
X187523333Y-126120000D01*
X187618571Y-126072380D01*
X155833333Y-127072380D02*
X155500000Y-126596190D01*
X155261904Y-127072380D02*
X155261904Y-126072380D01*
X155642857Y-126072380D01*
X155738095Y-126120000D01*
X155785714Y-126167619D01*
X155833333Y-126262857D01*
X155833333Y-126405714D01*
X155785714Y-126500952D01*
X155738095Y-126548571D01*
X155642857Y-126596190D01*
X155261904Y-126596190D01*
X156309523Y-127072380D02*
X156500000Y-127072380D01*
X156595238Y-127024761D01*
X156642857Y-126977142D01*
X156738095Y-126834285D01*
X156785714Y-126643809D01*
X156785714Y-126262857D01*
X156738095Y-126167619D01*
X156690476Y-126120000D01*
X156595238Y-126072380D01*
X156404761Y-126072380D01*
X156309523Y-126120000D01*
X156261904Y-126167619D01*
X156214285Y-126262857D01*
X156214285Y-126500952D01*
X156261904Y-126596190D01*
X156309523Y-126643809D01*
X156404761Y-126691428D01*
X156595238Y-126691428D01*
X156690476Y-126643809D01*
X156738095Y-126596190D01*
X156785714Y-126500952D01*
X171283333Y-127072380D02*
X170950000Y-126596190D01*
X170711904Y-127072380D02*
X170711904Y-126072380D01*
X171092857Y-126072380D01*
X171188095Y-126120000D01*
X171235714Y-126167619D01*
X171283333Y-126262857D01*
X171283333Y-126405714D01*
X171235714Y-126500952D01*
X171188095Y-126548571D01*
X171092857Y-126596190D01*
X170711904Y-126596190D01*
X171854761Y-126500952D02*
X171759523Y-126453333D01*
X171711904Y-126405714D01*
X171664285Y-126310476D01*
X171664285Y-126262857D01*
X171711904Y-126167619D01*
X171759523Y-126120000D01*
X171854761Y-126072380D01*
X172045238Y-126072380D01*
X172140476Y-126120000D01*
X172188095Y-126167619D01*
X172235714Y-126262857D01*
X172235714Y-126310476D01*
X172188095Y-126405714D01*
X172140476Y-126453333D01*
X172045238Y-126500952D01*
X171854761Y-126500952D01*
X171759523Y-126548571D01*
X171711904Y-126596190D01*
X171664285Y-126691428D01*
X171664285Y-126881904D01*
X171711904Y-126977142D01*
X171759523Y-127024761D01*
X171854761Y-127072380D01*
X172045238Y-127072380D01*
X172140476Y-127024761D01*
X172188095Y-126977142D01*
X172235714Y-126881904D01*
X172235714Y-126691428D01*
X172188095Y-126596190D01*
X172140476Y-126548571D01*
X172045238Y-126500952D01*
X131833333Y-98802380D02*
X131500000Y-98326190D01*
X131261904Y-98802380D02*
X131261904Y-97802380D01*
X131642857Y-97802380D01*
X131738095Y-97850000D01*
X131785714Y-97897619D01*
X131833333Y-97992857D01*
X131833333Y-98135714D01*
X131785714Y-98230952D01*
X131738095Y-98278571D01*
X131642857Y-98326190D01*
X131261904Y-98326190D01*
X132166666Y-97802380D02*
X132833333Y-97802380D01*
X132404761Y-98802380D01*
X131833333Y-95802380D02*
X131500000Y-95326190D01*
X131261904Y-95802380D02*
X131261904Y-94802380D01*
X131642857Y-94802380D01*
X131738095Y-94850000D01*
X131785714Y-94897619D01*
X131833333Y-94992857D01*
X131833333Y-95135714D01*
X131785714Y-95230952D01*
X131738095Y-95278571D01*
X131642857Y-95326190D01*
X131261904Y-95326190D01*
X132690476Y-94802380D02*
X132500000Y-94802380D01*
X132404761Y-94850000D01*
X132357142Y-94897619D01*
X132261904Y-95040476D01*
X132214285Y-95230952D01*
X132214285Y-95611904D01*
X132261904Y-95707142D01*
X132309523Y-95754761D01*
X132404761Y-95802380D01*
X132595238Y-95802380D01*
X132690476Y-95754761D01*
X132738095Y-95707142D01*
X132785714Y-95611904D01*
X132785714Y-95373809D01*
X132738095Y-95278571D01*
X132690476Y-95230952D01*
X132595238Y-95183333D01*
X132404761Y-95183333D01*
X132309523Y-95230952D01*
X132261904Y-95278571D01*
X132214285Y-95373809D01*
X131833333Y-101802380D02*
X131500000Y-101326190D01*
X131261904Y-101802380D02*
X131261904Y-100802380D01*
X131642857Y-100802380D01*
X131738095Y-100850000D01*
X131785714Y-100897619D01*
X131833333Y-100992857D01*
X131833333Y-101135714D01*
X131785714Y-101230952D01*
X131738095Y-101278571D01*
X131642857Y-101326190D01*
X131261904Y-101326190D01*
X132166666Y-100802380D02*
X132785714Y-100802380D01*
X132452380Y-101183333D01*
X132595238Y-101183333D01*
X132690476Y-101230952D01*
X132738095Y-101278571D01*
X132785714Y-101373809D01*
X132785714Y-101611904D01*
X132738095Y-101707142D01*
X132690476Y-101754761D01*
X132595238Y-101802380D01*
X132309523Y-101802380D01*
X132214285Y-101754761D01*
X132166666Y-101707142D01*
M02*
