G04 #@! TF.GenerationSoftware,KiCad,Pcbnew,(5.1.4)-1*
G04 #@! TF.CreationDate,2019-09-08T20:59:56-07:00*
G04 #@! TF.ProjectId,arduino-micro,61726475-696e-46f2-9d6d-6963726f2e6b,rev?*
G04 #@! TF.SameCoordinates,Original*
G04 #@! TF.FileFunction,Paste,Top*
G04 #@! TF.FilePolarity,Positive*
%FSLAX46Y46*%
G04 Gerber Fmt 4.6, Leading zero omitted, Abs format (unit mm)*
G04 Created by KiCad (PCBNEW (5.1.4)-1) date 2019-09-08 20:59:56*
%MOMM*%
%LPD*%
G04 APERTURE LIST*
%ADD10C,0.100000*%
%ADD11C,1.150000*%
%ADD12R,1.600000X1.000000*%
G04 APERTURE END LIST*
D10*
G36*
X127874505Y-96301204D02*
G01*
X127898773Y-96304804D01*
X127922572Y-96310765D01*
X127945671Y-96319030D01*
X127967850Y-96329520D01*
X127988893Y-96342132D01*
X128008599Y-96356747D01*
X128026777Y-96373223D01*
X128043253Y-96391401D01*
X128057868Y-96411107D01*
X128070480Y-96432150D01*
X128080970Y-96454329D01*
X128089235Y-96477428D01*
X128095196Y-96501227D01*
X128098796Y-96525495D01*
X128100000Y-96549999D01*
X128100000Y-97450001D01*
X128098796Y-97474505D01*
X128095196Y-97498773D01*
X128089235Y-97522572D01*
X128080970Y-97545671D01*
X128070480Y-97567850D01*
X128057868Y-97588893D01*
X128043253Y-97608599D01*
X128026777Y-97626777D01*
X128008599Y-97643253D01*
X127988893Y-97657868D01*
X127967850Y-97670480D01*
X127945671Y-97680970D01*
X127922572Y-97689235D01*
X127898773Y-97695196D01*
X127874505Y-97698796D01*
X127850001Y-97700000D01*
X127199999Y-97700000D01*
X127175495Y-97698796D01*
X127151227Y-97695196D01*
X127127428Y-97689235D01*
X127104329Y-97680970D01*
X127082150Y-97670480D01*
X127061107Y-97657868D01*
X127041401Y-97643253D01*
X127023223Y-97626777D01*
X127006747Y-97608599D01*
X126992132Y-97588893D01*
X126979520Y-97567850D01*
X126969030Y-97545671D01*
X126960765Y-97522572D01*
X126954804Y-97498773D01*
X126951204Y-97474505D01*
X126950000Y-97450001D01*
X126950000Y-96549999D01*
X126951204Y-96525495D01*
X126954804Y-96501227D01*
X126960765Y-96477428D01*
X126969030Y-96454329D01*
X126979520Y-96432150D01*
X126992132Y-96411107D01*
X127006747Y-96391401D01*
X127023223Y-96373223D01*
X127041401Y-96356747D01*
X127061107Y-96342132D01*
X127082150Y-96329520D01*
X127104329Y-96319030D01*
X127127428Y-96310765D01*
X127151227Y-96304804D01*
X127175495Y-96301204D01*
X127199999Y-96300000D01*
X127850001Y-96300000D01*
X127874505Y-96301204D01*
X127874505Y-96301204D01*
G37*
D11*
X127525000Y-97000000D03*
D10*
G36*
X125824505Y-96301204D02*
G01*
X125848773Y-96304804D01*
X125872572Y-96310765D01*
X125895671Y-96319030D01*
X125917850Y-96329520D01*
X125938893Y-96342132D01*
X125958599Y-96356747D01*
X125976777Y-96373223D01*
X125993253Y-96391401D01*
X126007868Y-96411107D01*
X126020480Y-96432150D01*
X126030970Y-96454329D01*
X126039235Y-96477428D01*
X126045196Y-96501227D01*
X126048796Y-96525495D01*
X126050000Y-96549999D01*
X126050000Y-97450001D01*
X126048796Y-97474505D01*
X126045196Y-97498773D01*
X126039235Y-97522572D01*
X126030970Y-97545671D01*
X126020480Y-97567850D01*
X126007868Y-97588893D01*
X125993253Y-97608599D01*
X125976777Y-97626777D01*
X125958599Y-97643253D01*
X125938893Y-97657868D01*
X125917850Y-97670480D01*
X125895671Y-97680970D01*
X125872572Y-97689235D01*
X125848773Y-97695196D01*
X125824505Y-97698796D01*
X125800001Y-97700000D01*
X125149999Y-97700000D01*
X125125495Y-97698796D01*
X125101227Y-97695196D01*
X125077428Y-97689235D01*
X125054329Y-97680970D01*
X125032150Y-97670480D01*
X125011107Y-97657868D01*
X124991401Y-97643253D01*
X124973223Y-97626777D01*
X124956747Y-97608599D01*
X124942132Y-97588893D01*
X124929520Y-97567850D01*
X124919030Y-97545671D01*
X124910765Y-97522572D01*
X124904804Y-97498773D01*
X124901204Y-97474505D01*
X124900000Y-97450001D01*
X124900000Y-96549999D01*
X124901204Y-96525495D01*
X124904804Y-96501227D01*
X124910765Y-96477428D01*
X124919030Y-96454329D01*
X124929520Y-96432150D01*
X124942132Y-96411107D01*
X124956747Y-96391401D01*
X124973223Y-96373223D01*
X124991401Y-96356747D01*
X125011107Y-96342132D01*
X125032150Y-96329520D01*
X125054329Y-96319030D01*
X125077428Y-96310765D01*
X125101227Y-96304804D01*
X125125495Y-96301204D01*
X125149999Y-96300000D01*
X125800001Y-96300000D01*
X125824505Y-96301204D01*
X125824505Y-96301204D01*
G37*
D11*
X125475000Y-97000000D03*
D10*
G36*
X127874505Y-102301204D02*
G01*
X127898773Y-102304804D01*
X127922572Y-102310765D01*
X127945671Y-102319030D01*
X127967850Y-102329520D01*
X127988893Y-102342132D01*
X128008599Y-102356747D01*
X128026777Y-102373223D01*
X128043253Y-102391401D01*
X128057868Y-102411107D01*
X128070480Y-102432150D01*
X128080970Y-102454329D01*
X128089235Y-102477428D01*
X128095196Y-102501227D01*
X128098796Y-102525495D01*
X128100000Y-102549999D01*
X128100000Y-103450001D01*
X128098796Y-103474505D01*
X128095196Y-103498773D01*
X128089235Y-103522572D01*
X128080970Y-103545671D01*
X128070480Y-103567850D01*
X128057868Y-103588893D01*
X128043253Y-103608599D01*
X128026777Y-103626777D01*
X128008599Y-103643253D01*
X127988893Y-103657868D01*
X127967850Y-103670480D01*
X127945671Y-103680970D01*
X127922572Y-103689235D01*
X127898773Y-103695196D01*
X127874505Y-103698796D01*
X127850001Y-103700000D01*
X127199999Y-103700000D01*
X127175495Y-103698796D01*
X127151227Y-103695196D01*
X127127428Y-103689235D01*
X127104329Y-103680970D01*
X127082150Y-103670480D01*
X127061107Y-103657868D01*
X127041401Y-103643253D01*
X127023223Y-103626777D01*
X127006747Y-103608599D01*
X126992132Y-103588893D01*
X126979520Y-103567850D01*
X126969030Y-103545671D01*
X126960765Y-103522572D01*
X126954804Y-103498773D01*
X126951204Y-103474505D01*
X126950000Y-103450001D01*
X126950000Y-102549999D01*
X126951204Y-102525495D01*
X126954804Y-102501227D01*
X126960765Y-102477428D01*
X126969030Y-102454329D01*
X126979520Y-102432150D01*
X126992132Y-102411107D01*
X127006747Y-102391401D01*
X127023223Y-102373223D01*
X127041401Y-102356747D01*
X127061107Y-102342132D01*
X127082150Y-102329520D01*
X127104329Y-102319030D01*
X127127428Y-102310765D01*
X127151227Y-102304804D01*
X127175495Y-102301204D01*
X127199999Y-102300000D01*
X127850001Y-102300000D01*
X127874505Y-102301204D01*
X127874505Y-102301204D01*
G37*
D11*
X127525000Y-103000000D03*
D10*
G36*
X125824505Y-102301204D02*
G01*
X125848773Y-102304804D01*
X125872572Y-102310765D01*
X125895671Y-102319030D01*
X125917850Y-102329520D01*
X125938893Y-102342132D01*
X125958599Y-102356747D01*
X125976777Y-102373223D01*
X125993253Y-102391401D01*
X126007868Y-102411107D01*
X126020480Y-102432150D01*
X126030970Y-102454329D01*
X126039235Y-102477428D01*
X126045196Y-102501227D01*
X126048796Y-102525495D01*
X126050000Y-102549999D01*
X126050000Y-103450001D01*
X126048796Y-103474505D01*
X126045196Y-103498773D01*
X126039235Y-103522572D01*
X126030970Y-103545671D01*
X126020480Y-103567850D01*
X126007868Y-103588893D01*
X125993253Y-103608599D01*
X125976777Y-103626777D01*
X125958599Y-103643253D01*
X125938893Y-103657868D01*
X125917850Y-103670480D01*
X125895671Y-103680970D01*
X125872572Y-103689235D01*
X125848773Y-103695196D01*
X125824505Y-103698796D01*
X125800001Y-103700000D01*
X125149999Y-103700000D01*
X125125495Y-103698796D01*
X125101227Y-103695196D01*
X125077428Y-103689235D01*
X125054329Y-103680970D01*
X125032150Y-103670480D01*
X125011107Y-103657868D01*
X124991401Y-103643253D01*
X124973223Y-103626777D01*
X124956747Y-103608599D01*
X124942132Y-103588893D01*
X124929520Y-103567850D01*
X124919030Y-103545671D01*
X124910765Y-103522572D01*
X124904804Y-103498773D01*
X124901204Y-103474505D01*
X124900000Y-103450001D01*
X124900000Y-102549999D01*
X124901204Y-102525495D01*
X124904804Y-102501227D01*
X124910765Y-102477428D01*
X124919030Y-102454329D01*
X124929520Y-102432150D01*
X124942132Y-102411107D01*
X124956747Y-102391401D01*
X124973223Y-102373223D01*
X124991401Y-102356747D01*
X125011107Y-102342132D01*
X125032150Y-102329520D01*
X125054329Y-102319030D01*
X125077428Y-102310765D01*
X125101227Y-102304804D01*
X125125495Y-102301204D01*
X125149999Y-102300000D01*
X125800001Y-102300000D01*
X125824505Y-102301204D01*
X125824505Y-102301204D01*
G37*
D11*
X125475000Y-103000000D03*
D12*
X181470000Y-124330000D03*
X176670000Y-124330000D03*
X181470000Y-127130000D03*
X176670000Y-127130000D03*
X166230000Y-124330000D03*
X161430000Y-124330000D03*
X166230000Y-127130000D03*
X161430000Y-127130000D03*
X150990000Y-124330000D03*
X146190000Y-124330000D03*
X150990000Y-127130000D03*
X146190000Y-127130000D03*
D10*
G36*
X188064505Y-127571204D02*
G01*
X188088773Y-127574804D01*
X188112572Y-127580765D01*
X188135671Y-127589030D01*
X188157850Y-127599520D01*
X188178893Y-127612132D01*
X188198599Y-127626747D01*
X188216777Y-127643223D01*
X188233253Y-127661401D01*
X188247868Y-127681107D01*
X188260480Y-127702150D01*
X188270970Y-127724329D01*
X188279235Y-127747428D01*
X188285196Y-127771227D01*
X188288796Y-127795495D01*
X188290000Y-127819999D01*
X188290000Y-128720001D01*
X188288796Y-128744505D01*
X188285196Y-128768773D01*
X188279235Y-128792572D01*
X188270970Y-128815671D01*
X188260480Y-128837850D01*
X188247868Y-128858893D01*
X188233253Y-128878599D01*
X188216777Y-128896777D01*
X188198599Y-128913253D01*
X188178893Y-128927868D01*
X188157850Y-128940480D01*
X188135671Y-128950970D01*
X188112572Y-128959235D01*
X188088773Y-128965196D01*
X188064505Y-128968796D01*
X188040001Y-128970000D01*
X187389999Y-128970000D01*
X187365495Y-128968796D01*
X187341227Y-128965196D01*
X187317428Y-128959235D01*
X187294329Y-128950970D01*
X187272150Y-128940480D01*
X187251107Y-128927868D01*
X187231401Y-128913253D01*
X187213223Y-128896777D01*
X187196747Y-128878599D01*
X187182132Y-128858893D01*
X187169520Y-128837850D01*
X187159030Y-128815671D01*
X187150765Y-128792572D01*
X187144804Y-128768773D01*
X187141204Y-128744505D01*
X187140000Y-128720001D01*
X187140000Y-127819999D01*
X187141204Y-127795495D01*
X187144804Y-127771227D01*
X187150765Y-127747428D01*
X187159030Y-127724329D01*
X187169520Y-127702150D01*
X187182132Y-127681107D01*
X187196747Y-127661401D01*
X187213223Y-127643223D01*
X187231401Y-127626747D01*
X187251107Y-127612132D01*
X187272150Y-127599520D01*
X187294329Y-127589030D01*
X187317428Y-127580765D01*
X187341227Y-127574804D01*
X187365495Y-127571204D01*
X187389999Y-127570000D01*
X188040001Y-127570000D01*
X188064505Y-127571204D01*
X188064505Y-127571204D01*
G37*
D11*
X187715000Y-128270000D03*
D10*
G36*
X186014505Y-127571204D02*
G01*
X186038773Y-127574804D01*
X186062572Y-127580765D01*
X186085671Y-127589030D01*
X186107850Y-127599520D01*
X186128893Y-127612132D01*
X186148599Y-127626747D01*
X186166777Y-127643223D01*
X186183253Y-127661401D01*
X186197868Y-127681107D01*
X186210480Y-127702150D01*
X186220970Y-127724329D01*
X186229235Y-127747428D01*
X186235196Y-127771227D01*
X186238796Y-127795495D01*
X186240000Y-127819999D01*
X186240000Y-128720001D01*
X186238796Y-128744505D01*
X186235196Y-128768773D01*
X186229235Y-128792572D01*
X186220970Y-128815671D01*
X186210480Y-128837850D01*
X186197868Y-128858893D01*
X186183253Y-128878599D01*
X186166777Y-128896777D01*
X186148599Y-128913253D01*
X186128893Y-128927868D01*
X186107850Y-128940480D01*
X186085671Y-128950970D01*
X186062572Y-128959235D01*
X186038773Y-128965196D01*
X186014505Y-128968796D01*
X185990001Y-128970000D01*
X185339999Y-128970000D01*
X185315495Y-128968796D01*
X185291227Y-128965196D01*
X185267428Y-128959235D01*
X185244329Y-128950970D01*
X185222150Y-128940480D01*
X185201107Y-128927868D01*
X185181401Y-128913253D01*
X185163223Y-128896777D01*
X185146747Y-128878599D01*
X185132132Y-128858893D01*
X185119520Y-128837850D01*
X185109030Y-128815671D01*
X185100765Y-128792572D01*
X185094804Y-128768773D01*
X185091204Y-128744505D01*
X185090000Y-128720001D01*
X185090000Y-127819999D01*
X185091204Y-127795495D01*
X185094804Y-127771227D01*
X185100765Y-127747428D01*
X185109030Y-127724329D01*
X185119520Y-127702150D01*
X185132132Y-127681107D01*
X185146747Y-127661401D01*
X185163223Y-127643223D01*
X185181401Y-127626747D01*
X185201107Y-127612132D01*
X185222150Y-127599520D01*
X185244329Y-127589030D01*
X185267428Y-127580765D01*
X185291227Y-127574804D01*
X185315495Y-127571204D01*
X185339999Y-127570000D01*
X185990001Y-127570000D01*
X186014505Y-127571204D01*
X186014505Y-127571204D01*
G37*
D11*
X185665000Y-128270000D03*
D10*
G36*
X157374505Y-127571204D02*
G01*
X157398773Y-127574804D01*
X157422572Y-127580765D01*
X157445671Y-127589030D01*
X157467850Y-127599520D01*
X157488893Y-127612132D01*
X157508599Y-127626747D01*
X157526777Y-127643223D01*
X157543253Y-127661401D01*
X157557868Y-127681107D01*
X157570480Y-127702150D01*
X157580970Y-127724329D01*
X157589235Y-127747428D01*
X157595196Y-127771227D01*
X157598796Y-127795495D01*
X157600000Y-127819999D01*
X157600000Y-128720001D01*
X157598796Y-128744505D01*
X157595196Y-128768773D01*
X157589235Y-128792572D01*
X157580970Y-128815671D01*
X157570480Y-128837850D01*
X157557868Y-128858893D01*
X157543253Y-128878599D01*
X157526777Y-128896777D01*
X157508599Y-128913253D01*
X157488893Y-128927868D01*
X157467850Y-128940480D01*
X157445671Y-128950970D01*
X157422572Y-128959235D01*
X157398773Y-128965196D01*
X157374505Y-128968796D01*
X157350001Y-128970000D01*
X156699999Y-128970000D01*
X156675495Y-128968796D01*
X156651227Y-128965196D01*
X156627428Y-128959235D01*
X156604329Y-128950970D01*
X156582150Y-128940480D01*
X156561107Y-128927868D01*
X156541401Y-128913253D01*
X156523223Y-128896777D01*
X156506747Y-128878599D01*
X156492132Y-128858893D01*
X156479520Y-128837850D01*
X156469030Y-128815671D01*
X156460765Y-128792572D01*
X156454804Y-128768773D01*
X156451204Y-128744505D01*
X156450000Y-128720001D01*
X156450000Y-127819999D01*
X156451204Y-127795495D01*
X156454804Y-127771227D01*
X156460765Y-127747428D01*
X156469030Y-127724329D01*
X156479520Y-127702150D01*
X156492132Y-127681107D01*
X156506747Y-127661401D01*
X156523223Y-127643223D01*
X156541401Y-127626747D01*
X156561107Y-127612132D01*
X156582150Y-127599520D01*
X156604329Y-127589030D01*
X156627428Y-127580765D01*
X156651227Y-127574804D01*
X156675495Y-127571204D01*
X156699999Y-127570000D01*
X157350001Y-127570000D01*
X157374505Y-127571204D01*
X157374505Y-127571204D01*
G37*
D11*
X157025000Y-128270000D03*
D10*
G36*
X155324505Y-127571204D02*
G01*
X155348773Y-127574804D01*
X155372572Y-127580765D01*
X155395671Y-127589030D01*
X155417850Y-127599520D01*
X155438893Y-127612132D01*
X155458599Y-127626747D01*
X155476777Y-127643223D01*
X155493253Y-127661401D01*
X155507868Y-127681107D01*
X155520480Y-127702150D01*
X155530970Y-127724329D01*
X155539235Y-127747428D01*
X155545196Y-127771227D01*
X155548796Y-127795495D01*
X155550000Y-127819999D01*
X155550000Y-128720001D01*
X155548796Y-128744505D01*
X155545196Y-128768773D01*
X155539235Y-128792572D01*
X155530970Y-128815671D01*
X155520480Y-128837850D01*
X155507868Y-128858893D01*
X155493253Y-128878599D01*
X155476777Y-128896777D01*
X155458599Y-128913253D01*
X155438893Y-128927868D01*
X155417850Y-128940480D01*
X155395671Y-128950970D01*
X155372572Y-128959235D01*
X155348773Y-128965196D01*
X155324505Y-128968796D01*
X155300001Y-128970000D01*
X154649999Y-128970000D01*
X154625495Y-128968796D01*
X154601227Y-128965196D01*
X154577428Y-128959235D01*
X154554329Y-128950970D01*
X154532150Y-128940480D01*
X154511107Y-128927868D01*
X154491401Y-128913253D01*
X154473223Y-128896777D01*
X154456747Y-128878599D01*
X154442132Y-128858893D01*
X154429520Y-128837850D01*
X154419030Y-128815671D01*
X154410765Y-128792572D01*
X154404804Y-128768773D01*
X154401204Y-128744505D01*
X154400000Y-128720001D01*
X154400000Y-127819999D01*
X154401204Y-127795495D01*
X154404804Y-127771227D01*
X154410765Y-127747428D01*
X154419030Y-127724329D01*
X154429520Y-127702150D01*
X154442132Y-127681107D01*
X154456747Y-127661401D01*
X154473223Y-127643223D01*
X154491401Y-127626747D01*
X154511107Y-127612132D01*
X154532150Y-127599520D01*
X154554329Y-127589030D01*
X154577428Y-127580765D01*
X154601227Y-127574804D01*
X154625495Y-127571204D01*
X154649999Y-127570000D01*
X155300001Y-127570000D01*
X155324505Y-127571204D01*
X155324505Y-127571204D01*
G37*
D11*
X154975000Y-128270000D03*
D10*
G36*
X172824505Y-127571204D02*
G01*
X172848773Y-127574804D01*
X172872572Y-127580765D01*
X172895671Y-127589030D01*
X172917850Y-127599520D01*
X172938893Y-127612132D01*
X172958599Y-127626747D01*
X172976777Y-127643223D01*
X172993253Y-127661401D01*
X173007868Y-127681107D01*
X173020480Y-127702150D01*
X173030970Y-127724329D01*
X173039235Y-127747428D01*
X173045196Y-127771227D01*
X173048796Y-127795495D01*
X173050000Y-127819999D01*
X173050000Y-128720001D01*
X173048796Y-128744505D01*
X173045196Y-128768773D01*
X173039235Y-128792572D01*
X173030970Y-128815671D01*
X173020480Y-128837850D01*
X173007868Y-128858893D01*
X172993253Y-128878599D01*
X172976777Y-128896777D01*
X172958599Y-128913253D01*
X172938893Y-128927868D01*
X172917850Y-128940480D01*
X172895671Y-128950970D01*
X172872572Y-128959235D01*
X172848773Y-128965196D01*
X172824505Y-128968796D01*
X172800001Y-128970000D01*
X172149999Y-128970000D01*
X172125495Y-128968796D01*
X172101227Y-128965196D01*
X172077428Y-128959235D01*
X172054329Y-128950970D01*
X172032150Y-128940480D01*
X172011107Y-128927868D01*
X171991401Y-128913253D01*
X171973223Y-128896777D01*
X171956747Y-128878599D01*
X171942132Y-128858893D01*
X171929520Y-128837850D01*
X171919030Y-128815671D01*
X171910765Y-128792572D01*
X171904804Y-128768773D01*
X171901204Y-128744505D01*
X171900000Y-128720001D01*
X171900000Y-127819999D01*
X171901204Y-127795495D01*
X171904804Y-127771227D01*
X171910765Y-127747428D01*
X171919030Y-127724329D01*
X171929520Y-127702150D01*
X171942132Y-127681107D01*
X171956747Y-127661401D01*
X171973223Y-127643223D01*
X171991401Y-127626747D01*
X172011107Y-127612132D01*
X172032150Y-127599520D01*
X172054329Y-127589030D01*
X172077428Y-127580765D01*
X172101227Y-127574804D01*
X172125495Y-127571204D01*
X172149999Y-127570000D01*
X172800001Y-127570000D01*
X172824505Y-127571204D01*
X172824505Y-127571204D01*
G37*
D11*
X172475000Y-128270000D03*
D10*
G36*
X170774505Y-127571204D02*
G01*
X170798773Y-127574804D01*
X170822572Y-127580765D01*
X170845671Y-127589030D01*
X170867850Y-127599520D01*
X170888893Y-127612132D01*
X170908599Y-127626747D01*
X170926777Y-127643223D01*
X170943253Y-127661401D01*
X170957868Y-127681107D01*
X170970480Y-127702150D01*
X170980970Y-127724329D01*
X170989235Y-127747428D01*
X170995196Y-127771227D01*
X170998796Y-127795495D01*
X171000000Y-127819999D01*
X171000000Y-128720001D01*
X170998796Y-128744505D01*
X170995196Y-128768773D01*
X170989235Y-128792572D01*
X170980970Y-128815671D01*
X170970480Y-128837850D01*
X170957868Y-128858893D01*
X170943253Y-128878599D01*
X170926777Y-128896777D01*
X170908599Y-128913253D01*
X170888893Y-128927868D01*
X170867850Y-128940480D01*
X170845671Y-128950970D01*
X170822572Y-128959235D01*
X170798773Y-128965196D01*
X170774505Y-128968796D01*
X170750001Y-128970000D01*
X170099999Y-128970000D01*
X170075495Y-128968796D01*
X170051227Y-128965196D01*
X170027428Y-128959235D01*
X170004329Y-128950970D01*
X169982150Y-128940480D01*
X169961107Y-128927868D01*
X169941401Y-128913253D01*
X169923223Y-128896777D01*
X169906747Y-128878599D01*
X169892132Y-128858893D01*
X169879520Y-128837850D01*
X169869030Y-128815671D01*
X169860765Y-128792572D01*
X169854804Y-128768773D01*
X169851204Y-128744505D01*
X169850000Y-128720001D01*
X169850000Y-127819999D01*
X169851204Y-127795495D01*
X169854804Y-127771227D01*
X169860765Y-127747428D01*
X169869030Y-127724329D01*
X169879520Y-127702150D01*
X169892132Y-127681107D01*
X169906747Y-127661401D01*
X169923223Y-127643223D01*
X169941401Y-127626747D01*
X169961107Y-127612132D01*
X169982150Y-127599520D01*
X170004329Y-127589030D01*
X170027428Y-127580765D01*
X170051227Y-127574804D01*
X170075495Y-127571204D01*
X170099999Y-127570000D01*
X170750001Y-127570000D01*
X170774505Y-127571204D01*
X170774505Y-127571204D01*
G37*
D11*
X170425000Y-128270000D03*
D10*
G36*
X133374505Y-99301204D02*
G01*
X133398773Y-99304804D01*
X133422572Y-99310765D01*
X133445671Y-99319030D01*
X133467850Y-99329520D01*
X133488893Y-99342132D01*
X133508599Y-99356747D01*
X133526777Y-99373223D01*
X133543253Y-99391401D01*
X133557868Y-99411107D01*
X133570480Y-99432150D01*
X133580970Y-99454329D01*
X133589235Y-99477428D01*
X133595196Y-99501227D01*
X133598796Y-99525495D01*
X133600000Y-99549999D01*
X133600000Y-100450001D01*
X133598796Y-100474505D01*
X133595196Y-100498773D01*
X133589235Y-100522572D01*
X133580970Y-100545671D01*
X133570480Y-100567850D01*
X133557868Y-100588893D01*
X133543253Y-100608599D01*
X133526777Y-100626777D01*
X133508599Y-100643253D01*
X133488893Y-100657868D01*
X133467850Y-100670480D01*
X133445671Y-100680970D01*
X133422572Y-100689235D01*
X133398773Y-100695196D01*
X133374505Y-100698796D01*
X133350001Y-100700000D01*
X132699999Y-100700000D01*
X132675495Y-100698796D01*
X132651227Y-100695196D01*
X132627428Y-100689235D01*
X132604329Y-100680970D01*
X132582150Y-100670480D01*
X132561107Y-100657868D01*
X132541401Y-100643253D01*
X132523223Y-100626777D01*
X132506747Y-100608599D01*
X132492132Y-100588893D01*
X132479520Y-100567850D01*
X132469030Y-100545671D01*
X132460765Y-100522572D01*
X132454804Y-100498773D01*
X132451204Y-100474505D01*
X132450000Y-100450001D01*
X132450000Y-99549999D01*
X132451204Y-99525495D01*
X132454804Y-99501227D01*
X132460765Y-99477428D01*
X132469030Y-99454329D01*
X132479520Y-99432150D01*
X132492132Y-99411107D01*
X132506747Y-99391401D01*
X132523223Y-99373223D01*
X132541401Y-99356747D01*
X132561107Y-99342132D01*
X132582150Y-99329520D01*
X132604329Y-99319030D01*
X132627428Y-99310765D01*
X132651227Y-99304804D01*
X132675495Y-99301204D01*
X132699999Y-99300000D01*
X133350001Y-99300000D01*
X133374505Y-99301204D01*
X133374505Y-99301204D01*
G37*
D11*
X133025000Y-100000000D03*
D10*
G36*
X131324505Y-99301204D02*
G01*
X131348773Y-99304804D01*
X131372572Y-99310765D01*
X131395671Y-99319030D01*
X131417850Y-99329520D01*
X131438893Y-99342132D01*
X131458599Y-99356747D01*
X131476777Y-99373223D01*
X131493253Y-99391401D01*
X131507868Y-99411107D01*
X131520480Y-99432150D01*
X131530970Y-99454329D01*
X131539235Y-99477428D01*
X131545196Y-99501227D01*
X131548796Y-99525495D01*
X131550000Y-99549999D01*
X131550000Y-100450001D01*
X131548796Y-100474505D01*
X131545196Y-100498773D01*
X131539235Y-100522572D01*
X131530970Y-100545671D01*
X131520480Y-100567850D01*
X131507868Y-100588893D01*
X131493253Y-100608599D01*
X131476777Y-100626777D01*
X131458599Y-100643253D01*
X131438893Y-100657868D01*
X131417850Y-100670480D01*
X131395671Y-100680970D01*
X131372572Y-100689235D01*
X131348773Y-100695196D01*
X131324505Y-100698796D01*
X131300001Y-100700000D01*
X130649999Y-100700000D01*
X130625495Y-100698796D01*
X130601227Y-100695196D01*
X130577428Y-100689235D01*
X130554329Y-100680970D01*
X130532150Y-100670480D01*
X130511107Y-100657868D01*
X130491401Y-100643253D01*
X130473223Y-100626777D01*
X130456747Y-100608599D01*
X130442132Y-100588893D01*
X130429520Y-100567850D01*
X130419030Y-100545671D01*
X130410765Y-100522572D01*
X130404804Y-100498773D01*
X130401204Y-100474505D01*
X130400000Y-100450001D01*
X130400000Y-99549999D01*
X130401204Y-99525495D01*
X130404804Y-99501227D01*
X130410765Y-99477428D01*
X130419030Y-99454329D01*
X130429520Y-99432150D01*
X130442132Y-99411107D01*
X130456747Y-99391401D01*
X130473223Y-99373223D01*
X130491401Y-99356747D01*
X130511107Y-99342132D01*
X130532150Y-99329520D01*
X130554329Y-99319030D01*
X130577428Y-99310765D01*
X130601227Y-99304804D01*
X130625495Y-99301204D01*
X130649999Y-99300000D01*
X131300001Y-99300000D01*
X131324505Y-99301204D01*
X131324505Y-99301204D01*
G37*
D11*
X130975000Y-100000000D03*
D10*
G36*
X133374505Y-96301204D02*
G01*
X133398773Y-96304804D01*
X133422572Y-96310765D01*
X133445671Y-96319030D01*
X133467850Y-96329520D01*
X133488893Y-96342132D01*
X133508599Y-96356747D01*
X133526777Y-96373223D01*
X133543253Y-96391401D01*
X133557868Y-96411107D01*
X133570480Y-96432150D01*
X133580970Y-96454329D01*
X133589235Y-96477428D01*
X133595196Y-96501227D01*
X133598796Y-96525495D01*
X133600000Y-96549999D01*
X133600000Y-97450001D01*
X133598796Y-97474505D01*
X133595196Y-97498773D01*
X133589235Y-97522572D01*
X133580970Y-97545671D01*
X133570480Y-97567850D01*
X133557868Y-97588893D01*
X133543253Y-97608599D01*
X133526777Y-97626777D01*
X133508599Y-97643253D01*
X133488893Y-97657868D01*
X133467850Y-97670480D01*
X133445671Y-97680970D01*
X133422572Y-97689235D01*
X133398773Y-97695196D01*
X133374505Y-97698796D01*
X133350001Y-97700000D01*
X132699999Y-97700000D01*
X132675495Y-97698796D01*
X132651227Y-97695196D01*
X132627428Y-97689235D01*
X132604329Y-97680970D01*
X132582150Y-97670480D01*
X132561107Y-97657868D01*
X132541401Y-97643253D01*
X132523223Y-97626777D01*
X132506747Y-97608599D01*
X132492132Y-97588893D01*
X132479520Y-97567850D01*
X132469030Y-97545671D01*
X132460765Y-97522572D01*
X132454804Y-97498773D01*
X132451204Y-97474505D01*
X132450000Y-97450001D01*
X132450000Y-96549999D01*
X132451204Y-96525495D01*
X132454804Y-96501227D01*
X132460765Y-96477428D01*
X132469030Y-96454329D01*
X132479520Y-96432150D01*
X132492132Y-96411107D01*
X132506747Y-96391401D01*
X132523223Y-96373223D01*
X132541401Y-96356747D01*
X132561107Y-96342132D01*
X132582150Y-96329520D01*
X132604329Y-96319030D01*
X132627428Y-96310765D01*
X132651227Y-96304804D01*
X132675495Y-96301204D01*
X132699999Y-96300000D01*
X133350001Y-96300000D01*
X133374505Y-96301204D01*
X133374505Y-96301204D01*
G37*
D11*
X133025000Y-97000000D03*
D10*
G36*
X131324505Y-96301204D02*
G01*
X131348773Y-96304804D01*
X131372572Y-96310765D01*
X131395671Y-96319030D01*
X131417850Y-96329520D01*
X131438893Y-96342132D01*
X131458599Y-96356747D01*
X131476777Y-96373223D01*
X131493253Y-96391401D01*
X131507868Y-96411107D01*
X131520480Y-96432150D01*
X131530970Y-96454329D01*
X131539235Y-96477428D01*
X131545196Y-96501227D01*
X131548796Y-96525495D01*
X131550000Y-96549999D01*
X131550000Y-97450001D01*
X131548796Y-97474505D01*
X131545196Y-97498773D01*
X131539235Y-97522572D01*
X131530970Y-97545671D01*
X131520480Y-97567850D01*
X131507868Y-97588893D01*
X131493253Y-97608599D01*
X131476777Y-97626777D01*
X131458599Y-97643253D01*
X131438893Y-97657868D01*
X131417850Y-97670480D01*
X131395671Y-97680970D01*
X131372572Y-97689235D01*
X131348773Y-97695196D01*
X131324505Y-97698796D01*
X131300001Y-97700000D01*
X130649999Y-97700000D01*
X130625495Y-97698796D01*
X130601227Y-97695196D01*
X130577428Y-97689235D01*
X130554329Y-97680970D01*
X130532150Y-97670480D01*
X130511107Y-97657868D01*
X130491401Y-97643253D01*
X130473223Y-97626777D01*
X130456747Y-97608599D01*
X130442132Y-97588893D01*
X130429520Y-97567850D01*
X130419030Y-97545671D01*
X130410765Y-97522572D01*
X130404804Y-97498773D01*
X130401204Y-97474505D01*
X130400000Y-97450001D01*
X130400000Y-96549999D01*
X130401204Y-96525495D01*
X130404804Y-96501227D01*
X130410765Y-96477428D01*
X130419030Y-96454329D01*
X130429520Y-96432150D01*
X130442132Y-96411107D01*
X130456747Y-96391401D01*
X130473223Y-96373223D01*
X130491401Y-96356747D01*
X130511107Y-96342132D01*
X130532150Y-96329520D01*
X130554329Y-96319030D01*
X130577428Y-96310765D01*
X130601227Y-96304804D01*
X130625495Y-96301204D01*
X130649999Y-96300000D01*
X131300001Y-96300000D01*
X131324505Y-96301204D01*
X131324505Y-96301204D01*
G37*
D11*
X130975000Y-97000000D03*
D10*
G36*
X133374505Y-102301204D02*
G01*
X133398773Y-102304804D01*
X133422572Y-102310765D01*
X133445671Y-102319030D01*
X133467850Y-102329520D01*
X133488893Y-102342132D01*
X133508599Y-102356747D01*
X133526777Y-102373223D01*
X133543253Y-102391401D01*
X133557868Y-102411107D01*
X133570480Y-102432150D01*
X133580970Y-102454329D01*
X133589235Y-102477428D01*
X133595196Y-102501227D01*
X133598796Y-102525495D01*
X133600000Y-102549999D01*
X133600000Y-103450001D01*
X133598796Y-103474505D01*
X133595196Y-103498773D01*
X133589235Y-103522572D01*
X133580970Y-103545671D01*
X133570480Y-103567850D01*
X133557868Y-103588893D01*
X133543253Y-103608599D01*
X133526777Y-103626777D01*
X133508599Y-103643253D01*
X133488893Y-103657868D01*
X133467850Y-103670480D01*
X133445671Y-103680970D01*
X133422572Y-103689235D01*
X133398773Y-103695196D01*
X133374505Y-103698796D01*
X133350001Y-103700000D01*
X132699999Y-103700000D01*
X132675495Y-103698796D01*
X132651227Y-103695196D01*
X132627428Y-103689235D01*
X132604329Y-103680970D01*
X132582150Y-103670480D01*
X132561107Y-103657868D01*
X132541401Y-103643253D01*
X132523223Y-103626777D01*
X132506747Y-103608599D01*
X132492132Y-103588893D01*
X132479520Y-103567850D01*
X132469030Y-103545671D01*
X132460765Y-103522572D01*
X132454804Y-103498773D01*
X132451204Y-103474505D01*
X132450000Y-103450001D01*
X132450000Y-102549999D01*
X132451204Y-102525495D01*
X132454804Y-102501227D01*
X132460765Y-102477428D01*
X132469030Y-102454329D01*
X132479520Y-102432150D01*
X132492132Y-102411107D01*
X132506747Y-102391401D01*
X132523223Y-102373223D01*
X132541401Y-102356747D01*
X132561107Y-102342132D01*
X132582150Y-102329520D01*
X132604329Y-102319030D01*
X132627428Y-102310765D01*
X132651227Y-102304804D01*
X132675495Y-102301204D01*
X132699999Y-102300000D01*
X133350001Y-102300000D01*
X133374505Y-102301204D01*
X133374505Y-102301204D01*
G37*
D11*
X133025000Y-103000000D03*
D10*
G36*
X131324505Y-102301204D02*
G01*
X131348773Y-102304804D01*
X131372572Y-102310765D01*
X131395671Y-102319030D01*
X131417850Y-102329520D01*
X131438893Y-102342132D01*
X131458599Y-102356747D01*
X131476777Y-102373223D01*
X131493253Y-102391401D01*
X131507868Y-102411107D01*
X131520480Y-102432150D01*
X131530970Y-102454329D01*
X131539235Y-102477428D01*
X131545196Y-102501227D01*
X131548796Y-102525495D01*
X131550000Y-102549999D01*
X131550000Y-103450001D01*
X131548796Y-103474505D01*
X131545196Y-103498773D01*
X131539235Y-103522572D01*
X131530970Y-103545671D01*
X131520480Y-103567850D01*
X131507868Y-103588893D01*
X131493253Y-103608599D01*
X131476777Y-103626777D01*
X131458599Y-103643253D01*
X131438893Y-103657868D01*
X131417850Y-103670480D01*
X131395671Y-103680970D01*
X131372572Y-103689235D01*
X131348773Y-103695196D01*
X131324505Y-103698796D01*
X131300001Y-103700000D01*
X130649999Y-103700000D01*
X130625495Y-103698796D01*
X130601227Y-103695196D01*
X130577428Y-103689235D01*
X130554329Y-103680970D01*
X130532150Y-103670480D01*
X130511107Y-103657868D01*
X130491401Y-103643253D01*
X130473223Y-103626777D01*
X130456747Y-103608599D01*
X130442132Y-103588893D01*
X130429520Y-103567850D01*
X130419030Y-103545671D01*
X130410765Y-103522572D01*
X130404804Y-103498773D01*
X130401204Y-103474505D01*
X130400000Y-103450001D01*
X130400000Y-102549999D01*
X130401204Y-102525495D01*
X130404804Y-102501227D01*
X130410765Y-102477428D01*
X130419030Y-102454329D01*
X130429520Y-102432150D01*
X130442132Y-102411107D01*
X130456747Y-102391401D01*
X130473223Y-102373223D01*
X130491401Y-102356747D01*
X130511107Y-102342132D01*
X130532150Y-102329520D01*
X130554329Y-102319030D01*
X130577428Y-102310765D01*
X130601227Y-102304804D01*
X130625495Y-102301204D01*
X130649999Y-102300000D01*
X131300001Y-102300000D01*
X131324505Y-102301204D01*
X131324505Y-102301204D01*
G37*
D11*
X130975000Y-103000000D03*
M02*
