M48
;DRILL file {KiCad 6.0.0-rc1-unknown-3024ded~66~ubuntu18.04.1} date Mon 05 Nov 2018 07:27:46 PM PST
;FORMAT={-:-/ absolute / metric / decimal}
FMAT,2
METRIC
T1C0.400
T2C0.800
T3C1.000
T4C1.016
T5C1.200
T6C1.500
T7C1.016
T8C1.300
%
G90
G05
M71
T1
X9.017Y13.945
X25.527Y21.565
X31.877Y24.105
X31.877Y12.675
X32.893Y9.169
X39.7Y11.201
X52.197Y7.595
X54.915Y42.164
X56.261Y35.611
X57.277Y15.215
X57.353Y6.858
X59.741Y39.624
X60.376Y8.992
X63.983Y23.727
X68.291Y39.506
X70.79Y39.929
X72.542Y41.707
X76.327Y25.375
T2
X76.327Y31.685
X76.327Y29.185
T3
X3.937Y34.185
X3.937Y31.685
X3.937Y29.185
X18.437Y34.185
X18.437Y29.185
X42.037Y39.345
X42.037Y24.105
X44.577Y39.345
X44.577Y24.105
X47.117Y39.345
X47.117Y24.105
X49.657Y39.345
X49.657Y24.105
X52.197Y39.345
X52.197Y24.105
X54.737Y39.345
X54.737Y24.105
T4
X29.227Y18.915
X29.227Y3.675
X31.767Y18.915
X31.767Y3.675
X34.307Y18.915
X34.307Y3.675
X36.847Y18.915
X36.847Y3.675
X39.387Y18.915
X39.387Y3.675
X41.927Y18.915
X41.927Y3.675
X44.467Y18.915
X44.467Y3.675
X47.007Y18.915
X47.007Y3.675
X49.547Y18.915
X49.547Y3.675
X52.087Y18.915
X52.087Y3.675
X54.627Y18.915
X54.627Y3.675
X57.167Y18.915
X57.167Y3.675
X59.707Y18.915
X59.707Y3.675
X62.247Y18.915
X62.247Y3.675
X64.787Y18.915
X64.787Y3.675
X67.327Y18.915
X67.327Y3.675
X69.867Y18.915
X69.867Y3.675
T5
X16.637Y11.405
X16.637Y8.865
X16.637Y6.325
X16.637Y3.785
T7
X26.687Y18.915
X26.687Y3.675
X72.407Y18.915
X72.407Y3.675
T8
X3.457Y6.725
T6
G00X10.787Y37.285
M15
G01X12.087Y37.285
M16
G05
G00X10.787Y26.085
M15
G01X12.087Y26.085
M16
G05
T0
M30
