G04 #@! TF.GenerationSoftware,KiCad,Pcbnew,(5.1.4)-1*
G04 #@! TF.CreationDate,2019-09-08T20:59:56-07:00*
G04 #@! TF.ProjectId,arduino-micro,61726475-696e-46f2-9d6d-6963726f2e6b,rev?*
G04 #@! TF.SameCoordinates,Original*
G04 #@! TF.FileFunction,Copper,L1,Top*
G04 #@! TF.FilePolarity,Positive*
%FSLAX46Y46*%
G04 Gerber Fmt 4.6, Leading zero omitted, Abs format (unit mm)*
G04 Created by KiCad (PCBNEW (5.1.4)-1) date 2019-09-08 20:59:56*
%MOMM*%
%LPD*%
G04 APERTURE LIST*
%ADD10C,0.100000*%
%ADD11C,1.150000*%
%ADD12O,2.200000X1.740000*%
%ADD13C,1.740000*%
%ADD14O,2.400000X1.200000*%
%ADD15O,1.727200X1.727200*%
%ADD16R,1.727200X1.727200*%
%ADD17R,1.600000X1.000000*%
%ADD18C,1.500000*%
%ADD19R,1.500000X1.500000*%
%ADD20R,2.000000X2.000000*%
%ADD21C,2.000000*%
%ADD22R,3.200000X2.000000*%
%ADD23C,0.800000*%
%ADD24C,0.250000*%
G04 APERTURE END LIST*
D10*
G36*
X127874505Y-96301204D02*
G01*
X127898773Y-96304804D01*
X127922572Y-96310765D01*
X127945671Y-96319030D01*
X127967850Y-96329520D01*
X127988893Y-96342132D01*
X128008599Y-96356747D01*
X128026777Y-96373223D01*
X128043253Y-96391401D01*
X128057868Y-96411107D01*
X128070480Y-96432150D01*
X128080970Y-96454329D01*
X128089235Y-96477428D01*
X128095196Y-96501227D01*
X128098796Y-96525495D01*
X128100000Y-96549999D01*
X128100000Y-97450001D01*
X128098796Y-97474505D01*
X128095196Y-97498773D01*
X128089235Y-97522572D01*
X128080970Y-97545671D01*
X128070480Y-97567850D01*
X128057868Y-97588893D01*
X128043253Y-97608599D01*
X128026777Y-97626777D01*
X128008599Y-97643253D01*
X127988893Y-97657868D01*
X127967850Y-97670480D01*
X127945671Y-97680970D01*
X127922572Y-97689235D01*
X127898773Y-97695196D01*
X127874505Y-97698796D01*
X127850001Y-97700000D01*
X127199999Y-97700000D01*
X127175495Y-97698796D01*
X127151227Y-97695196D01*
X127127428Y-97689235D01*
X127104329Y-97680970D01*
X127082150Y-97670480D01*
X127061107Y-97657868D01*
X127041401Y-97643253D01*
X127023223Y-97626777D01*
X127006747Y-97608599D01*
X126992132Y-97588893D01*
X126979520Y-97567850D01*
X126969030Y-97545671D01*
X126960765Y-97522572D01*
X126954804Y-97498773D01*
X126951204Y-97474505D01*
X126950000Y-97450001D01*
X126950000Y-96549999D01*
X126951204Y-96525495D01*
X126954804Y-96501227D01*
X126960765Y-96477428D01*
X126969030Y-96454329D01*
X126979520Y-96432150D01*
X126992132Y-96411107D01*
X127006747Y-96391401D01*
X127023223Y-96373223D01*
X127041401Y-96356747D01*
X127061107Y-96342132D01*
X127082150Y-96329520D01*
X127104329Y-96319030D01*
X127127428Y-96310765D01*
X127151227Y-96304804D01*
X127175495Y-96301204D01*
X127199999Y-96300000D01*
X127850001Y-96300000D01*
X127874505Y-96301204D01*
X127874505Y-96301204D01*
G37*
D11*
X127525000Y-97000000D03*
D10*
G36*
X125824505Y-96301204D02*
G01*
X125848773Y-96304804D01*
X125872572Y-96310765D01*
X125895671Y-96319030D01*
X125917850Y-96329520D01*
X125938893Y-96342132D01*
X125958599Y-96356747D01*
X125976777Y-96373223D01*
X125993253Y-96391401D01*
X126007868Y-96411107D01*
X126020480Y-96432150D01*
X126030970Y-96454329D01*
X126039235Y-96477428D01*
X126045196Y-96501227D01*
X126048796Y-96525495D01*
X126050000Y-96549999D01*
X126050000Y-97450001D01*
X126048796Y-97474505D01*
X126045196Y-97498773D01*
X126039235Y-97522572D01*
X126030970Y-97545671D01*
X126020480Y-97567850D01*
X126007868Y-97588893D01*
X125993253Y-97608599D01*
X125976777Y-97626777D01*
X125958599Y-97643253D01*
X125938893Y-97657868D01*
X125917850Y-97670480D01*
X125895671Y-97680970D01*
X125872572Y-97689235D01*
X125848773Y-97695196D01*
X125824505Y-97698796D01*
X125800001Y-97700000D01*
X125149999Y-97700000D01*
X125125495Y-97698796D01*
X125101227Y-97695196D01*
X125077428Y-97689235D01*
X125054329Y-97680970D01*
X125032150Y-97670480D01*
X125011107Y-97657868D01*
X124991401Y-97643253D01*
X124973223Y-97626777D01*
X124956747Y-97608599D01*
X124942132Y-97588893D01*
X124929520Y-97567850D01*
X124919030Y-97545671D01*
X124910765Y-97522572D01*
X124904804Y-97498773D01*
X124901204Y-97474505D01*
X124900000Y-97450001D01*
X124900000Y-96549999D01*
X124901204Y-96525495D01*
X124904804Y-96501227D01*
X124910765Y-96477428D01*
X124919030Y-96454329D01*
X124929520Y-96432150D01*
X124942132Y-96411107D01*
X124956747Y-96391401D01*
X124973223Y-96373223D01*
X124991401Y-96356747D01*
X125011107Y-96342132D01*
X125032150Y-96329520D01*
X125054329Y-96319030D01*
X125077428Y-96310765D01*
X125101227Y-96304804D01*
X125125495Y-96301204D01*
X125149999Y-96300000D01*
X125800001Y-96300000D01*
X125824505Y-96301204D01*
X125824505Y-96301204D01*
G37*
D11*
X125475000Y-97000000D03*
D10*
G36*
X127874505Y-102301204D02*
G01*
X127898773Y-102304804D01*
X127922572Y-102310765D01*
X127945671Y-102319030D01*
X127967850Y-102329520D01*
X127988893Y-102342132D01*
X128008599Y-102356747D01*
X128026777Y-102373223D01*
X128043253Y-102391401D01*
X128057868Y-102411107D01*
X128070480Y-102432150D01*
X128080970Y-102454329D01*
X128089235Y-102477428D01*
X128095196Y-102501227D01*
X128098796Y-102525495D01*
X128100000Y-102549999D01*
X128100000Y-103450001D01*
X128098796Y-103474505D01*
X128095196Y-103498773D01*
X128089235Y-103522572D01*
X128080970Y-103545671D01*
X128070480Y-103567850D01*
X128057868Y-103588893D01*
X128043253Y-103608599D01*
X128026777Y-103626777D01*
X128008599Y-103643253D01*
X127988893Y-103657868D01*
X127967850Y-103670480D01*
X127945671Y-103680970D01*
X127922572Y-103689235D01*
X127898773Y-103695196D01*
X127874505Y-103698796D01*
X127850001Y-103700000D01*
X127199999Y-103700000D01*
X127175495Y-103698796D01*
X127151227Y-103695196D01*
X127127428Y-103689235D01*
X127104329Y-103680970D01*
X127082150Y-103670480D01*
X127061107Y-103657868D01*
X127041401Y-103643253D01*
X127023223Y-103626777D01*
X127006747Y-103608599D01*
X126992132Y-103588893D01*
X126979520Y-103567850D01*
X126969030Y-103545671D01*
X126960765Y-103522572D01*
X126954804Y-103498773D01*
X126951204Y-103474505D01*
X126950000Y-103450001D01*
X126950000Y-102549999D01*
X126951204Y-102525495D01*
X126954804Y-102501227D01*
X126960765Y-102477428D01*
X126969030Y-102454329D01*
X126979520Y-102432150D01*
X126992132Y-102411107D01*
X127006747Y-102391401D01*
X127023223Y-102373223D01*
X127041401Y-102356747D01*
X127061107Y-102342132D01*
X127082150Y-102329520D01*
X127104329Y-102319030D01*
X127127428Y-102310765D01*
X127151227Y-102304804D01*
X127175495Y-102301204D01*
X127199999Y-102300000D01*
X127850001Y-102300000D01*
X127874505Y-102301204D01*
X127874505Y-102301204D01*
G37*
D11*
X127525000Y-103000000D03*
D10*
G36*
X125824505Y-102301204D02*
G01*
X125848773Y-102304804D01*
X125872572Y-102310765D01*
X125895671Y-102319030D01*
X125917850Y-102329520D01*
X125938893Y-102342132D01*
X125958599Y-102356747D01*
X125976777Y-102373223D01*
X125993253Y-102391401D01*
X126007868Y-102411107D01*
X126020480Y-102432150D01*
X126030970Y-102454329D01*
X126039235Y-102477428D01*
X126045196Y-102501227D01*
X126048796Y-102525495D01*
X126050000Y-102549999D01*
X126050000Y-103450001D01*
X126048796Y-103474505D01*
X126045196Y-103498773D01*
X126039235Y-103522572D01*
X126030970Y-103545671D01*
X126020480Y-103567850D01*
X126007868Y-103588893D01*
X125993253Y-103608599D01*
X125976777Y-103626777D01*
X125958599Y-103643253D01*
X125938893Y-103657868D01*
X125917850Y-103670480D01*
X125895671Y-103680970D01*
X125872572Y-103689235D01*
X125848773Y-103695196D01*
X125824505Y-103698796D01*
X125800001Y-103700000D01*
X125149999Y-103700000D01*
X125125495Y-103698796D01*
X125101227Y-103695196D01*
X125077428Y-103689235D01*
X125054329Y-103680970D01*
X125032150Y-103670480D01*
X125011107Y-103657868D01*
X124991401Y-103643253D01*
X124973223Y-103626777D01*
X124956747Y-103608599D01*
X124942132Y-103588893D01*
X124929520Y-103567850D01*
X124919030Y-103545671D01*
X124910765Y-103522572D01*
X124904804Y-103498773D01*
X124901204Y-103474505D01*
X124900000Y-103450001D01*
X124900000Y-102549999D01*
X124901204Y-102525495D01*
X124904804Y-102501227D01*
X124910765Y-102477428D01*
X124919030Y-102454329D01*
X124929520Y-102432150D01*
X124942132Y-102411107D01*
X124956747Y-102391401D01*
X124973223Y-102373223D01*
X124991401Y-102356747D01*
X125011107Y-102342132D01*
X125032150Y-102329520D01*
X125054329Y-102319030D01*
X125077428Y-102310765D01*
X125101227Y-102304804D01*
X125125495Y-102301204D01*
X125149999Y-102300000D01*
X125800001Y-102300000D01*
X125824505Y-102301204D01*
X125824505Y-102301204D01*
G37*
D11*
X125475000Y-103000000D03*
D12*
X119500000Y-106880000D03*
X119500000Y-109420000D03*
X119500000Y-111960000D03*
D10*
G36*
X120374505Y-113631204D02*
G01*
X120398773Y-113634804D01*
X120422572Y-113640765D01*
X120445671Y-113649030D01*
X120467850Y-113659520D01*
X120488893Y-113672132D01*
X120508599Y-113686747D01*
X120526777Y-113703223D01*
X120543253Y-113721401D01*
X120557868Y-113741107D01*
X120570480Y-113762150D01*
X120580970Y-113784329D01*
X120589235Y-113807428D01*
X120595196Y-113831227D01*
X120598796Y-113855495D01*
X120600000Y-113879999D01*
X120600000Y-115120001D01*
X120598796Y-115144505D01*
X120595196Y-115168773D01*
X120589235Y-115192572D01*
X120580970Y-115215671D01*
X120570480Y-115237850D01*
X120557868Y-115258893D01*
X120543253Y-115278599D01*
X120526777Y-115296777D01*
X120508599Y-115313253D01*
X120488893Y-115327868D01*
X120467850Y-115340480D01*
X120445671Y-115350970D01*
X120422572Y-115359235D01*
X120398773Y-115365196D01*
X120374505Y-115368796D01*
X120350001Y-115370000D01*
X118649999Y-115370000D01*
X118625495Y-115368796D01*
X118601227Y-115365196D01*
X118577428Y-115359235D01*
X118554329Y-115350970D01*
X118532150Y-115340480D01*
X118511107Y-115327868D01*
X118491401Y-115313253D01*
X118473223Y-115296777D01*
X118456747Y-115278599D01*
X118442132Y-115258893D01*
X118429520Y-115237850D01*
X118419030Y-115215671D01*
X118410765Y-115192572D01*
X118404804Y-115168773D01*
X118401204Y-115144505D01*
X118400000Y-115120001D01*
X118400000Y-113879999D01*
X118401204Y-113855495D01*
X118404804Y-113831227D01*
X118410765Y-113807428D01*
X118419030Y-113784329D01*
X118429520Y-113762150D01*
X118442132Y-113741107D01*
X118456747Y-113721401D01*
X118473223Y-113703223D01*
X118491401Y-113686747D01*
X118511107Y-113672132D01*
X118532150Y-113659520D01*
X118554329Y-113649030D01*
X118577428Y-113640765D01*
X118601227Y-113634804D01*
X118625495Y-113631204D01*
X118649999Y-113630000D01*
X120350001Y-113630000D01*
X120374505Y-113631204D01*
X120374505Y-113631204D01*
G37*
D13*
X119500000Y-114500000D03*
D12*
X130000000Y-106880000D03*
X130000000Y-109420000D03*
X130000000Y-111960000D03*
D10*
G36*
X130874505Y-113631204D02*
G01*
X130898773Y-113634804D01*
X130922572Y-113640765D01*
X130945671Y-113649030D01*
X130967850Y-113659520D01*
X130988893Y-113672132D01*
X131008599Y-113686747D01*
X131026777Y-113703223D01*
X131043253Y-113721401D01*
X131057868Y-113741107D01*
X131070480Y-113762150D01*
X131080970Y-113784329D01*
X131089235Y-113807428D01*
X131095196Y-113831227D01*
X131098796Y-113855495D01*
X131100000Y-113879999D01*
X131100000Y-115120001D01*
X131098796Y-115144505D01*
X131095196Y-115168773D01*
X131089235Y-115192572D01*
X131080970Y-115215671D01*
X131070480Y-115237850D01*
X131057868Y-115258893D01*
X131043253Y-115278599D01*
X131026777Y-115296777D01*
X131008599Y-115313253D01*
X130988893Y-115327868D01*
X130967850Y-115340480D01*
X130945671Y-115350970D01*
X130922572Y-115359235D01*
X130898773Y-115365196D01*
X130874505Y-115368796D01*
X130850001Y-115370000D01*
X129149999Y-115370000D01*
X129125495Y-115368796D01*
X129101227Y-115365196D01*
X129077428Y-115359235D01*
X129054329Y-115350970D01*
X129032150Y-115340480D01*
X129011107Y-115327868D01*
X128991401Y-115313253D01*
X128973223Y-115296777D01*
X128956747Y-115278599D01*
X128942132Y-115258893D01*
X128929520Y-115237850D01*
X128919030Y-115215671D01*
X128910765Y-115192572D01*
X128904804Y-115168773D01*
X128901204Y-115144505D01*
X128900000Y-115120001D01*
X128900000Y-113879999D01*
X128901204Y-113855495D01*
X128904804Y-113831227D01*
X128910765Y-113807428D01*
X128919030Y-113784329D01*
X128929520Y-113762150D01*
X128942132Y-113741107D01*
X128956747Y-113721401D01*
X128973223Y-113703223D01*
X128991401Y-113686747D01*
X129011107Y-113672132D01*
X129032150Y-113659520D01*
X129054329Y-113649030D01*
X129077428Y-113640765D01*
X129101227Y-113634804D01*
X129125495Y-113631204D01*
X129149999Y-113630000D01*
X130850001Y-113630000D01*
X130874505Y-113631204D01*
X130874505Y-113631204D01*
G37*
D13*
X130000000Y-114500000D03*
D14*
X121200000Y-98300000D03*
X121200000Y-100600000D03*
X116700000Y-96800000D03*
X116700000Y-102500000D03*
D15*
X148480000Y-133240000D03*
X166260000Y-133240000D03*
X168800000Y-133240000D03*
X171340000Y-133240000D03*
X173880000Y-133240000D03*
X176420000Y-133240000D03*
X161180000Y-133240000D03*
X184040000Y-118000000D03*
X186580000Y-118000000D03*
X186580000Y-133240000D03*
X181500000Y-133240000D03*
X181500000Y-118000000D03*
X178960000Y-118000000D03*
X176420000Y-118000000D03*
X173880000Y-118000000D03*
X171340000Y-118000000D03*
X168800000Y-118000000D03*
X166260000Y-118000000D03*
X163720000Y-118000000D03*
X161180000Y-118000000D03*
X151020000Y-118000000D03*
X153560000Y-118000000D03*
X148480000Y-118000000D03*
X156100000Y-133240000D03*
X184040000Y-133240000D03*
X158640000Y-133240000D03*
X153560000Y-133240000D03*
X158640000Y-118000000D03*
X151020000Y-133240000D03*
X178960000Y-133240000D03*
X145940000Y-133240000D03*
D16*
X145940000Y-118000000D03*
D15*
X156100000Y-118000000D03*
X163720000Y-133240000D03*
D17*
X181470000Y-124330000D03*
X176670000Y-124330000D03*
X181470000Y-127130000D03*
X176670000Y-127130000D03*
X166230000Y-124330000D03*
X161430000Y-124330000D03*
X166230000Y-127130000D03*
X161430000Y-127130000D03*
X150990000Y-124330000D03*
X146190000Y-124330000D03*
X150990000Y-127130000D03*
X146190000Y-127130000D03*
D18*
X168910000Y-110490000D03*
X166370000Y-110490000D03*
X163830000Y-110490000D03*
X161290000Y-110490000D03*
X158750000Y-110490000D03*
X156210000Y-110490000D03*
X156210000Y-95250000D03*
X158750000Y-95250000D03*
X161290000Y-95250000D03*
X163830000Y-95250000D03*
X166370000Y-95250000D03*
D19*
X168910000Y-95250000D03*
D20*
X137500000Y-128500000D03*
D21*
X137500000Y-126000000D03*
X137500000Y-123500000D03*
D22*
X130000000Y-131600000D03*
X130000000Y-120400000D03*
D18*
X123000000Y-128500000D03*
X123000000Y-123500000D03*
D10*
G36*
X188064505Y-127571204D02*
G01*
X188088773Y-127574804D01*
X188112572Y-127580765D01*
X188135671Y-127589030D01*
X188157850Y-127599520D01*
X188178893Y-127612132D01*
X188198599Y-127626747D01*
X188216777Y-127643223D01*
X188233253Y-127661401D01*
X188247868Y-127681107D01*
X188260480Y-127702150D01*
X188270970Y-127724329D01*
X188279235Y-127747428D01*
X188285196Y-127771227D01*
X188288796Y-127795495D01*
X188290000Y-127819999D01*
X188290000Y-128720001D01*
X188288796Y-128744505D01*
X188285196Y-128768773D01*
X188279235Y-128792572D01*
X188270970Y-128815671D01*
X188260480Y-128837850D01*
X188247868Y-128858893D01*
X188233253Y-128878599D01*
X188216777Y-128896777D01*
X188198599Y-128913253D01*
X188178893Y-128927868D01*
X188157850Y-128940480D01*
X188135671Y-128950970D01*
X188112572Y-128959235D01*
X188088773Y-128965196D01*
X188064505Y-128968796D01*
X188040001Y-128970000D01*
X187389999Y-128970000D01*
X187365495Y-128968796D01*
X187341227Y-128965196D01*
X187317428Y-128959235D01*
X187294329Y-128950970D01*
X187272150Y-128940480D01*
X187251107Y-128927868D01*
X187231401Y-128913253D01*
X187213223Y-128896777D01*
X187196747Y-128878599D01*
X187182132Y-128858893D01*
X187169520Y-128837850D01*
X187159030Y-128815671D01*
X187150765Y-128792572D01*
X187144804Y-128768773D01*
X187141204Y-128744505D01*
X187140000Y-128720001D01*
X187140000Y-127819999D01*
X187141204Y-127795495D01*
X187144804Y-127771227D01*
X187150765Y-127747428D01*
X187159030Y-127724329D01*
X187169520Y-127702150D01*
X187182132Y-127681107D01*
X187196747Y-127661401D01*
X187213223Y-127643223D01*
X187231401Y-127626747D01*
X187251107Y-127612132D01*
X187272150Y-127599520D01*
X187294329Y-127589030D01*
X187317428Y-127580765D01*
X187341227Y-127574804D01*
X187365495Y-127571204D01*
X187389999Y-127570000D01*
X188040001Y-127570000D01*
X188064505Y-127571204D01*
X188064505Y-127571204D01*
G37*
D11*
X187715000Y-128270000D03*
D10*
G36*
X186014505Y-127571204D02*
G01*
X186038773Y-127574804D01*
X186062572Y-127580765D01*
X186085671Y-127589030D01*
X186107850Y-127599520D01*
X186128893Y-127612132D01*
X186148599Y-127626747D01*
X186166777Y-127643223D01*
X186183253Y-127661401D01*
X186197868Y-127681107D01*
X186210480Y-127702150D01*
X186220970Y-127724329D01*
X186229235Y-127747428D01*
X186235196Y-127771227D01*
X186238796Y-127795495D01*
X186240000Y-127819999D01*
X186240000Y-128720001D01*
X186238796Y-128744505D01*
X186235196Y-128768773D01*
X186229235Y-128792572D01*
X186220970Y-128815671D01*
X186210480Y-128837850D01*
X186197868Y-128858893D01*
X186183253Y-128878599D01*
X186166777Y-128896777D01*
X186148599Y-128913253D01*
X186128893Y-128927868D01*
X186107850Y-128940480D01*
X186085671Y-128950970D01*
X186062572Y-128959235D01*
X186038773Y-128965196D01*
X186014505Y-128968796D01*
X185990001Y-128970000D01*
X185339999Y-128970000D01*
X185315495Y-128968796D01*
X185291227Y-128965196D01*
X185267428Y-128959235D01*
X185244329Y-128950970D01*
X185222150Y-128940480D01*
X185201107Y-128927868D01*
X185181401Y-128913253D01*
X185163223Y-128896777D01*
X185146747Y-128878599D01*
X185132132Y-128858893D01*
X185119520Y-128837850D01*
X185109030Y-128815671D01*
X185100765Y-128792572D01*
X185094804Y-128768773D01*
X185091204Y-128744505D01*
X185090000Y-128720001D01*
X185090000Y-127819999D01*
X185091204Y-127795495D01*
X185094804Y-127771227D01*
X185100765Y-127747428D01*
X185109030Y-127724329D01*
X185119520Y-127702150D01*
X185132132Y-127681107D01*
X185146747Y-127661401D01*
X185163223Y-127643223D01*
X185181401Y-127626747D01*
X185201107Y-127612132D01*
X185222150Y-127599520D01*
X185244329Y-127589030D01*
X185267428Y-127580765D01*
X185291227Y-127574804D01*
X185315495Y-127571204D01*
X185339999Y-127570000D01*
X185990001Y-127570000D01*
X186014505Y-127571204D01*
X186014505Y-127571204D01*
G37*
D11*
X185665000Y-128270000D03*
D10*
G36*
X157374505Y-127571204D02*
G01*
X157398773Y-127574804D01*
X157422572Y-127580765D01*
X157445671Y-127589030D01*
X157467850Y-127599520D01*
X157488893Y-127612132D01*
X157508599Y-127626747D01*
X157526777Y-127643223D01*
X157543253Y-127661401D01*
X157557868Y-127681107D01*
X157570480Y-127702150D01*
X157580970Y-127724329D01*
X157589235Y-127747428D01*
X157595196Y-127771227D01*
X157598796Y-127795495D01*
X157600000Y-127819999D01*
X157600000Y-128720001D01*
X157598796Y-128744505D01*
X157595196Y-128768773D01*
X157589235Y-128792572D01*
X157580970Y-128815671D01*
X157570480Y-128837850D01*
X157557868Y-128858893D01*
X157543253Y-128878599D01*
X157526777Y-128896777D01*
X157508599Y-128913253D01*
X157488893Y-128927868D01*
X157467850Y-128940480D01*
X157445671Y-128950970D01*
X157422572Y-128959235D01*
X157398773Y-128965196D01*
X157374505Y-128968796D01*
X157350001Y-128970000D01*
X156699999Y-128970000D01*
X156675495Y-128968796D01*
X156651227Y-128965196D01*
X156627428Y-128959235D01*
X156604329Y-128950970D01*
X156582150Y-128940480D01*
X156561107Y-128927868D01*
X156541401Y-128913253D01*
X156523223Y-128896777D01*
X156506747Y-128878599D01*
X156492132Y-128858893D01*
X156479520Y-128837850D01*
X156469030Y-128815671D01*
X156460765Y-128792572D01*
X156454804Y-128768773D01*
X156451204Y-128744505D01*
X156450000Y-128720001D01*
X156450000Y-127819999D01*
X156451204Y-127795495D01*
X156454804Y-127771227D01*
X156460765Y-127747428D01*
X156469030Y-127724329D01*
X156479520Y-127702150D01*
X156492132Y-127681107D01*
X156506747Y-127661401D01*
X156523223Y-127643223D01*
X156541401Y-127626747D01*
X156561107Y-127612132D01*
X156582150Y-127599520D01*
X156604329Y-127589030D01*
X156627428Y-127580765D01*
X156651227Y-127574804D01*
X156675495Y-127571204D01*
X156699999Y-127570000D01*
X157350001Y-127570000D01*
X157374505Y-127571204D01*
X157374505Y-127571204D01*
G37*
D11*
X157025000Y-128270000D03*
D10*
G36*
X155324505Y-127571204D02*
G01*
X155348773Y-127574804D01*
X155372572Y-127580765D01*
X155395671Y-127589030D01*
X155417850Y-127599520D01*
X155438893Y-127612132D01*
X155458599Y-127626747D01*
X155476777Y-127643223D01*
X155493253Y-127661401D01*
X155507868Y-127681107D01*
X155520480Y-127702150D01*
X155530970Y-127724329D01*
X155539235Y-127747428D01*
X155545196Y-127771227D01*
X155548796Y-127795495D01*
X155550000Y-127819999D01*
X155550000Y-128720001D01*
X155548796Y-128744505D01*
X155545196Y-128768773D01*
X155539235Y-128792572D01*
X155530970Y-128815671D01*
X155520480Y-128837850D01*
X155507868Y-128858893D01*
X155493253Y-128878599D01*
X155476777Y-128896777D01*
X155458599Y-128913253D01*
X155438893Y-128927868D01*
X155417850Y-128940480D01*
X155395671Y-128950970D01*
X155372572Y-128959235D01*
X155348773Y-128965196D01*
X155324505Y-128968796D01*
X155300001Y-128970000D01*
X154649999Y-128970000D01*
X154625495Y-128968796D01*
X154601227Y-128965196D01*
X154577428Y-128959235D01*
X154554329Y-128950970D01*
X154532150Y-128940480D01*
X154511107Y-128927868D01*
X154491401Y-128913253D01*
X154473223Y-128896777D01*
X154456747Y-128878599D01*
X154442132Y-128858893D01*
X154429520Y-128837850D01*
X154419030Y-128815671D01*
X154410765Y-128792572D01*
X154404804Y-128768773D01*
X154401204Y-128744505D01*
X154400000Y-128720001D01*
X154400000Y-127819999D01*
X154401204Y-127795495D01*
X154404804Y-127771227D01*
X154410765Y-127747428D01*
X154419030Y-127724329D01*
X154429520Y-127702150D01*
X154442132Y-127681107D01*
X154456747Y-127661401D01*
X154473223Y-127643223D01*
X154491401Y-127626747D01*
X154511107Y-127612132D01*
X154532150Y-127599520D01*
X154554329Y-127589030D01*
X154577428Y-127580765D01*
X154601227Y-127574804D01*
X154625495Y-127571204D01*
X154649999Y-127570000D01*
X155300001Y-127570000D01*
X155324505Y-127571204D01*
X155324505Y-127571204D01*
G37*
D11*
X154975000Y-128270000D03*
D10*
G36*
X172824505Y-127571204D02*
G01*
X172848773Y-127574804D01*
X172872572Y-127580765D01*
X172895671Y-127589030D01*
X172917850Y-127599520D01*
X172938893Y-127612132D01*
X172958599Y-127626747D01*
X172976777Y-127643223D01*
X172993253Y-127661401D01*
X173007868Y-127681107D01*
X173020480Y-127702150D01*
X173030970Y-127724329D01*
X173039235Y-127747428D01*
X173045196Y-127771227D01*
X173048796Y-127795495D01*
X173050000Y-127819999D01*
X173050000Y-128720001D01*
X173048796Y-128744505D01*
X173045196Y-128768773D01*
X173039235Y-128792572D01*
X173030970Y-128815671D01*
X173020480Y-128837850D01*
X173007868Y-128858893D01*
X172993253Y-128878599D01*
X172976777Y-128896777D01*
X172958599Y-128913253D01*
X172938893Y-128927868D01*
X172917850Y-128940480D01*
X172895671Y-128950970D01*
X172872572Y-128959235D01*
X172848773Y-128965196D01*
X172824505Y-128968796D01*
X172800001Y-128970000D01*
X172149999Y-128970000D01*
X172125495Y-128968796D01*
X172101227Y-128965196D01*
X172077428Y-128959235D01*
X172054329Y-128950970D01*
X172032150Y-128940480D01*
X172011107Y-128927868D01*
X171991401Y-128913253D01*
X171973223Y-128896777D01*
X171956747Y-128878599D01*
X171942132Y-128858893D01*
X171929520Y-128837850D01*
X171919030Y-128815671D01*
X171910765Y-128792572D01*
X171904804Y-128768773D01*
X171901204Y-128744505D01*
X171900000Y-128720001D01*
X171900000Y-127819999D01*
X171901204Y-127795495D01*
X171904804Y-127771227D01*
X171910765Y-127747428D01*
X171919030Y-127724329D01*
X171929520Y-127702150D01*
X171942132Y-127681107D01*
X171956747Y-127661401D01*
X171973223Y-127643223D01*
X171991401Y-127626747D01*
X172011107Y-127612132D01*
X172032150Y-127599520D01*
X172054329Y-127589030D01*
X172077428Y-127580765D01*
X172101227Y-127574804D01*
X172125495Y-127571204D01*
X172149999Y-127570000D01*
X172800001Y-127570000D01*
X172824505Y-127571204D01*
X172824505Y-127571204D01*
G37*
D11*
X172475000Y-128270000D03*
D10*
G36*
X170774505Y-127571204D02*
G01*
X170798773Y-127574804D01*
X170822572Y-127580765D01*
X170845671Y-127589030D01*
X170867850Y-127599520D01*
X170888893Y-127612132D01*
X170908599Y-127626747D01*
X170926777Y-127643223D01*
X170943253Y-127661401D01*
X170957868Y-127681107D01*
X170970480Y-127702150D01*
X170980970Y-127724329D01*
X170989235Y-127747428D01*
X170995196Y-127771227D01*
X170998796Y-127795495D01*
X171000000Y-127819999D01*
X171000000Y-128720001D01*
X170998796Y-128744505D01*
X170995196Y-128768773D01*
X170989235Y-128792572D01*
X170980970Y-128815671D01*
X170970480Y-128837850D01*
X170957868Y-128858893D01*
X170943253Y-128878599D01*
X170926777Y-128896777D01*
X170908599Y-128913253D01*
X170888893Y-128927868D01*
X170867850Y-128940480D01*
X170845671Y-128950970D01*
X170822572Y-128959235D01*
X170798773Y-128965196D01*
X170774505Y-128968796D01*
X170750001Y-128970000D01*
X170099999Y-128970000D01*
X170075495Y-128968796D01*
X170051227Y-128965196D01*
X170027428Y-128959235D01*
X170004329Y-128950970D01*
X169982150Y-128940480D01*
X169961107Y-128927868D01*
X169941401Y-128913253D01*
X169923223Y-128896777D01*
X169906747Y-128878599D01*
X169892132Y-128858893D01*
X169879520Y-128837850D01*
X169869030Y-128815671D01*
X169860765Y-128792572D01*
X169854804Y-128768773D01*
X169851204Y-128744505D01*
X169850000Y-128720001D01*
X169850000Y-127819999D01*
X169851204Y-127795495D01*
X169854804Y-127771227D01*
X169860765Y-127747428D01*
X169869030Y-127724329D01*
X169879520Y-127702150D01*
X169892132Y-127681107D01*
X169906747Y-127661401D01*
X169923223Y-127643223D01*
X169941401Y-127626747D01*
X169961107Y-127612132D01*
X169982150Y-127599520D01*
X170004329Y-127589030D01*
X170027428Y-127580765D01*
X170051227Y-127574804D01*
X170075495Y-127571204D01*
X170099999Y-127570000D01*
X170750001Y-127570000D01*
X170774505Y-127571204D01*
X170774505Y-127571204D01*
G37*
D11*
X170425000Y-128270000D03*
D10*
G36*
X133374505Y-99301204D02*
G01*
X133398773Y-99304804D01*
X133422572Y-99310765D01*
X133445671Y-99319030D01*
X133467850Y-99329520D01*
X133488893Y-99342132D01*
X133508599Y-99356747D01*
X133526777Y-99373223D01*
X133543253Y-99391401D01*
X133557868Y-99411107D01*
X133570480Y-99432150D01*
X133580970Y-99454329D01*
X133589235Y-99477428D01*
X133595196Y-99501227D01*
X133598796Y-99525495D01*
X133600000Y-99549999D01*
X133600000Y-100450001D01*
X133598796Y-100474505D01*
X133595196Y-100498773D01*
X133589235Y-100522572D01*
X133580970Y-100545671D01*
X133570480Y-100567850D01*
X133557868Y-100588893D01*
X133543253Y-100608599D01*
X133526777Y-100626777D01*
X133508599Y-100643253D01*
X133488893Y-100657868D01*
X133467850Y-100670480D01*
X133445671Y-100680970D01*
X133422572Y-100689235D01*
X133398773Y-100695196D01*
X133374505Y-100698796D01*
X133350001Y-100700000D01*
X132699999Y-100700000D01*
X132675495Y-100698796D01*
X132651227Y-100695196D01*
X132627428Y-100689235D01*
X132604329Y-100680970D01*
X132582150Y-100670480D01*
X132561107Y-100657868D01*
X132541401Y-100643253D01*
X132523223Y-100626777D01*
X132506747Y-100608599D01*
X132492132Y-100588893D01*
X132479520Y-100567850D01*
X132469030Y-100545671D01*
X132460765Y-100522572D01*
X132454804Y-100498773D01*
X132451204Y-100474505D01*
X132450000Y-100450001D01*
X132450000Y-99549999D01*
X132451204Y-99525495D01*
X132454804Y-99501227D01*
X132460765Y-99477428D01*
X132469030Y-99454329D01*
X132479520Y-99432150D01*
X132492132Y-99411107D01*
X132506747Y-99391401D01*
X132523223Y-99373223D01*
X132541401Y-99356747D01*
X132561107Y-99342132D01*
X132582150Y-99329520D01*
X132604329Y-99319030D01*
X132627428Y-99310765D01*
X132651227Y-99304804D01*
X132675495Y-99301204D01*
X132699999Y-99300000D01*
X133350001Y-99300000D01*
X133374505Y-99301204D01*
X133374505Y-99301204D01*
G37*
D11*
X133025000Y-100000000D03*
D10*
G36*
X131324505Y-99301204D02*
G01*
X131348773Y-99304804D01*
X131372572Y-99310765D01*
X131395671Y-99319030D01*
X131417850Y-99329520D01*
X131438893Y-99342132D01*
X131458599Y-99356747D01*
X131476777Y-99373223D01*
X131493253Y-99391401D01*
X131507868Y-99411107D01*
X131520480Y-99432150D01*
X131530970Y-99454329D01*
X131539235Y-99477428D01*
X131545196Y-99501227D01*
X131548796Y-99525495D01*
X131550000Y-99549999D01*
X131550000Y-100450001D01*
X131548796Y-100474505D01*
X131545196Y-100498773D01*
X131539235Y-100522572D01*
X131530970Y-100545671D01*
X131520480Y-100567850D01*
X131507868Y-100588893D01*
X131493253Y-100608599D01*
X131476777Y-100626777D01*
X131458599Y-100643253D01*
X131438893Y-100657868D01*
X131417850Y-100670480D01*
X131395671Y-100680970D01*
X131372572Y-100689235D01*
X131348773Y-100695196D01*
X131324505Y-100698796D01*
X131300001Y-100700000D01*
X130649999Y-100700000D01*
X130625495Y-100698796D01*
X130601227Y-100695196D01*
X130577428Y-100689235D01*
X130554329Y-100680970D01*
X130532150Y-100670480D01*
X130511107Y-100657868D01*
X130491401Y-100643253D01*
X130473223Y-100626777D01*
X130456747Y-100608599D01*
X130442132Y-100588893D01*
X130429520Y-100567850D01*
X130419030Y-100545671D01*
X130410765Y-100522572D01*
X130404804Y-100498773D01*
X130401204Y-100474505D01*
X130400000Y-100450001D01*
X130400000Y-99549999D01*
X130401204Y-99525495D01*
X130404804Y-99501227D01*
X130410765Y-99477428D01*
X130419030Y-99454329D01*
X130429520Y-99432150D01*
X130442132Y-99411107D01*
X130456747Y-99391401D01*
X130473223Y-99373223D01*
X130491401Y-99356747D01*
X130511107Y-99342132D01*
X130532150Y-99329520D01*
X130554329Y-99319030D01*
X130577428Y-99310765D01*
X130601227Y-99304804D01*
X130625495Y-99301204D01*
X130649999Y-99300000D01*
X131300001Y-99300000D01*
X131324505Y-99301204D01*
X131324505Y-99301204D01*
G37*
D11*
X130975000Y-100000000D03*
D10*
G36*
X133374505Y-96301204D02*
G01*
X133398773Y-96304804D01*
X133422572Y-96310765D01*
X133445671Y-96319030D01*
X133467850Y-96329520D01*
X133488893Y-96342132D01*
X133508599Y-96356747D01*
X133526777Y-96373223D01*
X133543253Y-96391401D01*
X133557868Y-96411107D01*
X133570480Y-96432150D01*
X133580970Y-96454329D01*
X133589235Y-96477428D01*
X133595196Y-96501227D01*
X133598796Y-96525495D01*
X133600000Y-96549999D01*
X133600000Y-97450001D01*
X133598796Y-97474505D01*
X133595196Y-97498773D01*
X133589235Y-97522572D01*
X133580970Y-97545671D01*
X133570480Y-97567850D01*
X133557868Y-97588893D01*
X133543253Y-97608599D01*
X133526777Y-97626777D01*
X133508599Y-97643253D01*
X133488893Y-97657868D01*
X133467850Y-97670480D01*
X133445671Y-97680970D01*
X133422572Y-97689235D01*
X133398773Y-97695196D01*
X133374505Y-97698796D01*
X133350001Y-97700000D01*
X132699999Y-97700000D01*
X132675495Y-97698796D01*
X132651227Y-97695196D01*
X132627428Y-97689235D01*
X132604329Y-97680970D01*
X132582150Y-97670480D01*
X132561107Y-97657868D01*
X132541401Y-97643253D01*
X132523223Y-97626777D01*
X132506747Y-97608599D01*
X132492132Y-97588893D01*
X132479520Y-97567850D01*
X132469030Y-97545671D01*
X132460765Y-97522572D01*
X132454804Y-97498773D01*
X132451204Y-97474505D01*
X132450000Y-97450001D01*
X132450000Y-96549999D01*
X132451204Y-96525495D01*
X132454804Y-96501227D01*
X132460765Y-96477428D01*
X132469030Y-96454329D01*
X132479520Y-96432150D01*
X132492132Y-96411107D01*
X132506747Y-96391401D01*
X132523223Y-96373223D01*
X132541401Y-96356747D01*
X132561107Y-96342132D01*
X132582150Y-96329520D01*
X132604329Y-96319030D01*
X132627428Y-96310765D01*
X132651227Y-96304804D01*
X132675495Y-96301204D01*
X132699999Y-96300000D01*
X133350001Y-96300000D01*
X133374505Y-96301204D01*
X133374505Y-96301204D01*
G37*
D11*
X133025000Y-97000000D03*
D10*
G36*
X131324505Y-96301204D02*
G01*
X131348773Y-96304804D01*
X131372572Y-96310765D01*
X131395671Y-96319030D01*
X131417850Y-96329520D01*
X131438893Y-96342132D01*
X131458599Y-96356747D01*
X131476777Y-96373223D01*
X131493253Y-96391401D01*
X131507868Y-96411107D01*
X131520480Y-96432150D01*
X131530970Y-96454329D01*
X131539235Y-96477428D01*
X131545196Y-96501227D01*
X131548796Y-96525495D01*
X131550000Y-96549999D01*
X131550000Y-97450001D01*
X131548796Y-97474505D01*
X131545196Y-97498773D01*
X131539235Y-97522572D01*
X131530970Y-97545671D01*
X131520480Y-97567850D01*
X131507868Y-97588893D01*
X131493253Y-97608599D01*
X131476777Y-97626777D01*
X131458599Y-97643253D01*
X131438893Y-97657868D01*
X131417850Y-97670480D01*
X131395671Y-97680970D01*
X131372572Y-97689235D01*
X131348773Y-97695196D01*
X131324505Y-97698796D01*
X131300001Y-97700000D01*
X130649999Y-97700000D01*
X130625495Y-97698796D01*
X130601227Y-97695196D01*
X130577428Y-97689235D01*
X130554329Y-97680970D01*
X130532150Y-97670480D01*
X130511107Y-97657868D01*
X130491401Y-97643253D01*
X130473223Y-97626777D01*
X130456747Y-97608599D01*
X130442132Y-97588893D01*
X130429520Y-97567850D01*
X130419030Y-97545671D01*
X130410765Y-97522572D01*
X130404804Y-97498773D01*
X130401204Y-97474505D01*
X130400000Y-97450001D01*
X130400000Y-96549999D01*
X130401204Y-96525495D01*
X130404804Y-96501227D01*
X130410765Y-96477428D01*
X130419030Y-96454329D01*
X130429520Y-96432150D01*
X130442132Y-96411107D01*
X130456747Y-96391401D01*
X130473223Y-96373223D01*
X130491401Y-96356747D01*
X130511107Y-96342132D01*
X130532150Y-96329520D01*
X130554329Y-96319030D01*
X130577428Y-96310765D01*
X130601227Y-96304804D01*
X130625495Y-96301204D01*
X130649999Y-96300000D01*
X131300001Y-96300000D01*
X131324505Y-96301204D01*
X131324505Y-96301204D01*
G37*
D11*
X130975000Y-97000000D03*
D10*
G36*
X133374505Y-102301204D02*
G01*
X133398773Y-102304804D01*
X133422572Y-102310765D01*
X133445671Y-102319030D01*
X133467850Y-102329520D01*
X133488893Y-102342132D01*
X133508599Y-102356747D01*
X133526777Y-102373223D01*
X133543253Y-102391401D01*
X133557868Y-102411107D01*
X133570480Y-102432150D01*
X133580970Y-102454329D01*
X133589235Y-102477428D01*
X133595196Y-102501227D01*
X133598796Y-102525495D01*
X133600000Y-102549999D01*
X133600000Y-103450001D01*
X133598796Y-103474505D01*
X133595196Y-103498773D01*
X133589235Y-103522572D01*
X133580970Y-103545671D01*
X133570480Y-103567850D01*
X133557868Y-103588893D01*
X133543253Y-103608599D01*
X133526777Y-103626777D01*
X133508599Y-103643253D01*
X133488893Y-103657868D01*
X133467850Y-103670480D01*
X133445671Y-103680970D01*
X133422572Y-103689235D01*
X133398773Y-103695196D01*
X133374505Y-103698796D01*
X133350001Y-103700000D01*
X132699999Y-103700000D01*
X132675495Y-103698796D01*
X132651227Y-103695196D01*
X132627428Y-103689235D01*
X132604329Y-103680970D01*
X132582150Y-103670480D01*
X132561107Y-103657868D01*
X132541401Y-103643253D01*
X132523223Y-103626777D01*
X132506747Y-103608599D01*
X132492132Y-103588893D01*
X132479520Y-103567850D01*
X132469030Y-103545671D01*
X132460765Y-103522572D01*
X132454804Y-103498773D01*
X132451204Y-103474505D01*
X132450000Y-103450001D01*
X132450000Y-102549999D01*
X132451204Y-102525495D01*
X132454804Y-102501227D01*
X132460765Y-102477428D01*
X132469030Y-102454329D01*
X132479520Y-102432150D01*
X132492132Y-102411107D01*
X132506747Y-102391401D01*
X132523223Y-102373223D01*
X132541401Y-102356747D01*
X132561107Y-102342132D01*
X132582150Y-102329520D01*
X132604329Y-102319030D01*
X132627428Y-102310765D01*
X132651227Y-102304804D01*
X132675495Y-102301204D01*
X132699999Y-102300000D01*
X133350001Y-102300000D01*
X133374505Y-102301204D01*
X133374505Y-102301204D01*
G37*
D11*
X133025000Y-103000000D03*
D10*
G36*
X131324505Y-102301204D02*
G01*
X131348773Y-102304804D01*
X131372572Y-102310765D01*
X131395671Y-102319030D01*
X131417850Y-102329520D01*
X131438893Y-102342132D01*
X131458599Y-102356747D01*
X131476777Y-102373223D01*
X131493253Y-102391401D01*
X131507868Y-102411107D01*
X131520480Y-102432150D01*
X131530970Y-102454329D01*
X131539235Y-102477428D01*
X131545196Y-102501227D01*
X131548796Y-102525495D01*
X131550000Y-102549999D01*
X131550000Y-103450001D01*
X131548796Y-103474505D01*
X131545196Y-103498773D01*
X131539235Y-103522572D01*
X131530970Y-103545671D01*
X131520480Y-103567850D01*
X131507868Y-103588893D01*
X131493253Y-103608599D01*
X131476777Y-103626777D01*
X131458599Y-103643253D01*
X131438893Y-103657868D01*
X131417850Y-103670480D01*
X131395671Y-103680970D01*
X131372572Y-103689235D01*
X131348773Y-103695196D01*
X131324505Y-103698796D01*
X131300001Y-103700000D01*
X130649999Y-103700000D01*
X130625495Y-103698796D01*
X130601227Y-103695196D01*
X130577428Y-103689235D01*
X130554329Y-103680970D01*
X130532150Y-103670480D01*
X130511107Y-103657868D01*
X130491401Y-103643253D01*
X130473223Y-103626777D01*
X130456747Y-103608599D01*
X130442132Y-103588893D01*
X130429520Y-103567850D01*
X130419030Y-103545671D01*
X130410765Y-103522572D01*
X130404804Y-103498773D01*
X130401204Y-103474505D01*
X130400000Y-103450001D01*
X130400000Y-102549999D01*
X130401204Y-102525495D01*
X130404804Y-102501227D01*
X130410765Y-102477428D01*
X130419030Y-102454329D01*
X130429520Y-102432150D01*
X130442132Y-102411107D01*
X130456747Y-102391401D01*
X130473223Y-102373223D01*
X130491401Y-102356747D01*
X130511107Y-102342132D01*
X130532150Y-102329520D01*
X130554329Y-102319030D01*
X130577428Y-102310765D01*
X130601227Y-102304804D01*
X130625495Y-102301204D01*
X130649999Y-102300000D01*
X131300001Y-102300000D01*
X131324505Y-102301204D01*
X131324505Y-102301204D01*
G37*
D11*
X130975000Y-103000000D03*
D23*
X184000000Y-131000000D03*
X187000000Y-131000000D03*
X156797997Y-131202003D03*
X134658516Y-115824979D03*
X163000000Y-122000000D03*
X178000000Y-122000000D03*
X154285010Y-124012660D03*
X160000000Y-97000000D03*
X170500000Y-98500000D03*
X174500000Y-109500000D03*
X153000000Y-107000000D03*
X162000000Y-105500000D03*
X176000000Y-101000000D03*
X181500000Y-101000000D03*
X143000000Y-131000000D03*
X152000000Y-107000000D03*
X143000000Y-120725010D03*
X158359499Y-120725010D03*
X124000000Y-100500000D03*
X128000000Y-100500000D03*
X134000000Y-106500000D03*
X136500000Y-115000000D03*
X169000000Y-115000000D03*
X160517898Y-120725010D03*
X139046315Y-121675019D03*
X148000000Y-114000000D03*
X140000000Y-111500000D03*
X143079890Y-104815566D03*
X161650939Y-104562888D03*
X144000000Y-104000000D03*
X160894517Y-103908786D03*
X153500000Y-110500000D03*
X150935670Y-111799385D03*
X154000000Y-120000000D03*
X155017898Y-119274990D03*
D24*
X172475000Y-130525000D02*
X172475000Y-128270000D01*
X172000000Y-131000000D02*
X172475000Y-130525000D01*
X172000000Y-131000000D02*
X184000000Y-131000000D01*
X187000000Y-128985000D02*
X187715000Y-128270000D01*
X187000000Y-131000000D02*
X187000000Y-128985000D01*
X171797997Y-131202003D02*
X157363682Y-131202003D01*
X157363682Y-131202003D02*
X156797997Y-131202003D01*
X172000000Y-131000000D02*
X171797997Y-131202003D01*
X157025000Y-130975000D02*
X156797997Y-131202003D01*
X157025000Y-128270000D02*
X157025000Y-130975000D01*
X130300000Y-100000000D02*
X130975000Y-100000000D01*
X129725000Y-100000000D02*
X130300000Y-100000000D01*
X127525000Y-97800000D02*
X129725000Y-100000000D01*
X127525000Y-97000000D02*
X127525000Y-97800000D01*
X134000000Y-119470000D02*
X134000000Y-122500000D01*
X134000000Y-122500000D02*
X137500000Y-126000000D01*
X116700000Y-102500000D02*
X116700000Y-103350000D01*
X116700000Y-103350000D02*
X116550000Y-103500000D01*
X116550000Y-103500000D02*
X116550000Y-114050000D01*
X117000000Y-114500000D02*
X119500000Y-114500000D01*
X116550000Y-114050000D02*
X117000000Y-114500000D01*
X130000000Y-114500000D02*
X128800000Y-114500000D01*
X119500000Y-114500000D02*
X130000000Y-114500000D01*
X116700000Y-101650000D02*
X116700000Y-96800000D01*
X116700000Y-102500000D02*
X116700000Y-101650000D01*
X121200000Y-97450000D02*
X121200000Y-98300000D01*
X120550000Y-96800000D02*
X121200000Y-97450000D01*
X116700000Y-96800000D02*
X120550000Y-96800000D01*
X127525000Y-95525000D02*
X127525000Y-97000000D01*
X127000000Y-95000000D02*
X127525000Y-95525000D01*
X121200000Y-97450000D02*
X123650000Y-95000000D01*
X123650000Y-95000000D02*
X127000000Y-95000000D01*
X134658516Y-118841484D02*
X134658516Y-116390664D01*
X131324979Y-115824979D02*
X134092831Y-115824979D01*
X134092831Y-115824979D02*
X134658516Y-115824979D01*
X134000000Y-119500000D02*
X134658516Y-118841484D01*
X134658516Y-116390664D02*
X134658516Y-115824979D01*
X130000000Y-114500000D02*
X131324979Y-115824979D01*
X163600000Y-122000000D02*
X163000000Y-122000000D01*
X166230000Y-124330000D02*
X165930000Y-124330000D01*
X165930000Y-124330000D02*
X163600000Y-122000000D01*
X178840000Y-122000000D02*
X178000000Y-122000000D01*
X181470000Y-124330000D02*
X181170000Y-124330000D01*
X181170000Y-124330000D02*
X178840000Y-122000000D01*
X150990000Y-124330000D02*
X153967670Y-124330000D01*
X153967670Y-124330000D02*
X154285010Y-124012660D01*
X160000000Y-97000000D02*
X169000000Y-97000000D01*
X169000000Y-97000000D02*
X170500000Y-98500000D01*
X170500000Y-105500000D02*
X170500000Y-98500000D01*
X174500000Y-109500000D02*
X170500000Y-105500000D01*
X145940000Y-114133004D02*
X153000000Y-107073004D01*
X145940000Y-118000000D02*
X145940000Y-114133004D01*
X153000000Y-107073004D02*
X153000000Y-107000000D01*
X160500000Y-107000000D02*
X153000000Y-107000000D01*
X162000000Y-105500000D02*
X160500000Y-107000000D01*
X176000000Y-101000000D02*
X181500000Y-101000000D01*
X145940000Y-133240000D02*
X143700000Y-131000000D01*
X143700000Y-131000000D02*
X143000000Y-131000000D01*
X152000000Y-107000000D02*
X142566999Y-116433001D01*
X142600001Y-120325011D02*
X143000000Y-120725010D01*
X142566999Y-120292009D02*
X142600001Y-120325011D01*
X142566999Y-116433001D02*
X142566999Y-120292009D01*
X143000000Y-120725010D02*
X158359499Y-120725010D01*
X121200000Y-100600000D02*
X123900000Y-100600000D01*
X123900000Y-100600000D02*
X124000000Y-100500000D01*
X128000000Y-102525000D02*
X127525000Y-103000000D01*
X128000000Y-100500000D02*
X128000000Y-102525000D01*
X127525000Y-103000000D02*
X130975000Y-103000000D01*
X129770000Y-111960000D02*
X130000000Y-111960000D01*
X127525000Y-109715000D02*
X129770000Y-111960000D01*
X127525000Y-103000000D02*
X127525000Y-109715000D01*
X129310000Y-111760000D02*
X130890000Y-111760000D01*
X130890000Y-111760000D02*
X134229977Y-115099977D01*
X135006518Y-115099977D02*
X140000000Y-120093459D01*
X147780000Y-130000000D02*
X151020000Y-133240000D01*
X140000000Y-130000000D02*
X147780000Y-130000000D01*
X140000000Y-120093459D02*
X140000000Y-130000000D01*
X134229977Y-115099977D02*
X135006518Y-115099977D01*
X133820000Y-106680000D02*
X134000000Y-106500000D01*
X129540000Y-106680000D02*
X133820000Y-106680000D01*
X169000000Y-117800000D02*
X168800000Y-118000000D01*
X169000000Y-115000000D02*
X169000000Y-117800000D01*
X136500000Y-115565685D02*
X142384327Y-121450012D01*
X159792896Y-121450012D02*
X160117899Y-121125009D01*
X160117899Y-121125009D02*
X160517898Y-120725010D01*
X136500000Y-115000000D02*
X136500000Y-115565685D01*
X142384327Y-121450012D02*
X159792896Y-121450012D01*
X133648372Y-102376628D02*
X133025000Y-103000000D01*
X134500000Y-101525000D02*
X133648372Y-102376628D01*
X134500000Y-98475000D02*
X134500000Y-101525000D01*
X133025000Y-97000000D02*
X134500000Y-98475000D01*
X133648372Y-103623372D02*
X133025000Y-103000000D01*
X134725002Y-104700002D02*
X133648372Y-103623372D01*
X134725002Y-106848002D02*
X134725002Y-104700002D01*
X132353004Y-109220000D02*
X134725002Y-106848002D01*
X129540000Y-109220000D02*
X132353004Y-109220000D01*
X143927158Y-135000000D02*
X139046315Y-130119157D01*
X177200000Y-135000000D02*
X143927158Y-135000000D01*
X178960000Y-133240000D02*
X177200000Y-135000000D01*
X139046315Y-122240704D02*
X139046315Y-121675019D01*
X139046315Y-130119157D02*
X139046315Y-122240704D01*
X133025000Y-99050000D02*
X130975000Y-97000000D01*
X133025000Y-100000000D02*
X133025000Y-99050000D01*
X173880000Y-118000000D02*
X169880000Y-114000000D01*
X169880000Y-114000000D02*
X148000000Y-114000000D01*
X140000000Y-111500000D02*
X135500000Y-107000000D01*
X131598372Y-96376628D02*
X130975000Y-97000000D01*
X132000010Y-95974990D02*
X131598372Y-96376628D01*
X133588180Y-95974990D02*
X132000010Y-95974990D01*
X135500000Y-97886810D02*
X133588180Y-95974990D01*
X135500000Y-107000000D02*
X135500000Y-97886810D01*
X169285000Y-127130000D02*
X170425000Y-128270000D01*
X166230000Y-127130000D02*
X169285000Y-127130000D01*
X185716401Y-118863599D02*
X186580000Y-118000000D01*
X183930000Y-120650000D02*
X185716401Y-118863599D01*
X178045000Y-120650000D02*
X183930000Y-120650000D01*
X170425000Y-128270000D02*
X178045000Y-120650000D01*
X153800000Y-127130000D02*
X154940000Y-128270000D01*
X150990000Y-127130000D02*
X153800000Y-127130000D01*
X183176401Y-118863599D02*
X184040000Y-118000000D01*
X182851399Y-119188601D02*
X183176401Y-118863599D01*
X164021399Y-119188601D02*
X182851399Y-119188601D01*
X154940000Y-128270000D02*
X164021399Y-119188601D01*
X186580000Y-132995000D02*
X186580000Y-133240000D01*
X184525000Y-127130000D02*
X185665000Y-128270000D01*
X181470000Y-127130000D02*
X184525000Y-127130000D01*
X185665000Y-132325000D02*
X186580000Y-133240000D01*
X185665000Y-128270000D02*
X185665000Y-132325000D01*
X143079890Y-104815566D02*
X161398261Y-104815566D01*
X161398261Y-104815566D02*
X161650939Y-104562888D01*
X144000000Y-104000000D02*
X160803303Y-104000000D01*
X160803303Y-104000000D02*
X160894517Y-103908786D01*
X152235055Y-110500000D02*
X151335669Y-111399386D01*
X153500000Y-110500000D02*
X152235055Y-110500000D01*
X151335669Y-111399386D02*
X150935670Y-111799385D01*
X161720000Y-120000000D02*
X163720000Y-118000000D01*
X154000000Y-120000000D02*
X161720000Y-120000000D01*
X155583583Y-119274990D02*
X155017898Y-119274990D01*
X159905010Y-119274990D02*
X155583583Y-119274990D01*
X161180000Y-118000000D02*
X159905010Y-119274990D01*
X125475000Y-97000000D02*
X125475000Y-103000000D01*
X120850000Y-111960000D02*
X125475000Y-107335000D01*
X119500000Y-111960000D02*
X120850000Y-111960000D01*
X125475000Y-107335000D02*
X125475000Y-103800000D01*
X125475000Y-103800000D02*
X125475000Y-103000000D01*
M02*
