G04 #@! TF.GenerationSoftware,KiCad,Pcbnew,(5.1.4)-1*
G04 #@! TF.CreationDate,2019-09-29T14:37:35-07:00*
G04 #@! TF.ProjectId,arduino-micro,61726475-696e-46f2-9d6d-6963726f2e6b,rev?*
G04 #@! TF.SameCoordinates,Original*
G04 #@! TF.FileFunction,Soldermask,Top*
G04 #@! TF.FilePolarity,Negative*
%FSLAX46Y46*%
G04 Gerber Fmt 4.6, Leading zero omitted, Abs format (unit mm)*
G04 Created by KiCad (PCBNEW (5.1.4)-1) date 2019-09-29 14:37:35*
%MOMM*%
%LPD*%
G04 APERTURE LIST*
%ADD10C,2.906400*%
%ADD11O,3.022400X1.714400*%
%ADD12O,1.714400X3.022400*%
%ADD13C,0.100000*%
%ADD14C,1.556400*%
%ADD15O,2.606400X2.146400*%
%ADD16C,2.146400*%
%ADD17O,2.133600X2.133600*%
%ADD18C,1.422400*%
%ADD19R,2.133600X2.133600*%
%ADD20R,2.006400X1.406400*%
%ADD21C,1.906400*%
%ADD22R,1.906400X1.906400*%
%ADD23R,2.406400X2.406400*%
%ADD24C,2.406400*%
%ADD25R,3.606400X2.406400*%
G04 APERTURE END LIST*
D10*
X116000000Y-98000000D03*
D11*
X122300000Y-103200000D03*
X122300000Y-101100000D03*
D12*
X123250000Y-98000000D03*
D11*
X115000000Y-94300000D03*
X115000000Y-104100000D03*
D13*
G36*
X127998017Y-96098429D02*
G01*
X128030861Y-96103301D01*
X128063070Y-96111369D01*
X128094333Y-96122555D01*
X128124349Y-96136752D01*
X128152829Y-96153822D01*
X128179498Y-96173601D01*
X128204100Y-96195900D01*
X128226399Y-96220502D01*
X128246178Y-96247171D01*
X128263248Y-96275651D01*
X128277445Y-96305667D01*
X128288631Y-96336930D01*
X128296699Y-96369139D01*
X128301571Y-96401983D01*
X128303200Y-96435147D01*
X128303200Y-97564853D01*
X128301571Y-97598017D01*
X128296699Y-97630861D01*
X128288631Y-97663070D01*
X128277445Y-97694333D01*
X128263248Y-97724349D01*
X128246178Y-97752829D01*
X128226399Y-97779498D01*
X128204100Y-97804100D01*
X128179498Y-97826399D01*
X128152829Y-97846178D01*
X128124349Y-97863248D01*
X128094333Y-97877445D01*
X128063070Y-97888631D01*
X128030861Y-97896699D01*
X127998017Y-97901571D01*
X127964853Y-97903200D01*
X127085147Y-97903200D01*
X127051983Y-97901571D01*
X127019139Y-97896699D01*
X126986930Y-97888631D01*
X126955667Y-97877445D01*
X126925651Y-97863248D01*
X126897171Y-97846178D01*
X126870502Y-97826399D01*
X126845900Y-97804100D01*
X126823601Y-97779498D01*
X126803822Y-97752829D01*
X126786752Y-97724349D01*
X126772555Y-97694333D01*
X126761369Y-97663070D01*
X126753301Y-97630861D01*
X126748429Y-97598017D01*
X126746800Y-97564853D01*
X126746800Y-96435147D01*
X126748429Y-96401983D01*
X126753301Y-96369139D01*
X126761369Y-96336930D01*
X126772555Y-96305667D01*
X126786752Y-96275651D01*
X126803822Y-96247171D01*
X126823601Y-96220502D01*
X126845900Y-96195900D01*
X126870502Y-96173601D01*
X126897171Y-96153822D01*
X126925651Y-96136752D01*
X126955667Y-96122555D01*
X126986930Y-96111369D01*
X127019139Y-96103301D01*
X127051983Y-96098429D01*
X127085147Y-96096800D01*
X127964853Y-96096800D01*
X127998017Y-96098429D01*
X127998017Y-96098429D01*
G37*
D14*
X127525000Y-97000000D03*
D13*
G36*
X125948017Y-96098429D02*
G01*
X125980861Y-96103301D01*
X126013070Y-96111369D01*
X126044333Y-96122555D01*
X126074349Y-96136752D01*
X126102829Y-96153822D01*
X126129498Y-96173601D01*
X126154100Y-96195900D01*
X126176399Y-96220502D01*
X126196178Y-96247171D01*
X126213248Y-96275651D01*
X126227445Y-96305667D01*
X126238631Y-96336930D01*
X126246699Y-96369139D01*
X126251571Y-96401983D01*
X126253200Y-96435147D01*
X126253200Y-97564853D01*
X126251571Y-97598017D01*
X126246699Y-97630861D01*
X126238631Y-97663070D01*
X126227445Y-97694333D01*
X126213248Y-97724349D01*
X126196178Y-97752829D01*
X126176399Y-97779498D01*
X126154100Y-97804100D01*
X126129498Y-97826399D01*
X126102829Y-97846178D01*
X126074349Y-97863248D01*
X126044333Y-97877445D01*
X126013070Y-97888631D01*
X125980861Y-97896699D01*
X125948017Y-97901571D01*
X125914853Y-97903200D01*
X125035147Y-97903200D01*
X125001983Y-97901571D01*
X124969139Y-97896699D01*
X124936930Y-97888631D01*
X124905667Y-97877445D01*
X124875651Y-97863248D01*
X124847171Y-97846178D01*
X124820502Y-97826399D01*
X124795900Y-97804100D01*
X124773601Y-97779498D01*
X124753822Y-97752829D01*
X124736752Y-97724349D01*
X124722555Y-97694333D01*
X124711369Y-97663070D01*
X124703301Y-97630861D01*
X124698429Y-97598017D01*
X124696800Y-97564853D01*
X124696800Y-96435147D01*
X124698429Y-96401983D01*
X124703301Y-96369139D01*
X124711369Y-96336930D01*
X124722555Y-96305667D01*
X124736752Y-96275651D01*
X124753822Y-96247171D01*
X124773601Y-96220502D01*
X124795900Y-96195900D01*
X124820502Y-96173601D01*
X124847171Y-96153822D01*
X124875651Y-96136752D01*
X124905667Y-96122555D01*
X124936930Y-96111369D01*
X124969139Y-96103301D01*
X125001983Y-96098429D01*
X125035147Y-96096800D01*
X125914853Y-96096800D01*
X125948017Y-96098429D01*
X125948017Y-96098429D01*
G37*
D14*
X125475000Y-97000000D03*
D13*
G36*
X127998017Y-102098429D02*
G01*
X128030861Y-102103301D01*
X128063070Y-102111369D01*
X128094333Y-102122555D01*
X128124349Y-102136752D01*
X128152829Y-102153822D01*
X128179498Y-102173601D01*
X128204100Y-102195900D01*
X128226399Y-102220502D01*
X128246178Y-102247171D01*
X128263248Y-102275651D01*
X128277445Y-102305667D01*
X128288631Y-102336930D01*
X128296699Y-102369139D01*
X128301571Y-102401983D01*
X128303200Y-102435147D01*
X128303200Y-103564853D01*
X128301571Y-103598017D01*
X128296699Y-103630861D01*
X128288631Y-103663070D01*
X128277445Y-103694333D01*
X128263248Y-103724349D01*
X128246178Y-103752829D01*
X128226399Y-103779498D01*
X128204100Y-103804100D01*
X128179498Y-103826399D01*
X128152829Y-103846178D01*
X128124349Y-103863248D01*
X128094333Y-103877445D01*
X128063070Y-103888631D01*
X128030861Y-103896699D01*
X127998017Y-103901571D01*
X127964853Y-103903200D01*
X127085147Y-103903200D01*
X127051983Y-103901571D01*
X127019139Y-103896699D01*
X126986930Y-103888631D01*
X126955667Y-103877445D01*
X126925651Y-103863248D01*
X126897171Y-103846178D01*
X126870502Y-103826399D01*
X126845900Y-103804100D01*
X126823601Y-103779498D01*
X126803822Y-103752829D01*
X126786752Y-103724349D01*
X126772555Y-103694333D01*
X126761369Y-103663070D01*
X126753301Y-103630861D01*
X126748429Y-103598017D01*
X126746800Y-103564853D01*
X126746800Y-102435147D01*
X126748429Y-102401983D01*
X126753301Y-102369139D01*
X126761369Y-102336930D01*
X126772555Y-102305667D01*
X126786752Y-102275651D01*
X126803822Y-102247171D01*
X126823601Y-102220502D01*
X126845900Y-102195900D01*
X126870502Y-102173601D01*
X126897171Y-102153822D01*
X126925651Y-102136752D01*
X126955667Y-102122555D01*
X126986930Y-102111369D01*
X127019139Y-102103301D01*
X127051983Y-102098429D01*
X127085147Y-102096800D01*
X127964853Y-102096800D01*
X127998017Y-102098429D01*
X127998017Y-102098429D01*
G37*
D14*
X127525000Y-103000000D03*
D13*
G36*
X125948017Y-102098429D02*
G01*
X125980861Y-102103301D01*
X126013070Y-102111369D01*
X126044333Y-102122555D01*
X126074349Y-102136752D01*
X126102829Y-102153822D01*
X126129498Y-102173601D01*
X126154100Y-102195900D01*
X126176399Y-102220502D01*
X126196178Y-102247171D01*
X126213248Y-102275651D01*
X126227445Y-102305667D01*
X126238631Y-102336930D01*
X126246699Y-102369139D01*
X126251571Y-102401983D01*
X126253200Y-102435147D01*
X126253200Y-103564853D01*
X126251571Y-103598017D01*
X126246699Y-103630861D01*
X126238631Y-103663070D01*
X126227445Y-103694333D01*
X126213248Y-103724349D01*
X126196178Y-103752829D01*
X126176399Y-103779498D01*
X126154100Y-103804100D01*
X126129498Y-103826399D01*
X126102829Y-103846178D01*
X126074349Y-103863248D01*
X126044333Y-103877445D01*
X126013070Y-103888631D01*
X125980861Y-103896699D01*
X125948017Y-103901571D01*
X125914853Y-103903200D01*
X125035147Y-103903200D01*
X125001983Y-103901571D01*
X124969139Y-103896699D01*
X124936930Y-103888631D01*
X124905667Y-103877445D01*
X124875651Y-103863248D01*
X124847171Y-103846178D01*
X124820502Y-103826399D01*
X124795900Y-103804100D01*
X124773601Y-103779498D01*
X124753822Y-103752829D01*
X124736752Y-103724349D01*
X124722555Y-103694333D01*
X124711369Y-103663070D01*
X124703301Y-103630861D01*
X124698429Y-103598017D01*
X124696800Y-103564853D01*
X124696800Y-102435147D01*
X124698429Y-102401983D01*
X124703301Y-102369139D01*
X124711369Y-102336930D01*
X124722555Y-102305667D01*
X124736752Y-102275651D01*
X124753822Y-102247171D01*
X124773601Y-102220502D01*
X124795900Y-102195900D01*
X124820502Y-102173601D01*
X124847171Y-102153822D01*
X124875651Y-102136752D01*
X124905667Y-102122555D01*
X124936930Y-102111369D01*
X124969139Y-102103301D01*
X125001983Y-102098429D01*
X125035147Y-102096800D01*
X125914853Y-102096800D01*
X125948017Y-102098429D01*
X125948017Y-102098429D01*
G37*
D14*
X125475000Y-103000000D03*
D15*
X119500000Y-106880000D03*
X119500000Y-109420000D03*
X119500000Y-111960000D03*
D13*
G36*
X120525038Y-113428285D02*
G01*
X120554974Y-113432726D01*
X120584331Y-113440079D01*
X120612826Y-113450275D01*
X120640184Y-113463214D01*
X120666142Y-113478773D01*
X120690451Y-113496801D01*
X120712875Y-113517125D01*
X120733199Y-113539549D01*
X120751227Y-113563858D01*
X120766786Y-113589816D01*
X120779725Y-113617174D01*
X120789921Y-113645669D01*
X120797274Y-113675026D01*
X120801715Y-113704962D01*
X120803200Y-113735190D01*
X120803200Y-115264810D01*
X120801715Y-115295038D01*
X120797274Y-115324974D01*
X120789921Y-115354331D01*
X120779725Y-115382826D01*
X120766786Y-115410184D01*
X120751227Y-115436142D01*
X120733199Y-115460451D01*
X120712875Y-115482875D01*
X120690451Y-115503199D01*
X120666142Y-115521227D01*
X120640184Y-115536786D01*
X120612826Y-115549725D01*
X120584331Y-115559921D01*
X120554974Y-115567274D01*
X120525038Y-115571715D01*
X120494810Y-115573200D01*
X118505190Y-115573200D01*
X118474962Y-115571715D01*
X118445026Y-115567274D01*
X118415669Y-115559921D01*
X118387174Y-115549725D01*
X118359816Y-115536786D01*
X118333858Y-115521227D01*
X118309549Y-115503199D01*
X118287125Y-115482875D01*
X118266801Y-115460451D01*
X118248773Y-115436142D01*
X118233214Y-115410184D01*
X118220275Y-115382826D01*
X118210079Y-115354331D01*
X118202726Y-115324974D01*
X118198285Y-115295038D01*
X118196800Y-115264810D01*
X118196800Y-113735190D01*
X118198285Y-113704962D01*
X118202726Y-113675026D01*
X118210079Y-113645669D01*
X118220275Y-113617174D01*
X118233214Y-113589816D01*
X118248773Y-113563858D01*
X118266801Y-113539549D01*
X118287125Y-113517125D01*
X118309549Y-113496801D01*
X118333858Y-113478773D01*
X118359816Y-113463214D01*
X118387174Y-113450275D01*
X118415669Y-113440079D01*
X118445026Y-113432726D01*
X118474962Y-113428285D01*
X118505190Y-113426800D01*
X120494810Y-113426800D01*
X120525038Y-113428285D01*
X120525038Y-113428285D01*
G37*
D16*
X119500000Y-114500000D03*
D15*
X130000000Y-106880000D03*
X130000000Y-109420000D03*
X130000000Y-111960000D03*
D13*
G36*
X131025038Y-113428285D02*
G01*
X131054974Y-113432726D01*
X131084331Y-113440079D01*
X131112826Y-113450275D01*
X131140184Y-113463214D01*
X131166142Y-113478773D01*
X131190451Y-113496801D01*
X131212875Y-113517125D01*
X131233199Y-113539549D01*
X131251227Y-113563858D01*
X131266786Y-113589816D01*
X131279725Y-113617174D01*
X131289921Y-113645669D01*
X131297274Y-113675026D01*
X131301715Y-113704962D01*
X131303200Y-113735190D01*
X131303200Y-115264810D01*
X131301715Y-115295038D01*
X131297274Y-115324974D01*
X131289921Y-115354331D01*
X131279725Y-115382826D01*
X131266786Y-115410184D01*
X131251227Y-115436142D01*
X131233199Y-115460451D01*
X131212875Y-115482875D01*
X131190451Y-115503199D01*
X131166142Y-115521227D01*
X131140184Y-115536786D01*
X131112826Y-115549725D01*
X131084331Y-115559921D01*
X131054974Y-115567274D01*
X131025038Y-115571715D01*
X130994810Y-115573200D01*
X129005190Y-115573200D01*
X128974962Y-115571715D01*
X128945026Y-115567274D01*
X128915669Y-115559921D01*
X128887174Y-115549725D01*
X128859816Y-115536786D01*
X128833858Y-115521227D01*
X128809549Y-115503199D01*
X128787125Y-115482875D01*
X128766801Y-115460451D01*
X128748773Y-115436142D01*
X128733214Y-115410184D01*
X128720275Y-115382826D01*
X128710079Y-115354331D01*
X128702726Y-115324974D01*
X128698285Y-115295038D01*
X128696800Y-115264810D01*
X128696800Y-113735190D01*
X128698285Y-113704962D01*
X128702726Y-113675026D01*
X128710079Y-113645669D01*
X128720275Y-113617174D01*
X128733214Y-113589816D01*
X128748773Y-113563858D01*
X128766801Y-113539549D01*
X128787125Y-113517125D01*
X128809549Y-113496801D01*
X128833858Y-113478773D01*
X128859816Y-113463214D01*
X128887174Y-113450275D01*
X128915669Y-113440079D01*
X128945026Y-113432726D01*
X128974962Y-113428285D01*
X129005190Y-113426800D01*
X130994810Y-113426800D01*
X131025038Y-113428285D01*
X131025038Y-113428285D01*
G37*
D16*
X130000000Y-114500000D03*
D17*
X148480000Y-133240000D03*
X166260000Y-133240000D03*
X168800000Y-133240000D03*
X171340000Y-133240000D03*
X173880000Y-133240000D03*
X176420000Y-133240000D03*
X161180000Y-133240000D03*
X184040000Y-118000000D03*
X186580000Y-118000000D03*
X186580000Y-133240000D03*
X181500000Y-133240000D03*
D18*
X189120000Y-133240000D03*
D17*
X181500000Y-118000000D03*
X178960000Y-118000000D03*
X176420000Y-118000000D03*
X173880000Y-118000000D03*
X171340000Y-118000000D03*
X168800000Y-118000000D03*
X166260000Y-118000000D03*
X163720000Y-118000000D03*
X161180000Y-118000000D03*
X151020000Y-118000000D03*
X153560000Y-118000000D03*
X148480000Y-118000000D03*
X156100000Y-133240000D03*
X184040000Y-133240000D03*
X158640000Y-133240000D03*
X153560000Y-133240000D03*
X158640000Y-118000000D03*
X151020000Y-133240000D03*
X178960000Y-133240000D03*
X145940000Y-133240000D03*
D19*
X145940000Y-118000000D03*
D17*
X156100000Y-118000000D03*
X163720000Y-133240000D03*
D18*
X143400000Y-133240000D03*
X189120000Y-118000000D03*
X143400000Y-118000000D03*
D20*
X181470000Y-124330000D03*
X176670000Y-124330000D03*
X181470000Y-127130000D03*
X176670000Y-127130000D03*
X166230000Y-124330000D03*
X161430000Y-124330000D03*
X166230000Y-127130000D03*
X161430000Y-127130000D03*
X150990000Y-124330000D03*
X146190000Y-124330000D03*
X150990000Y-127130000D03*
X146190000Y-127130000D03*
D21*
X168910000Y-110490000D03*
X166370000Y-110490000D03*
X163830000Y-110490000D03*
X161290000Y-110490000D03*
X158750000Y-110490000D03*
X156210000Y-110490000D03*
X156210000Y-95250000D03*
X158750000Y-95250000D03*
X161290000Y-95250000D03*
X163830000Y-95250000D03*
X166370000Y-95250000D03*
D22*
X168910000Y-95250000D03*
D23*
X137500000Y-128500000D03*
D24*
X137500000Y-126000000D03*
X137500000Y-123500000D03*
D25*
X130000000Y-131600000D03*
X130000000Y-120400000D03*
D21*
X123000000Y-128500000D03*
X123000000Y-123500000D03*
D13*
G36*
X188188017Y-127368429D02*
G01*
X188220861Y-127373301D01*
X188253070Y-127381369D01*
X188284333Y-127392555D01*
X188314349Y-127406752D01*
X188342829Y-127423822D01*
X188369498Y-127443601D01*
X188394100Y-127465900D01*
X188416399Y-127490502D01*
X188436178Y-127517171D01*
X188453248Y-127545651D01*
X188467445Y-127575667D01*
X188478631Y-127606930D01*
X188486699Y-127639139D01*
X188491571Y-127671983D01*
X188493200Y-127705147D01*
X188493200Y-128834853D01*
X188491571Y-128868017D01*
X188486699Y-128900861D01*
X188478631Y-128933070D01*
X188467445Y-128964333D01*
X188453248Y-128994349D01*
X188436178Y-129022829D01*
X188416399Y-129049498D01*
X188394100Y-129074100D01*
X188369498Y-129096399D01*
X188342829Y-129116178D01*
X188314349Y-129133248D01*
X188284333Y-129147445D01*
X188253070Y-129158631D01*
X188220861Y-129166699D01*
X188188017Y-129171571D01*
X188154853Y-129173200D01*
X187275147Y-129173200D01*
X187241983Y-129171571D01*
X187209139Y-129166699D01*
X187176930Y-129158631D01*
X187145667Y-129147445D01*
X187115651Y-129133248D01*
X187087171Y-129116178D01*
X187060502Y-129096399D01*
X187035900Y-129074100D01*
X187013601Y-129049498D01*
X186993822Y-129022829D01*
X186976752Y-128994349D01*
X186962555Y-128964333D01*
X186951369Y-128933070D01*
X186943301Y-128900861D01*
X186938429Y-128868017D01*
X186936800Y-128834853D01*
X186936800Y-127705147D01*
X186938429Y-127671983D01*
X186943301Y-127639139D01*
X186951369Y-127606930D01*
X186962555Y-127575667D01*
X186976752Y-127545651D01*
X186993822Y-127517171D01*
X187013601Y-127490502D01*
X187035900Y-127465900D01*
X187060502Y-127443601D01*
X187087171Y-127423822D01*
X187115651Y-127406752D01*
X187145667Y-127392555D01*
X187176930Y-127381369D01*
X187209139Y-127373301D01*
X187241983Y-127368429D01*
X187275147Y-127366800D01*
X188154853Y-127366800D01*
X188188017Y-127368429D01*
X188188017Y-127368429D01*
G37*
D14*
X187715000Y-128270000D03*
D13*
G36*
X186138017Y-127368429D02*
G01*
X186170861Y-127373301D01*
X186203070Y-127381369D01*
X186234333Y-127392555D01*
X186264349Y-127406752D01*
X186292829Y-127423822D01*
X186319498Y-127443601D01*
X186344100Y-127465900D01*
X186366399Y-127490502D01*
X186386178Y-127517171D01*
X186403248Y-127545651D01*
X186417445Y-127575667D01*
X186428631Y-127606930D01*
X186436699Y-127639139D01*
X186441571Y-127671983D01*
X186443200Y-127705147D01*
X186443200Y-128834853D01*
X186441571Y-128868017D01*
X186436699Y-128900861D01*
X186428631Y-128933070D01*
X186417445Y-128964333D01*
X186403248Y-128994349D01*
X186386178Y-129022829D01*
X186366399Y-129049498D01*
X186344100Y-129074100D01*
X186319498Y-129096399D01*
X186292829Y-129116178D01*
X186264349Y-129133248D01*
X186234333Y-129147445D01*
X186203070Y-129158631D01*
X186170861Y-129166699D01*
X186138017Y-129171571D01*
X186104853Y-129173200D01*
X185225147Y-129173200D01*
X185191983Y-129171571D01*
X185159139Y-129166699D01*
X185126930Y-129158631D01*
X185095667Y-129147445D01*
X185065651Y-129133248D01*
X185037171Y-129116178D01*
X185010502Y-129096399D01*
X184985900Y-129074100D01*
X184963601Y-129049498D01*
X184943822Y-129022829D01*
X184926752Y-128994349D01*
X184912555Y-128964333D01*
X184901369Y-128933070D01*
X184893301Y-128900861D01*
X184888429Y-128868017D01*
X184886800Y-128834853D01*
X184886800Y-127705147D01*
X184888429Y-127671983D01*
X184893301Y-127639139D01*
X184901369Y-127606930D01*
X184912555Y-127575667D01*
X184926752Y-127545651D01*
X184943822Y-127517171D01*
X184963601Y-127490502D01*
X184985900Y-127465900D01*
X185010502Y-127443601D01*
X185037171Y-127423822D01*
X185065651Y-127406752D01*
X185095667Y-127392555D01*
X185126930Y-127381369D01*
X185159139Y-127373301D01*
X185191983Y-127368429D01*
X185225147Y-127366800D01*
X186104853Y-127366800D01*
X186138017Y-127368429D01*
X186138017Y-127368429D01*
G37*
D14*
X185665000Y-128270000D03*
D13*
G36*
X157498017Y-127368429D02*
G01*
X157530861Y-127373301D01*
X157563070Y-127381369D01*
X157594333Y-127392555D01*
X157624349Y-127406752D01*
X157652829Y-127423822D01*
X157679498Y-127443601D01*
X157704100Y-127465900D01*
X157726399Y-127490502D01*
X157746178Y-127517171D01*
X157763248Y-127545651D01*
X157777445Y-127575667D01*
X157788631Y-127606930D01*
X157796699Y-127639139D01*
X157801571Y-127671983D01*
X157803200Y-127705147D01*
X157803200Y-128834853D01*
X157801571Y-128868017D01*
X157796699Y-128900861D01*
X157788631Y-128933070D01*
X157777445Y-128964333D01*
X157763248Y-128994349D01*
X157746178Y-129022829D01*
X157726399Y-129049498D01*
X157704100Y-129074100D01*
X157679498Y-129096399D01*
X157652829Y-129116178D01*
X157624349Y-129133248D01*
X157594333Y-129147445D01*
X157563070Y-129158631D01*
X157530861Y-129166699D01*
X157498017Y-129171571D01*
X157464853Y-129173200D01*
X156585147Y-129173200D01*
X156551983Y-129171571D01*
X156519139Y-129166699D01*
X156486930Y-129158631D01*
X156455667Y-129147445D01*
X156425651Y-129133248D01*
X156397171Y-129116178D01*
X156370502Y-129096399D01*
X156345900Y-129074100D01*
X156323601Y-129049498D01*
X156303822Y-129022829D01*
X156286752Y-128994349D01*
X156272555Y-128964333D01*
X156261369Y-128933070D01*
X156253301Y-128900861D01*
X156248429Y-128868017D01*
X156246800Y-128834853D01*
X156246800Y-127705147D01*
X156248429Y-127671983D01*
X156253301Y-127639139D01*
X156261369Y-127606930D01*
X156272555Y-127575667D01*
X156286752Y-127545651D01*
X156303822Y-127517171D01*
X156323601Y-127490502D01*
X156345900Y-127465900D01*
X156370502Y-127443601D01*
X156397171Y-127423822D01*
X156425651Y-127406752D01*
X156455667Y-127392555D01*
X156486930Y-127381369D01*
X156519139Y-127373301D01*
X156551983Y-127368429D01*
X156585147Y-127366800D01*
X157464853Y-127366800D01*
X157498017Y-127368429D01*
X157498017Y-127368429D01*
G37*
D14*
X157025000Y-128270000D03*
D13*
G36*
X155448017Y-127368429D02*
G01*
X155480861Y-127373301D01*
X155513070Y-127381369D01*
X155544333Y-127392555D01*
X155574349Y-127406752D01*
X155602829Y-127423822D01*
X155629498Y-127443601D01*
X155654100Y-127465900D01*
X155676399Y-127490502D01*
X155696178Y-127517171D01*
X155713248Y-127545651D01*
X155727445Y-127575667D01*
X155738631Y-127606930D01*
X155746699Y-127639139D01*
X155751571Y-127671983D01*
X155753200Y-127705147D01*
X155753200Y-128834853D01*
X155751571Y-128868017D01*
X155746699Y-128900861D01*
X155738631Y-128933070D01*
X155727445Y-128964333D01*
X155713248Y-128994349D01*
X155696178Y-129022829D01*
X155676399Y-129049498D01*
X155654100Y-129074100D01*
X155629498Y-129096399D01*
X155602829Y-129116178D01*
X155574349Y-129133248D01*
X155544333Y-129147445D01*
X155513070Y-129158631D01*
X155480861Y-129166699D01*
X155448017Y-129171571D01*
X155414853Y-129173200D01*
X154535147Y-129173200D01*
X154501983Y-129171571D01*
X154469139Y-129166699D01*
X154436930Y-129158631D01*
X154405667Y-129147445D01*
X154375651Y-129133248D01*
X154347171Y-129116178D01*
X154320502Y-129096399D01*
X154295900Y-129074100D01*
X154273601Y-129049498D01*
X154253822Y-129022829D01*
X154236752Y-128994349D01*
X154222555Y-128964333D01*
X154211369Y-128933070D01*
X154203301Y-128900861D01*
X154198429Y-128868017D01*
X154196800Y-128834853D01*
X154196800Y-127705147D01*
X154198429Y-127671983D01*
X154203301Y-127639139D01*
X154211369Y-127606930D01*
X154222555Y-127575667D01*
X154236752Y-127545651D01*
X154253822Y-127517171D01*
X154273601Y-127490502D01*
X154295900Y-127465900D01*
X154320502Y-127443601D01*
X154347171Y-127423822D01*
X154375651Y-127406752D01*
X154405667Y-127392555D01*
X154436930Y-127381369D01*
X154469139Y-127373301D01*
X154501983Y-127368429D01*
X154535147Y-127366800D01*
X155414853Y-127366800D01*
X155448017Y-127368429D01*
X155448017Y-127368429D01*
G37*
D14*
X154975000Y-128270000D03*
D13*
G36*
X172948017Y-127368429D02*
G01*
X172980861Y-127373301D01*
X173013070Y-127381369D01*
X173044333Y-127392555D01*
X173074349Y-127406752D01*
X173102829Y-127423822D01*
X173129498Y-127443601D01*
X173154100Y-127465900D01*
X173176399Y-127490502D01*
X173196178Y-127517171D01*
X173213248Y-127545651D01*
X173227445Y-127575667D01*
X173238631Y-127606930D01*
X173246699Y-127639139D01*
X173251571Y-127671983D01*
X173253200Y-127705147D01*
X173253200Y-128834853D01*
X173251571Y-128868017D01*
X173246699Y-128900861D01*
X173238631Y-128933070D01*
X173227445Y-128964333D01*
X173213248Y-128994349D01*
X173196178Y-129022829D01*
X173176399Y-129049498D01*
X173154100Y-129074100D01*
X173129498Y-129096399D01*
X173102829Y-129116178D01*
X173074349Y-129133248D01*
X173044333Y-129147445D01*
X173013070Y-129158631D01*
X172980861Y-129166699D01*
X172948017Y-129171571D01*
X172914853Y-129173200D01*
X172035147Y-129173200D01*
X172001983Y-129171571D01*
X171969139Y-129166699D01*
X171936930Y-129158631D01*
X171905667Y-129147445D01*
X171875651Y-129133248D01*
X171847171Y-129116178D01*
X171820502Y-129096399D01*
X171795900Y-129074100D01*
X171773601Y-129049498D01*
X171753822Y-129022829D01*
X171736752Y-128994349D01*
X171722555Y-128964333D01*
X171711369Y-128933070D01*
X171703301Y-128900861D01*
X171698429Y-128868017D01*
X171696800Y-128834853D01*
X171696800Y-127705147D01*
X171698429Y-127671983D01*
X171703301Y-127639139D01*
X171711369Y-127606930D01*
X171722555Y-127575667D01*
X171736752Y-127545651D01*
X171753822Y-127517171D01*
X171773601Y-127490502D01*
X171795900Y-127465900D01*
X171820502Y-127443601D01*
X171847171Y-127423822D01*
X171875651Y-127406752D01*
X171905667Y-127392555D01*
X171936930Y-127381369D01*
X171969139Y-127373301D01*
X172001983Y-127368429D01*
X172035147Y-127366800D01*
X172914853Y-127366800D01*
X172948017Y-127368429D01*
X172948017Y-127368429D01*
G37*
D14*
X172475000Y-128270000D03*
D13*
G36*
X170898017Y-127368429D02*
G01*
X170930861Y-127373301D01*
X170963070Y-127381369D01*
X170994333Y-127392555D01*
X171024349Y-127406752D01*
X171052829Y-127423822D01*
X171079498Y-127443601D01*
X171104100Y-127465900D01*
X171126399Y-127490502D01*
X171146178Y-127517171D01*
X171163248Y-127545651D01*
X171177445Y-127575667D01*
X171188631Y-127606930D01*
X171196699Y-127639139D01*
X171201571Y-127671983D01*
X171203200Y-127705147D01*
X171203200Y-128834853D01*
X171201571Y-128868017D01*
X171196699Y-128900861D01*
X171188631Y-128933070D01*
X171177445Y-128964333D01*
X171163248Y-128994349D01*
X171146178Y-129022829D01*
X171126399Y-129049498D01*
X171104100Y-129074100D01*
X171079498Y-129096399D01*
X171052829Y-129116178D01*
X171024349Y-129133248D01*
X170994333Y-129147445D01*
X170963070Y-129158631D01*
X170930861Y-129166699D01*
X170898017Y-129171571D01*
X170864853Y-129173200D01*
X169985147Y-129173200D01*
X169951983Y-129171571D01*
X169919139Y-129166699D01*
X169886930Y-129158631D01*
X169855667Y-129147445D01*
X169825651Y-129133248D01*
X169797171Y-129116178D01*
X169770502Y-129096399D01*
X169745900Y-129074100D01*
X169723601Y-129049498D01*
X169703822Y-129022829D01*
X169686752Y-128994349D01*
X169672555Y-128964333D01*
X169661369Y-128933070D01*
X169653301Y-128900861D01*
X169648429Y-128868017D01*
X169646800Y-128834853D01*
X169646800Y-127705147D01*
X169648429Y-127671983D01*
X169653301Y-127639139D01*
X169661369Y-127606930D01*
X169672555Y-127575667D01*
X169686752Y-127545651D01*
X169703822Y-127517171D01*
X169723601Y-127490502D01*
X169745900Y-127465900D01*
X169770502Y-127443601D01*
X169797171Y-127423822D01*
X169825651Y-127406752D01*
X169855667Y-127392555D01*
X169886930Y-127381369D01*
X169919139Y-127373301D01*
X169951983Y-127368429D01*
X169985147Y-127366800D01*
X170864853Y-127366800D01*
X170898017Y-127368429D01*
X170898017Y-127368429D01*
G37*
D14*
X170425000Y-128270000D03*
D13*
G36*
X133498017Y-99098429D02*
G01*
X133530861Y-99103301D01*
X133563070Y-99111369D01*
X133594333Y-99122555D01*
X133624349Y-99136752D01*
X133652829Y-99153822D01*
X133679498Y-99173601D01*
X133704100Y-99195900D01*
X133726399Y-99220502D01*
X133746178Y-99247171D01*
X133763248Y-99275651D01*
X133777445Y-99305667D01*
X133788631Y-99336930D01*
X133796699Y-99369139D01*
X133801571Y-99401983D01*
X133803200Y-99435147D01*
X133803200Y-100564853D01*
X133801571Y-100598017D01*
X133796699Y-100630861D01*
X133788631Y-100663070D01*
X133777445Y-100694333D01*
X133763248Y-100724349D01*
X133746178Y-100752829D01*
X133726399Y-100779498D01*
X133704100Y-100804100D01*
X133679498Y-100826399D01*
X133652829Y-100846178D01*
X133624349Y-100863248D01*
X133594333Y-100877445D01*
X133563070Y-100888631D01*
X133530861Y-100896699D01*
X133498017Y-100901571D01*
X133464853Y-100903200D01*
X132585147Y-100903200D01*
X132551983Y-100901571D01*
X132519139Y-100896699D01*
X132486930Y-100888631D01*
X132455667Y-100877445D01*
X132425651Y-100863248D01*
X132397171Y-100846178D01*
X132370502Y-100826399D01*
X132345900Y-100804100D01*
X132323601Y-100779498D01*
X132303822Y-100752829D01*
X132286752Y-100724349D01*
X132272555Y-100694333D01*
X132261369Y-100663070D01*
X132253301Y-100630861D01*
X132248429Y-100598017D01*
X132246800Y-100564853D01*
X132246800Y-99435147D01*
X132248429Y-99401983D01*
X132253301Y-99369139D01*
X132261369Y-99336930D01*
X132272555Y-99305667D01*
X132286752Y-99275651D01*
X132303822Y-99247171D01*
X132323601Y-99220502D01*
X132345900Y-99195900D01*
X132370502Y-99173601D01*
X132397171Y-99153822D01*
X132425651Y-99136752D01*
X132455667Y-99122555D01*
X132486930Y-99111369D01*
X132519139Y-99103301D01*
X132551983Y-99098429D01*
X132585147Y-99096800D01*
X133464853Y-99096800D01*
X133498017Y-99098429D01*
X133498017Y-99098429D01*
G37*
D14*
X133025000Y-100000000D03*
D13*
G36*
X131448017Y-99098429D02*
G01*
X131480861Y-99103301D01*
X131513070Y-99111369D01*
X131544333Y-99122555D01*
X131574349Y-99136752D01*
X131602829Y-99153822D01*
X131629498Y-99173601D01*
X131654100Y-99195900D01*
X131676399Y-99220502D01*
X131696178Y-99247171D01*
X131713248Y-99275651D01*
X131727445Y-99305667D01*
X131738631Y-99336930D01*
X131746699Y-99369139D01*
X131751571Y-99401983D01*
X131753200Y-99435147D01*
X131753200Y-100564853D01*
X131751571Y-100598017D01*
X131746699Y-100630861D01*
X131738631Y-100663070D01*
X131727445Y-100694333D01*
X131713248Y-100724349D01*
X131696178Y-100752829D01*
X131676399Y-100779498D01*
X131654100Y-100804100D01*
X131629498Y-100826399D01*
X131602829Y-100846178D01*
X131574349Y-100863248D01*
X131544333Y-100877445D01*
X131513070Y-100888631D01*
X131480861Y-100896699D01*
X131448017Y-100901571D01*
X131414853Y-100903200D01*
X130535147Y-100903200D01*
X130501983Y-100901571D01*
X130469139Y-100896699D01*
X130436930Y-100888631D01*
X130405667Y-100877445D01*
X130375651Y-100863248D01*
X130347171Y-100846178D01*
X130320502Y-100826399D01*
X130295900Y-100804100D01*
X130273601Y-100779498D01*
X130253822Y-100752829D01*
X130236752Y-100724349D01*
X130222555Y-100694333D01*
X130211369Y-100663070D01*
X130203301Y-100630861D01*
X130198429Y-100598017D01*
X130196800Y-100564853D01*
X130196800Y-99435147D01*
X130198429Y-99401983D01*
X130203301Y-99369139D01*
X130211369Y-99336930D01*
X130222555Y-99305667D01*
X130236752Y-99275651D01*
X130253822Y-99247171D01*
X130273601Y-99220502D01*
X130295900Y-99195900D01*
X130320502Y-99173601D01*
X130347171Y-99153822D01*
X130375651Y-99136752D01*
X130405667Y-99122555D01*
X130436930Y-99111369D01*
X130469139Y-99103301D01*
X130501983Y-99098429D01*
X130535147Y-99096800D01*
X131414853Y-99096800D01*
X131448017Y-99098429D01*
X131448017Y-99098429D01*
G37*
D14*
X130975000Y-100000000D03*
D13*
G36*
X133498017Y-96098429D02*
G01*
X133530861Y-96103301D01*
X133563070Y-96111369D01*
X133594333Y-96122555D01*
X133624349Y-96136752D01*
X133652829Y-96153822D01*
X133679498Y-96173601D01*
X133704100Y-96195900D01*
X133726399Y-96220502D01*
X133746178Y-96247171D01*
X133763248Y-96275651D01*
X133777445Y-96305667D01*
X133788631Y-96336930D01*
X133796699Y-96369139D01*
X133801571Y-96401983D01*
X133803200Y-96435147D01*
X133803200Y-97564853D01*
X133801571Y-97598017D01*
X133796699Y-97630861D01*
X133788631Y-97663070D01*
X133777445Y-97694333D01*
X133763248Y-97724349D01*
X133746178Y-97752829D01*
X133726399Y-97779498D01*
X133704100Y-97804100D01*
X133679498Y-97826399D01*
X133652829Y-97846178D01*
X133624349Y-97863248D01*
X133594333Y-97877445D01*
X133563070Y-97888631D01*
X133530861Y-97896699D01*
X133498017Y-97901571D01*
X133464853Y-97903200D01*
X132585147Y-97903200D01*
X132551983Y-97901571D01*
X132519139Y-97896699D01*
X132486930Y-97888631D01*
X132455667Y-97877445D01*
X132425651Y-97863248D01*
X132397171Y-97846178D01*
X132370502Y-97826399D01*
X132345900Y-97804100D01*
X132323601Y-97779498D01*
X132303822Y-97752829D01*
X132286752Y-97724349D01*
X132272555Y-97694333D01*
X132261369Y-97663070D01*
X132253301Y-97630861D01*
X132248429Y-97598017D01*
X132246800Y-97564853D01*
X132246800Y-96435147D01*
X132248429Y-96401983D01*
X132253301Y-96369139D01*
X132261369Y-96336930D01*
X132272555Y-96305667D01*
X132286752Y-96275651D01*
X132303822Y-96247171D01*
X132323601Y-96220502D01*
X132345900Y-96195900D01*
X132370502Y-96173601D01*
X132397171Y-96153822D01*
X132425651Y-96136752D01*
X132455667Y-96122555D01*
X132486930Y-96111369D01*
X132519139Y-96103301D01*
X132551983Y-96098429D01*
X132585147Y-96096800D01*
X133464853Y-96096800D01*
X133498017Y-96098429D01*
X133498017Y-96098429D01*
G37*
D14*
X133025000Y-97000000D03*
D13*
G36*
X131448017Y-96098429D02*
G01*
X131480861Y-96103301D01*
X131513070Y-96111369D01*
X131544333Y-96122555D01*
X131574349Y-96136752D01*
X131602829Y-96153822D01*
X131629498Y-96173601D01*
X131654100Y-96195900D01*
X131676399Y-96220502D01*
X131696178Y-96247171D01*
X131713248Y-96275651D01*
X131727445Y-96305667D01*
X131738631Y-96336930D01*
X131746699Y-96369139D01*
X131751571Y-96401983D01*
X131753200Y-96435147D01*
X131753200Y-97564853D01*
X131751571Y-97598017D01*
X131746699Y-97630861D01*
X131738631Y-97663070D01*
X131727445Y-97694333D01*
X131713248Y-97724349D01*
X131696178Y-97752829D01*
X131676399Y-97779498D01*
X131654100Y-97804100D01*
X131629498Y-97826399D01*
X131602829Y-97846178D01*
X131574349Y-97863248D01*
X131544333Y-97877445D01*
X131513070Y-97888631D01*
X131480861Y-97896699D01*
X131448017Y-97901571D01*
X131414853Y-97903200D01*
X130535147Y-97903200D01*
X130501983Y-97901571D01*
X130469139Y-97896699D01*
X130436930Y-97888631D01*
X130405667Y-97877445D01*
X130375651Y-97863248D01*
X130347171Y-97846178D01*
X130320502Y-97826399D01*
X130295900Y-97804100D01*
X130273601Y-97779498D01*
X130253822Y-97752829D01*
X130236752Y-97724349D01*
X130222555Y-97694333D01*
X130211369Y-97663070D01*
X130203301Y-97630861D01*
X130198429Y-97598017D01*
X130196800Y-97564853D01*
X130196800Y-96435147D01*
X130198429Y-96401983D01*
X130203301Y-96369139D01*
X130211369Y-96336930D01*
X130222555Y-96305667D01*
X130236752Y-96275651D01*
X130253822Y-96247171D01*
X130273601Y-96220502D01*
X130295900Y-96195900D01*
X130320502Y-96173601D01*
X130347171Y-96153822D01*
X130375651Y-96136752D01*
X130405667Y-96122555D01*
X130436930Y-96111369D01*
X130469139Y-96103301D01*
X130501983Y-96098429D01*
X130535147Y-96096800D01*
X131414853Y-96096800D01*
X131448017Y-96098429D01*
X131448017Y-96098429D01*
G37*
D14*
X130975000Y-97000000D03*
D13*
G36*
X133498017Y-102098429D02*
G01*
X133530861Y-102103301D01*
X133563070Y-102111369D01*
X133594333Y-102122555D01*
X133624349Y-102136752D01*
X133652829Y-102153822D01*
X133679498Y-102173601D01*
X133704100Y-102195900D01*
X133726399Y-102220502D01*
X133746178Y-102247171D01*
X133763248Y-102275651D01*
X133777445Y-102305667D01*
X133788631Y-102336930D01*
X133796699Y-102369139D01*
X133801571Y-102401983D01*
X133803200Y-102435147D01*
X133803200Y-103564853D01*
X133801571Y-103598017D01*
X133796699Y-103630861D01*
X133788631Y-103663070D01*
X133777445Y-103694333D01*
X133763248Y-103724349D01*
X133746178Y-103752829D01*
X133726399Y-103779498D01*
X133704100Y-103804100D01*
X133679498Y-103826399D01*
X133652829Y-103846178D01*
X133624349Y-103863248D01*
X133594333Y-103877445D01*
X133563070Y-103888631D01*
X133530861Y-103896699D01*
X133498017Y-103901571D01*
X133464853Y-103903200D01*
X132585147Y-103903200D01*
X132551983Y-103901571D01*
X132519139Y-103896699D01*
X132486930Y-103888631D01*
X132455667Y-103877445D01*
X132425651Y-103863248D01*
X132397171Y-103846178D01*
X132370502Y-103826399D01*
X132345900Y-103804100D01*
X132323601Y-103779498D01*
X132303822Y-103752829D01*
X132286752Y-103724349D01*
X132272555Y-103694333D01*
X132261369Y-103663070D01*
X132253301Y-103630861D01*
X132248429Y-103598017D01*
X132246800Y-103564853D01*
X132246800Y-102435147D01*
X132248429Y-102401983D01*
X132253301Y-102369139D01*
X132261369Y-102336930D01*
X132272555Y-102305667D01*
X132286752Y-102275651D01*
X132303822Y-102247171D01*
X132323601Y-102220502D01*
X132345900Y-102195900D01*
X132370502Y-102173601D01*
X132397171Y-102153822D01*
X132425651Y-102136752D01*
X132455667Y-102122555D01*
X132486930Y-102111369D01*
X132519139Y-102103301D01*
X132551983Y-102098429D01*
X132585147Y-102096800D01*
X133464853Y-102096800D01*
X133498017Y-102098429D01*
X133498017Y-102098429D01*
G37*
D14*
X133025000Y-103000000D03*
D13*
G36*
X131448017Y-102098429D02*
G01*
X131480861Y-102103301D01*
X131513070Y-102111369D01*
X131544333Y-102122555D01*
X131574349Y-102136752D01*
X131602829Y-102153822D01*
X131629498Y-102173601D01*
X131654100Y-102195900D01*
X131676399Y-102220502D01*
X131696178Y-102247171D01*
X131713248Y-102275651D01*
X131727445Y-102305667D01*
X131738631Y-102336930D01*
X131746699Y-102369139D01*
X131751571Y-102401983D01*
X131753200Y-102435147D01*
X131753200Y-103564853D01*
X131751571Y-103598017D01*
X131746699Y-103630861D01*
X131738631Y-103663070D01*
X131727445Y-103694333D01*
X131713248Y-103724349D01*
X131696178Y-103752829D01*
X131676399Y-103779498D01*
X131654100Y-103804100D01*
X131629498Y-103826399D01*
X131602829Y-103846178D01*
X131574349Y-103863248D01*
X131544333Y-103877445D01*
X131513070Y-103888631D01*
X131480861Y-103896699D01*
X131448017Y-103901571D01*
X131414853Y-103903200D01*
X130535147Y-103903200D01*
X130501983Y-103901571D01*
X130469139Y-103896699D01*
X130436930Y-103888631D01*
X130405667Y-103877445D01*
X130375651Y-103863248D01*
X130347171Y-103846178D01*
X130320502Y-103826399D01*
X130295900Y-103804100D01*
X130273601Y-103779498D01*
X130253822Y-103752829D01*
X130236752Y-103724349D01*
X130222555Y-103694333D01*
X130211369Y-103663070D01*
X130203301Y-103630861D01*
X130198429Y-103598017D01*
X130196800Y-103564853D01*
X130196800Y-102435147D01*
X130198429Y-102401983D01*
X130203301Y-102369139D01*
X130211369Y-102336930D01*
X130222555Y-102305667D01*
X130236752Y-102275651D01*
X130253822Y-102247171D01*
X130273601Y-102220502D01*
X130295900Y-102195900D01*
X130320502Y-102173601D01*
X130347171Y-102153822D01*
X130375651Y-102136752D01*
X130405667Y-102122555D01*
X130436930Y-102111369D01*
X130469139Y-102103301D01*
X130501983Y-102098429D01*
X130535147Y-102096800D01*
X131414853Y-102096800D01*
X131448017Y-102098429D01*
X131448017Y-102098429D01*
G37*
D14*
X130975000Y-103000000D03*
M02*
