G04 #@! TF.GenerationSoftware,KiCad,Pcbnew,6.0.0-rc1-unknown-3024ded~66~ubuntu18.04.1*
G04 #@! TF.CreationDate,2018-11-05T19:27:41-08:00*
G04 #@! TF.ProjectId,arduino-micro,61726475696E6F2D6D6963726F2E6B69,rev?*
G04 #@! TF.SameCoordinates,PX8c5fca8PY9629108*
G04 #@! TF.FileFunction,Copper,L2,Bot,Signal*
G04 #@! TF.FilePolarity,Positive*
%FSLAX46Y46*%
G04 Gerber Fmt 4.6, Leading zero omitted, Abs format (unit mm)*
G04 Created by KiCad (PCBNEW 6.0.0-rc1-unknown-3024ded~66~ubuntu18.04.1) date Mon 05 Nov 2018 07:27:41 PM PST*
%MOMM*%
%LPD*%
G01*
G04 APERTURE LIST*
G04 #@! TA.AperFunction,Conductor*
%ADD10C,0.100000*%
G04 #@! TD*
G04 #@! TA.AperFunction,ComponentPad*
%ADD11C,2.200000*%
G04 #@! TD*
G04 #@! TA.AperFunction,ComponentPad*
%ADD12C,1.500000*%
G04 #@! TD*
G04 #@! TA.AperFunction,ComponentPad*
%ADD13R,1.600000X1.600000*%
G04 #@! TD*
G04 #@! TA.AperFunction,ComponentPad*
%ADD14C,1.600000*%
G04 #@! TD*
G04 #@! TA.AperFunction,ComponentPad*
%ADD15R,4.200000X3.000000*%
G04 #@! TD*
G04 #@! TA.AperFunction,ComponentPad*
%ADD16C,2.300000*%
G04 #@! TD*
G04 #@! TA.AperFunction,ViaPad*
%ADD17C,2.000000*%
G04 #@! TD*
G04 #@! TA.AperFunction,Conductor*
%ADD18C,0.350000*%
G04 #@! TD*
G04 #@! TA.AperFunction,Conductor*
%ADD19C,0.254000*%
G04 #@! TD*
G04 APERTURE END LIST*
D10*
G04 #@! TO.N,GND*
G04 #@! TO.C,M1*
G36*
X17601252Y12503075D02*
X17632005Y12498513D01*
X17662162Y12490959D01*
X17691434Y12480485D01*
X17719538Y12467193D01*
X17746205Y12451210D01*
X17771176Y12432690D01*
X17794211Y12411811D01*
X17815090Y12388776D01*
X17833610Y12363805D01*
X17849593Y12337138D01*
X17862885Y12309034D01*
X17873359Y12279762D01*
X17880913Y12249605D01*
X17885475Y12218852D01*
X17887000Y12187800D01*
X17887000Y10621400D01*
X17885475Y10590348D01*
X17880913Y10559595D01*
X17873359Y10529438D01*
X17862885Y10500166D01*
X17849593Y10472062D01*
X17833610Y10445395D01*
X17815090Y10420424D01*
X17794211Y10397389D01*
X17771176Y10376510D01*
X17746205Y10357990D01*
X17719538Y10342007D01*
X17691434Y10328715D01*
X17662162Y10318241D01*
X17632005Y10310687D01*
X17601252Y10306125D01*
X17570200Y10304600D01*
X15703800Y10304600D01*
X15672748Y10306125D01*
X15641995Y10310687D01*
X15611838Y10318241D01*
X15582566Y10328715D01*
X15554462Y10342007D01*
X15527795Y10357990D01*
X15502824Y10376510D01*
X15479789Y10397389D01*
X15458910Y10420424D01*
X15440390Y10445395D01*
X15424407Y10472062D01*
X15411115Y10500166D01*
X15400641Y10529438D01*
X15393087Y10559595D01*
X15388525Y10590348D01*
X15387000Y10621400D01*
X15387000Y12187800D01*
X15388525Y12218852D01*
X15393087Y12249605D01*
X15400641Y12279762D01*
X15411115Y12309034D01*
X15424407Y12337138D01*
X15440390Y12363805D01*
X15458910Y12388776D01*
X15479789Y12411811D01*
X15502824Y12432690D01*
X15527795Y12451210D01*
X15554462Y12467193D01*
X15582566Y12480485D01*
X15611838Y12490959D01*
X15641995Y12498513D01*
X15672748Y12503075D01*
X15703800Y12504600D01*
X17570200Y12504600D01*
X17601252Y12503075D01*
X17601252Y12503075D01*
G37*
D11*
G04 #@! TD*
G04 #@! TO.P,M1,1*
G04 #@! TO.N,GND*
X16637000Y11404600D03*
D10*
G04 #@! TO.N,+12V*
G04 #@! TO.C,M1*
G36*
X17601252Y9963075D02*
X17632005Y9958513D01*
X17662162Y9950959D01*
X17691434Y9940485D01*
X17719538Y9927193D01*
X17746205Y9911210D01*
X17771176Y9892690D01*
X17794211Y9871811D01*
X17815090Y9848776D01*
X17833610Y9823805D01*
X17849593Y9797138D01*
X17862885Y9769034D01*
X17873359Y9739762D01*
X17880913Y9709605D01*
X17885475Y9678852D01*
X17887000Y9647800D01*
X17887000Y8081400D01*
X17885475Y8050348D01*
X17880913Y8019595D01*
X17873359Y7989438D01*
X17862885Y7960166D01*
X17849593Y7932062D01*
X17833610Y7905395D01*
X17815090Y7880424D01*
X17794211Y7857389D01*
X17771176Y7836510D01*
X17746205Y7817990D01*
X17719538Y7802007D01*
X17691434Y7788715D01*
X17662162Y7778241D01*
X17632005Y7770687D01*
X17601252Y7766125D01*
X17570200Y7764600D01*
X15703800Y7764600D01*
X15672748Y7766125D01*
X15641995Y7770687D01*
X15611838Y7778241D01*
X15582566Y7788715D01*
X15554462Y7802007D01*
X15527795Y7817990D01*
X15502824Y7836510D01*
X15479789Y7857389D01*
X15458910Y7880424D01*
X15440390Y7905395D01*
X15424407Y7932062D01*
X15411115Y7960166D01*
X15400641Y7989438D01*
X15393087Y8019595D01*
X15388525Y8050348D01*
X15387000Y8081400D01*
X15387000Y9647800D01*
X15388525Y9678852D01*
X15393087Y9709605D01*
X15400641Y9739762D01*
X15411115Y9769034D01*
X15424407Y9797138D01*
X15440390Y9823805D01*
X15458910Y9848776D01*
X15479789Y9871811D01*
X15502824Y9892690D01*
X15527795Y9911210D01*
X15554462Y9927193D01*
X15582566Y9940485D01*
X15611838Y9950959D01*
X15641995Y9958513D01*
X15672748Y9963075D01*
X15703800Y9964600D01*
X17570200Y9964600D01*
X17601252Y9963075D01*
X17601252Y9963075D01*
G37*
D11*
G04 #@! TD*
G04 #@! TO.P,M1,2*
G04 #@! TO.N,+12V*
X16637000Y8864600D03*
D10*
G04 #@! TO.N,Net-(M1-Pad3)*
G04 #@! TO.C,M1*
G36*
X17601252Y7423075D02*
X17632005Y7418513D01*
X17662162Y7410959D01*
X17691434Y7400485D01*
X17719538Y7387193D01*
X17746205Y7371210D01*
X17771176Y7352690D01*
X17794211Y7331811D01*
X17815090Y7308776D01*
X17833610Y7283805D01*
X17849593Y7257138D01*
X17862885Y7229034D01*
X17873359Y7199762D01*
X17880913Y7169605D01*
X17885475Y7138852D01*
X17887000Y7107800D01*
X17887000Y5541400D01*
X17885475Y5510348D01*
X17880913Y5479595D01*
X17873359Y5449438D01*
X17862885Y5420166D01*
X17849593Y5392062D01*
X17833610Y5365395D01*
X17815090Y5340424D01*
X17794211Y5317389D01*
X17771176Y5296510D01*
X17746205Y5277990D01*
X17719538Y5262007D01*
X17691434Y5248715D01*
X17662162Y5238241D01*
X17632005Y5230687D01*
X17601252Y5226125D01*
X17570200Y5224600D01*
X15703800Y5224600D01*
X15672748Y5226125D01*
X15641995Y5230687D01*
X15611838Y5238241D01*
X15582566Y5248715D01*
X15554462Y5262007D01*
X15527795Y5277990D01*
X15502824Y5296510D01*
X15479789Y5317389D01*
X15458910Y5340424D01*
X15440390Y5365395D01*
X15424407Y5392062D01*
X15411115Y5420166D01*
X15400641Y5449438D01*
X15393087Y5479595D01*
X15388525Y5510348D01*
X15387000Y5541400D01*
X15387000Y7107800D01*
X15388525Y7138852D01*
X15393087Y7169605D01*
X15400641Y7199762D01*
X15411115Y7229034D01*
X15424407Y7257138D01*
X15440390Y7283805D01*
X15458910Y7308776D01*
X15479789Y7331811D01*
X15502824Y7352690D01*
X15527795Y7371210D01*
X15554462Y7387193D01*
X15582566Y7400485D01*
X15611838Y7410959D01*
X15641995Y7418513D01*
X15672748Y7423075D01*
X15703800Y7424600D01*
X17570200Y7424600D01*
X17601252Y7423075D01*
X17601252Y7423075D01*
G37*
D11*
G04 #@! TD*
G04 #@! TO.P,M1,3*
G04 #@! TO.N,Net-(M1-Pad3)*
X16637000Y6324600D03*
D10*
G04 #@! TO.N,Net-(M1-Pad4)*
G04 #@! TO.C,M1*
G36*
X17601252Y4883075D02*
X17632005Y4878513D01*
X17662162Y4870959D01*
X17691434Y4860485D01*
X17719538Y4847193D01*
X17746205Y4831210D01*
X17771176Y4812690D01*
X17794211Y4791811D01*
X17815090Y4768776D01*
X17833610Y4743805D01*
X17849593Y4717138D01*
X17862885Y4689034D01*
X17873359Y4659762D01*
X17880913Y4629605D01*
X17885475Y4598852D01*
X17887000Y4567800D01*
X17887000Y3001400D01*
X17885475Y2970348D01*
X17880913Y2939595D01*
X17873359Y2909438D01*
X17862885Y2880166D01*
X17849593Y2852062D01*
X17833610Y2825395D01*
X17815090Y2800424D01*
X17794211Y2777389D01*
X17771176Y2756510D01*
X17746205Y2737990D01*
X17719538Y2722007D01*
X17691434Y2708715D01*
X17662162Y2698241D01*
X17632005Y2690687D01*
X17601252Y2686125D01*
X17570200Y2684600D01*
X15703800Y2684600D01*
X15672748Y2686125D01*
X15641995Y2690687D01*
X15611838Y2698241D01*
X15582566Y2708715D01*
X15554462Y2722007D01*
X15527795Y2737990D01*
X15502824Y2756510D01*
X15479789Y2777389D01*
X15458910Y2800424D01*
X15440390Y2825395D01*
X15424407Y2852062D01*
X15411115Y2880166D01*
X15400641Y2909438D01*
X15393087Y2939595D01*
X15388525Y2970348D01*
X15387000Y3001400D01*
X15387000Y4567800D01*
X15388525Y4598852D01*
X15393087Y4629605D01*
X15400641Y4659762D01*
X15411115Y4689034D01*
X15424407Y4717138D01*
X15440390Y4743805D01*
X15458910Y4768776D01*
X15479789Y4791811D01*
X15502824Y4812690D01*
X15527795Y4831210D01*
X15554462Y4847193D01*
X15582566Y4860485D01*
X15611838Y4870959D01*
X15641995Y4878513D01*
X15672748Y4883075D01*
X15703800Y4884600D01*
X17570200Y4884600D01*
X17601252Y4883075D01*
X17601252Y4883075D01*
G37*
D11*
G04 #@! TD*
G04 #@! TO.P,M1,4*
G04 #@! TO.N,Net-(M1-Pad4)*
X16637000Y3784600D03*
D10*
G04 #@! TO.N,Net-(U1-Pad6)*
G04 #@! TO.C,U2*
G36*
X42448756Y40592794D02*
X42485159Y40587394D01*
X42520857Y40578453D01*
X42555506Y40566055D01*
X42588774Y40550320D01*
X42620339Y40531401D01*
X42649897Y40509479D01*
X42677165Y40484765D01*
X42701879Y40457497D01*
X42723801Y40427939D01*
X42742720Y40396374D01*
X42758455Y40363106D01*
X42770853Y40328457D01*
X42779794Y40292759D01*
X42785194Y40256356D01*
X42787000Y40219600D01*
X42787000Y38469600D01*
X42785194Y38432844D01*
X42779794Y38396441D01*
X42770853Y38360743D01*
X42758455Y38326094D01*
X42742720Y38292826D01*
X42723801Y38261261D01*
X42701879Y38231703D01*
X42677165Y38204435D01*
X42649897Y38179721D01*
X42620339Y38157799D01*
X42588774Y38138880D01*
X42555506Y38123145D01*
X42520857Y38110747D01*
X42485159Y38101806D01*
X42448756Y38096406D01*
X42412000Y38094600D01*
X41662000Y38094600D01*
X41625244Y38096406D01*
X41588841Y38101806D01*
X41553143Y38110747D01*
X41518494Y38123145D01*
X41485226Y38138880D01*
X41453661Y38157799D01*
X41424103Y38179721D01*
X41396835Y38204435D01*
X41372121Y38231703D01*
X41350199Y38261261D01*
X41331280Y38292826D01*
X41315545Y38326094D01*
X41303147Y38360743D01*
X41294206Y38396441D01*
X41288806Y38432844D01*
X41287000Y38469600D01*
X41287000Y40219600D01*
X41288806Y40256356D01*
X41294206Y40292759D01*
X41303147Y40328457D01*
X41315545Y40363106D01*
X41331280Y40396374D01*
X41350199Y40427939D01*
X41372121Y40457497D01*
X41396835Y40484765D01*
X41424103Y40509479D01*
X41453661Y40531401D01*
X41485226Y40550320D01*
X41518494Y40566055D01*
X41553143Y40578453D01*
X41588841Y40587394D01*
X41625244Y40592794D01*
X41662000Y40594600D01*
X42412000Y40594600D01*
X42448756Y40592794D01*
X42448756Y40592794D01*
G37*
D12*
G04 #@! TD*
G04 #@! TO.P,U2,1*
G04 #@! TO.N,Net-(U1-Pad6)*
X42037000Y39344600D03*
D10*
G04 #@! TO.N,Net-(U1-Pad5)*
G04 #@! TO.C,U2*
G36*
X44988756Y40592794D02*
X45025159Y40587394D01*
X45060857Y40578453D01*
X45095506Y40566055D01*
X45128774Y40550320D01*
X45160339Y40531401D01*
X45189897Y40509479D01*
X45217165Y40484765D01*
X45241879Y40457497D01*
X45263801Y40427939D01*
X45282720Y40396374D01*
X45298455Y40363106D01*
X45310853Y40328457D01*
X45319794Y40292759D01*
X45325194Y40256356D01*
X45327000Y40219600D01*
X45327000Y38469600D01*
X45325194Y38432844D01*
X45319794Y38396441D01*
X45310853Y38360743D01*
X45298455Y38326094D01*
X45282720Y38292826D01*
X45263801Y38261261D01*
X45241879Y38231703D01*
X45217165Y38204435D01*
X45189897Y38179721D01*
X45160339Y38157799D01*
X45128774Y38138880D01*
X45095506Y38123145D01*
X45060857Y38110747D01*
X45025159Y38101806D01*
X44988756Y38096406D01*
X44952000Y38094600D01*
X44202000Y38094600D01*
X44165244Y38096406D01*
X44128841Y38101806D01*
X44093143Y38110747D01*
X44058494Y38123145D01*
X44025226Y38138880D01*
X43993661Y38157799D01*
X43964103Y38179721D01*
X43936835Y38204435D01*
X43912121Y38231703D01*
X43890199Y38261261D01*
X43871280Y38292826D01*
X43855545Y38326094D01*
X43843147Y38360743D01*
X43834206Y38396441D01*
X43828806Y38432844D01*
X43827000Y38469600D01*
X43827000Y40219600D01*
X43828806Y40256356D01*
X43834206Y40292759D01*
X43843147Y40328457D01*
X43855545Y40363106D01*
X43871280Y40396374D01*
X43890199Y40427939D01*
X43912121Y40457497D01*
X43936835Y40484765D01*
X43964103Y40509479D01*
X43993661Y40531401D01*
X44025226Y40550320D01*
X44058494Y40566055D01*
X44093143Y40578453D01*
X44128841Y40587394D01*
X44165244Y40592794D01*
X44202000Y40594600D01*
X44952000Y40594600D01*
X44988756Y40592794D01*
X44988756Y40592794D01*
G37*
D12*
G04 #@! TD*
G04 #@! TO.P,U2,2*
G04 #@! TO.N,Net-(U1-Pad5)*
X44577000Y39344600D03*
D10*
G04 #@! TO.N,Net-(U1-Pad9)*
G04 #@! TO.C,U2*
G36*
X47528756Y40592794D02*
X47565159Y40587394D01*
X47600857Y40578453D01*
X47635506Y40566055D01*
X47668774Y40550320D01*
X47700339Y40531401D01*
X47729897Y40509479D01*
X47757165Y40484765D01*
X47781879Y40457497D01*
X47803801Y40427939D01*
X47822720Y40396374D01*
X47838455Y40363106D01*
X47850853Y40328457D01*
X47859794Y40292759D01*
X47865194Y40256356D01*
X47867000Y40219600D01*
X47867000Y38469600D01*
X47865194Y38432844D01*
X47859794Y38396441D01*
X47850853Y38360743D01*
X47838455Y38326094D01*
X47822720Y38292826D01*
X47803801Y38261261D01*
X47781879Y38231703D01*
X47757165Y38204435D01*
X47729897Y38179721D01*
X47700339Y38157799D01*
X47668774Y38138880D01*
X47635506Y38123145D01*
X47600857Y38110747D01*
X47565159Y38101806D01*
X47528756Y38096406D01*
X47492000Y38094600D01*
X46742000Y38094600D01*
X46705244Y38096406D01*
X46668841Y38101806D01*
X46633143Y38110747D01*
X46598494Y38123145D01*
X46565226Y38138880D01*
X46533661Y38157799D01*
X46504103Y38179721D01*
X46476835Y38204435D01*
X46452121Y38231703D01*
X46430199Y38261261D01*
X46411280Y38292826D01*
X46395545Y38326094D01*
X46383147Y38360743D01*
X46374206Y38396441D01*
X46368806Y38432844D01*
X46367000Y38469600D01*
X46367000Y40219600D01*
X46368806Y40256356D01*
X46374206Y40292759D01*
X46383147Y40328457D01*
X46395545Y40363106D01*
X46411280Y40396374D01*
X46430199Y40427939D01*
X46452121Y40457497D01*
X46476835Y40484765D01*
X46504103Y40509479D01*
X46533661Y40531401D01*
X46565226Y40550320D01*
X46598494Y40566055D01*
X46633143Y40578453D01*
X46668841Y40587394D01*
X46705244Y40592794D01*
X46742000Y40594600D01*
X47492000Y40594600D01*
X47528756Y40592794D01*
X47528756Y40592794D01*
G37*
D12*
G04 #@! TD*
G04 #@! TO.P,U2,3*
G04 #@! TO.N,Net-(U1-Pad9)*
X47117000Y39344600D03*
D10*
G04 #@! TO.N,Net-(U1-Pad4)*
G04 #@! TO.C,U2*
G36*
X50068756Y40592794D02*
X50105159Y40587394D01*
X50140857Y40578453D01*
X50175506Y40566055D01*
X50208774Y40550320D01*
X50240339Y40531401D01*
X50269897Y40509479D01*
X50297165Y40484765D01*
X50321879Y40457497D01*
X50343801Y40427939D01*
X50362720Y40396374D01*
X50378455Y40363106D01*
X50390853Y40328457D01*
X50399794Y40292759D01*
X50405194Y40256356D01*
X50407000Y40219600D01*
X50407000Y38469600D01*
X50405194Y38432844D01*
X50399794Y38396441D01*
X50390853Y38360743D01*
X50378455Y38326094D01*
X50362720Y38292826D01*
X50343801Y38261261D01*
X50321879Y38231703D01*
X50297165Y38204435D01*
X50269897Y38179721D01*
X50240339Y38157799D01*
X50208774Y38138880D01*
X50175506Y38123145D01*
X50140857Y38110747D01*
X50105159Y38101806D01*
X50068756Y38096406D01*
X50032000Y38094600D01*
X49282000Y38094600D01*
X49245244Y38096406D01*
X49208841Y38101806D01*
X49173143Y38110747D01*
X49138494Y38123145D01*
X49105226Y38138880D01*
X49073661Y38157799D01*
X49044103Y38179721D01*
X49016835Y38204435D01*
X48992121Y38231703D01*
X48970199Y38261261D01*
X48951280Y38292826D01*
X48935545Y38326094D01*
X48923147Y38360743D01*
X48914206Y38396441D01*
X48908806Y38432844D01*
X48907000Y38469600D01*
X48907000Y40219600D01*
X48908806Y40256356D01*
X48914206Y40292759D01*
X48923147Y40328457D01*
X48935545Y40363106D01*
X48951280Y40396374D01*
X48970199Y40427939D01*
X48992121Y40457497D01*
X49016835Y40484765D01*
X49044103Y40509479D01*
X49073661Y40531401D01*
X49105226Y40550320D01*
X49138494Y40566055D01*
X49173143Y40578453D01*
X49208841Y40587394D01*
X49245244Y40592794D01*
X49282000Y40594600D01*
X50032000Y40594600D01*
X50068756Y40592794D01*
X50068756Y40592794D01*
G37*
D12*
G04 #@! TD*
G04 #@! TO.P,U2,4*
G04 #@! TO.N,Net-(U1-Pad4)*
X49657000Y39344600D03*
D10*
G04 #@! TO.N,Net-(U1-Pad8)*
G04 #@! TO.C,U2*
G36*
X52608756Y40592794D02*
X52645159Y40587394D01*
X52680857Y40578453D01*
X52715506Y40566055D01*
X52748774Y40550320D01*
X52780339Y40531401D01*
X52809897Y40509479D01*
X52837165Y40484765D01*
X52861879Y40457497D01*
X52883801Y40427939D01*
X52902720Y40396374D01*
X52918455Y40363106D01*
X52930853Y40328457D01*
X52939794Y40292759D01*
X52945194Y40256356D01*
X52947000Y40219600D01*
X52947000Y38469600D01*
X52945194Y38432844D01*
X52939794Y38396441D01*
X52930853Y38360743D01*
X52918455Y38326094D01*
X52902720Y38292826D01*
X52883801Y38261261D01*
X52861879Y38231703D01*
X52837165Y38204435D01*
X52809897Y38179721D01*
X52780339Y38157799D01*
X52748774Y38138880D01*
X52715506Y38123145D01*
X52680857Y38110747D01*
X52645159Y38101806D01*
X52608756Y38096406D01*
X52572000Y38094600D01*
X51822000Y38094600D01*
X51785244Y38096406D01*
X51748841Y38101806D01*
X51713143Y38110747D01*
X51678494Y38123145D01*
X51645226Y38138880D01*
X51613661Y38157799D01*
X51584103Y38179721D01*
X51556835Y38204435D01*
X51532121Y38231703D01*
X51510199Y38261261D01*
X51491280Y38292826D01*
X51475545Y38326094D01*
X51463147Y38360743D01*
X51454206Y38396441D01*
X51448806Y38432844D01*
X51447000Y38469600D01*
X51447000Y40219600D01*
X51448806Y40256356D01*
X51454206Y40292759D01*
X51463147Y40328457D01*
X51475545Y40363106D01*
X51491280Y40396374D01*
X51510199Y40427939D01*
X51532121Y40457497D01*
X51556835Y40484765D01*
X51584103Y40509479D01*
X51613661Y40531401D01*
X51645226Y40550320D01*
X51678494Y40566055D01*
X51713143Y40578453D01*
X51748841Y40587394D01*
X51785244Y40592794D01*
X51822000Y40594600D01*
X52572000Y40594600D01*
X52608756Y40592794D01*
X52608756Y40592794D01*
G37*
D12*
G04 #@! TD*
G04 #@! TO.P,U2,5*
G04 #@! TO.N,Net-(U1-Pad8)*
X52197000Y39344600D03*
D10*
G04 #@! TO.N,Net-(U1-Pad12)*
G04 #@! TO.C,U2*
G36*
X55148756Y40592794D02*
X55185159Y40587394D01*
X55220857Y40578453D01*
X55255506Y40566055D01*
X55288774Y40550320D01*
X55320339Y40531401D01*
X55349897Y40509479D01*
X55377165Y40484765D01*
X55401879Y40457497D01*
X55423801Y40427939D01*
X55442720Y40396374D01*
X55458455Y40363106D01*
X55470853Y40328457D01*
X55479794Y40292759D01*
X55485194Y40256356D01*
X55487000Y40219600D01*
X55487000Y38469600D01*
X55485194Y38432844D01*
X55479794Y38396441D01*
X55470853Y38360743D01*
X55458455Y38326094D01*
X55442720Y38292826D01*
X55423801Y38261261D01*
X55401879Y38231703D01*
X55377165Y38204435D01*
X55349897Y38179721D01*
X55320339Y38157799D01*
X55288774Y38138880D01*
X55255506Y38123145D01*
X55220857Y38110747D01*
X55185159Y38101806D01*
X55148756Y38096406D01*
X55112000Y38094600D01*
X54362000Y38094600D01*
X54325244Y38096406D01*
X54288841Y38101806D01*
X54253143Y38110747D01*
X54218494Y38123145D01*
X54185226Y38138880D01*
X54153661Y38157799D01*
X54124103Y38179721D01*
X54096835Y38204435D01*
X54072121Y38231703D01*
X54050199Y38261261D01*
X54031280Y38292826D01*
X54015545Y38326094D01*
X54003147Y38360743D01*
X53994206Y38396441D01*
X53988806Y38432844D01*
X53987000Y38469600D01*
X53987000Y40219600D01*
X53988806Y40256356D01*
X53994206Y40292759D01*
X54003147Y40328457D01*
X54015545Y40363106D01*
X54031280Y40396374D01*
X54050199Y40427939D01*
X54072121Y40457497D01*
X54096835Y40484765D01*
X54124103Y40509479D01*
X54153661Y40531401D01*
X54185226Y40550320D01*
X54218494Y40566055D01*
X54253143Y40578453D01*
X54288841Y40587394D01*
X54325244Y40592794D01*
X54362000Y40594600D01*
X55112000Y40594600D01*
X55148756Y40592794D01*
X55148756Y40592794D01*
G37*
D12*
G04 #@! TD*
G04 #@! TO.P,U2,6*
G04 #@! TO.N,Net-(U1-Pad12)*
X54737000Y39344600D03*
D10*
G04 #@! TO.N,Net-(U1-Pad3)*
G04 #@! TO.C,U2*
G36*
X55148756Y25352794D02*
X55185159Y25347394D01*
X55220857Y25338453D01*
X55255506Y25326055D01*
X55288774Y25310320D01*
X55320339Y25291401D01*
X55349897Y25269479D01*
X55377165Y25244765D01*
X55401879Y25217497D01*
X55423801Y25187939D01*
X55442720Y25156374D01*
X55458455Y25123106D01*
X55470853Y25088457D01*
X55479794Y25052759D01*
X55485194Y25016356D01*
X55487000Y24979600D01*
X55487000Y23229600D01*
X55485194Y23192844D01*
X55479794Y23156441D01*
X55470853Y23120743D01*
X55458455Y23086094D01*
X55442720Y23052826D01*
X55423801Y23021261D01*
X55401879Y22991703D01*
X55377165Y22964435D01*
X55349897Y22939721D01*
X55320339Y22917799D01*
X55288774Y22898880D01*
X55255506Y22883145D01*
X55220857Y22870747D01*
X55185159Y22861806D01*
X55148756Y22856406D01*
X55112000Y22854600D01*
X54362000Y22854600D01*
X54325244Y22856406D01*
X54288841Y22861806D01*
X54253143Y22870747D01*
X54218494Y22883145D01*
X54185226Y22898880D01*
X54153661Y22917799D01*
X54124103Y22939721D01*
X54096835Y22964435D01*
X54072121Y22991703D01*
X54050199Y23021261D01*
X54031280Y23052826D01*
X54015545Y23086094D01*
X54003147Y23120743D01*
X53994206Y23156441D01*
X53988806Y23192844D01*
X53987000Y23229600D01*
X53987000Y24979600D01*
X53988806Y25016356D01*
X53994206Y25052759D01*
X54003147Y25088457D01*
X54015545Y25123106D01*
X54031280Y25156374D01*
X54050199Y25187939D01*
X54072121Y25217497D01*
X54096835Y25244765D01*
X54124103Y25269479D01*
X54153661Y25291401D01*
X54185226Y25310320D01*
X54218494Y25326055D01*
X54253143Y25338453D01*
X54288841Y25347394D01*
X54325244Y25352794D01*
X54362000Y25354600D01*
X55112000Y25354600D01*
X55148756Y25352794D01*
X55148756Y25352794D01*
G37*
D12*
G04 #@! TD*
G04 #@! TO.P,U2,7*
G04 #@! TO.N,Net-(U1-Pad3)*
X54737000Y24104600D03*
D10*
G04 #@! TO.N,Net-(U1-Pad13)*
G04 #@! TO.C,U2*
G36*
X52608756Y25352794D02*
X52645159Y25347394D01*
X52680857Y25338453D01*
X52715506Y25326055D01*
X52748774Y25310320D01*
X52780339Y25291401D01*
X52809897Y25269479D01*
X52837165Y25244765D01*
X52861879Y25217497D01*
X52883801Y25187939D01*
X52902720Y25156374D01*
X52918455Y25123106D01*
X52930853Y25088457D01*
X52939794Y25052759D01*
X52945194Y25016356D01*
X52947000Y24979600D01*
X52947000Y23229600D01*
X52945194Y23192844D01*
X52939794Y23156441D01*
X52930853Y23120743D01*
X52918455Y23086094D01*
X52902720Y23052826D01*
X52883801Y23021261D01*
X52861879Y22991703D01*
X52837165Y22964435D01*
X52809897Y22939721D01*
X52780339Y22917799D01*
X52748774Y22898880D01*
X52715506Y22883145D01*
X52680857Y22870747D01*
X52645159Y22861806D01*
X52608756Y22856406D01*
X52572000Y22854600D01*
X51822000Y22854600D01*
X51785244Y22856406D01*
X51748841Y22861806D01*
X51713143Y22870747D01*
X51678494Y22883145D01*
X51645226Y22898880D01*
X51613661Y22917799D01*
X51584103Y22939721D01*
X51556835Y22964435D01*
X51532121Y22991703D01*
X51510199Y23021261D01*
X51491280Y23052826D01*
X51475545Y23086094D01*
X51463147Y23120743D01*
X51454206Y23156441D01*
X51448806Y23192844D01*
X51447000Y23229600D01*
X51447000Y24979600D01*
X51448806Y25016356D01*
X51454206Y25052759D01*
X51463147Y25088457D01*
X51475545Y25123106D01*
X51491280Y25156374D01*
X51510199Y25187939D01*
X51532121Y25217497D01*
X51556835Y25244765D01*
X51584103Y25269479D01*
X51613661Y25291401D01*
X51645226Y25310320D01*
X51678494Y25326055D01*
X51713143Y25338453D01*
X51748841Y25347394D01*
X51785244Y25352794D01*
X51822000Y25354600D01*
X52572000Y25354600D01*
X52608756Y25352794D01*
X52608756Y25352794D01*
G37*
D12*
G04 #@! TD*
G04 #@! TO.P,U2,8*
G04 #@! TO.N,Net-(U1-Pad13)*
X52197000Y24104600D03*
D10*
G04 #@! TO.N,Net-(U1-Pad14)*
G04 #@! TO.C,U2*
G36*
X50068756Y25352794D02*
X50105159Y25347394D01*
X50140857Y25338453D01*
X50175506Y25326055D01*
X50208774Y25310320D01*
X50240339Y25291401D01*
X50269897Y25269479D01*
X50297165Y25244765D01*
X50321879Y25217497D01*
X50343801Y25187939D01*
X50362720Y25156374D01*
X50378455Y25123106D01*
X50390853Y25088457D01*
X50399794Y25052759D01*
X50405194Y25016356D01*
X50407000Y24979600D01*
X50407000Y23229600D01*
X50405194Y23192844D01*
X50399794Y23156441D01*
X50390853Y23120743D01*
X50378455Y23086094D01*
X50362720Y23052826D01*
X50343801Y23021261D01*
X50321879Y22991703D01*
X50297165Y22964435D01*
X50269897Y22939721D01*
X50240339Y22917799D01*
X50208774Y22898880D01*
X50175506Y22883145D01*
X50140857Y22870747D01*
X50105159Y22861806D01*
X50068756Y22856406D01*
X50032000Y22854600D01*
X49282000Y22854600D01*
X49245244Y22856406D01*
X49208841Y22861806D01*
X49173143Y22870747D01*
X49138494Y22883145D01*
X49105226Y22898880D01*
X49073661Y22917799D01*
X49044103Y22939721D01*
X49016835Y22964435D01*
X48992121Y22991703D01*
X48970199Y23021261D01*
X48951280Y23052826D01*
X48935545Y23086094D01*
X48923147Y23120743D01*
X48914206Y23156441D01*
X48908806Y23192844D01*
X48907000Y23229600D01*
X48907000Y24979600D01*
X48908806Y25016356D01*
X48914206Y25052759D01*
X48923147Y25088457D01*
X48935545Y25123106D01*
X48951280Y25156374D01*
X48970199Y25187939D01*
X48992121Y25217497D01*
X49016835Y25244765D01*
X49044103Y25269479D01*
X49073661Y25291401D01*
X49105226Y25310320D01*
X49138494Y25326055D01*
X49173143Y25338453D01*
X49208841Y25347394D01*
X49245244Y25352794D01*
X49282000Y25354600D01*
X50032000Y25354600D01*
X50068756Y25352794D01*
X50068756Y25352794D01*
G37*
D12*
G04 #@! TD*
G04 #@! TO.P,U2,9*
G04 #@! TO.N,Net-(U1-Pad14)*
X49657000Y24104600D03*
D10*
G04 #@! TO.N,Net-(U1-Pad7)*
G04 #@! TO.C,U2*
G36*
X47528756Y25352794D02*
X47565159Y25347394D01*
X47600857Y25338453D01*
X47635506Y25326055D01*
X47668774Y25310320D01*
X47700339Y25291401D01*
X47729897Y25269479D01*
X47757165Y25244765D01*
X47781879Y25217497D01*
X47803801Y25187939D01*
X47822720Y25156374D01*
X47838455Y25123106D01*
X47850853Y25088457D01*
X47859794Y25052759D01*
X47865194Y25016356D01*
X47867000Y24979600D01*
X47867000Y23229600D01*
X47865194Y23192844D01*
X47859794Y23156441D01*
X47850853Y23120743D01*
X47838455Y23086094D01*
X47822720Y23052826D01*
X47803801Y23021261D01*
X47781879Y22991703D01*
X47757165Y22964435D01*
X47729897Y22939721D01*
X47700339Y22917799D01*
X47668774Y22898880D01*
X47635506Y22883145D01*
X47600857Y22870747D01*
X47565159Y22861806D01*
X47528756Y22856406D01*
X47492000Y22854600D01*
X46742000Y22854600D01*
X46705244Y22856406D01*
X46668841Y22861806D01*
X46633143Y22870747D01*
X46598494Y22883145D01*
X46565226Y22898880D01*
X46533661Y22917799D01*
X46504103Y22939721D01*
X46476835Y22964435D01*
X46452121Y22991703D01*
X46430199Y23021261D01*
X46411280Y23052826D01*
X46395545Y23086094D01*
X46383147Y23120743D01*
X46374206Y23156441D01*
X46368806Y23192844D01*
X46367000Y23229600D01*
X46367000Y24979600D01*
X46368806Y25016356D01*
X46374206Y25052759D01*
X46383147Y25088457D01*
X46395545Y25123106D01*
X46411280Y25156374D01*
X46430199Y25187939D01*
X46452121Y25217497D01*
X46476835Y25244765D01*
X46504103Y25269479D01*
X46533661Y25291401D01*
X46565226Y25310320D01*
X46598494Y25326055D01*
X46633143Y25338453D01*
X46668841Y25347394D01*
X46705244Y25352794D01*
X46742000Y25354600D01*
X47492000Y25354600D01*
X47528756Y25352794D01*
X47528756Y25352794D01*
G37*
D12*
G04 #@! TD*
G04 #@! TO.P,U2,10*
G04 #@! TO.N,Net-(U1-Pad7)*
X47117000Y24104600D03*
D10*
G04 #@! TO.N,Net-(U1-Pad2)*
G04 #@! TO.C,U2*
G36*
X44988756Y25352794D02*
X45025159Y25347394D01*
X45060857Y25338453D01*
X45095506Y25326055D01*
X45128774Y25310320D01*
X45160339Y25291401D01*
X45189897Y25269479D01*
X45217165Y25244765D01*
X45241879Y25217497D01*
X45263801Y25187939D01*
X45282720Y25156374D01*
X45298455Y25123106D01*
X45310853Y25088457D01*
X45319794Y25052759D01*
X45325194Y25016356D01*
X45327000Y24979600D01*
X45327000Y23229600D01*
X45325194Y23192844D01*
X45319794Y23156441D01*
X45310853Y23120743D01*
X45298455Y23086094D01*
X45282720Y23052826D01*
X45263801Y23021261D01*
X45241879Y22991703D01*
X45217165Y22964435D01*
X45189897Y22939721D01*
X45160339Y22917799D01*
X45128774Y22898880D01*
X45095506Y22883145D01*
X45060857Y22870747D01*
X45025159Y22861806D01*
X44988756Y22856406D01*
X44952000Y22854600D01*
X44202000Y22854600D01*
X44165244Y22856406D01*
X44128841Y22861806D01*
X44093143Y22870747D01*
X44058494Y22883145D01*
X44025226Y22898880D01*
X43993661Y22917799D01*
X43964103Y22939721D01*
X43936835Y22964435D01*
X43912121Y22991703D01*
X43890199Y23021261D01*
X43871280Y23052826D01*
X43855545Y23086094D01*
X43843147Y23120743D01*
X43834206Y23156441D01*
X43828806Y23192844D01*
X43827000Y23229600D01*
X43827000Y24979600D01*
X43828806Y25016356D01*
X43834206Y25052759D01*
X43843147Y25088457D01*
X43855545Y25123106D01*
X43871280Y25156374D01*
X43890199Y25187939D01*
X43912121Y25217497D01*
X43936835Y25244765D01*
X43964103Y25269479D01*
X43993661Y25291401D01*
X44025226Y25310320D01*
X44058494Y25326055D01*
X44093143Y25338453D01*
X44128841Y25347394D01*
X44165244Y25352794D01*
X44202000Y25354600D01*
X44952000Y25354600D01*
X44988756Y25352794D01*
X44988756Y25352794D01*
G37*
D12*
G04 #@! TD*
G04 #@! TO.P,U2,11*
G04 #@! TO.N,Net-(U1-Pad2)*
X44577000Y24104600D03*
D10*
G04 #@! TO.N,Net-(U1-Pad15)*
G04 #@! TO.C,U2*
G36*
X42448756Y25352794D02*
X42485159Y25347394D01*
X42520857Y25338453D01*
X42555506Y25326055D01*
X42588774Y25310320D01*
X42620339Y25291401D01*
X42649897Y25269479D01*
X42677165Y25244765D01*
X42701879Y25217497D01*
X42723801Y25187939D01*
X42742720Y25156374D01*
X42758455Y25123106D01*
X42770853Y25088457D01*
X42779794Y25052759D01*
X42785194Y25016356D01*
X42787000Y24979600D01*
X42787000Y23229600D01*
X42785194Y23192844D01*
X42779794Y23156441D01*
X42770853Y23120743D01*
X42758455Y23086094D01*
X42742720Y23052826D01*
X42723801Y23021261D01*
X42701879Y22991703D01*
X42677165Y22964435D01*
X42649897Y22939721D01*
X42620339Y22917799D01*
X42588774Y22898880D01*
X42555506Y22883145D01*
X42520857Y22870747D01*
X42485159Y22861806D01*
X42448756Y22856406D01*
X42412000Y22854600D01*
X41662000Y22854600D01*
X41625244Y22856406D01*
X41588841Y22861806D01*
X41553143Y22870747D01*
X41518494Y22883145D01*
X41485226Y22898880D01*
X41453661Y22917799D01*
X41424103Y22939721D01*
X41396835Y22964435D01*
X41372121Y22991703D01*
X41350199Y23021261D01*
X41331280Y23052826D01*
X41315545Y23086094D01*
X41303147Y23120743D01*
X41294206Y23156441D01*
X41288806Y23192844D01*
X41287000Y23229600D01*
X41287000Y24979600D01*
X41288806Y25016356D01*
X41294206Y25052759D01*
X41303147Y25088457D01*
X41315545Y25123106D01*
X41331280Y25156374D01*
X41350199Y25187939D01*
X41372121Y25217497D01*
X41396835Y25244765D01*
X41424103Y25269479D01*
X41453661Y25291401D01*
X41485226Y25310320D01*
X41518494Y25326055D01*
X41553143Y25338453D01*
X41588841Y25347394D01*
X41625244Y25352794D01*
X41662000Y25354600D01*
X42412000Y25354600D01*
X42448756Y25352794D01*
X42448756Y25352794D01*
G37*
D12*
G04 #@! TD*
G04 #@! TO.P,U2,12*
G04 #@! TO.N,Net-(U1-Pad15)*
X42037000Y24104600D03*
D13*
G04 #@! TO.P,C1,1*
G04 #@! TO.N,/5V*
X76327000Y29184600D03*
D14*
G04 #@! TO.P,C1,2*
G04 #@! TO.N,GND*
X76327000Y31684600D03*
G04 #@! TD*
D12*
G04 #@! TO.P,SW1,*
G04 #@! TO.N,*
X18437000Y34184600D03*
X18437000Y29184600D03*
D15*
G04 #@! TO.P,SW1,MP*
G04 #@! TO.N,N/C*
X11437000Y37284600D03*
X11437000Y26084600D03*
D10*
G04 #@! TD*
G04 #@! TO.N,Net-(R2-Pad2)*
G04 #@! TO.C,SW1*
G36*
X4540909Y35281952D02*
X4594300Y35274032D01*
X4646657Y35260917D01*
X4697476Y35242734D01*
X4746268Y35219657D01*
X4792564Y35191908D01*
X4835916Y35159756D01*
X4875909Y35123509D01*
X4912156Y35083516D01*
X4944308Y35040164D01*
X4972057Y34993868D01*
X4995134Y34945076D01*
X5013317Y34894257D01*
X5026432Y34841900D01*
X5034352Y34788509D01*
X5037000Y34734600D01*
X5037000Y33634600D01*
X5034352Y33580691D01*
X5026432Y33527300D01*
X5013317Y33474943D01*
X4995134Y33424124D01*
X4972057Y33375332D01*
X4944308Y33329036D01*
X4912156Y33285684D01*
X4875909Y33245691D01*
X4835916Y33209444D01*
X4792564Y33177292D01*
X4746268Y33149543D01*
X4697476Y33126466D01*
X4646657Y33108283D01*
X4594300Y33095168D01*
X4540909Y33087248D01*
X4487000Y33084600D01*
X3387000Y33084600D01*
X3333091Y33087248D01*
X3279700Y33095168D01*
X3227343Y33108283D01*
X3176524Y33126466D01*
X3127732Y33149543D01*
X3081436Y33177292D01*
X3038084Y33209444D01*
X2998091Y33245691D01*
X2961844Y33285684D01*
X2929692Y33329036D01*
X2901943Y33375332D01*
X2878866Y33424124D01*
X2860683Y33474943D01*
X2847568Y33527300D01*
X2839648Y33580691D01*
X2837000Y33634600D01*
X2837000Y34734600D01*
X2839648Y34788509D01*
X2847568Y34841900D01*
X2860683Y34894257D01*
X2878866Y34945076D01*
X2901943Y34993868D01*
X2929692Y35040164D01*
X2961844Y35083516D01*
X2998091Y35123509D01*
X3038084Y35159756D01*
X3081436Y35191908D01*
X3127732Y35219657D01*
X3176524Y35242734D01*
X3227343Y35260917D01*
X3279700Y35274032D01*
X3333091Y35281952D01*
X3387000Y35284600D01*
X4487000Y35284600D01*
X4540909Y35281952D01*
X4540909Y35281952D01*
G37*
D11*
G04 #@! TO.P,SW1,B*
G04 #@! TO.N,Net-(R2-Pad2)*
X3937000Y34184600D03*
D10*
G04 #@! TD*
G04 #@! TO.N,GND*
G04 #@! TO.C,SW1*
G36*
X4540909Y32781952D02*
X4594300Y32774032D01*
X4646657Y32760917D01*
X4697476Y32742734D01*
X4746268Y32719657D01*
X4792564Y32691908D01*
X4835916Y32659756D01*
X4875909Y32623509D01*
X4912156Y32583516D01*
X4944308Y32540164D01*
X4972057Y32493868D01*
X4995134Y32445076D01*
X5013317Y32394257D01*
X5026432Y32341900D01*
X5034352Y32288509D01*
X5037000Y32234600D01*
X5037000Y31134600D01*
X5034352Y31080691D01*
X5026432Y31027300D01*
X5013317Y30974943D01*
X4995134Y30924124D01*
X4972057Y30875332D01*
X4944308Y30829036D01*
X4912156Y30785684D01*
X4875909Y30745691D01*
X4835916Y30709444D01*
X4792564Y30677292D01*
X4746268Y30649543D01*
X4697476Y30626466D01*
X4646657Y30608283D01*
X4594300Y30595168D01*
X4540909Y30587248D01*
X4487000Y30584600D01*
X3387000Y30584600D01*
X3333091Y30587248D01*
X3279700Y30595168D01*
X3227343Y30608283D01*
X3176524Y30626466D01*
X3127732Y30649543D01*
X3081436Y30677292D01*
X3038084Y30709444D01*
X2998091Y30745691D01*
X2961844Y30785684D01*
X2929692Y30829036D01*
X2901943Y30875332D01*
X2878866Y30924124D01*
X2860683Y30974943D01*
X2847568Y31027300D01*
X2839648Y31080691D01*
X2837000Y31134600D01*
X2837000Y32234600D01*
X2839648Y32288509D01*
X2847568Y32341900D01*
X2860683Y32394257D01*
X2878866Y32445076D01*
X2901943Y32493868D01*
X2929692Y32540164D01*
X2961844Y32583516D01*
X2998091Y32623509D01*
X3038084Y32659756D01*
X3081436Y32691908D01*
X3127732Y32719657D01*
X3176524Y32742734D01*
X3227343Y32760917D01*
X3279700Y32774032D01*
X3333091Y32781952D01*
X3387000Y32784600D01*
X4487000Y32784600D01*
X4540909Y32781952D01*
X4540909Y32781952D01*
G37*
D11*
G04 #@! TO.P,SW1,C*
G04 #@! TO.N,GND*
X3937000Y31684600D03*
D10*
G04 #@! TD*
G04 #@! TO.N,Net-(R1-Pad2)*
G04 #@! TO.C,SW1*
G36*
X4540909Y30281952D02*
X4594300Y30274032D01*
X4646657Y30260917D01*
X4697476Y30242734D01*
X4746268Y30219657D01*
X4792564Y30191908D01*
X4835916Y30159756D01*
X4875909Y30123509D01*
X4912156Y30083516D01*
X4944308Y30040164D01*
X4972057Y29993868D01*
X4995134Y29945076D01*
X5013317Y29894257D01*
X5026432Y29841900D01*
X5034352Y29788509D01*
X5037000Y29734600D01*
X5037000Y28634600D01*
X5034352Y28580691D01*
X5026432Y28527300D01*
X5013317Y28474943D01*
X4995134Y28424124D01*
X4972057Y28375332D01*
X4944308Y28329036D01*
X4912156Y28285684D01*
X4875909Y28245691D01*
X4835916Y28209444D01*
X4792564Y28177292D01*
X4746268Y28149543D01*
X4697476Y28126466D01*
X4646657Y28108283D01*
X4594300Y28095168D01*
X4540909Y28087248D01*
X4487000Y28084600D01*
X3387000Y28084600D01*
X3333091Y28087248D01*
X3279700Y28095168D01*
X3227343Y28108283D01*
X3176524Y28126466D01*
X3127732Y28149543D01*
X3081436Y28177292D01*
X3038084Y28209444D01*
X2998091Y28245691D01*
X2961844Y28285684D01*
X2929692Y28329036D01*
X2901943Y28375332D01*
X2878866Y28424124D01*
X2860683Y28474943D01*
X2847568Y28527300D01*
X2839648Y28580691D01*
X2837000Y28634600D01*
X2837000Y29734600D01*
X2839648Y29788509D01*
X2847568Y29841900D01*
X2860683Y29894257D01*
X2878866Y29945076D01*
X2901943Y29993868D01*
X2929692Y30040164D01*
X2961844Y30083516D01*
X2998091Y30123509D01*
X3038084Y30159756D01*
X3081436Y30191908D01*
X3127732Y30219657D01*
X3176524Y30242734D01*
X3227343Y30260917D01*
X3279700Y30274032D01*
X3333091Y30281952D01*
X3387000Y30284600D01*
X4487000Y30284600D01*
X4540909Y30281952D01*
X4540909Y30281952D01*
G37*
D11*
G04 #@! TO.P,SW1,A*
G04 #@! TO.N,Net-(R1-Pad2)*
X3937000Y29184600D03*
G04 #@! TD*
D10*
G04 #@! TO.N,*
G04 #@! TO.C,XA1*
G36*
X47638360Y20061831D02*
X47694177Y20053552D01*
X47748914Y20039841D01*
X47802043Y20020831D01*
X47853053Y19996705D01*
X47901453Y19967695D01*
X47946776Y19934081D01*
X47988586Y19896186D01*
X48026481Y19854376D01*
X48060095Y19809053D01*
X48089105Y19760653D01*
X48113231Y19709643D01*
X48132241Y19656514D01*
X48145952Y19601777D01*
X48154231Y19545960D01*
X48157000Y19489600D01*
X48157000Y18339600D01*
X48154231Y18283240D01*
X48145952Y18227423D01*
X48132241Y18172686D01*
X48113231Y18119557D01*
X48089105Y18068547D01*
X48060095Y18020147D01*
X48026481Y17974824D01*
X47988586Y17933014D01*
X47946776Y17895119D01*
X47901453Y17861505D01*
X47853053Y17832495D01*
X47802043Y17808369D01*
X47748914Y17789359D01*
X47694177Y17775648D01*
X47638360Y17767369D01*
X47582000Y17764600D01*
X46432000Y17764600D01*
X46375640Y17767369D01*
X46319823Y17775648D01*
X46265086Y17789359D01*
X46211957Y17808369D01*
X46160947Y17832495D01*
X46112547Y17861505D01*
X46067224Y17895119D01*
X46025414Y17933014D01*
X45987519Y17974824D01*
X45953905Y18020147D01*
X45924895Y18068547D01*
X45900769Y18119557D01*
X45881759Y18172686D01*
X45868048Y18227423D01*
X45859769Y18283240D01*
X45857000Y18339600D01*
X45857000Y19489600D01*
X45859769Y19545960D01*
X45868048Y19601777D01*
X45881759Y19656514D01*
X45900769Y19709643D01*
X45924895Y19760653D01*
X45953905Y19809053D01*
X45987519Y19854376D01*
X46025414Y19896186D01*
X46067224Y19934081D01*
X46112547Y19967695D01*
X46160947Y19996705D01*
X46211957Y20020831D01*
X46265086Y20039841D01*
X46319823Y20053552D01*
X46375640Y20061831D01*
X46432000Y20064600D01*
X47582000Y20064600D01*
X47638360Y20061831D01*
X47638360Y20061831D01*
G37*
D16*
G04 #@! TD*
G04 #@! TO.P,XA1,*
G04 #@! TO.N,*
X47007000Y18914600D03*
D10*
G04 #@! TO.N,Net-(XA1-PadRST2)*
G04 #@! TO.C,XA1*
G36*
X40018360Y4821831D02*
X40074177Y4813552D01*
X40128914Y4799841D01*
X40182043Y4780831D01*
X40233053Y4756705D01*
X40281453Y4727695D01*
X40326776Y4694081D01*
X40368586Y4656186D01*
X40406481Y4614376D01*
X40440095Y4569053D01*
X40469105Y4520653D01*
X40493231Y4469643D01*
X40512241Y4416514D01*
X40525952Y4361777D01*
X40534231Y4305960D01*
X40537000Y4249600D01*
X40537000Y3099600D01*
X40534231Y3043240D01*
X40525952Y2987423D01*
X40512241Y2932686D01*
X40493231Y2879557D01*
X40469105Y2828547D01*
X40440095Y2780147D01*
X40406481Y2734824D01*
X40368586Y2693014D01*
X40326776Y2655119D01*
X40281453Y2621505D01*
X40233053Y2592495D01*
X40182043Y2568369D01*
X40128914Y2549359D01*
X40074177Y2535648D01*
X40018360Y2527369D01*
X39962000Y2524600D01*
X38812000Y2524600D01*
X38755640Y2527369D01*
X38699823Y2535648D01*
X38645086Y2549359D01*
X38591957Y2568369D01*
X38540947Y2592495D01*
X38492547Y2621505D01*
X38447224Y2655119D01*
X38405414Y2693014D01*
X38367519Y2734824D01*
X38333905Y2780147D01*
X38304895Y2828547D01*
X38280769Y2879557D01*
X38261759Y2932686D01*
X38248048Y2987423D01*
X38239769Y3043240D01*
X38237000Y3099600D01*
X38237000Y4249600D01*
X38239769Y4305960D01*
X38248048Y4361777D01*
X38261759Y4416514D01*
X38280769Y4469643D01*
X38304895Y4520653D01*
X38333905Y4569053D01*
X38367519Y4614376D01*
X38405414Y4656186D01*
X38447224Y4694081D01*
X38492547Y4727695D01*
X38540947Y4756705D01*
X38591957Y4780831D01*
X38645086Y4799841D01*
X38699823Y4813552D01*
X38755640Y4821831D01*
X38812000Y4824600D01*
X39962000Y4824600D01*
X40018360Y4821831D01*
X40018360Y4821831D01*
G37*
D16*
G04 #@! TD*
G04 #@! TO.P,XA1,RST2*
G04 #@! TO.N,Net-(XA1-PadRST2)*
X39387000Y3674600D03*
D10*
G04 #@! TO.N,/7S_IO*
G04 #@! TO.C,XA1*
G36*
X29858360Y4821831D02*
X29914177Y4813552D01*
X29968914Y4799841D01*
X30022043Y4780831D01*
X30073053Y4756705D01*
X30121453Y4727695D01*
X30166776Y4694081D01*
X30208586Y4656186D01*
X30246481Y4614376D01*
X30280095Y4569053D01*
X30309105Y4520653D01*
X30333231Y4469643D01*
X30352241Y4416514D01*
X30365952Y4361777D01*
X30374231Y4305960D01*
X30377000Y4249600D01*
X30377000Y3099600D01*
X30374231Y3043240D01*
X30365952Y2987423D01*
X30352241Y2932686D01*
X30333231Y2879557D01*
X30309105Y2828547D01*
X30280095Y2780147D01*
X30246481Y2734824D01*
X30208586Y2693014D01*
X30166776Y2655119D01*
X30121453Y2621505D01*
X30073053Y2592495D01*
X30022043Y2568369D01*
X29968914Y2549359D01*
X29914177Y2535648D01*
X29858360Y2527369D01*
X29802000Y2524600D01*
X28652000Y2524600D01*
X28595640Y2527369D01*
X28539823Y2535648D01*
X28485086Y2549359D01*
X28431957Y2568369D01*
X28380947Y2592495D01*
X28332547Y2621505D01*
X28287224Y2655119D01*
X28245414Y2693014D01*
X28207519Y2734824D01*
X28173905Y2780147D01*
X28144895Y2828547D01*
X28120769Y2879557D01*
X28101759Y2932686D01*
X28088048Y2987423D01*
X28079769Y3043240D01*
X28077000Y3099600D01*
X28077000Y4249600D01*
X28079769Y4305960D01*
X28088048Y4361777D01*
X28101759Y4416514D01*
X28120769Y4469643D01*
X28144895Y4520653D01*
X28173905Y4569053D01*
X28207519Y4614376D01*
X28245414Y4656186D01*
X28287224Y4694081D01*
X28332547Y4727695D01*
X28380947Y4756705D01*
X28431957Y4780831D01*
X28485086Y4799841D01*
X28539823Y4813552D01*
X28595640Y4821831D01*
X28652000Y4824600D01*
X29802000Y4824600D01*
X29858360Y4821831D01*
X29858360Y4821831D01*
G37*
D16*
G04 #@! TD*
G04 #@! TO.P,XA1,MOSI*
G04 #@! TO.N,/7S_IO*
X29227000Y3674600D03*
D10*
G04 #@! TO.N,/7S_CLK*
G04 #@! TO.C,XA1*
G36*
X29858360Y20061831D02*
X29914177Y20053552D01*
X29968914Y20039841D01*
X30022043Y20020831D01*
X30073053Y19996705D01*
X30121453Y19967695D01*
X30166776Y19934081D01*
X30208586Y19896186D01*
X30246481Y19854376D01*
X30280095Y19809053D01*
X30309105Y19760653D01*
X30333231Y19709643D01*
X30352241Y19656514D01*
X30365952Y19601777D01*
X30374231Y19545960D01*
X30377000Y19489600D01*
X30377000Y18339600D01*
X30374231Y18283240D01*
X30365952Y18227423D01*
X30352241Y18172686D01*
X30333231Y18119557D01*
X30309105Y18068547D01*
X30280095Y18020147D01*
X30246481Y17974824D01*
X30208586Y17933014D01*
X30166776Y17895119D01*
X30121453Y17861505D01*
X30073053Y17832495D01*
X30022043Y17808369D01*
X29968914Y17789359D01*
X29914177Y17775648D01*
X29858360Y17767369D01*
X29802000Y17764600D01*
X28652000Y17764600D01*
X28595640Y17767369D01*
X28539823Y17775648D01*
X28485086Y17789359D01*
X28431957Y17808369D01*
X28380947Y17832495D01*
X28332547Y17861505D01*
X28287224Y17895119D01*
X28245414Y17933014D01*
X28207519Y17974824D01*
X28173905Y18020147D01*
X28144895Y18068547D01*
X28120769Y18119557D01*
X28101759Y18172686D01*
X28088048Y18227423D01*
X28079769Y18283240D01*
X28077000Y18339600D01*
X28077000Y19489600D01*
X28079769Y19545960D01*
X28088048Y19601777D01*
X28101759Y19656514D01*
X28120769Y19709643D01*
X28144895Y19760653D01*
X28173905Y19809053D01*
X28207519Y19854376D01*
X28245414Y19896186D01*
X28287224Y19934081D01*
X28332547Y19967695D01*
X28380947Y19996705D01*
X28431957Y20020831D01*
X28485086Y20039841D01*
X28539823Y20053552D01*
X28595640Y20061831D01*
X28652000Y20064600D01*
X29802000Y20064600D01*
X29858360Y20061831D01*
X29858360Y20061831D01*
G37*
D16*
G04 #@! TD*
G04 #@! TO.P,XA1,SCK*
G04 #@! TO.N,/7S_CLK*
X29227000Y18914600D03*
D10*
G04 #@! TO.N,Net-(R2-Pad2)*
G04 #@! TO.C,XA1*
G36*
X62878360Y20061831D02*
X62934177Y20053552D01*
X62988914Y20039841D01*
X63042043Y20020831D01*
X63093053Y19996705D01*
X63141453Y19967695D01*
X63186776Y19934081D01*
X63228586Y19896186D01*
X63266481Y19854376D01*
X63300095Y19809053D01*
X63329105Y19760653D01*
X63353231Y19709643D01*
X63372241Y19656514D01*
X63385952Y19601777D01*
X63394231Y19545960D01*
X63397000Y19489600D01*
X63397000Y18339600D01*
X63394231Y18283240D01*
X63385952Y18227423D01*
X63372241Y18172686D01*
X63353231Y18119557D01*
X63329105Y18068547D01*
X63300095Y18020147D01*
X63266481Y17974824D01*
X63228586Y17933014D01*
X63186776Y17895119D01*
X63141453Y17861505D01*
X63093053Y17832495D01*
X63042043Y17808369D01*
X62988914Y17789359D01*
X62934177Y17775648D01*
X62878360Y17767369D01*
X62822000Y17764600D01*
X61672000Y17764600D01*
X61615640Y17767369D01*
X61559823Y17775648D01*
X61505086Y17789359D01*
X61451957Y17808369D01*
X61400947Y17832495D01*
X61352547Y17861505D01*
X61307224Y17895119D01*
X61265414Y17933014D01*
X61227519Y17974824D01*
X61193905Y18020147D01*
X61164895Y18068547D01*
X61140769Y18119557D01*
X61121759Y18172686D01*
X61108048Y18227423D01*
X61099769Y18283240D01*
X61097000Y18339600D01*
X61097000Y19489600D01*
X61099769Y19545960D01*
X61108048Y19601777D01*
X61121759Y19656514D01*
X61140769Y19709643D01*
X61164895Y19760653D01*
X61193905Y19809053D01*
X61227519Y19854376D01*
X61265414Y19896186D01*
X61307224Y19934081D01*
X61352547Y19967695D01*
X61400947Y19996705D01*
X61451957Y20020831D01*
X61505086Y20039841D01*
X61559823Y20053552D01*
X61615640Y20061831D01*
X61672000Y20064600D01*
X62822000Y20064600D01*
X62878360Y20061831D01*
X62878360Y20061831D01*
G37*
D16*
G04 #@! TD*
G04 #@! TO.P,XA1,A0*
G04 #@! TO.N,Net-(R2-Pad2)*
X62247000Y18914600D03*
D10*
G04 #@! TO.N,+12V*
G04 #@! TO.C,XA1*
G36*
X34938360Y20061831D02*
X34994177Y20053552D01*
X35048914Y20039841D01*
X35102043Y20020831D01*
X35153053Y19996705D01*
X35201453Y19967695D01*
X35246776Y19934081D01*
X35288586Y19896186D01*
X35326481Y19854376D01*
X35360095Y19809053D01*
X35389105Y19760653D01*
X35413231Y19709643D01*
X35432241Y19656514D01*
X35445952Y19601777D01*
X35454231Y19545960D01*
X35457000Y19489600D01*
X35457000Y18339600D01*
X35454231Y18283240D01*
X35445952Y18227423D01*
X35432241Y18172686D01*
X35413231Y18119557D01*
X35389105Y18068547D01*
X35360095Y18020147D01*
X35326481Y17974824D01*
X35288586Y17933014D01*
X35246776Y17895119D01*
X35201453Y17861505D01*
X35153053Y17832495D01*
X35102043Y17808369D01*
X35048914Y17789359D01*
X34994177Y17775648D01*
X34938360Y17767369D01*
X34882000Y17764600D01*
X33732000Y17764600D01*
X33675640Y17767369D01*
X33619823Y17775648D01*
X33565086Y17789359D01*
X33511957Y17808369D01*
X33460947Y17832495D01*
X33412547Y17861505D01*
X33367224Y17895119D01*
X33325414Y17933014D01*
X33287519Y17974824D01*
X33253905Y18020147D01*
X33224895Y18068547D01*
X33200769Y18119557D01*
X33181759Y18172686D01*
X33168048Y18227423D01*
X33159769Y18283240D01*
X33157000Y18339600D01*
X33157000Y19489600D01*
X33159769Y19545960D01*
X33168048Y19601777D01*
X33181759Y19656514D01*
X33200769Y19709643D01*
X33224895Y19760653D01*
X33253905Y19809053D01*
X33287519Y19854376D01*
X33325414Y19896186D01*
X33367224Y19934081D01*
X33412547Y19967695D01*
X33460947Y19996705D01*
X33511957Y20020831D01*
X33565086Y20039841D01*
X33619823Y20053552D01*
X33675640Y20061831D01*
X33732000Y20064600D01*
X34882000Y20064600D01*
X34938360Y20061831D01*
X34938360Y20061831D01*
G37*
D16*
G04 #@! TD*
G04 #@! TO.P,XA1,VIN*
G04 #@! TO.N,+12V*
X34307000Y18914600D03*
D10*
G04 #@! TO.N,GND*
G04 #@! TO.C,XA1*
G36*
X42558360Y4821831D02*
X42614177Y4813552D01*
X42668914Y4799841D01*
X42722043Y4780831D01*
X42773053Y4756705D01*
X42821453Y4727695D01*
X42866776Y4694081D01*
X42908586Y4656186D01*
X42946481Y4614376D01*
X42980095Y4569053D01*
X43009105Y4520653D01*
X43033231Y4469643D01*
X43052241Y4416514D01*
X43065952Y4361777D01*
X43074231Y4305960D01*
X43077000Y4249600D01*
X43077000Y3099600D01*
X43074231Y3043240D01*
X43065952Y2987423D01*
X43052241Y2932686D01*
X43033231Y2879557D01*
X43009105Y2828547D01*
X42980095Y2780147D01*
X42946481Y2734824D01*
X42908586Y2693014D01*
X42866776Y2655119D01*
X42821453Y2621505D01*
X42773053Y2592495D01*
X42722043Y2568369D01*
X42668914Y2549359D01*
X42614177Y2535648D01*
X42558360Y2527369D01*
X42502000Y2524600D01*
X41352000Y2524600D01*
X41295640Y2527369D01*
X41239823Y2535648D01*
X41185086Y2549359D01*
X41131957Y2568369D01*
X41080947Y2592495D01*
X41032547Y2621505D01*
X40987224Y2655119D01*
X40945414Y2693014D01*
X40907519Y2734824D01*
X40873905Y2780147D01*
X40844895Y2828547D01*
X40820769Y2879557D01*
X40801759Y2932686D01*
X40788048Y2987423D01*
X40779769Y3043240D01*
X40777000Y3099600D01*
X40777000Y4249600D01*
X40779769Y4305960D01*
X40788048Y4361777D01*
X40801759Y4416514D01*
X40820769Y4469643D01*
X40844895Y4520653D01*
X40873905Y4569053D01*
X40907519Y4614376D01*
X40945414Y4656186D01*
X40987224Y4694081D01*
X41032547Y4727695D01*
X41080947Y4756705D01*
X41131957Y4780831D01*
X41185086Y4799841D01*
X41239823Y4813552D01*
X41295640Y4821831D01*
X41352000Y4824600D01*
X42502000Y4824600D01*
X42558360Y4821831D01*
X42558360Y4821831D01*
G37*
D16*
G04 #@! TD*
G04 #@! TO.P,XA1,GND2*
G04 #@! TO.N,GND*
X41927000Y3674600D03*
D10*
G04 #@! TO.N,GND*
G04 #@! TO.C,XA1*
G36*
X37478360Y20061831D02*
X37534177Y20053552D01*
X37588914Y20039841D01*
X37642043Y20020831D01*
X37693053Y19996705D01*
X37741453Y19967695D01*
X37786776Y19934081D01*
X37828586Y19896186D01*
X37866481Y19854376D01*
X37900095Y19809053D01*
X37929105Y19760653D01*
X37953231Y19709643D01*
X37972241Y19656514D01*
X37985952Y19601777D01*
X37994231Y19545960D01*
X37997000Y19489600D01*
X37997000Y18339600D01*
X37994231Y18283240D01*
X37985952Y18227423D01*
X37972241Y18172686D01*
X37953231Y18119557D01*
X37929105Y18068547D01*
X37900095Y18020147D01*
X37866481Y17974824D01*
X37828586Y17933014D01*
X37786776Y17895119D01*
X37741453Y17861505D01*
X37693053Y17832495D01*
X37642043Y17808369D01*
X37588914Y17789359D01*
X37534177Y17775648D01*
X37478360Y17767369D01*
X37422000Y17764600D01*
X36272000Y17764600D01*
X36215640Y17767369D01*
X36159823Y17775648D01*
X36105086Y17789359D01*
X36051957Y17808369D01*
X36000947Y17832495D01*
X35952547Y17861505D01*
X35907224Y17895119D01*
X35865414Y17933014D01*
X35827519Y17974824D01*
X35793905Y18020147D01*
X35764895Y18068547D01*
X35740769Y18119557D01*
X35721759Y18172686D01*
X35708048Y18227423D01*
X35699769Y18283240D01*
X35697000Y18339600D01*
X35697000Y19489600D01*
X35699769Y19545960D01*
X35708048Y19601777D01*
X35721759Y19656514D01*
X35740769Y19709643D01*
X35764895Y19760653D01*
X35793905Y19809053D01*
X35827519Y19854376D01*
X35865414Y19896186D01*
X35907224Y19934081D01*
X35952547Y19967695D01*
X36000947Y19996705D01*
X36051957Y20020831D01*
X36105086Y20039841D01*
X36159823Y20053552D01*
X36215640Y20061831D01*
X36272000Y20064600D01*
X37422000Y20064600D01*
X37478360Y20061831D01*
X37478360Y20061831D01*
G37*
D16*
G04 #@! TD*
G04 #@! TO.P,XA1,GND1*
G04 #@! TO.N,GND*
X36847000Y18914600D03*
D10*
G04 #@! TO.N,/5V*
G04 #@! TO.C,XA1*
G36*
X42558360Y20061831D02*
X42614177Y20053552D01*
X42668914Y20039841D01*
X42722043Y20020831D01*
X42773053Y19996705D01*
X42821453Y19967695D01*
X42866776Y19934081D01*
X42908586Y19896186D01*
X42946481Y19854376D01*
X42980095Y19809053D01*
X43009105Y19760653D01*
X43033231Y19709643D01*
X43052241Y19656514D01*
X43065952Y19601777D01*
X43074231Y19545960D01*
X43077000Y19489600D01*
X43077000Y18339600D01*
X43074231Y18283240D01*
X43065952Y18227423D01*
X43052241Y18172686D01*
X43033231Y18119557D01*
X43009105Y18068547D01*
X42980095Y18020147D01*
X42946481Y17974824D01*
X42908586Y17933014D01*
X42866776Y17895119D01*
X42821453Y17861505D01*
X42773053Y17832495D01*
X42722043Y17808369D01*
X42668914Y17789359D01*
X42614177Y17775648D01*
X42558360Y17767369D01*
X42502000Y17764600D01*
X41352000Y17764600D01*
X41295640Y17767369D01*
X41239823Y17775648D01*
X41185086Y17789359D01*
X41131957Y17808369D01*
X41080947Y17832495D01*
X41032547Y17861505D01*
X40987224Y17895119D01*
X40945414Y17933014D01*
X40907519Y17974824D01*
X40873905Y18020147D01*
X40844895Y18068547D01*
X40820769Y18119557D01*
X40801759Y18172686D01*
X40788048Y18227423D01*
X40779769Y18283240D01*
X40777000Y18339600D01*
X40777000Y19489600D01*
X40779769Y19545960D01*
X40788048Y19601777D01*
X40801759Y19656514D01*
X40820769Y19709643D01*
X40844895Y19760653D01*
X40873905Y19809053D01*
X40907519Y19854376D01*
X40945414Y19896186D01*
X40987224Y19934081D01*
X41032547Y19967695D01*
X41080947Y19996705D01*
X41131957Y20020831D01*
X41185086Y20039841D01*
X41239823Y20053552D01*
X41295640Y20061831D01*
X41352000Y20064600D01*
X42502000Y20064600D01*
X42558360Y20061831D01*
X42558360Y20061831D01*
G37*
D16*
G04 #@! TD*
G04 #@! TO.P,XA1,5V*
G04 #@! TO.N,/5V*
X41927000Y18914600D03*
D10*
G04 #@! TO.N,Net-(XA1-Pad3V3)*
G04 #@! TO.C,XA1*
G36*
X67958360Y20061831D02*
X68014177Y20053552D01*
X68068914Y20039841D01*
X68122043Y20020831D01*
X68173053Y19996705D01*
X68221453Y19967695D01*
X68266776Y19934081D01*
X68308586Y19896186D01*
X68346481Y19854376D01*
X68380095Y19809053D01*
X68409105Y19760653D01*
X68433231Y19709643D01*
X68452241Y19656514D01*
X68465952Y19601777D01*
X68474231Y19545960D01*
X68477000Y19489600D01*
X68477000Y18339600D01*
X68474231Y18283240D01*
X68465952Y18227423D01*
X68452241Y18172686D01*
X68433231Y18119557D01*
X68409105Y18068547D01*
X68380095Y18020147D01*
X68346481Y17974824D01*
X68308586Y17933014D01*
X68266776Y17895119D01*
X68221453Y17861505D01*
X68173053Y17832495D01*
X68122043Y17808369D01*
X68068914Y17789359D01*
X68014177Y17775648D01*
X67958360Y17767369D01*
X67902000Y17764600D01*
X66752000Y17764600D01*
X66695640Y17767369D01*
X66639823Y17775648D01*
X66585086Y17789359D01*
X66531957Y17808369D01*
X66480947Y17832495D01*
X66432547Y17861505D01*
X66387224Y17895119D01*
X66345414Y17933014D01*
X66307519Y17974824D01*
X66273905Y18020147D01*
X66244895Y18068547D01*
X66220769Y18119557D01*
X66201759Y18172686D01*
X66188048Y18227423D01*
X66179769Y18283240D01*
X66177000Y18339600D01*
X66177000Y19489600D01*
X66179769Y19545960D01*
X66188048Y19601777D01*
X66201759Y19656514D01*
X66220769Y19709643D01*
X66244895Y19760653D01*
X66273905Y19809053D01*
X66307519Y19854376D01*
X66345414Y19896186D01*
X66387224Y19934081D01*
X66432547Y19967695D01*
X66480947Y19996705D01*
X66531957Y20020831D01*
X66585086Y20039841D01*
X66639823Y20053552D01*
X66695640Y20061831D01*
X66752000Y20064600D01*
X67902000Y20064600D01*
X67958360Y20061831D01*
X67958360Y20061831D01*
G37*
D16*
G04 #@! TD*
G04 #@! TO.P,XA1,3V3*
G04 #@! TO.N,Net-(XA1-Pad3V3)*
X67327000Y18914600D03*
D10*
G04 #@! TO.N,Net-(XA1-PadRST1)*
G04 #@! TO.C,XA1*
G36*
X40018360Y20061831D02*
X40074177Y20053552D01*
X40128914Y20039841D01*
X40182043Y20020831D01*
X40233053Y19996705D01*
X40281453Y19967695D01*
X40326776Y19934081D01*
X40368586Y19896186D01*
X40406481Y19854376D01*
X40440095Y19809053D01*
X40469105Y19760653D01*
X40493231Y19709643D01*
X40512241Y19656514D01*
X40525952Y19601777D01*
X40534231Y19545960D01*
X40537000Y19489600D01*
X40537000Y18339600D01*
X40534231Y18283240D01*
X40525952Y18227423D01*
X40512241Y18172686D01*
X40493231Y18119557D01*
X40469105Y18068547D01*
X40440095Y18020147D01*
X40406481Y17974824D01*
X40368586Y17933014D01*
X40326776Y17895119D01*
X40281453Y17861505D01*
X40233053Y17832495D01*
X40182043Y17808369D01*
X40128914Y17789359D01*
X40074177Y17775648D01*
X40018360Y17767369D01*
X39962000Y17764600D01*
X38812000Y17764600D01*
X38755640Y17767369D01*
X38699823Y17775648D01*
X38645086Y17789359D01*
X38591957Y17808369D01*
X38540947Y17832495D01*
X38492547Y17861505D01*
X38447224Y17895119D01*
X38405414Y17933014D01*
X38367519Y17974824D01*
X38333905Y18020147D01*
X38304895Y18068547D01*
X38280769Y18119557D01*
X38261759Y18172686D01*
X38248048Y18227423D01*
X38239769Y18283240D01*
X38237000Y18339600D01*
X38237000Y19489600D01*
X38239769Y19545960D01*
X38248048Y19601777D01*
X38261759Y19656514D01*
X38280769Y19709643D01*
X38304895Y19760653D01*
X38333905Y19809053D01*
X38367519Y19854376D01*
X38405414Y19896186D01*
X38447224Y19934081D01*
X38492547Y19967695D01*
X38540947Y19996705D01*
X38591957Y20020831D01*
X38645086Y20039841D01*
X38699823Y20053552D01*
X38755640Y20061831D01*
X38812000Y20064600D01*
X39962000Y20064600D01*
X40018360Y20061831D01*
X40018360Y20061831D01*
G37*
D16*
G04 #@! TD*
G04 #@! TO.P,XA1,RST1*
G04 #@! TO.N,Net-(XA1-PadRST1)*
X39387000Y18914600D03*
D10*
G04 #@! TO.N,Net-(XA1-PadSS)*
G04 #@! TO.C,XA1*
G36*
X32398360Y4821831D02*
X32454177Y4813552D01*
X32508914Y4799841D01*
X32562043Y4780831D01*
X32613053Y4756705D01*
X32661453Y4727695D01*
X32706776Y4694081D01*
X32748586Y4656186D01*
X32786481Y4614376D01*
X32820095Y4569053D01*
X32849105Y4520653D01*
X32873231Y4469643D01*
X32892241Y4416514D01*
X32905952Y4361777D01*
X32914231Y4305960D01*
X32917000Y4249600D01*
X32917000Y3099600D01*
X32914231Y3043240D01*
X32905952Y2987423D01*
X32892241Y2932686D01*
X32873231Y2879557D01*
X32849105Y2828547D01*
X32820095Y2780147D01*
X32786481Y2734824D01*
X32748586Y2693014D01*
X32706776Y2655119D01*
X32661453Y2621505D01*
X32613053Y2592495D01*
X32562043Y2568369D01*
X32508914Y2549359D01*
X32454177Y2535648D01*
X32398360Y2527369D01*
X32342000Y2524600D01*
X31192000Y2524600D01*
X31135640Y2527369D01*
X31079823Y2535648D01*
X31025086Y2549359D01*
X30971957Y2568369D01*
X30920947Y2592495D01*
X30872547Y2621505D01*
X30827224Y2655119D01*
X30785414Y2693014D01*
X30747519Y2734824D01*
X30713905Y2780147D01*
X30684895Y2828547D01*
X30660769Y2879557D01*
X30641759Y2932686D01*
X30628048Y2987423D01*
X30619769Y3043240D01*
X30617000Y3099600D01*
X30617000Y4249600D01*
X30619769Y4305960D01*
X30628048Y4361777D01*
X30641759Y4416514D01*
X30660769Y4469643D01*
X30684895Y4520653D01*
X30713905Y4569053D01*
X30747519Y4614376D01*
X30785414Y4656186D01*
X30827224Y4694081D01*
X30872547Y4727695D01*
X30920947Y4756705D01*
X30971957Y4780831D01*
X31025086Y4799841D01*
X31079823Y4813552D01*
X31135640Y4821831D01*
X31192000Y4824600D01*
X32342000Y4824600D01*
X32398360Y4821831D01*
X32398360Y4821831D01*
G37*
D16*
G04 #@! TD*
G04 #@! TO.P,XA1,SS*
G04 #@! TO.N,Net-(XA1-PadSS)*
X31767000Y3674600D03*
D10*
G04 #@! TO.N,Net-(XA1-PadD0)*
G04 #@! TO.C,XA1*
G36*
X37478360Y4821831D02*
X37534177Y4813552D01*
X37588914Y4799841D01*
X37642043Y4780831D01*
X37693053Y4756705D01*
X37741453Y4727695D01*
X37786776Y4694081D01*
X37828586Y4656186D01*
X37866481Y4614376D01*
X37900095Y4569053D01*
X37929105Y4520653D01*
X37953231Y4469643D01*
X37972241Y4416514D01*
X37985952Y4361777D01*
X37994231Y4305960D01*
X37997000Y4249600D01*
X37997000Y3099600D01*
X37994231Y3043240D01*
X37985952Y2987423D01*
X37972241Y2932686D01*
X37953231Y2879557D01*
X37929105Y2828547D01*
X37900095Y2780147D01*
X37866481Y2734824D01*
X37828586Y2693014D01*
X37786776Y2655119D01*
X37741453Y2621505D01*
X37693053Y2592495D01*
X37642043Y2568369D01*
X37588914Y2549359D01*
X37534177Y2535648D01*
X37478360Y2527369D01*
X37422000Y2524600D01*
X36272000Y2524600D01*
X36215640Y2527369D01*
X36159823Y2535648D01*
X36105086Y2549359D01*
X36051957Y2568369D01*
X36000947Y2592495D01*
X35952547Y2621505D01*
X35907224Y2655119D01*
X35865414Y2693014D01*
X35827519Y2734824D01*
X35793905Y2780147D01*
X35764895Y2828547D01*
X35740769Y2879557D01*
X35721759Y2932686D01*
X35708048Y2987423D01*
X35699769Y3043240D01*
X35697000Y3099600D01*
X35697000Y4249600D01*
X35699769Y4305960D01*
X35708048Y4361777D01*
X35721759Y4416514D01*
X35740769Y4469643D01*
X35764895Y4520653D01*
X35793905Y4569053D01*
X35827519Y4614376D01*
X35865414Y4656186D01*
X35907224Y4694081D01*
X35952547Y4727695D01*
X36000947Y4756705D01*
X36051957Y4780831D01*
X36105086Y4799841D01*
X36159823Y4813552D01*
X36215640Y4821831D01*
X36272000Y4824600D01*
X37422000Y4824600D01*
X37478360Y4821831D01*
X37478360Y4821831D01*
G37*
D16*
G04 #@! TD*
G04 #@! TO.P,XA1,D0*
G04 #@! TO.N,Net-(XA1-PadD0)*
X36847000Y3674600D03*
D10*
G04 #@! TO.N,Net-(XA1-PadD1)*
G04 #@! TO.C,XA1*
G36*
X34938360Y4821831D02*
X34994177Y4813552D01*
X35048914Y4799841D01*
X35102043Y4780831D01*
X35153053Y4756705D01*
X35201453Y4727695D01*
X35246776Y4694081D01*
X35288586Y4656186D01*
X35326481Y4614376D01*
X35360095Y4569053D01*
X35389105Y4520653D01*
X35413231Y4469643D01*
X35432241Y4416514D01*
X35445952Y4361777D01*
X35454231Y4305960D01*
X35457000Y4249600D01*
X35457000Y3099600D01*
X35454231Y3043240D01*
X35445952Y2987423D01*
X35432241Y2932686D01*
X35413231Y2879557D01*
X35389105Y2828547D01*
X35360095Y2780147D01*
X35326481Y2734824D01*
X35288586Y2693014D01*
X35246776Y2655119D01*
X35201453Y2621505D01*
X35153053Y2592495D01*
X35102043Y2568369D01*
X35048914Y2549359D01*
X34994177Y2535648D01*
X34938360Y2527369D01*
X34882000Y2524600D01*
X33732000Y2524600D01*
X33675640Y2527369D01*
X33619823Y2535648D01*
X33565086Y2549359D01*
X33511957Y2568369D01*
X33460947Y2592495D01*
X33412547Y2621505D01*
X33367224Y2655119D01*
X33325414Y2693014D01*
X33287519Y2734824D01*
X33253905Y2780147D01*
X33224895Y2828547D01*
X33200769Y2879557D01*
X33181759Y2932686D01*
X33168048Y2987423D01*
X33159769Y3043240D01*
X33157000Y3099600D01*
X33157000Y4249600D01*
X33159769Y4305960D01*
X33168048Y4361777D01*
X33181759Y4416514D01*
X33200769Y4469643D01*
X33224895Y4520653D01*
X33253905Y4569053D01*
X33287519Y4614376D01*
X33325414Y4656186D01*
X33367224Y4694081D01*
X33412547Y4727695D01*
X33460947Y4756705D01*
X33511957Y4780831D01*
X33565086Y4799841D01*
X33619823Y4813552D01*
X33675640Y4821831D01*
X33732000Y4824600D01*
X34882000Y4824600D01*
X34938360Y4821831D01*
X34938360Y4821831D01*
G37*
D16*
G04 #@! TD*
G04 #@! TO.P,XA1,D1*
G04 #@! TO.N,Net-(XA1-PadD1)*
X34307000Y3674600D03*
D10*
G04 #@! TO.N,Net-(XA1-PadD2)*
G04 #@! TO.C,XA1*
G36*
X45098360Y4821831D02*
X45154177Y4813552D01*
X45208914Y4799841D01*
X45262043Y4780831D01*
X45313053Y4756705D01*
X45361453Y4727695D01*
X45406776Y4694081D01*
X45448586Y4656186D01*
X45486481Y4614376D01*
X45520095Y4569053D01*
X45549105Y4520653D01*
X45573231Y4469643D01*
X45592241Y4416514D01*
X45605952Y4361777D01*
X45614231Y4305960D01*
X45617000Y4249600D01*
X45617000Y3099600D01*
X45614231Y3043240D01*
X45605952Y2987423D01*
X45592241Y2932686D01*
X45573231Y2879557D01*
X45549105Y2828547D01*
X45520095Y2780147D01*
X45486481Y2734824D01*
X45448586Y2693014D01*
X45406776Y2655119D01*
X45361453Y2621505D01*
X45313053Y2592495D01*
X45262043Y2568369D01*
X45208914Y2549359D01*
X45154177Y2535648D01*
X45098360Y2527369D01*
X45042000Y2524600D01*
X43892000Y2524600D01*
X43835640Y2527369D01*
X43779823Y2535648D01*
X43725086Y2549359D01*
X43671957Y2568369D01*
X43620947Y2592495D01*
X43572547Y2621505D01*
X43527224Y2655119D01*
X43485414Y2693014D01*
X43447519Y2734824D01*
X43413905Y2780147D01*
X43384895Y2828547D01*
X43360769Y2879557D01*
X43341759Y2932686D01*
X43328048Y2987423D01*
X43319769Y3043240D01*
X43317000Y3099600D01*
X43317000Y4249600D01*
X43319769Y4305960D01*
X43328048Y4361777D01*
X43341759Y4416514D01*
X43360769Y4469643D01*
X43384895Y4520653D01*
X43413905Y4569053D01*
X43447519Y4614376D01*
X43485414Y4656186D01*
X43527224Y4694081D01*
X43572547Y4727695D01*
X43620947Y4756705D01*
X43671957Y4780831D01*
X43725086Y4799841D01*
X43779823Y4813552D01*
X43835640Y4821831D01*
X43892000Y4824600D01*
X45042000Y4824600D01*
X45098360Y4821831D01*
X45098360Y4821831D01*
G37*
D16*
G04 #@! TD*
G04 #@! TO.P,XA1,D2*
G04 #@! TO.N,Net-(XA1-PadD2)*
X44467000Y3674600D03*
D10*
G04 #@! TO.N,Net-(XA1-PadD3)*
G04 #@! TO.C,XA1*
G36*
X47638360Y4821831D02*
X47694177Y4813552D01*
X47748914Y4799841D01*
X47802043Y4780831D01*
X47853053Y4756705D01*
X47901453Y4727695D01*
X47946776Y4694081D01*
X47988586Y4656186D01*
X48026481Y4614376D01*
X48060095Y4569053D01*
X48089105Y4520653D01*
X48113231Y4469643D01*
X48132241Y4416514D01*
X48145952Y4361777D01*
X48154231Y4305960D01*
X48157000Y4249600D01*
X48157000Y3099600D01*
X48154231Y3043240D01*
X48145952Y2987423D01*
X48132241Y2932686D01*
X48113231Y2879557D01*
X48089105Y2828547D01*
X48060095Y2780147D01*
X48026481Y2734824D01*
X47988586Y2693014D01*
X47946776Y2655119D01*
X47901453Y2621505D01*
X47853053Y2592495D01*
X47802043Y2568369D01*
X47748914Y2549359D01*
X47694177Y2535648D01*
X47638360Y2527369D01*
X47582000Y2524600D01*
X46432000Y2524600D01*
X46375640Y2527369D01*
X46319823Y2535648D01*
X46265086Y2549359D01*
X46211957Y2568369D01*
X46160947Y2592495D01*
X46112547Y2621505D01*
X46067224Y2655119D01*
X46025414Y2693014D01*
X45987519Y2734824D01*
X45953905Y2780147D01*
X45924895Y2828547D01*
X45900769Y2879557D01*
X45881759Y2932686D01*
X45868048Y2987423D01*
X45859769Y3043240D01*
X45857000Y3099600D01*
X45857000Y4249600D01*
X45859769Y4305960D01*
X45868048Y4361777D01*
X45881759Y4416514D01*
X45900769Y4469643D01*
X45924895Y4520653D01*
X45953905Y4569053D01*
X45987519Y4614376D01*
X46025414Y4656186D01*
X46067224Y4694081D01*
X46112547Y4727695D01*
X46160947Y4756705D01*
X46211957Y4780831D01*
X46265086Y4799841D01*
X46319823Y4813552D01*
X46375640Y4821831D01*
X46432000Y4824600D01*
X47582000Y4824600D01*
X47638360Y4821831D01*
X47638360Y4821831D01*
G37*
D16*
G04 #@! TD*
G04 #@! TO.P,XA1,D3*
G04 #@! TO.N,Net-(XA1-PadD3)*
X47007000Y3674600D03*
D10*
G04 #@! TO.N,Net-(XA1-PadD4)*
G04 #@! TO.C,XA1*
G36*
X50178360Y4821831D02*
X50234177Y4813552D01*
X50288914Y4799841D01*
X50342043Y4780831D01*
X50393053Y4756705D01*
X50441453Y4727695D01*
X50486776Y4694081D01*
X50528586Y4656186D01*
X50566481Y4614376D01*
X50600095Y4569053D01*
X50629105Y4520653D01*
X50653231Y4469643D01*
X50672241Y4416514D01*
X50685952Y4361777D01*
X50694231Y4305960D01*
X50697000Y4249600D01*
X50697000Y3099600D01*
X50694231Y3043240D01*
X50685952Y2987423D01*
X50672241Y2932686D01*
X50653231Y2879557D01*
X50629105Y2828547D01*
X50600095Y2780147D01*
X50566481Y2734824D01*
X50528586Y2693014D01*
X50486776Y2655119D01*
X50441453Y2621505D01*
X50393053Y2592495D01*
X50342043Y2568369D01*
X50288914Y2549359D01*
X50234177Y2535648D01*
X50178360Y2527369D01*
X50122000Y2524600D01*
X48972000Y2524600D01*
X48915640Y2527369D01*
X48859823Y2535648D01*
X48805086Y2549359D01*
X48751957Y2568369D01*
X48700947Y2592495D01*
X48652547Y2621505D01*
X48607224Y2655119D01*
X48565414Y2693014D01*
X48527519Y2734824D01*
X48493905Y2780147D01*
X48464895Y2828547D01*
X48440769Y2879557D01*
X48421759Y2932686D01*
X48408048Y2987423D01*
X48399769Y3043240D01*
X48397000Y3099600D01*
X48397000Y4249600D01*
X48399769Y4305960D01*
X48408048Y4361777D01*
X48421759Y4416514D01*
X48440769Y4469643D01*
X48464895Y4520653D01*
X48493905Y4569053D01*
X48527519Y4614376D01*
X48565414Y4656186D01*
X48607224Y4694081D01*
X48652547Y4727695D01*
X48700947Y4756705D01*
X48751957Y4780831D01*
X48805086Y4799841D01*
X48859823Y4813552D01*
X48915640Y4821831D01*
X48972000Y4824600D01*
X50122000Y4824600D01*
X50178360Y4821831D01*
X50178360Y4821831D01*
G37*
D16*
G04 #@! TD*
G04 #@! TO.P,XA1,D4*
G04 #@! TO.N,Net-(XA1-PadD4)*
X49547000Y3674600D03*
D10*
G04 #@! TO.N,Net-(M1-Pad4)*
G04 #@! TO.C,XA1*
G36*
X52718360Y4821831D02*
X52774177Y4813552D01*
X52828914Y4799841D01*
X52882043Y4780831D01*
X52933053Y4756705D01*
X52981453Y4727695D01*
X53026776Y4694081D01*
X53068586Y4656186D01*
X53106481Y4614376D01*
X53140095Y4569053D01*
X53169105Y4520653D01*
X53193231Y4469643D01*
X53212241Y4416514D01*
X53225952Y4361777D01*
X53234231Y4305960D01*
X53237000Y4249600D01*
X53237000Y3099600D01*
X53234231Y3043240D01*
X53225952Y2987423D01*
X53212241Y2932686D01*
X53193231Y2879557D01*
X53169105Y2828547D01*
X53140095Y2780147D01*
X53106481Y2734824D01*
X53068586Y2693014D01*
X53026776Y2655119D01*
X52981453Y2621505D01*
X52933053Y2592495D01*
X52882043Y2568369D01*
X52828914Y2549359D01*
X52774177Y2535648D01*
X52718360Y2527369D01*
X52662000Y2524600D01*
X51512000Y2524600D01*
X51455640Y2527369D01*
X51399823Y2535648D01*
X51345086Y2549359D01*
X51291957Y2568369D01*
X51240947Y2592495D01*
X51192547Y2621505D01*
X51147224Y2655119D01*
X51105414Y2693014D01*
X51067519Y2734824D01*
X51033905Y2780147D01*
X51004895Y2828547D01*
X50980769Y2879557D01*
X50961759Y2932686D01*
X50948048Y2987423D01*
X50939769Y3043240D01*
X50937000Y3099600D01*
X50937000Y4249600D01*
X50939769Y4305960D01*
X50948048Y4361777D01*
X50961759Y4416514D01*
X50980769Y4469643D01*
X51004895Y4520653D01*
X51033905Y4569053D01*
X51067519Y4614376D01*
X51105414Y4656186D01*
X51147224Y4694081D01*
X51192547Y4727695D01*
X51240947Y4756705D01*
X51291957Y4780831D01*
X51345086Y4799841D01*
X51399823Y4813552D01*
X51455640Y4821831D01*
X51512000Y4824600D01*
X52662000Y4824600D01*
X52718360Y4821831D01*
X52718360Y4821831D01*
G37*
D16*
G04 #@! TD*
G04 #@! TO.P,XA1,D5*
G04 #@! TO.N,Net-(M1-Pad4)*
X52087000Y3674600D03*
D10*
G04 #@! TO.N,Net-(XA1-PadD6)*
G04 #@! TO.C,XA1*
G36*
X55258360Y4821831D02*
X55314177Y4813552D01*
X55368914Y4799841D01*
X55422043Y4780831D01*
X55473053Y4756705D01*
X55521453Y4727695D01*
X55566776Y4694081D01*
X55608586Y4656186D01*
X55646481Y4614376D01*
X55680095Y4569053D01*
X55709105Y4520653D01*
X55733231Y4469643D01*
X55752241Y4416514D01*
X55765952Y4361777D01*
X55774231Y4305960D01*
X55777000Y4249600D01*
X55777000Y3099600D01*
X55774231Y3043240D01*
X55765952Y2987423D01*
X55752241Y2932686D01*
X55733231Y2879557D01*
X55709105Y2828547D01*
X55680095Y2780147D01*
X55646481Y2734824D01*
X55608586Y2693014D01*
X55566776Y2655119D01*
X55521453Y2621505D01*
X55473053Y2592495D01*
X55422043Y2568369D01*
X55368914Y2549359D01*
X55314177Y2535648D01*
X55258360Y2527369D01*
X55202000Y2524600D01*
X54052000Y2524600D01*
X53995640Y2527369D01*
X53939823Y2535648D01*
X53885086Y2549359D01*
X53831957Y2568369D01*
X53780947Y2592495D01*
X53732547Y2621505D01*
X53687224Y2655119D01*
X53645414Y2693014D01*
X53607519Y2734824D01*
X53573905Y2780147D01*
X53544895Y2828547D01*
X53520769Y2879557D01*
X53501759Y2932686D01*
X53488048Y2987423D01*
X53479769Y3043240D01*
X53477000Y3099600D01*
X53477000Y4249600D01*
X53479769Y4305960D01*
X53488048Y4361777D01*
X53501759Y4416514D01*
X53520769Y4469643D01*
X53544895Y4520653D01*
X53573905Y4569053D01*
X53607519Y4614376D01*
X53645414Y4656186D01*
X53687224Y4694081D01*
X53732547Y4727695D01*
X53780947Y4756705D01*
X53831957Y4780831D01*
X53885086Y4799841D01*
X53939823Y4813552D01*
X53995640Y4821831D01*
X54052000Y4824600D01*
X55202000Y4824600D01*
X55258360Y4821831D01*
X55258360Y4821831D01*
G37*
D16*
G04 #@! TD*
G04 #@! TO.P,XA1,D6*
G04 #@! TO.N,Net-(XA1-PadD6)*
X54627000Y3674600D03*
D10*
G04 #@! TO.N,Net-(R6-Pad1)*
G04 #@! TO.C,XA1*
G36*
X57798360Y4821831D02*
X57854177Y4813552D01*
X57908914Y4799841D01*
X57962043Y4780831D01*
X58013053Y4756705D01*
X58061453Y4727695D01*
X58106776Y4694081D01*
X58148586Y4656186D01*
X58186481Y4614376D01*
X58220095Y4569053D01*
X58249105Y4520653D01*
X58273231Y4469643D01*
X58292241Y4416514D01*
X58305952Y4361777D01*
X58314231Y4305960D01*
X58317000Y4249600D01*
X58317000Y3099600D01*
X58314231Y3043240D01*
X58305952Y2987423D01*
X58292241Y2932686D01*
X58273231Y2879557D01*
X58249105Y2828547D01*
X58220095Y2780147D01*
X58186481Y2734824D01*
X58148586Y2693014D01*
X58106776Y2655119D01*
X58061453Y2621505D01*
X58013053Y2592495D01*
X57962043Y2568369D01*
X57908914Y2549359D01*
X57854177Y2535648D01*
X57798360Y2527369D01*
X57742000Y2524600D01*
X56592000Y2524600D01*
X56535640Y2527369D01*
X56479823Y2535648D01*
X56425086Y2549359D01*
X56371957Y2568369D01*
X56320947Y2592495D01*
X56272547Y2621505D01*
X56227224Y2655119D01*
X56185414Y2693014D01*
X56147519Y2734824D01*
X56113905Y2780147D01*
X56084895Y2828547D01*
X56060769Y2879557D01*
X56041759Y2932686D01*
X56028048Y2987423D01*
X56019769Y3043240D01*
X56017000Y3099600D01*
X56017000Y4249600D01*
X56019769Y4305960D01*
X56028048Y4361777D01*
X56041759Y4416514D01*
X56060769Y4469643D01*
X56084895Y4520653D01*
X56113905Y4569053D01*
X56147519Y4614376D01*
X56185414Y4656186D01*
X56227224Y4694081D01*
X56272547Y4727695D01*
X56320947Y4756705D01*
X56371957Y4780831D01*
X56425086Y4799841D01*
X56479823Y4813552D01*
X56535640Y4821831D01*
X56592000Y4824600D01*
X57742000Y4824600D01*
X57798360Y4821831D01*
X57798360Y4821831D01*
G37*
D16*
G04 #@! TD*
G04 #@! TO.P,XA1,D7*
G04 #@! TO.N,Net-(R6-Pad1)*
X57167000Y3674600D03*
D10*
G04 #@! TO.N,Net-(XA1-PadD8)*
G04 #@! TO.C,XA1*
G36*
X60338360Y4821831D02*
X60394177Y4813552D01*
X60448914Y4799841D01*
X60502043Y4780831D01*
X60553053Y4756705D01*
X60601453Y4727695D01*
X60646776Y4694081D01*
X60688586Y4656186D01*
X60726481Y4614376D01*
X60760095Y4569053D01*
X60789105Y4520653D01*
X60813231Y4469643D01*
X60832241Y4416514D01*
X60845952Y4361777D01*
X60854231Y4305960D01*
X60857000Y4249600D01*
X60857000Y3099600D01*
X60854231Y3043240D01*
X60845952Y2987423D01*
X60832241Y2932686D01*
X60813231Y2879557D01*
X60789105Y2828547D01*
X60760095Y2780147D01*
X60726481Y2734824D01*
X60688586Y2693014D01*
X60646776Y2655119D01*
X60601453Y2621505D01*
X60553053Y2592495D01*
X60502043Y2568369D01*
X60448914Y2549359D01*
X60394177Y2535648D01*
X60338360Y2527369D01*
X60282000Y2524600D01*
X59132000Y2524600D01*
X59075640Y2527369D01*
X59019823Y2535648D01*
X58965086Y2549359D01*
X58911957Y2568369D01*
X58860947Y2592495D01*
X58812547Y2621505D01*
X58767224Y2655119D01*
X58725414Y2693014D01*
X58687519Y2734824D01*
X58653905Y2780147D01*
X58624895Y2828547D01*
X58600769Y2879557D01*
X58581759Y2932686D01*
X58568048Y2987423D01*
X58559769Y3043240D01*
X58557000Y3099600D01*
X58557000Y4249600D01*
X58559769Y4305960D01*
X58568048Y4361777D01*
X58581759Y4416514D01*
X58600769Y4469643D01*
X58624895Y4520653D01*
X58653905Y4569053D01*
X58687519Y4614376D01*
X58725414Y4656186D01*
X58767224Y4694081D01*
X58812547Y4727695D01*
X58860947Y4756705D01*
X58911957Y4780831D01*
X58965086Y4799841D01*
X59019823Y4813552D01*
X59075640Y4821831D01*
X59132000Y4824600D01*
X60282000Y4824600D01*
X60338360Y4821831D01*
X60338360Y4821831D01*
G37*
D16*
G04 #@! TD*
G04 #@! TO.P,XA1,D8*
G04 #@! TO.N,Net-(XA1-PadD8)*
X59707000Y3674600D03*
D10*
G04 #@! TO.N,Net-(XA1-PadD9)*
G04 #@! TO.C,XA1*
G36*
X62878360Y4821831D02*
X62934177Y4813552D01*
X62988914Y4799841D01*
X63042043Y4780831D01*
X63093053Y4756705D01*
X63141453Y4727695D01*
X63186776Y4694081D01*
X63228586Y4656186D01*
X63266481Y4614376D01*
X63300095Y4569053D01*
X63329105Y4520653D01*
X63353231Y4469643D01*
X63372241Y4416514D01*
X63385952Y4361777D01*
X63394231Y4305960D01*
X63397000Y4249600D01*
X63397000Y3099600D01*
X63394231Y3043240D01*
X63385952Y2987423D01*
X63372241Y2932686D01*
X63353231Y2879557D01*
X63329105Y2828547D01*
X63300095Y2780147D01*
X63266481Y2734824D01*
X63228586Y2693014D01*
X63186776Y2655119D01*
X63141453Y2621505D01*
X63093053Y2592495D01*
X63042043Y2568369D01*
X62988914Y2549359D01*
X62934177Y2535648D01*
X62878360Y2527369D01*
X62822000Y2524600D01*
X61672000Y2524600D01*
X61615640Y2527369D01*
X61559823Y2535648D01*
X61505086Y2549359D01*
X61451957Y2568369D01*
X61400947Y2592495D01*
X61352547Y2621505D01*
X61307224Y2655119D01*
X61265414Y2693014D01*
X61227519Y2734824D01*
X61193905Y2780147D01*
X61164895Y2828547D01*
X61140769Y2879557D01*
X61121759Y2932686D01*
X61108048Y2987423D01*
X61099769Y3043240D01*
X61097000Y3099600D01*
X61097000Y4249600D01*
X61099769Y4305960D01*
X61108048Y4361777D01*
X61121759Y4416514D01*
X61140769Y4469643D01*
X61164895Y4520653D01*
X61193905Y4569053D01*
X61227519Y4614376D01*
X61265414Y4656186D01*
X61307224Y4694081D01*
X61352547Y4727695D01*
X61400947Y4756705D01*
X61451957Y4780831D01*
X61505086Y4799841D01*
X61559823Y4813552D01*
X61615640Y4821831D01*
X61672000Y4824600D01*
X62822000Y4824600D01*
X62878360Y4821831D01*
X62878360Y4821831D01*
G37*
D16*
G04 #@! TD*
G04 #@! TO.P,XA1,D9*
G04 #@! TO.N,Net-(XA1-PadD9)*
X62247000Y3674600D03*
D10*
G04 #@! TO.N,Net-(XA1-PadD10)*
G04 #@! TO.C,XA1*
G36*
X65418360Y4821831D02*
X65474177Y4813552D01*
X65528914Y4799841D01*
X65582043Y4780831D01*
X65633053Y4756705D01*
X65681453Y4727695D01*
X65726776Y4694081D01*
X65768586Y4656186D01*
X65806481Y4614376D01*
X65840095Y4569053D01*
X65869105Y4520653D01*
X65893231Y4469643D01*
X65912241Y4416514D01*
X65925952Y4361777D01*
X65934231Y4305960D01*
X65937000Y4249600D01*
X65937000Y3099600D01*
X65934231Y3043240D01*
X65925952Y2987423D01*
X65912241Y2932686D01*
X65893231Y2879557D01*
X65869105Y2828547D01*
X65840095Y2780147D01*
X65806481Y2734824D01*
X65768586Y2693014D01*
X65726776Y2655119D01*
X65681453Y2621505D01*
X65633053Y2592495D01*
X65582043Y2568369D01*
X65528914Y2549359D01*
X65474177Y2535648D01*
X65418360Y2527369D01*
X65362000Y2524600D01*
X64212000Y2524600D01*
X64155640Y2527369D01*
X64099823Y2535648D01*
X64045086Y2549359D01*
X63991957Y2568369D01*
X63940947Y2592495D01*
X63892547Y2621505D01*
X63847224Y2655119D01*
X63805414Y2693014D01*
X63767519Y2734824D01*
X63733905Y2780147D01*
X63704895Y2828547D01*
X63680769Y2879557D01*
X63661759Y2932686D01*
X63648048Y2987423D01*
X63639769Y3043240D01*
X63637000Y3099600D01*
X63637000Y4249600D01*
X63639769Y4305960D01*
X63648048Y4361777D01*
X63661759Y4416514D01*
X63680769Y4469643D01*
X63704895Y4520653D01*
X63733905Y4569053D01*
X63767519Y4614376D01*
X63805414Y4656186D01*
X63847224Y4694081D01*
X63892547Y4727695D01*
X63940947Y4756705D01*
X63991957Y4780831D01*
X64045086Y4799841D01*
X64099823Y4813552D01*
X64155640Y4821831D01*
X64212000Y4824600D01*
X65362000Y4824600D01*
X65418360Y4821831D01*
X65418360Y4821831D01*
G37*
D16*
G04 #@! TD*
G04 #@! TO.P,XA1,D10*
G04 #@! TO.N,Net-(XA1-PadD10)*
X64787000Y3674600D03*
D10*
G04 #@! TO.N,Net-(XA1-PadAREF)*
G04 #@! TO.C,XA1*
G36*
X65418360Y20061831D02*
X65474177Y20053552D01*
X65528914Y20039841D01*
X65582043Y20020831D01*
X65633053Y19996705D01*
X65681453Y19967695D01*
X65726776Y19934081D01*
X65768586Y19896186D01*
X65806481Y19854376D01*
X65840095Y19809053D01*
X65869105Y19760653D01*
X65893231Y19709643D01*
X65912241Y19656514D01*
X65925952Y19601777D01*
X65934231Y19545960D01*
X65937000Y19489600D01*
X65937000Y18339600D01*
X65934231Y18283240D01*
X65925952Y18227423D01*
X65912241Y18172686D01*
X65893231Y18119557D01*
X65869105Y18068547D01*
X65840095Y18020147D01*
X65806481Y17974824D01*
X65768586Y17933014D01*
X65726776Y17895119D01*
X65681453Y17861505D01*
X65633053Y17832495D01*
X65582043Y17808369D01*
X65528914Y17789359D01*
X65474177Y17775648D01*
X65418360Y17767369D01*
X65362000Y17764600D01*
X64212000Y17764600D01*
X64155640Y17767369D01*
X64099823Y17775648D01*
X64045086Y17789359D01*
X63991957Y17808369D01*
X63940947Y17832495D01*
X63892547Y17861505D01*
X63847224Y17895119D01*
X63805414Y17933014D01*
X63767519Y17974824D01*
X63733905Y18020147D01*
X63704895Y18068547D01*
X63680769Y18119557D01*
X63661759Y18172686D01*
X63648048Y18227423D01*
X63639769Y18283240D01*
X63637000Y18339600D01*
X63637000Y19489600D01*
X63639769Y19545960D01*
X63648048Y19601777D01*
X63661759Y19656514D01*
X63680769Y19709643D01*
X63704895Y19760653D01*
X63733905Y19809053D01*
X63767519Y19854376D01*
X63805414Y19896186D01*
X63847224Y19934081D01*
X63892547Y19967695D01*
X63940947Y19996705D01*
X63991957Y20020831D01*
X64045086Y20039841D01*
X64099823Y20053552D01*
X64155640Y20061831D01*
X64212000Y20064600D01*
X65362000Y20064600D01*
X65418360Y20061831D01*
X65418360Y20061831D01*
G37*
D16*
G04 #@! TD*
G04 #@! TO.P,XA1,AREF*
G04 #@! TO.N,Net-(XA1-PadAREF)*
X64787000Y18914600D03*
D10*
G04 #@! TO.N,Net-(XA1-PadD13)*
G04 #@! TO.C,XA1*
G36*
X70498360Y20061831D02*
X70554177Y20053552D01*
X70608914Y20039841D01*
X70662043Y20020831D01*
X70713053Y19996705D01*
X70761453Y19967695D01*
X70806776Y19934081D01*
X70848586Y19896186D01*
X70886481Y19854376D01*
X70920095Y19809053D01*
X70949105Y19760653D01*
X70973231Y19709643D01*
X70992241Y19656514D01*
X71005952Y19601777D01*
X71014231Y19545960D01*
X71017000Y19489600D01*
X71017000Y18339600D01*
X71014231Y18283240D01*
X71005952Y18227423D01*
X70992241Y18172686D01*
X70973231Y18119557D01*
X70949105Y18068547D01*
X70920095Y18020147D01*
X70886481Y17974824D01*
X70848586Y17933014D01*
X70806776Y17895119D01*
X70761453Y17861505D01*
X70713053Y17832495D01*
X70662043Y17808369D01*
X70608914Y17789359D01*
X70554177Y17775648D01*
X70498360Y17767369D01*
X70442000Y17764600D01*
X69292000Y17764600D01*
X69235640Y17767369D01*
X69179823Y17775648D01*
X69125086Y17789359D01*
X69071957Y17808369D01*
X69020947Y17832495D01*
X68972547Y17861505D01*
X68927224Y17895119D01*
X68885414Y17933014D01*
X68847519Y17974824D01*
X68813905Y18020147D01*
X68784895Y18068547D01*
X68760769Y18119557D01*
X68741759Y18172686D01*
X68728048Y18227423D01*
X68719769Y18283240D01*
X68717000Y18339600D01*
X68717000Y19489600D01*
X68719769Y19545960D01*
X68728048Y19601777D01*
X68741759Y19656514D01*
X68760769Y19709643D01*
X68784895Y19760653D01*
X68813905Y19809053D01*
X68847519Y19854376D01*
X68885414Y19896186D01*
X68927224Y19934081D01*
X68972547Y19967695D01*
X69020947Y19996705D01*
X69071957Y20020831D01*
X69125086Y20039841D01*
X69179823Y20053552D01*
X69235640Y20061831D01*
X69292000Y20064600D01*
X70442000Y20064600D01*
X70498360Y20061831D01*
X70498360Y20061831D01*
G37*
D16*
G04 #@! TD*
G04 #@! TO.P,XA1,D13*
G04 #@! TO.N,Net-(XA1-PadD13)*
X69867000Y18914600D03*
D10*
G04 #@! TO.N,Net-(XA1-PadD12)*
G04 #@! TO.C,XA1*
G36*
X70498360Y4821831D02*
X70554177Y4813552D01*
X70608914Y4799841D01*
X70662043Y4780831D01*
X70713053Y4756705D01*
X70761453Y4727695D01*
X70806776Y4694081D01*
X70848586Y4656186D01*
X70886481Y4614376D01*
X70920095Y4569053D01*
X70949105Y4520653D01*
X70973231Y4469643D01*
X70992241Y4416514D01*
X71005952Y4361777D01*
X71014231Y4305960D01*
X71017000Y4249600D01*
X71017000Y3099600D01*
X71014231Y3043240D01*
X71005952Y2987423D01*
X70992241Y2932686D01*
X70973231Y2879557D01*
X70949105Y2828547D01*
X70920095Y2780147D01*
X70886481Y2734824D01*
X70848586Y2693014D01*
X70806776Y2655119D01*
X70761453Y2621505D01*
X70713053Y2592495D01*
X70662043Y2568369D01*
X70608914Y2549359D01*
X70554177Y2535648D01*
X70498360Y2527369D01*
X70442000Y2524600D01*
X69292000Y2524600D01*
X69235640Y2527369D01*
X69179823Y2535648D01*
X69125086Y2549359D01*
X69071957Y2568369D01*
X69020947Y2592495D01*
X68972547Y2621505D01*
X68927224Y2655119D01*
X68885414Y2693014D01*
X68847519Y2734824D01*
X68813905Y2780147D01*
X68784895Y2828547D01*
X68760769Y2879557D01*
X68741759Y2932686D01*
X68728048Y2987423D01*
X68719769Y3043240D01*
X68717000Y3099600D01*
X68717000Y4249600D01*
X68719769Y4305960D01*
X68728048Y4361777D01*
X68741759Y4416514D01*
X68760769Y4469643D01*
X68784895Y4520653D01*
X68813905Y4569053D01*
X68847519Y4614376D01*
X68885414Y4656186D01*
X68927224Y4694081D01*
X68972547Y4727695D01*
X69020947Y4756705D01*
X69071957Y4780831D01*
X69125086Y4799841D01*
X69179823Y4813552D01*
X69235640Y4821831D01*
X69292000Y4824600D01*
X70442000Y4824600D01*
X70498360Y4821831D01*
X70498360Y4821831D01*
G37*
D16*
G04 #@! TD*
G04 #@! TO.P,XA1,D12*
G04 #@! TO.N,Net-(XA1-PadD12)*
X69867000Y3674600D03*
D10*
G04 #@! TO.N,Net-(XA1-PadD11)*
G04 #@! TO.C,XA1*
G36*
X67958360Y4821831D02*
X68014177Y4813552D01*
X68068914Y4799841D01*
X68122043Y4780831D01*
X68173053Y4756705D01*
X68221453Y4727695D01*
X68266776Y4694081D01*
X68308586Y4656186D01*
X68346481Y4614376D01*
X68380095Y4569053D01*
X68409105Y4520653D01*
X68433231Y4469643D01*
X68452241Y4416514D01*
X68465952Y4361777D01*
X68474231Y4305960D01*
X68477000Y4249600D01*
X68477000Y3099600D01*
X68474231Y3043240D01*
X68465952Y2987423D01*
X68452241Y2932686D01*
X68433231Y2879557D01*
X68409105Y2828547D01*
X68380095Y2780147D01*
X68346481Y2734824D01*
X68308586Y2693014D01*
X68266776Y2655119D01*
X68221453Y2621505D01*
X68173053Y2592495D01*
X68122043Y2568369D01*
X68068914Y2549359D01*
X68014177Y2535648D01*
X67958360Y2527369D01*
X67902000Y2524600D01*
X66752000Y2524600D01*
X66695640Y2527369D01*
X66639823Y2535648D01*
X66585086Y2549359D01*
X66531957Y2568369D01*
X66480947Y2592495D01*
X66432547Y2621505D01*
X66387224Y2655119D01*
X66345414Y2693014D01*
X66307519Y2734824D01*
X66273905Y2780147D01*
X66244895Y2828547D01*
X66220769Y2879557D01*
X66201759Y2932686D01*
X66188048Y2987423D01*
X66179769Y3043240D01*
X66177000Y3099600D01*
X66177000Y4249600D01*
X66179769Y4305960D01*
X66188048Y4361777D01*
X66201759Y4416514D01*
X66220769Y4469643D01*
X66244895Y4520653D01*
X66273905Y4569053D01*
X66307519Y4614376D01*
X66345414Y4656186D01*
X66387224Y4694081D01*
X66432547Y4727695D01*
X66480947Y4756705D01*
X66531957Y4780831D01*
X66585086Y4799841D01*
X66639823Y4813552D01*
X66695640Y4821831D01*
X66752000Y4824600D01*
X67902000Y4824600D01*
X67958360Y4821831D01*
X67958360Y4821831D01*
G37*
D16*
G04 #@! TD*
G04 #@! TO.P,XA1,D11*
G04 #@! TO.N,Net-(XA1-PadD11)*
X67327000Y3674600D03*
D10*
G04 #@! TO.N,*
G04 #@! TO.C,XA1*
G36*
X45098360Y20061831D02*
X45154177Y20053552D01*
X45208914Y20039841D01*
X45262043Y20020831D01*
X45313053Y19996705D01*
X45361453Y19967695D01*
X45406776Y19934081D01*
X45448586Y19896186D01*
X45486481Y19854376D01*
X45520095Y19809053D01*
X45549105Y19760653D01*
X45573231Y19709643D01*
X45592241Y19656514D01*
X45605952Y19601777D01*
X45614231Y19545960D01*
X45617000Y19489600D01*
X45617000Y18339600D01*
X45614231Y18283240D01*
X45605952Y18227423D01*
X45592241Y18172686D01*
X45573231Y18119557D01*
X45549105Y18068547D01*
X45520095Y18020147D01*
X45486481Y17974824D01*
X45448586Y17933014D01*
X45406776Y17895119D01*
X45361453Y17861505D01*
X45313053Y17832495D01*
X45262043Y17808369D01*
X45208914Y17789359D01*
X45154177Y17775648D01*
X45098360Y17767369D01*
X45042000Y17764600D01*
X43892000Y17764600D01*
X43835640Y17767369D01*
X43779823Y17775648D01*
X43725086Y17789359D01*
X43671957Y17808369D01*
X43620947Y17832495D01*
X43572547Y17861505D01*
X43527224Y17895119D01*
X43485414Y17933014D01*
X43447519Y17974824D01*
X43413905Y18020147D01*
X43384895Y18068547D01*
X43360769Y18119557D01*
X43341759Y18172686D01*
X43328048Y18227423D01*
X43319769Y18283240D01*
X43317000Y18339600D01*
X43317000Y19489600D01*
X43319769Y19545960D01*
X43328048Y19601777D01*
X43341759Y19656514D01*
X43360769Y19709643D01*
X43384895Y19760653D01*
X43413905Y19809053D01*
X43447519Y19854376D01*
X43485414Y19896186D01*
X43527224Y19934081D01*
X43572547Y19967695D01*
X43620947Y19996705D01*
X43671957Y20020831D01*
X43725086Y20039841D01*
X43779823Y20053552D01*
X43835640Y20061831D01*
X43892000Y20064600D01*
X45042000Y20064600D01*
X45098360Y20061831D01*
X45098360Y20061831D01*
G37*
D16*
G04 #@! TD*
G04 #@! TO.P,XA1,*
G04 #@! TO.N,*
X44467000Y18914600D03*
D10*
G04 #@! TO.N,Net-(R1-Pad2)*
G04 #@! TO.C,XA1*
G36*
X60338360Y20061831D02*
X60394177Y20053552D01*
X60448914Y20039841D01*
X60502043Y20020831D01*
X60553053Y19996705D01*
X60601453Y19967695D01*
X60646776Y19934081D01*
X60688586Y19896186D01*
X60726481Y19854376D01*
X60760095Y19809053D01*
X60789105Y19760653D01*
X60813231Y19709643D01*
X60832241Y19656514D01*
X60845952Y19601777D01*
X60854231Y19545960D01*
X60857000Y19489600D01*
X60857000Y18339600D01*
X60854231Y18283240D01*
X60845952Y18227423D01*
X60832241Y18172686D01*
X60813231Y18119557D01*
X60789105Y18068547D01*
X60760095Y18020147D01*
X60726481Y17974824D01*
X60688586Y17933014D01*
X60646776Y17895119D01*
X60601453Y17861505D01*
X60553053Y17832495D01*
X60502043Y17808369D01*
X60448914Y17789359D01*
X60394177Y17775648D01*
X60338360Y17767369D01*
X60282000Y17764600D01*
X59132000Y17764600D01*
X59075640Y17767369D01*
X59019823Y17775648D01*
X58965086Y17789359D01*
X58911957Y17808369D01*
X58860947Y17832495D01*
X58812547Y17861505D01*
X58767224Y17895119D01*
X58725414Y17933014D01*
X58687519Y17974824D01*
X58653905Y18020147D01*
X58624895Y18068547D01*
X58600769Y18119557D01*
X58581759Y18172686D01*
X58568048Y18227423D01*
X58559769Y18283240D01*
X58557000Y18339600D01*
X58557000Y19489600D01*
X58559769Y19545960D01*
X58568048Y19601777D01*
X58581759Y19656514D01*
X58600769Y19709643D01*
X58624895Y19760653D01*
X58653905Y19809053D01*
X58687519Y19854376D01*
X58725414Y19896186D01*
X58767224Y19934081D01*
X58812547Y19967695D01*
X58860947Y19996705D01*
X58911957Y20020831D01*
X58965086Y20039841D01*
X59019823Y20053552D01*
X59075640Y20061831D01*
X59132000Y20064600D01*
X60282000Y20064600D01*
X60338360Y20061831D01*
X60338360Y20061831D01*
G37*
D16*
G04 #@! TD*
G04 #@! TO.P,XA1,A1*
G04 #@! TO.N,Net-(R1-Pad2)*
X59707000Y18914600D03*
D10*
G04 #@! TO.N,Net-(XA1-PadA2)*
G04 #@! TO.C,XA1*
G36*
X57798360Y20061831D02*
X57854177Y20053552D01*
X57908914Y20039841D01*
X57962043Y20020831D01*
X58013053Y19996705D01*
X58061453Y19967695D01*
X58106776Y19934081D01*
X58148586Y19896186D01*
X58186481Y19854376D01*
X58220095Y19809053D01*
X58249105Y19760653D01*
X58273231Y19709643D01*
X58292241Y19656514D01*
X58305952Y19601777D01*
X58314231Y19545960D01*
X58317000Y19489600D01*
X58317000Y18339600D01*
X58314231Y18283240D01*
X58305952Y18227423D01*
X58292241Y18172686D01*
X58273231Y18119557D01*
X58249105Y18068547D01*
X58220095Y18020147D01*
X58186481Y17974824D01*
X58148586Y17933014D01*
X58106776Y17895119D01*
X58061453Y17861505D01*
X58013053Y17832495D01*
X57962043Y17808369D01*
X57908914Y17789359D01*
X57854177Y17775648D01*
X57798360Y17767369D01*
X57742000Y17764600D01*
X56592000Y17764600D01*
X56535640Y17767369D01*
X56479823Y17775648D01*
X56425086Y17789359D01*
X56371957Y17808369D01*
X56320947Y17832495D01*
X56272547Y17861505D01*
X56227224Y17895119D01*
X56185414Y17933014D01*
X56147519Y17974824D01*
X56113905Y18020147D01*
X56084895Y18068547D01*
X56060769Y18119557D01*
X56041759Y18172686D01*
X56028048Y18227423D01*
X56019769Y18283240D01*
X56017000Y18339600D01*
X56017000Y19489600D01*
X56019769Y19545960D01*
X56028048Y19601777D01*
X56041759Y19656514D01*
X56060769Y19709643D01*
X56084895Y19760653D01*
X56113905Y19809053D01*
X56147519Y19854376D01*
X56185414Y19896186D01*
X56227224Y19934081D01*
X56272547Y19967695D01*
X56320947Y19996705D01*
X56371957Y20020831D01*
X56425086Y20039841D01*
X56479823Y20053552D01*
X56535640Y20061831D01*
X56592000Y20064600D01*
X57742000Y20064600D01*
X57798360Y20061831D01*
X57798360Y20061831D01*
G37*
D16*
G04 #@! TD*
G04 #@! TO.P,XA1,A2*
G04 #@! TO.N,Net-(XA1-PadA2)*
X57167000Y18914600D03*
D10*
G04 #@! TO.N,Net-(XA1-PadA3)*
G04 #@! TO.C,XA1*
G36*
X55258360Y20061831D02*
X55314177Y20053552D01*
X55368914Y20039841D01*
X55422043Y20020831D01*
X55473053Y19996705D01*
X55521453Y19967695D01*
X55566776Y19934081D01*
X55608586Y19896186D01*
X55646481Y19854376D01*
X55680095Y19809053D01*
X55709105Y19760653D01*
X55733231Y19709643D01*
X55752241Y19656514D01*
X55765952Y19601777D01*
X55774231Y19545960D01*
X55777000Y19489600D01*
X55777000Y18339600D01*
X55774231Y18283240D01*
X55765952Y18227423D01*
X55752241Y18172686D01*
X55733231Y18119557D01*
X55709105Y18068547D01*
X55680095Y18020147D01*
X55646481Y17974824D01*
X55608586Y17933014D01*
X55566776Y17895119D01*
X55521453Y17861505D01*
X55473053Y17832495D01*
X55422043Y17808369D01*
X55368914Y17789359D01*
X55314177Y17775648D01*
X55258360Y17767369D01*
X55202000Y17764600D01*
X54052000Y17764600D01*
X53995640Y17767369D01*
X53939823Y17775648D01*
X53885086Y17789359D01*
X53831957Y17808369D01*
X53780947Y17832495D01*
X53732547Y17861505D01*
X53687224Y17895119D01*
X53645414Y17933014D01*
X53607519Y17974824D01*
X53573905Y18020147D01*
X53544895Y18068547D01*
X53520769Y18119557D01*
X53501759Y18172686D01*
X53488048Y18227423D01*
X53479769Y18283240D01*
X53477000Y18339600D01*
X53477000Y19489600D01*
X53479769Y19545960D01*
X53488048Y19601777D01*
X53501759Y19656514D01*
X53520769Y19709643D01*
X53544895Y19760653D01*
X53573905Y19809053D01*
X53607519Y19854376D01*
X53645414Y19896186D01*
X53687224Y19934081D01*
X53732547Y19967695D01*
X53780947Y19996705D01*
X53831957Y20020831D01*
X53885086Y20039841D01*
X53939823Y20053552D01*
X53995640Y20061831D01*
X54052000Y20064600D01*
X55202000Y20064600D01*
X55258360Y20061831D01*
X55258360Y20061831D01*
G37*
D16*
G04 #@! TD*
G04 #@! TO.P,XA1,A3*
G04 #@! TO.N,Net-(XA1-PadA3)*
X54627000Y18914600D03*
D10*
G04 #@! TO.N,Net-(XA1-PadA4)*
G04 #@! TO.C,XA1*
G36*
X52718360Y20061831D02*
X52774177Y20053552D01*
X52828914Y20039841D01*
X52882043Y20020831D01*
X52933053Y19996705D01*
X52981453Y19967695D01*
X53026776Y19934081D01*
X53068586Y19896186D01*
X53106481Y19854376D01*
X53140095Y19809053D01*
X53169105Y19760653D01*
X53193231Y19709643D01*
X53212241Y19656514D01*
X53225952Y19601777D01*
X53234231Y19545960D01*
X53237000Y19489600D01*
X53237000Y18339600D01*
X53234231Y18283240D01*
X53225952Y18227423D01*
X53212241Y18172686D01*
X53193231Y18119557D01*
X53169105Y18068547D01*
X53140095Y18020147D01*
X53106481Y17974824D01*
X53068586Y17933014D01*
X53026776Y17895119D01*
X52981453Y17861505D01*
X52933053Y17832495D01*
X52882043Y17808369D01*
X52828914Y17789359D01*
X52774177Y17775648D01*
X52718360Y17767369D01*
X52662000Y17764600D01*
X51512000Y17764600D01*
X51455640Y17767369D01*
X51399823Y17775648D01*
X51345086Y17789359D01*
X51291957Y17808369D01*
X51240947Y17832495D01*
X51192547Y17861505D01*
X51147224Y17895119D01*
X51105414Y17933014D01*
X51067519Y17974824D01*
X51033905Y18020147D01*
X51004895Y18068547D01*
X50980769Y18119557D01*
X50961759Y18172686D01*
X50948048Y18227423D01*
X50939769Y18283240D01*
X50937000Y18339600D01*
X50937000Y19489600D01*
X50939769Y19545960D01*
X50948048Y19601777D01*
X50961759Y19656514D01*
X50980769Y19709643D01*
X51004895Y19760653D01*
X51033905Y19809053D01*
X51067519Y19854376D01*
X51105414Y19896186D01*
X51147224Y19934081D01*
X51192547Y19967695D01*
X51240947Y19996705D01*
X51291957Y20020831D01*
X51345086Y20039841D01*
X51399823Y20053552D01*
X51455640Y20061831D01*
X51512000Y20064600D01*
X52662000Y20064600D01*
X52718360Y20061831D01*
X52718360Y20061831D01*
G37*
D16*
G04 #@! TD*
G04 #@! TO.P,XA1,A4*
G04 #@! TO.N,Net-(XA1-PadA4)*
X52087000Y18914600D03*
D10*
G04 #@! TO.N,Net-(XA1-PadA5)*
G04 #@! TO.C,XA1*
G36*
X50178360Y20061831D02*
X50234177Y20053552D01*
X50288914Y20039841D01*
X50342043Y20020831D01*
X50393053Y19996705D01*
X50441453Y19967695D01*
X50486776Y19934081D01*
X50528586Y19896186D01*
X50566481Y19854376D01*
X50600095Y19809053D01*
X50629105Y19760653D01*
X50653231Y19709643D01*
X50672241Y19656514D01*
X50685952Y19601777D01*
X50694231Y19545960D01*
X50697000Y19489600D01*
X50697000Y18339600D01*
X50694231Y18283240D01*
X50685952Y18227423D01*
X50672241Y18172686D01*
X50653231Y18119557D01*
X50629105Y18068547D01*
X50600095Y18020147D01*
X50566481Y17974824D01*
X50528586Y17933014D01*
X50486776Y17895119D01*
X50441453Y17861505D01*
X50393053Y17832495D01*
X50342043Y17808369D01*
X50288914Y17789359D01*
X50234177Y17775648D01*
X50178360Y17767369D01*
X50122000Y17764600D01*
X48972000Y17764600D01*
X48915640Y17767369D01*
X48859823Y17775648D01*
X48805086Y17789359D01*
X48751957Y17808369D01*
X48700947Y17832495D01*
X48652547Y17861505D01*
X48607224Y17895119D01*
X48565414Y17933014D01*
X48527519Y17974824D01*
X48493905Y18020147D01*
X48464895Y18068547D01*
X48440769Y18119557D01*
X48421759Y18172686D01*
X48408048Y18227423D01*
X48399769Y18283240D01*
X48397000Y18339600D01*
X48397000Y19489600D01*
X48399769Y19545960D01*
X48408048Y19601777D01*
X48421759Y19656514D01*
X48440769Y19709643D01*
X48464895Y19760653D01*
X48493905Y19809053D01*
X48527519Y19854376D01*
X48565414Y19896186D01*
X48607224Y19934081D01*
X48652547Y19967695D01*
X48700947Y19996705D01*
X48751957Y20020831D01*
X48805086Y20039841D01*
X48859823Y20053552D01*
X48915640Y20061831D01*
X48972000Y20064600D01*
X50122000Y20064600D01*
X50178360Y20061831D01*
X50178360Y20061831D01*
G37*
D16*
G04 #@! TD*
G04 #@! TO.P,XA1,A5*
G04 #@! TO.N,Net-(XA1-PadA5)*
X49547000Y18914600D03*
D10*
G04 #@! TO.N,Net-(XA1-PadMISO)*
G04 #@! TO.C,XA1*
G36*
X32398360Y20061831D02*
X32454177Y20053552D01*
X32508914Y20039841D01*
X32562043Y20020831D01*
X32613053Y19996705D01*
X32661453Y19967695D01*
X32706776Y19934081D01*
X32748586Y19896186D01*
X32786481Y19854376D01*
X32820095Y19809053D01*
X32849105Y19760653D01*
X32873231Y19709643D01*
X32892241Y19656514D01*
X32905952Y19601777D01*
X32914231Y19545960D01*
X32917000Y19489600D01*
X32917000Y18339600D01*
X32914231Y18283240D01*
X32905952Y18227423D01*
X32892241Y18172686D01*
X32873231Y18119557D01*
X32849105Y18068547D01*
X32820095Y18020147D01*
X32786481Y17974824D01*
X32748586Y17933014D01*
X32706776Y17895119D01*
X32661453Y17861505D01*
X32613053Y17832495D01*
X32562043Y17808369D01*
X32508914Y17789359D01*
X32454177Y17775648D01*
X32398360Y17767369D01*
X32342000Y17764600D01*
X31192000Y17764600D01*
X31135640Y17767369D01*
X31079823Y17775648D01*
X31025086Y17789359D01*
X30971957Y17808369D01*
X30920947Y17832495D01*
X30872547Y17861505D01*
X30827224Y17895119D01*
X30785414Y17933014D01*
X30747519Y17974824D01*
X30713905Y18020147D01*
X30684895Y18068547D01*
X30660769Y18119557D01*
X30641759Y18172686D01*
X30628048Y18227423D01*
X30619769Y18283240D01*
X30617000Y18339600D01*
X30617000Y19489600D01*
X30619769Y19545960D01*
X30628048Y19601777D01*
X30641759Y19656514D01*
X30660769Y19709643D01*
X30684895Y19760653D01*
X30713905Y19809053D01*
X30747519Y19854376D01*
X30785414Y19896186D01*
X30827224Y19934081D01*
X30872547Y19967695D01*
X30920947Y19996705D01*
X30971957Y20020831D01*
X31025086Y20039841D01*
X31079823Y20053552D01*
X31135640Y20061831D01*
X31192000Y20064600D01*
X32342000Y20064600D01*
X32398360Y20061831D01*
X32398360Y20061831D01*
G37*
D16*
G04 #@! TD*
G04 #@! TO.P,XA1,MISO*
G04 #@! TO.N,Net-(XA1-PadMISO)*
X31767000Y18914600D03*
D17*
G04 #@! TO.N,GND*
X9017000Y13944600D03*
X56261000Y35610800D03*
X54914800Y42164000D03*
X60375800Y8991600D03*
G04 #@! TO.N,+12V*
X31877000Y12674600D03*
G04 #@! TO.N,Net-(M1-Pad4)*
X52197000Y7594600D03*
G04 #@! TO.N,Net-(R1-Pad2)*
X57277000Y15214600D03*
G04 #@! TO.N,/5V*
X76327000Y25374600D03*
X25527000Y21564600D03*
X72542400Y41706800D03*
G04 #@! TO.N,Net-(R2-Pad2)*
X31877000Y24104600D03*
G04 #@! TO.N,Net-(U1-Pad3)*
X59740800Y39624000D03*
X63982600Y23727000D03*
G04 #@! TO.N,/7S_IO*
X68290544Y39505555D03*
X39700200Y11201400D03*
X32893000Y9169400D03*
G04 #@! TO.N,/7S_CLK*
X70789800Y39928800D03*
G04 #@! TO.N,Net-(R6-Pad1)*
X57353200Y6858000D03*
G04 #@! TD*
D18*
G04 #@! TO.N,GND*
X31216999Y11299599D02*
X31111998Y11404600D01*
X31111998Y11404600D02*
X16637000Y11404600D01*
X34302001Y11299599D02*
X31216999Y11299599D01*
X41927000Y3674600D02*
X34302001Y11299599D01*
X16637000Y11404600D02*
X16637000Y13944600D01*
X36847000Y15003000D02*
X36847000Y18914600D01*
X34302001Y11299599D02*
X34302001Y12458001D01*
X34302001Y12458001D02*
X36847000Y15003000D01*
X56261000Y40817800D02*
X55914799Y41164001D01*
X56261000Y35610800D02*
X56261000Y40817800D01*
X55914799Y41164001D02*
X54914800Y42164000D01*
X58961587Y8991600D02*
X58478987Y9474200D01*
X60375800Y8991600D02*
X58961587Y8991600D01*
X46482000Y8229600D02*
X41927000Y3674600D01*
X46939200Y8229600D02*
X48183800Y9474200D01*
X46482000Y8229600D02*
X46939200Y8229600D01*
X58478987Y9474200D02*
X48183800Y9474200D01*
G04 #@! TO.N,+12V*
X34264600Y18872200D02*
X34307000Y18914600D01*
X31877000Y12674600D02*
X32181800Y12674600D01*
X34264600Y14757400D02*
X34264600Y18872200D01*
X32181800Y12674600D02*
X34264600Y14757400D01*
G04 #@! TO.N,Net-(M1-Pad4)*
X52197000Y3784600D02*
X52087000Y3674600D01*
X52197000Y7594600D02*
X52197000Y3784600D01*
G04 #@! TO.N,Net-(R1-Pad2)*
X59707000Y17644600D02*
X59707000Y18914600D01*
X57277000Y15214600D02*
X59707000Y17644600D01*
G04 #@! TO.N,/5V*
X76327000Y25374600D02*
X76327000Y29184600D01*
X26162000Y20929600D02*
X25527000Y21564600D01*
X41927000Y18914600D02*
X39912000Y20929600D01*
X39912000Y20929600D02*
X26162000Y20929600D01*
X76327000Y25374600D02*
X72542400Y29159200D01*
X72542400Y40292587D02*
X72542400Y41706800D01*
X72542400Y29159200D02*
X72542400Y40292587D01*
G04 #@! TO.N,Net-(R2-Pad2)*
X62247000Y18914600D02*
X62247000Y20404600D01*
X62247000Y20404600D02*
X61087000Y21564600D01*
X61087000Y21564600D02*
X34417000Y21564600D01*
X34417000Y21564600D02*
X31877000Y24104600D01*
G04 #@! TO.N,Net-(U1-Pad3)*
X59740800Y39624000D02*
X63982600Y35382200D01*
X63982600Y35382200D02*
X63982600Y23727000D01*
G04 #@! TO.N,/7S_IO*
X67290545Y38505556D02*
X67290545Y24860655D01*
X68290544Y39505555D02*
X67290545Y38505556D01*
X71523999Y20627201D02*
X71523999Y15643999D01*
X67290545Y24860655D02*
X71523999Y20627201D01*
X69719599Y13839599D02*
X69719599Y13737999D01*
X71523999Y15643999D02*
X69719599Y13839599D01*
X69719599Y13737999D02*
X67208400Y11226800D01*
X67208400Y11226800D02*
X39725600Y11226800D01*
X39725600Y11226800D02*
X39700200Y11201400D01*
X29227000Y6917613D02*
X29227000Y3674600D01*
X32893000Y9169400D02*
X31478787Y9169400D01*
X31478787Y9169400D02*
X29227000Y6917613D01*
G04 #@! TO.N,/7S_CLK*
X29227000Y17441400D02*
X29227000Y18914600D01*
X26136600Y16611600D02*
X28397200Y16611600D01*
X23825200Y18923000D02*
X26136600Y16611600D01*
X23825200Y22529800D02*
X23825200Y18923000D01*
X28397200Y16611600D02*
X29227000Y17441400D01*
X69719599Y40999001D02*
X58855201Y40999001D01*
X58242200Y40386000D02*
X58242200Y28803600D01*
X58242200Y28803600D02*
X56388000Y26949400D01*
X56388000Y26949400D02*
X28244800Y26949400D01*
X28244800Y26949400D02*
X23825200Y22529800D01*
X70789800Y39928800D02*
X69719599Y40999001D01*
X58855201Y40999001D02*
X58242200Y40386000D01*
G04 #@! TO.N,Net-(R6-Pad1)*
X57353200Y3860800D02*
X57167000Y3674600D01*
X57353200Y6858000D02*
X57353200Y3860800D01*
G04 #@! TD*
D19*
G04 #@! TO.N,GND*
G36*
X8689560Y35784600D02*
X8738843Y35536835D01*
X8879191Y35326791D01*
X9089235Y35186443D01*
X9337000Y35137160D01*
X13537000Y35137160D01*
X13784765Y35186443D01*
X13994809Y35326791D01*
X14135157Y35536835D01*
X14184440Y35784600D01*
X14184440Y37947600D01*
X40804739Y37947600D01*
X40939026Y37746626D01*
X41270729Y37524989D01*
X41662000Y37447160D01*
X42412000Y37447160D01*
X42803271Y37524989D01*
X43134974Y37746626D01*
X43269261Y37947600D01*
X43344739Y37947600D01*
X43479026Y37746626D01*
X43810729Y37524989D01*
X44202000Y37447160D01*
X44952000Y37447160D01*
X45343271Y37524989D01*
X45674974Y37746626D01*
X45809261Y37947600D01*
X45884739Y37947600D01*
X46019026Y37746626D01*
X46350729Y37524989D01*
X46742000Y37447160D01*
X47492000Y37447160D01*
X47883271Y37524989D01*
X48214974Y37746626D01*
X48349261Y37947600D01*
X48424739Y37947600D01*
X48559026Y37746626D01*
X48890729Y37524989D01*
X49282000Y37447160D01*
X50032000Y37447160D01*
X50423271Y37524989D01*
X50754974Y37746626D01*
X50889261Y37947600D01*
X50964739Y37947600D01*
X51099026Y37746626D01*
X51430729Y37524989D01*
X51822000Y37447160D01*
X52572000Y37447160D01*
X52963271Y37524989D01*
X53294974Y37746626D01*
X53429261Y37947600D01*
X53504739Y37947600D01*
X53639026Y37746626D01*
X53970729Y37524989D01*
X54362000Y37447160D01*
X55112000Y37447160D01*
X55503271Y37524989D01*
X55834974Y37746626D01*
X55969261Y37947600D01*
X57150000Y37947600D01*
X57150000Y29311600D01*
X30607000Y29311600D01*
X30536553Y29290270D01*
X28259626Y27772319D01*
X28244799Y27775268D01*
X28165026Y27759400D01*
X27928754Y27712403D01*
X27660823Y27533377D01*
X27615634Y27465747D01*
X27247365Y27097478D01*
X22916553Y24210270D01*
X22881477Y24175268D01*
X22862466Y24129507D01*
X22860000Y24104600D01*
X22860000Y11531600D01*
X18522000Y11531600D01*
X18522000Y11531602D01*
X18363252Y11531602D01*
X18522000Y11690350D01*
X18522000Y12630909D01*
X18425327Y12864298D01*
X18246699Y13042927D01*
X18013310Y13139600D01*
X16922750Y13139600D01*
X16764000Y12980850D01*
X16764000Y11531600D01*
X16510000Y11531600D01*
X16510000Y12980850D01*
X16351250Y13139600D01*
X15260690Y13139600D01*
X15027301Y13042927D01*
X14848673Y12864298D01*
X14752000Y12630909D01*
X14752000Y11690350D01*
X14910748Y11531602D01*
X14752000Y11531602D01*
X14752000Y11531600D01*
X6604000Y11531600D01*
X6604000Y27584600D01*
X8689560Y27584600D01*
X8689560Y24584600D01*
X8738843Y24336835D01*
X8879191Y24126791D01*
X9089235Y23986443D01*
X9337000Y23937160D01*
X13537000Y23937160D01*
X13784765Y23986443D01*
X13994809Y24126791D01*
X14135157Y24336835D01*
X14184440Y24584600D01*
X14184440Y27584600D01*
X14135157Y27832365D01*
X13994809Y28042409D01*
X13784765Y28182757D01*
X13537000Y28232040D01*
X9337000Y28232040D01*
X9089235Y28182757D01*
X8879191Y28042409D01*
X8738843Y27832365D01*
X8689560Y27584600D01*
X6604000Y27584600D01*
X6604000Y29460094D01*
X17052000Y29460094D01*
X17052000Y28909106D01*
X17262853Y28400060D01*
X17652460Y28010453D01*
X18161506Y27799600D01*
X18712494Y27799600D01*
X19221540Y28010453D01*
X19611147Y28400060D01*
X19822000Y28909106D01*
X19822000Y29460094D01*
X19611147Y29969140D01*
X19221540Y30358747D01*
X18712494Y30569600D01*
X18161506Y30569600D01*
X17652460Y30358747D01*
X17262853Y29969140D01*
X17052000Y29460094D01*
X6604000Y29460094D01*
X6604000Y34460094D01*
X17052000Y34460094D01*
X17052000Y33909106D01*
X17262853Y33400060D01*
X17652460Y33010453D01*
X18161506Y32799600D01*
X18712494Y32799600D01*
X19221540Y33010453D01*
X19611147Y33400060D01*
X19822000Y33909106D01*
X19822000Y34460094D01*
X19611147Y34969140D01*
X19221540Y35358747D01*
X18712494Y35569600D01*
X18161506Y35569600D01*
X17652460Y35358747D01*
X17262853Y34969140D01*
X17052000Y34460094D01*
X6604000Y34460094D01*
X6604000Y37947600D01*
X8689560Y37947600D01*
X8689560Y35784600D01*
X8689560Y35784600D01*
G37*
X8689560Y35784600D02*
X8738843Y35536835D01*
X8879191Y35326791D01*
X9089235Y35186443D01*
X9337000Y35137160D01*
X13537000Y35137160D01*
X13784765Y35186443D01*
X13994809Y35326791D01*
X14135157Y35536835D01*
X14184440Y35784600D01*
X14184440Y37947600D01*
X40804739Y37947600D01*
X40939026Y37746626D01*
X41270729Y37524989D01*
X41662000Y37447160D01*
X42412000Y37447160D01*
X42803271Y37524989D01*
X43134974Y37746626D01*
X43269261Y37947600D01*
X43344739Y37947600D01*
X43479026Y37746626D01*
X43810729Y37524989D01*
X44202000Y37447160D01*
X44952000Y37447160D01*
X45343271Y37524989D01*
X45674974Y37746626D01*
X45809261Y37947600D01*
X45884739Y37947600D01*
X46019026Y37746626D01*
X46350729Y37524989D01*
X46742000Y37447160D01*
X47492000Y37447160D01*
X47883271Y37524989D01*
X48214974Y37746626D01*
X48349261Y37947600D01*
X48424739Y37947600D01*
X48559026Y37746626D01*
X48890729Y37524989D01*
X49282000Y37447160D01*
X50032000Y37447160D01*
X50423271Y37524989D01*
X50754974Y37746626D01*
X50889261Y37947600D01*
X50964739Y37947600D01*
X51099026Y37746626D01*
X51430729Y37524989D01*
X51822000Y37447160D01*
X52572000Y37447160D01*
X52963271Y37524989D01*
X53294974Y37746626D01*
X53429261Y37947600D01*
X53504739Y37947600D01*
X53639026Y37746626D01*
X53970729Y37524989D01*
X54362000Y37447160D01*
X55112000Y37447160D01*
X55503271Y37524989D01*
X55834974Y37746626D01*
X55969261Y37947600D01*
X57150000Y37947600D01*
X57150000Y29311600D01*
X30607000Y29311600D01*
X30536553Y29290270D01*
X28259626Y27772319D01*
X28244799Y27775268D01*
X28165026Y27759400D01*
X27928754Y27712403D01*
X27660823Y27533377D01*
X27615634Y27465747D01*
X27247365Y27097478D01*
X22916553Y24210270D01*
X22881477Y24175268D01*
X22862466Y24129507D01*
X22860000Y24104600D01*
X22860000Y11531600D01*
X18522000Y11531600D01*
X18522000Y11531602D01*
X18363252Y11531602D01*
X18522000Y11690350D01*
X18522000Y12630909D01*
X18425327Y12864298D01*
X18246699Y13042927D01*
X18013310Y13139600D01*
X16922750Y13139600D01*
X16764000Y12980850D01*
X16764000Y11531600D01*
X16510000Y11531600D01*
X16510000Y12980850D01*
X16351250Y13139600D01*
X15260690Y13139600D01*
X15027301Y13042927D01*
X14848673Y12864298D01*
X14752000Y12630909D01*
X14752000Y11690350D01*
X14910748Y11531602D01*
X14752000Y11531602D01*
X14752000Y11531600D01*
X6604000Y11531600D01*
X6604000Y27584600D01*
X8689560Y27584600D01*
X8689560Y24584600D01*
X8738843Y24336835D01*
X8879191Y24126791D01*
X9089235Y23986443D01*
X9337000Y23937160D01*
X13537000Y23937160D01*
X13784765Y23986443D01*
X13994809Y24126791D01*
X14135157Y24336835D01*
X14184440Y24584600D01*
X14184440Y27584600D01*
X14135157Y27832365D01*
X13994809Y28042409D01*
X13784765Y28182757D01*
X13537000Y28232040D01*
X9337000Y28232040D01*
X9089235Y28182757D01*
X8879191Y28042409D01*
X8738843Y27832365D01*
X8689560Y27584600D01*
X6604000Y27584600D01*
X6604000Y29460094D01*
X17052000Y29460094D01*
X17052000Y28909106D01*
X17262853Y28400060D01*
X17652460Y28010453D01*
X18161506Y27799600D01*
X18712494Y27799600D01*
X19221540Y28010453D01*
X19611147Y28400060D01*
X19822000Y28909106D01*
X19822000Y29460094D01*
X19611147Y29969140D01*
X19221540Y30358747D01*
X18712494Y30569600D01*
X18161506Y30569600D01*
X17652460Y30358747D01*
X17262853Y29969140D01*
X17052000Y29460094D01*
X6604000Y29460094D01*
X6604000Y34460094D01*
X17052000Y34460094D01*
X17052000Y33909106D01*
X17262853Y33400060D01*
X17652460Y33010453D01*
X18161506Y32799600D01*
X18712494Y32799600D01*
X19221540Y33010453D01*
X19611147Y33400060D01*
X19822000Y33909106D01*
X19822000Y34460094D01*
X19611147Y34969140D01*
X19221540Y35358747D01*
X18712494Y35569600D01*
X18161506Y35569600D01*
X17652460Y35358747D01*
X17262853Y34969140D01*
X17052000Y34460094D01*
X6604000Y34460094D01*
X6604000Y37947600D01*
X8689560Y37947600D01*
X8689560Y35784600D01*
G04 #@! TD*
M02*
